<svg xmlns="http://www.w3.org/2000/svg" width="57" height="27" viewBox="0 0 57 27">
    <g fill="none" fill-rule="evenodd">
        <path fill="#343B52" d="M17.32 17.834l-2.999 1.922V11.48l-5.665 3.99-5.666-3.99v8.262L0 17.825V5.707l8.644 6.088a.02.02 0 0 0 .023 0l8.644-6.088.008 12.127z"/>
        <path fill="#00CAFC" d="M8.66 27L.003 21.384 0 17.78l8.66 5.597 8.66-5.597-.009 3.604zM14.689 7.585L8.666 3.592l-6.06 4L.001 5.76 8.67.003l8.612 5.756z"/>
        <path fill="#343B52" d="M25.957 17.038c.862 0 1.571-.3 2.127-.898.555-.599.833-1.373.833-2.322 0-.935-.274-1.701-.822-2.3-.548-.6-1.26-.898-2.138-.899-.877 0-1.59.3-2.137.899-.548.599-.822 1.365-.822 2.3 0 .95.277 1.723.833 2.322.555.6 1.264.899 2.126.898zm-.833 2.717a4.931 4.931 0 0 1-2.641-.723 5.016 5.016 0 0 1-1.853-2.07c-.453-.898-.68-1.932-.68-3.1a6.583 6.583 0 0 1 .67-2.969 5.506 5.506 0 0 1 1.895-2.169 4.854 4.854 0 0 1 2.762-.821 4.53 4.53 0 0 1 2.072.47c.605.3 1.116.758 1.48 1.326l.044-1.446h2.915v11.151h-2.915l-.044-1.424a3.64 3.64 0 0 1-1.513 1.326 5.049 5.049 0 0 1-2.192.449zM38.366 19.756a9.567 9.567 0 0 1-2.412-.296c-.76-.197-1.345-.456-1.754-.778l.373-2.476a7.002 7.002 0 0 0 3.661 1.118c1.242 0 1.863-.314 1.863-.942a.864.864 0 0 0-.394-.767c-.263-.175-.811-.38-1.645-.614-1.315-.364-2.254-.828-2.817-1.39-.562-.563-.844-1.319-.844-2.269 0-1.066.402-1.906 1.206-2.52.804-.613 1.907-.92 3.31-.92.695.001 1.386.082 2.061.241a5.928 5.928 0 0 1 1.688.636l-.35 2.41a6.21 6.21 0 0 0-1.568-.624 6.77 6.77 0 0 0-1.699-.23c-1.067 0-1.6.284-1.6.854a.877.877 0 0 0 .383.756c.256.183.764.383 1.524.602 1.403.41 2.393.892 2.97 1.447.578.555.866 1.322.866 2.3 0 1.081-.427 1.929-1.282 2.542-.855.613-2.035.92-3.54.92M51.169 17.087c.862 0 1.57-.301 2.126-.903.555-.602.833-1.38.833-2.335 0-.94-.274-1.71-.822-2.312-.548-.602-1.26-.903-2.137-.903s-1.59.3-2.138.903c-.548.602-.822 1.373-.822 2.312 0 .955.278 1.733.833 2.335.555.602 1.264.903 2.127.903zm2.784 6.62v-5.563c-.775 1.116-1.98 1.674-3.617 1.674a4.912 4.912 0 0 1-2.642-.727 5.034 5.034 0 0 1-1.852-2.081c-.454-.903-.68-1.942-.68-3.117a6.647 6.647 0 0 1 .669-2.984 5.525 5.525 0 0 1 1.896-2.18 4.836 4.836 0 0 1 2.762-.826 4.508 4.508 0 0 1 2.072.473c.604.301 1.116.762 1.48 1.333l.043-1.454H57v15.452h-3.047z"/>
    </g>
</svg>
