<svg xmlns="http://www.w3.org/2000/svg" viewBox="0 0 105 49">
    <g fill="none" fill-rule="evenodd">
        <path fill="#FFF" d="M31.904 32.366l-5.523 3.488v-15.02l-10.437 7.24-10.436-7.24V35.83L0 32.349V10.358l15.924 11.047a.037.037 0 0 0 .041 0L31.89 10.358l.015 22.008z"/>
        <path fill="#00CAFC" d="M15.952 49L.006 38.809 0 32.269l15.952 10.156 15.952-10.157-.015 6.54zM27.058 13.766L15.964 6.52l-11.165 7.26-4.796-3.327L15.97.005l15.865 10.447z"/>
        <path fill="#FFF" d="M47.816 30.922c1.588 0 2.894-.544 3.917-1.63 1.023-1.087 1.534-2.492 1.535-4.215 0-1.696-.505-3.088-1.515-4.175-1.01-1.086-2.322-1.63-3.937-1.63-1.615 0-2.928.543-3.938 1.63-1.01 1.087-1.514 2.48-1.514 4.175 0 1.723.512 3.128 1.535 4.214 1.023 1.088 2.328 1.631 3.917 1.63zm-1.535 4.93a9.188 9.188 0 0 1-4.866-1.313 9.15 9.15 0 0 1-3.412-3.757c-.835-1.63-1.252-3.505-1.252-5.626a11.8 11.8 0 0 1 1.232-5.387 10.04 10.04 0 0 1 3.493-3.936 9.04 9.04 0 0 1 5.088-1.49 8.448 8.448 0 0 1 3.816.854 6.808 6.808 0 0 1 2.726 2.405l.08-2.623h5.372v20.236h-5.371l-.081-2.584a6.675 6.675 0 0 1-2.786 2.405 9.42 9.42 0 0 1-4.039.816zM70.673 35.853a17.875 17.875 0 0 1-4.442-.536c-1.4-.358-2.477-.829-3.231-1.412l.687-4.493a13.037 13.037 0 0 0 6.744 2.028c2.288 0 3.432-.57 3.432-1.71a1.561 1.561 0 0 0-.727-1.392c-.484-.318-1.494-.689-3.028-1.113-2.423-.662-4.153-1.504-5.19-2.525-1.036-1.02-1.555-2.392-1.555-4.116 0-1.935.74-3.459 2.222-4.572 1.48-1.114 3.513-1.67 6.098-1.67 1.278.001 2.552.148 3.796.437 1.09.226 2.139.615 3.11 1.153l-.647 4.374a11.54 11.54 0 0 0-2.887-1.133 12.648 12.648 0 0 0-3.13-.418c-1.965 0-2.948.517-2.948 1.551-.02.546.248 1.064.707 1.372.47.332 1.406.696 2.807 1.093 2.584.743 4.408 1.617 5.472 2.625 1.063 1.007 1.594 2.4 1.595 4.175 0 1.962-.788 3.5-2.363 4.612-1.575 1.114-3.749 1.67-6.522 1.67M94.258 31.01c1.588 0 2.894-.547 3.917-1.64 1.023-1.092 1.534-2.504 1.535-4.236 0-1.705-.505-3.104-1.514-4.197-1.01-1.092-2.323-1.638-3.938-1.639-1.615 0-2.928.546-3.937 1.639-1.01 1.093-1.514 2.492-1.514 4.197 0 1.732.511 3.144 1.534 4.237 1.023 1.093 2.328 1.639 3.917 1.639zm5.129 12.014V32.928c-1.428 2.025-3.649 3.038-6.663 3.038a9.151 9.151 0 0 1-4.867-1.32 9.183 9.183 0 0 1-3.412-3.776c-.835-1.64-1.252-3.524-1.252-5.656-.022-1.876.4-3.73 1.232-5.416a10.072 10.072 0 0 1 3.493-3.957 9.004 9.004 0 0 1 5.088-1.499 8.408 8.408 0 0 1 3.816.86 6.821 6.821 0 0 1 2.726 2.418l.081-2.638H105v28.042h-5.613z"/>
    </g>
</svg>
