<svg xmlns="http://www.w3.org/2000/svg" width="100" height="75" viewBox="0 0 100 75">
    <defs>
        <linearGradient id="a" x1="50.001%" x2="50.001%" y1="49.656%" y2="127.672%">
            <stop offset="0%" stop-color="#FFF"/>
            <stop offset="100%" stop-color="#1C1C1A"/>
        </linearGradient>
    </defs>
    <g fill="none" fill-rule="evenodd">
        <path fill="#00CAFC" d="M64 33.057L79.583 24 97 34.868 80.5 48z"/>
        <path fill="url(#a)" d="M100 31.032L82.246 19.208a1.242 1.242 0 0 0-1.374-.002L63 31.032l.3 4.342L78.408 46l6.392-.017 14.918-10.609.282-4.342z"/>
        <path fill="#00CAFC" d="M78 46h7V25h-7z"/>
        <path fill="#00CAFC" d="M94.448 33.985l-12.275-7.629a1.19 1.19 0 0 0-1.243-.001L68.575 34 63 30.32l17.872-11.126c.417-.26.958-.259 1.374.002L100 30.32l-5.552 3.665z"/>
        <path fill="#FFFAFA" d="M28.964 21.879a.31.31 0 0 0 .448-.001l1.432-1.504 2.897-3.042c.554-.581 1.182-1.122 1.678-1.76a4.605 4.605 0 0 0 .996-2.86c0-2.529-2.034-4.577-4.544-4.577a4.505 4.505 0 0 0-2.711.903 4.504 4.504 0 0 0-2.71-.903c-2.51 0-4.545 2.048-4.545 4.575 0 1.054.382 2.07 1.034 2.889.345.433.77.811 1.153 1.211l2.764 2.876 2.108 2.193z"/>
        <path fill="#2C3B51" d="M26.45 8.7c-2.196 0-3.983 1.799-3.984 4.01a4.1 4.1 0 0 0 .912 2.535c.216.271.47.523.739.79.125.123.254.251.38.382l4.69 4.88 4.149-4.356c.19-.2.39-.397.584-.587.385-.378.75-.735 1.057-1.131.08-.104.155-.208.221-.309.43-.655.655-1.416.655-2.203 0-2.212-1.786-4.011-3.982-4.011-.863 0-1.685.274-2.375.791a.559.559 0 0 1-.671 0 3.932 3.932 0 0 0-2.376-.791zm2.737 13.84a.874.874 0 0 1-.627-.268l-4.87-5.069c-.116-.12-.235-.238-.361-.362a10.35 10.35 0 0 1-.828-.889c-.747-.937-1.158-2.09-1.158-3.242 0-2.835 2.292-5.141 5.106-5.141.97 0 1.9.27 2.711.784a5.036 5.036 0 0 1 2.71-.784c2.816 0 5.107 2.307 5.107 5.142a5.144 5.144 0 0 1-1.115 3.209c-.355.455-.763.856-1.158 1.244-.195.192-.38.373-.558.56l-4.328 4.545a.874.874 0 0 1-.629.27h-.002z"/>
        <path fill="#FFFAFA" d="M55.712 1.052h-4.245v7.334a3.477 3.477 0 0 0-1.847-.529c-1.94 0-3.512 1.583-3.512 3.537 0 1.953 1.572 3.536 3.512 3.536 1.83 0 3.333-1.41 3.496-3.21h.016V2.87h2.58V1.053z"/>
        <path fill="#252A39" d="M50.181 8.178c-1.627 0-2.95 1.333-2.95 2.971 0 1.638 1.323 2.971 2.95 2.971a2.942 2.942 0 0 0 2.938-2.696.517.517 0 0 1 .012-.08V2.627c0-.313.252-.566.562-.566h2.02v-.689h-3.124v6.769c0 .206-.11.395-.288.494a.559.559 0 0 1-.569-.013 2.927 2.927 0 0 0-1.55-.444m0 7.073c-2.247 0-4.074-1.84-4.074-4.102 0-2.262 1.827-4.102 4.073-4.102.44 0 .873.071 1.285.21V.806c0-.312.252-.566.562-.566h4.245c.31 0 .563.254.563.566v1.82a.564.564 0 0 1-.563.565h-2.018v8.284a.575.575 0 0 1-.033.191 4.097 4.097 0 0 1-1.288 2.505 4.043 4.043 0 0 1-2.753 1.079"/>
        <path fill="#FFFAFA" d="M70.93 24c-1.672 0-3.026-1.364-3.026-3.047s1.354-3.047 3.025-3.047c1.671 0 3.026 1.364 3.026 3.047S72.6 24 70.929 24m0-8.945c-3.293 0-5.963 2.688-5.963 6.005 0 1.817.802 3.445 2.07 4.546l3.893 3.92 3.894-3.92a6.006 6.006 0 0 0 2.07-4.546c0-3.317-2.67-6.005-5.964-6.005"/>
        <path fill="#2C3B51" d="M70.93 18.472a2.475 2.475 0 0 0-2.465 2.481 2.475 2.475 0 0 0 2.464 2.48 2.475 2.475 0 0 0 2.464-2.48 2.475 2.475 0 0 0-2.464-2.481m0 6.093c-1.978 0-3.587-1.62-3.587-3.612s1.61-3.612 3.587-3.612c1.978 0 3.587 1.62 3.587 3.612s-1.609 3.612-3.587 3.612m0-8.945c-2.978 0-5.402 2.44-5.402 5.44a5.454 5.454 0 0 0 1.905 4.146l3.497 3.521 3.497-3.52.03-.03a5.452 5.452 0 0 0 1.875-4.117c0-3-2.423-5.44-5.402-5.44m0 14.473a.558.558 0 0 1-.397-.166l-3.88-3.907a6.586 6.586 0 0 1-2.248-4.96c0-3.623 2.927-6.57 6.525-6.57 3.598 0 6.525 2.947 6.525 6.57 0 1.903-.819 3.71-2.248 4.96l-3.88 3.907a.557.557 0 0 1-.397.166"/>
        <path fill="#FFFAFA" d="M90.098 42.796a4.095 4.095 0 0 1-5.765 0 4.034 4.034 0 0 1 0-5.73 4.095 4.095 0 0 1 5.765 0 4.034 4.034 0 0 1 0 5.73m6.716 4.758L92.8 43.541a6.567 6.567 0 0 0-10.185-8.169 6.568 6.568 0 0 0 8.293 10.107l3.99 3.99c.345.345 1.058.197 1.586-.33.526-.527.674-1.24.329-1.585"/>
        <path fill="#2C3B51" d="M87.216 36.69c-.836 0-1.67.276-2.307.83-.616.535-.955 1.247-.955 2.005 0 .758.34 1.47.955 2.006.616.536 1.435.831 2.307.831.871 0 1.69-.295 2.307-.831 1.272-1.106 1.272-2.906 0-4.012-.636-.553-1.472-.83-2.307-.83zm0 8.103c-1.09 0-2.113-.464-2.883-1.306-.77-.842-1.195-1.96-1.195-3.152 0-1.19.425-2.31 1.195-3.152 1.59-1.738 4.177-1.738 5.767 0 1.59 1.738 1.59 4.566 0 6.304-.77.842-1.794 1.306-2.884 1.306zM95.2 48.84c.079.025.374-.024.664-.298.29-.274.342-.553.315-.628l-3.914-3.699a.572.572 0 0 1-.085-.741 5.258 5.258 0 0 0 .872-3.502 5.36 5.36 0 0 0-1.663-3.3c-1.094-1.033-2.547-1.602-4.093-1.602-1.546 0-2.999.569-4.092 1.602-1.093 1.033-1.695 2.407-1.695 3.867 0 1.461.602 2.835 1.694 3.868 1.95 1.841 5.022 2.127 7.308.68a.659.659 0 0 1 .796.075l3.893 3.678zm-.282.816c-.338 0-.65-.119-.884-.364l-3.364-3.532c-2.587 1.54-5.887 1.093-8.019-1.145-1.263-1.325-1.958-3.087-1.958-4.96 0-1.874.696-3.636 1.959-4.961 1.262-1.325 2.94-2.055 4.725-2.055 1.786 0 3.464.73 4.726 2.055a7.174 7.174 0 0 1 1.921 4.234 7.354 7.354 0 0 1-.763 4.053l3.393 3.56c.562.592.428 1.658-.306 2.429-.43.45-.955.686-1.43.686z"/>
        <path fill="#FFFAFA" d="M41.776 42.955c1.004 0 1.824.826 1.824 1.838 0 1.011-.82 1.837-1.824 1.837a1.835 1.835 0 0 1-1.825-1.837c0-1.012.82-1.838 1.825-1.838zm-.738-4.418a1.09 1.09 0 0 0-1.087 1.094v.704l-.505-.508a1.08 1.08 0 0 0-1.534 0l-1.049 1.056a1.122 1.122 0 0 0 0 1.564l.506.508h-.719a1.09 1.09 0 0 0-1.087 1.095v1.486a1.09 1.09 0 0 0 1.087 1.094h.7l-.487.49a1.121 1.121 0 0 0 0 1.563l1.049 1.055a1.08 1.08 0 0 0 1.534 0l.505-.508v.724a1.09 1.09 0 0 0 1.087 1.094h1.475a1.09 1.09 0 0 0 1.087-1.094v-.724l.505.508a1.08 1.08 0 0 0 1.534 0l1.048-1.055a1.121 1.121 0 0 0 0-1.564l-.485-.489h.699a1.09 1.09 0 0 0 1.087-1.094V44.05a1.09 1.09 0 0 0-1.087-1.095h-.719l.505-.508a1.122 1.122 0 0 0 0-1.564l-1.048-1.056a1.08 1.08 0 0 0-1.534 0l-.505.508v-.704a1.09 1.09 0 0 0-1.087-1.094h-1.475z"/>
        <path fill="#2C3B51" d="M41.776 43.52a1.27 1.27 0 0 0-1.264 1.272c0 .702.567 1.273 1.264 1.273.696 0 1.263-.57 1.263-1.273a1.27 1.27 0 0 0-1.263-1.272m0 3.676a2.397 2.397 0 0 1-2.387-2.404 2.397 2.397 0 0 1 2.387-2.402 2.398 2.398 0 0 1 2.386 2.402 2.398 2.398 0 0 1-2.386 2.404m-1.825 1.47a.56.56 0 0 1 .561.565v.723c0 .292.236.53.526.53h1.475c.29 0 .526-.238.526-.53v-.723c0-.23.136-.436.347-.523a.56.56 0 0 1 .611.122l.505.51a.522.522 0 0 0 .74 0l1.048-1.057a.538.538 0 0 0 .153-.382.537.537 0 0 0-.153-.382l-.486-.49a.568.568 0 0 1 .398-.964h.699c.29 0 .526-.237.526-.53V44.05a.528.528 0 0 0-.526-.53h-.719a.568.568 0 0 1-.397-.965l.505-.508a.55.55 0 0 0 0-.765l-1.048-1.055a.52.52 0 0 0-.74 0l-.505.508a.56.56 0 0 1-.958-.4v-.703a.528.528 0 0 0-.526-.53h-1.475a.528.528 0 0 0-.526.53v.703a.56.56 0 1 1-.96.4l-.503-.508a.522.522 0 0 0-.74 0l-1.048 1.055a.55.55 0 0 0 0 .765l.505.508c.16.162.208.405.121.616a.561.561 0 0 1-.518.35h-.719a.528.528 0 0 0-.526.529v1.486c0 .292.236.529.526.529h.7a.567.567 0 0 1 .397.965l-.486.489a.536.536 0 0 0-.153.382c0 .147.054.283.152.382l1.05 1.056a.522.522 0 0 0 .739 0l.504-.509a.561.561 0 0 1 .398-.165m2.562 2.95h-1.475a1.653 1.653 0 0 1-1.58-1.188 1.641 1.641 0 0 1-1.943-.288l-1.049-1.056a1.664 1.664 0 0 1-.482-1.182c0-.276.065-.54.187-.777a1.662 1.662 0 0 1-1.17-1.588V44.05c0-.751.498-1.387 1.178-1.591a1.684 1.684 0 0 1 .287-1.976l1.049-1.056a1.641 1.641 0 0 1 1.947-.286 1.653 1.653 0 0 1 1.576-1.17h1.475c.74 0 1.367.494 1.576 1.17a1.64 1.64 0 0 1 1.947.286l1.049 1.056c.53.534.625 1.342.287 1.976.68.204 1.177.84 1.177 1.59v1.487c0 .748-.493 1.381-1.17 1.588.123.236.187.5.187.777 0 .45-.17.869-.481 1.182l-1.05 1.056a1.64 1.64 0 0 1-1.941.288 1.654 1.654 0 0 1-1.58 1.187"/>
        <path fill="#FFFAFA" d="M8.02 25.386l2.005 3.957 4.483.634a.26.26 0 0 1 .149.447l-3.244 3.08.766 4.349c.037.213-.193.376-.39.275l-4.01-2.053-4.01 2.053c-.197.101-.428-.062-.39-.275l.766-4.35L.9 30.423a.26.26 0 0 1 .15-.446l4.483-.634 2.005-3.957a.272.272 0 0 1 .482 0"/>
        <path fill="#2C3B51" d="M7.779 35.547a.55.55 0 0 1 .252.06l3.52 1.803-.673-3.817a.522.522 0 0 1 .156-.468l2.848-2.703-3.935-.557a.54.54 0 0 1-.409-.289l-1.76-3.473-1.76 3.473a.539.539 0 0 1-.408.289l-3.935.557 2.848 2.703a.522.522 0 0 1 .156.468l-.672 3.817 3.52-1.802a.55.55 0 0 1 .252-.06zm4.135 3.14a.829.829 0 0 1-.378-.091L7.78 36.67 4.02 38.596a.825.825 0 0 1-.854-.06.777.777 0 0 1-.322-.773l.717-4.075-3.04-2.886a.77.77 0 0 1-.205-.81.802.802 0 0 1 .655-.537l4.201-.595 1.879-3.708a.808.808 0 0 1 .727-.44c.31 0 .59.169.726.44l1.88 3.708 4.2.595a.8.8 0 0 1 .655.537.77.77 0 0 1-.205.81l-3.04 2.886.718 4.075a.775.775 0 0 1-.323.773.825.825 0 0 1-.476.151z"/>
        <path fill="#E0E1E6" d="M64.93 37l15.338 10.733L97 37l-.465 25.667L78.873 72 64 61.733z"/>
        <path fill="#FFF" d="M78 69h7V47h-7z"/>
        <path fill="#FFF" d="M100 55.897L93.595 60V42.327l-11.53 8.116a.996.996 0 0 1-1.147 0l-11.53-8.116V59.97L63 55.876V30l17.894 12.595c.359.252.836.252 1.195 0L99.983 30 100 55.897z"/>
        <path fill="#00CAFC" d="M80.766 74.787l-17.759-11.26L63 56l17.84 11.271c.403.254.917.254 1.32 0L100 56l-.017 7.526-17.749 11.261a1.372 1.372 0 0 1-1.468 0"/>
    </g>
</svg>
