<svg xmlns="http://www.w3.org/2000/svg" width="124" height="66" viewBox="0 0 124 66">
    <g fill="none" fill-rule="evenodd">
        <path fill="#FFF" d="M37.677 39.14l-6.522 4.218V25.195L18.83 33.95 6.504 25.195v18.133L0 39.119V12.526l18.805 13.359c.015.01.034.01.049 0l18.806-13.36.017 26.615z"/>
        <path fill="#00CAFC" d="M18.839 59.255L.007 46.931 0 39.021l18.839 12.284 18.838-12.283-.017 7.91zM31.954 16.647L18.852 7.883l-13.184 8.78L.004 12.64 18.86.006 37.595 12.64z"/>
        <path fill="#FFF" d="M56.468 37.393c1.876 0 3.418-.657 4.626-1.971 1.208-1.314 1.812-3.013 1.812-5.096 0-2.051-.595-3.734-1.788-5.049-1.192-1.314-2.742-1.97-4.65-1.971-1.907 0-3.457.657-4.65 1.971-1.192 1.315-1.788 2.998-1.788 5.049 0 2.083.604 3.782 1.813 5.096 1.207 1.315 2.75 1.972 4.625 1.971zm-1.812 5.962a10.657 10.657 0 0 1-5.747-1.587 10.976 10.976 0 0 1-4.03-4.543c-.985-1.971-1.478-4.24-1.478-6.804a14.553 14.553 0 0 1 1.455-6.514 12.053 12.053 0 0 1 4.125-4.76 10.494 10.494 0 0 1 6.009-1.803 9.783 9.783 0 0 1 4.507 1.034 8.104 8.104 0 0 1 3.219 2.909l.095-3.174h6.343v24.473H62.81l-.095-3.125a7.94 7.94 0 0 1-3.291 2.908 10.901 10.901 0 0 1-4.77.986zM83.462 43.357a20.64 20.64 0 0 1-5.247-.649c-1.653-.433-2.925-1.002-3.815-1.707l.81-5.434a15.138 15.138 0 0 0 7.966 2.453c2.702 0 4.053-.69 4.053-2.068a1.901 1.901 0 0 0-.858-1.683c-.572-.384-1.765-.833-3.577-1.346-2.862-.8-4.905-1.819-6.128-3.054-1.225-1.233-1.837-2.892-1.837-4.976 0-2.34.875-4.184 2.623-5.53 1.748-1.347 4.15-2.02 7.202-2.02 1.51.002 3.014.18 4.483.529 1.287.273 2.526.743 3.673 1.394l-.764 5.29a13.44 13.44 0 0 0-3.41-1.37 14.607 14.607 0 0 0-3.696-.505c-2.32 0-3.482.625-3.482 1.875a1.93 1.93 0 0 0 .835 1.659c.556.401 1.66.842 3.315 1.322 3.052.898 5.206 1.956 6.462 3.174 1.256 1.219 1.884 2.902 1.884 5.049 0 2.373-.93 4.232-2.79 5.578-1.86 1.346-4.427 2.02-7.702 2.02M111.314 37.5c1.876 0 3.418-.66 4.626-1.982 1.208-1.321 1.812-3.029 1.812-5.124 0-2.061-.595-3.753-1.788-5.075-1.192-1.32-2.742-1.981-4.65-1.982-1.907 0-3.457.66-4.65 1.982-1.192 1.322-1.788 3.014-1.788 5.075 0 2.095.604 3.803 1.812 5.124 1.208 1.322 2.75 1.982 4.626 1.982zm6.057 14.53V39.82c-1.686 2.449-4.308 3.673-7.869 3.673a10.615 10.615 0 0 1-5.747-1.595 11.016 11.016 0 0 1-4.03-4.568c-.985-1.981-1.478-4.261-1.478-6.839a14.694 14.694 0 0 1 1.455-6.55 12.094 12.094 0 0 1 4.125-4.785 10.454 10.454 0 0 1 6.009-1.812 9.737 9.737 0 0 1 4.507 1.04 8.121 8.121 0 0 1 3.219 2.923l.095-3.19H124V52.03h-6.629z"/>
        <path fill="#00CAFC" d="M124 63.146v.019a.18.18 0 0 1-.109.153c-.177.08-.362.141-.551.18a3.946 3.946 0 0 1-.868.093c-.718 0-1.251-.188-1.599-.564-.348-.376-.521-.951-.52-1.727v-2.476h-.966a.179.179 0 0 1-.156-.178v-.98c0-.099.078-.18.175-.18h.948v-1.432a.177.177 0 0 1 .175-.17h1.227c.09 0 .166.07.174.162v1.442h1.628c.093 0 .17.076.175.171v.998a.177.177 0 0 1-.16.169l-1.643-.001-.001 2.185c-.027.31.045.62.203.884a.816.816 0 0 0 .692.268 2.13 2.13 0 0 0 .833-.164.171.171 0 0 1 .045-.006c.087.001.16.068.171.156h.002l.123.98.002.018zm-27.947-1.31l.496.962.243.472c.015.03.023.064.023.099 0 .12-.094.216-.21.216h-1.284c-.07.01-.143 0-.209-.029-.086-.051-.127-.183-.17-.27l-.838-1.709a.23.23 0 0 1-.008-.156.319.319 0 0 1 .11-.14c1.08-.983 1.303-2.629.526-3.878a2.919 2.919 0 0 0-2.21-1.38 2.825 2.825 0 0 0-1.508.275 3.01 3.01 0 0 0-1.655 2.328c-.215 1.65.91 3.168 2.513 3.39a2.877 2.877 0 0 0 .993-.038.3.3 0 0 1 .161-.008c.056.02.102.062.127.118.099.198.194.397.291.596l.159.325a.335.335 0 0 1 .057.267c-.043.123-.164.144-.273.171-.13.033-.261.059-.393.08-.24.034-.482.055-.724.063a4.125 4.125 0 0 1-.755-.05 4.512 4.512 0 0 1-.778-.184 4.246 4.246 0 0 1-2.288-1.804 4.585 4.585 0 0 1-.58-1.434 5.224 5.224 0 0 1-.091-1.587c.049-.531.188-1.05.412-1.531.222-.48.526-.913.897-1.28a4.356 4.356 0 0 1 2.761-1.265 4.975 4.975 0 0 1 1.511.106c.467.107.915.29 1.326.543.384.237.73.535 1.023.884.322.38.578.814.758 1.283.192.512.294 1.055.303 1.604a4.73 4.73 0 0 1-.202 1.507 4.566 4.566 0 0 1-.444.999c-.056.095-.151.195-.131.315a.51.51 0 0 0 .061.14zm7.686-.532l1.033-3.85a.176.176 0 0 1 .166-.123l1.242.001v.001a.174.174 0 0 1 .167.223l-1.806 5.452a.173.173 0 0 1-.157.101h-1.178a.174.174 0 0 1-.158-.103l-1.264-3.712-1.215 3.72-.002.003a.172.172 0 0 1-.152.09H99.26a.174.174 0 0 1-.16-.106l-1.809-5.499c0-.096.078-.173.174-.174h1.287a.175.175 0 0 1 .141.102l1.024 3.861 1.19-3.855a.177.177 0 0 1 .16-.106h1.07c.068 0 .13.04.158.101l1.243 3.873zm6.914-2.025a1.487 1.487 0 0 0-1.153-.515 1.444 1.444 0 0 0-1.12.474 1.84 1.84 0 0 0-.426 1.355 1.698 1.698 0 0 0 .462 1.119c.615.604 1.598.59 2.196-.03.566-.694.583-1.69.04-2.403zm.35-1l.02-.61v-.006a.178.178 0 0 1 .174-.148h1.18c.098.001.177.08.177.179l-.003 5.536c0 .098-.079.177-.176.177h-1.18a.177.177 0 0 1-.175-.151l-.018-.602c-.234.359-.576.631-.975.779-.31.11-.637.163-.965.158a2.558 2.558 0 0 1-1.383-.383 2.637 2.637 0 0 1-.969-1.093 3.557 3.557 0 0 1-.356-1.639 3.513 3.513 0 0 1 .351-1.568c.224-.465.567-.86.994-1.146.427-.29.931-.44 1.446-.433.376-.005.747.08 1.084.249.316.158.584.4.775.7zm3.992-.624l.01.546c.158-.276.395-.5.68-.644a2.203 2.203 0 0 1 1.023-.225 1.897 1.897 0 0 1 1.522.611c.35.408.524.996.524 1.766l-.002 3.232a.169.169 0 0 1-.169.168h-1.206a.174.174 0 0 1-.163-.116l.001-2.998c.002-.873-.334-1.31-1.005-1.31a1.05 1.05 0 0 0-.858.368c-.22.301-.329.67-.305 1.04l-.001 2.9a.172.172 0 0 1-.162.115h-1.207a.17.17 0 0 1-.17-.17l.003-5.261a.17.17 0 0 1 .17-.17h1.148v.001a.17.17 0 0 1 .167.147z"/>
        <path fill="#FFF" d="M75.546 62.16c.424.015.833-.157 1.12-.472a1.926 1.926 0 0 0-.007-2.434 1.548 1.548 0 0 0-2.196-.03l-.03.03a1.925 1.925 0 0 0-.006 2.434c.286.315.695.488 1.119.473zm.356 1.43c-.38.007-.756-.078-1.097-.247a1.861 1.861 0 0 1-.763-.698l-.015.51a.26.26 0 0 1-.259.251h-1.017a.26.26 0 0 1-.259-.26v-8.448a.26.26 0 0 1 .259-.26h1.078a.26.26 0 0 1 .26.26v3.53c.42-.585 1.051-.877 1.893-.877a2.57 2.57 0 0 1 1.384.38c.419.265.755.643.97 1.09.245.509.367 1.068.356 1.633a3.478 3.478 0 0 1-.35 1.563 2.9 2.9 0 0 1-.994 1.141 2.536 2.536 0 0 1-1.446.433zm5.112-.763l-2.185-4.985c-.06-.138 0-.3.136-.362a.265.265 0 0 1 .11-.024h1.08c.11 0 .209.068.25.172l1.397 3.533 1.333-3.53a.269.269 0 0 1 .25-.175h1.056c.148 0 .268.123.268.274a.28.28 0 0 1-.023.112l-3.501 7.996a.268.268 0 0 1-.245.162h-.997a.271.271 0 0 1-.269-.274.28.28 0 0 1 .027-.12l1.313-2.779z"/>
    </g>
</svg>
