<svg xmlns="http://www.w3.org/2000/svg" width="94" height="48" viewBox="0 0 94 48">
    <g fill="none" fill-rule="evenodd">
        <path fill="#FFF" d="M28.236 29.103l-4.888 3.136V18.734l-9.237 6.51-9.236-6.51v13.482L0 29.087V9.313l14.093 9.934c.011.007.026.007.036 0l14.094-9.934.013 19.79z"/>
        <path fill="#00CAFC" d="M14.118 44.06L.006 34.896 0 29.015l14.118 9.133 14.118-9.133-.013 5.881zM23.947 12.378l-9.819-6.517-9.88 6.53L.003 9.397 14.134.004l14.04 9.394z"/>
        <path fill="#FFF" d="M42.318 27.804c1.406 0 2.562-.489 3.467-1.466.905-.977 1.358-2.24 1.358-3.79 0-1.524-.446-2.776-1.34-3.753-.893-.977-2.055-1.466-3.485-1.466-1.43 0-2.59.489-3.484 1.466-.894.977-1.34 2.229-1.34 3.754 0 1.55.452 2.812 1.358 3.79.905.977 2.06 1.465 3.466 1.465zm-1.358 4.433a8.034 8.034 0 0 1-4.306-1.18 8.182 8.182 0 0 1-3.02-3.378c-.74-1.466-1.109-3.152-1.109-5.059a10.75 10.75 0 0 1 1.09-4.844 8.983 8.983 0 0 1 3.092-3.54 7.909 7.909 0 0 1 4.503-1.34 7.379 7.379 0 0 1 3.378.769A6.057 6.057 0 0 1 47 15.828l.072-2.36h4.753v18.197h-4.753L47 29.34a5.935 5.935 0 0 1-2.466 2.163 8.225 8.225 0 0 1-3.574.733zM62.548 32.239a15.583 15.583 0 0 1-3.932-.483c-1.239-.322-2.192-.745-2.86-1.27l.608-4.04a11.408 11.408 0 0 0 5.97 1.824c2.024 0 3.037-.513 3.037-1.538a1.41 1.41 0 0 0-.643-1.251c-.43-.286-1.323-.62-2.68-1.001-2.145-.595-3.676-1.352-4.594-2.27-.917-.918-1.376-2.151-1.376-3.7 0-1.74.656-3.111 1.966-4.113 1.31-1 3.11-1.501 5.397-1.501 1.132 0 2.259.133 3.36.393a9.658 9.658 0 0 1 2.752 1.037l-.572 3.933a10.119 10.119 0 0 0-2.555-1.02 11.028 11.028 0 0 0-2.77-.375c-1.74 0-2.61.465-2.61 1.395-.017.491.22.957.626 1.233.416.298 1.244.626 2.484.983 2.288.668 3.902 1.455 4.843 2.36.94.906 1.411 2.158 1.412 3.754 0 1.765-.697 3.147-2.091 4.148-1.394 1.001-3.318 1.502-5.772 1.502M83.42 27.883c1.407 0 2.562-.491 3.468-1.474.905-.982 1.358-2.252 1.358-3.81 0-1.532-.447-2.79-1.34-3.773-.894-.982-2.056-1.473-3.485-1.473-1.43 0-2.591.49-3.485 1.473-.893.983-1.34 2.24-1.34 3.774 0 1.557.453 2.827 1.358 3.81.905.982 2.06 1.473 3.467 1.473zm4.54 10.804v-9.079c-1.263 1.821-3.229 2.732-5.897 2.732a8.002 8.002 0 0 1-4.307-1.187 8.212 8.212 0 0 1-3.02-3.396c-.739-1.473-1.108-3.168-1.108-5.085a10.855 10.855 0 0 1 1.09-4.87 9.013 9.013 0 0 1 3.092-3.558 7.878 7.878 0 0 1 4.503-1.348 7.344 7.344 0 0 1 3.377.773 6.07 6.07 0 0 1 2.413 2.174l.071-2.372h4.754v25.216H87.96z"/>
        <path fill="#00CAFC" fill-rule="nonzero" d="M64.527 48c-.367 0-.55-.064-.55-.193a.93.93 0 0 1 .04-.165l2.258-6.264c.04-.123.21-.184.51-.184h.44c.292 0 .462.061.509.184l2.258 6.264c.02.065.03.12.03.165 0 .129-.16.193-.48.193h-.31c-.293 0-.462-.061-.51-.184l-.459-1.324h-2.557l-.46 1.324c-.047.123-.193.184-.44.184h-.28zm3.357-2.59l-.73-2.128a3.427 3.427 0 0 1-.14-.6h-.04c-.006.04-.023.123-.05.252-.026.13-.06.245-.1.348l-.749 2.127h1.809zm3.377 2.57c-.127 0-.22-.028-.28-.086-.06-.058-.09-.149-.09-.271v-6.149c0-.187.176-.28.53-.28h.25c.186 0 .32.023.404.068a.225.225 0 0 1 .125.212v5.424h2.368c.093 0 .16.034.2.101.04.068.06.173.06.315v.251c0 .142-.02.246-.06.314-.04.068-.107.102-.2.102H71.26zm4.915.02c-.186 0-.321-.023-.404-.068a.225.225 0 0 1-.125-.212V41.57c0-.122.028-.213.085-.27.056-.059.148-.088.274-.088h2.078c.613 0 1.153.142 1.619.426.466.283.7.821.7 1.614 0 .554-.136.986-.405 1.296-.27.309-.573.517-.91.623-.336.107-.637.16-.904.16h-1.229v2.388c0 .187-.176.28-.53.28h-.249zm1.898-3.76c.26 0 .49-.073.69-.218.2-.145.3-.401.3-.769 0-.354-.104-.602-.31-.744a1.257 1.257 0 0 0-.73-.213h-1.069v1.943h1.12zM81.951 48c-.353 0-.53-.093-.53-.28v-6.246c0-.187.177-.28.53-.28h.26c.353 0 .53.093.53.28v2.504h3.016v-2.504c0-.187.177-.28.53-.28h.26c.353 0 .53.093.53.28v6.246c0 .187-.177.28-.53.28h-.26c-.353 0-.53-.093-.53-.28v-2.65H82.74v2.65c0 .187-.176.28-.53.28h-.26zm6.554 0c-.366 0-.55-.064-.55-.193a.93.93 0 0 1 .04-.165l2.258-6.264c.04-.123.21-.184.51-.184h.44c.293 0 .462.061.51.184l2.257 6.264c.02.065.03.12.03.165 0 .129-.16.193-.48.193h-.31c-.292 0-.462-.061-.509-.184l-.46-1.324h-2.557l-.46 1.324c-.046.123-.193.184-.44.184h-.279zm3.357-2.59l-.73-2.128a3.427 3.427 0 0 1-.14-.6h-.04c-.006.04-.023.123-.05.252-.026.13-.06.245-.1.348l-.748 2.127h1.808z"/>
    </g>
</svg>
