<?xml version="1.0" encoding="UTF-8" standalone="yes"?>
<svg xmlns="http://www.w3.org/2000/svg" xmlns:xlink="http://www.w3.org/1999/xlink" width="22" height="31" viewBox="0 0 22 31">
  <defs>
    <ellipse id="5g4mnr6yib" cx="10" cy="29" rx="4" ry="2"/>
    <filter id="or8n4twdga" width="262.5%" height="425%" x="-81.2%" y="-137.5%" filterUnits="objectBoundingBox">
      <feOffset dy="1" in="SourceAlpha" result="shadowOffsetOuter1"/>
      <feOffset in="SourceAlpha" result="shadowOffsetOuter2"/>
      <feGaussianBlur in="shadowOffsetOuter1" result="shadowBlurOuter1" stdDeviation="2"/>
      <feGaussianBlur in="shadowOffsetOuter2" result="shadowBlurOuter2" stdDeviation="1"/>
      <feColorMatrix in="shadowBlurOuter1" result="shadowMatrixOuter1" values="0 0 0 0 0.0470588235 0 0 0 0 0.0470588235 0 0 0 0 0.0549019608 0 0 0 0.2 0"/>
      <feColorMatrix in="shadowBlurOuter2" result="shadowMatrixOuter2" values="0 0 0 0 0.0470588235 0 0 0 0 0.0470588235 0 0 0 0 0.0549019608 0 0 0 0.12 0"/>
      <feMerge>
        <feMergeNode in="shadowMatrixOuter1"/>
        <feMergeNode in="shadowMatrixOuter2"/>
      </feMerge>
    </filter>
  </defs>
  <g fill="none" fill-rule="evenodd" transform="translate(1 1)">
    <path fill="#a125be" stroke="#811E98" d="M10 28c.552 0 1-.448 1-1 0-3.495 2.039-6.457 4.27-8.5C18 16 20 13.59 20 10c0-5.523-4.477-10-10-10S0 4.477 0 10c0 3.59 2 6 4.73 8.5C6.962 20.544 9 23.506 9 27c0 .552.448 1 1 1z"/>
  </g>
  <g transform="translate(-0.5 -0.5)">
    <g fill="#fff" transform="translate(6 6)">
      <path d="M6.5,10H6V8.9496C7.0402,8.8331,7.9799,8.3841,8.682,7.682L8.1504,7.1504C7.4713,7.8294,6.5339,8.25,5.5,8.25&#xA;&#x9;&#x9;&#x9;c-2.0677,0-3.75-1.6823-3.75-3.75c0-1.0339,0.4206-1.9713,1.0996-2.6504L2.318,1.318C1.5037,2.1323,1,3.2573,1,4.5&#xA;&#x9;&#x9;&#x9;c0,2.314,1.7532,4.1979,4,4.4496V10H4.5C4.2239,10,4,10.2238,4,10.5C4,10.7761,4.2239,11,4.5,11h2C6.7761,11,7,10.7761,7,10.5&#xA;&#x9;&#x9;&#x9;C7,10.2238,6.7761,10,6.5,10z"/>
      <path d="M5.5,7C6.8807,7,8,5.8807,8,4.5C8,3.1193,6.8807,2,5.5,2S3,3.1193,3,4.5C3,5.8807,4.1193,7,5.5,7z M4.9549,2.5847&#xA;&#x9;&#x9;&#x9;l0.4928,0.6168v0.8362l0.6129,1.1115h1.3224C7.2133,5.6406,6.8611,6.0414,6.4035,6.275L5.5,5.5h-1L3.5323,4.1791&#xA;&#x9;&#x9;&#x9;C3.6572,3.4099,4.2178,2.7946,4.9549,2.5847z"/>
    </g>
  </g>
</svg>