<?xml version="1.0" encoding="UTF-8" standalone="yes"?>
<svg xmlns="http://www.w3.org/2000/svg" xmlns:xlink="http://www.w3.org/1999/xlink" width="22" height="31" viewBox="0 0 22 31">
  <defs>
    <ellipse id="5g4mnr6yib" cx="10" cy="29" rx="4" ry="2"/>
    <filter id="or8n4twdga" width="262.5%" height="425%" x="-81.2%" y="-137.5%" filterUnits="objectBoundingBox">
      <feOffset dy="1" in="SourceAlpha" result="shadowOffsetOuter1"/>
      <feOffset in="SourceAlpha" result="shadowOffsetOuter2"/>
      <feGaussianBlur in="shadowOffsetOuter1" result="shadowBlurOuter1" stdDeviation="2"/>
      <feGaussianBlur in="shadowOffsetOuter2" result="shadowBlurOuter2" stdDeviation="1"/>
      <feColorMatrix in="shadowBlurOuter1" result="shadowMatrixOuter1" values="0 0 0 0 0.0470588235 0 0 0 0 0.0470588235 0 0 0 0 0.0549019608 0 0 0 0.2 0"/>
      <feColorMatrix in="shadowBlurOuter2" result="shadowMatrixOuter2" values="0 0 0 0 0.0470588235 0 0 0 0 0.0470588235 0 0 0 0 0.0549019608 0 0 0 0.12 0"/>
      <feMerge>
        <feMergeNode in="shadowMatrixOuter1"/>
        <feMergeNode in="shadowMatrixOuter2"/>
      </feMerge>
    </filter>
  </defs>
  <g fill="none" fill-rule="evenodd" transform="translate(1 1)">
    <path fill="#a125be" stroke="#811E98" d="M10 28c.552 0 1-.448 1-1 0-3.495 2.039-6.457 4.27-8.5C18 16 20 13.59 20 10c0-5.523-4.477-10-10-10S0 4.477 0 10c0 3.59 2 6 4.73 8.5C6.962 20.544 9 23.506 9 27c0 .552.448 1 1 1z"/>
  </g>
  <g transform="translate(-0.5 -0.5)">
    <g id="convenience-store-11" fill="#fff" transform="translate(6 6)">
      <path d="M8.8211,4.2685h-.62c-.1554-.6-.28-1.0651-.2826-1.0734l-.0111-.05c0-.0011-.12-.5479-.41-.5479H3.519c-.2889,0-.4091.5468-.41.5523-.008.0333-.136.5119-.293,1.1185h-.62c.1756-.6809.3228-1.2291.3228-1.2291s.1875-1.0417,1-1.0417h.4963a.4932.4932,0,0,1,.4829-.4153h2a.4932.4932,0,0,1,.4829.4153h.5171c.8125,0,1,1.0417,1,1.0417S8.6454,3.5876,8.8211,4.2685ZM2.9189,9.9954a.4945.4945,0,0,1-.4828-.368c-.23-.8736-.8-3.0538-.9379-3.63a.5.5,0,1,1,0-1h8a.5.5,0,0,1,0,1c-.1375.5763-.7156,2.7587-.9487,3.6313a.4948.4948,0,0,1-.4825.3665Zm1.094-3.2968a.5129.5129,0,0,0-1.0235,0V8.51a.5129.5129,0,0,0,1.0235,0Zm1.9971,0a.5129.5129,0,0,0-1.0235,0V8.51a.5129.5129,0,0,0,1.0235,0Zm2.0058,0a.5129.5129,0,0,0-1.0236,0V8.51a.5129.5129,0,0,0,1.0236,0Z"/>
    </g>
  </g>
</svg>