<?xml version="1.0" encoding="UTF-8" standalone="yes"?>
<svg xmlns="http://www.w3.org/2000/svg" xmlns:xlink="http://www.w3.org/1999/xlink" width="22" height="31" viewBox="0 0 22 31">
  <defs>
    <ellipse id="5g4mnr6yib" cx="10" cy="29" rx="4" ry="2"/>
    <filter id="or8n4twdga" width="262.5%" height="425%" x="-81.2%" y="-137.5%" filterUnits="objectBoundingBox">
      <feOffset dy="1" in="SourceAlpha" result="shadowOffsetOuter1"/>
      <feOffset in="SourceAlpha" result="shadowOffsetOuter2"/>
      <feGaussianBlur in="shadowOffsetOuter1" result="shadowBlurOuter1" stdDeviation="2"/>
      <feGaussianBlur in="shadowOffsetOuter2" result="shadowBlurOuter2" stdDeviation="1"/>
      <feColorMatrix in="shadowBlurOuter1" result="shadowMatrixOuter1" values="0 0 0 0 0.0470588235 0 0 0 0 0.0470588235 0 0 0 0 0.0549019608 0 0 0 0.2 0"/>
      <feColorMatrix in="shadowBlurOuter2" result="shadowMatrixOuter2" values="0 0 0 0 0.0470588235 0 0 0 0 0.0470588235 0 0 0 0 0.0549019608 0 0 0 0.12 0"/>
      <feMerge>
        <feMergeNode in="shadowMatrixOuter1"/>
        <feMergeNode in="shadowMatrixOuter2"/>
      </feMerge>
    </filter>
  </defs>
  <g fill="none" fill-rule="evenodd" transform="translate(1 1)">
    <path fill="#5C6F84" stroke="#4A596A" d="M10 28c.552 0 1-.448 1-1 0-3.495 2.039-6.457 4.27-8.5C18 16 20 13.59 20 10c0-5.523-4.477-10-10-10S0 4.477 0 10c0 3.59 2 6 4.73 8.5C6.962 20.544 9 23.506 9 27c0 .552.448 1 1 1z"/>
  </g>
  <g transform="translate(-0.5 -0.5)">
    <path fill="#fff" transform="translate(6 6)" d="M9,1.25C8.9996,1.9404,8.4397,2.4997,7.7494,2.4994S6.4996,1.9391,6.5,1.2487C6.5004,0.5584,7.0603-0.001,7.7506-0.0006&#xA;&#x9;C7.7638-0.0006,7.7769-0.0004,7.79,0C8.4647,0.0216,9.0003,0.575,9,1.25z M9,8.48c-0.5523,0-1,0.4477-1,1s0.4477,1,1,1s1-0.4477,1-1&#xA;&#x9;S9.5523,8.48,9,8.48z M10.81,5.09L8.94,3.18l0,0C8.8477,3.0648,8.7076,2.9984,8.56,3H1.51c-0.2761,0-0.5,0.2239-0.5,0.5&#xA;&#x9;S1.2339,4,1.51,4H5L2.07,8.3l0,0c-0.0138,0.066-0.0138,0.134,0,0.2C2.012,8.7761,2.1889,9.047,2.465,9.105&#xA;&#x9;C2.7411,9.163,3.012,8.9861,3.07,8.71H3L4.16,7H6l-1.93,3.24l0,0C4.0228,10.3184,3.9986,10.4085,4,10.5&#xA;&#x9;c-0.0552,0.2761,0.1239,0.5448,0.4,0.6c0.2761,0.0552,0.5448-0.1239,0.6-0.4l0,0l3.67-6.38l1.48,1.48&#xA;&#x9;c0.1812,0.2084,0.497,0.2305,0.7054,0.0493c0.2084-0.1812,0.2305-0.497,0.0493-0.7054C10.8879,5.1246,10.8696,5.1065,10.85,5.09&#xA;&#x9;L10.81,5.09z"/>
  </g>
</svg>