<?xml version="1.0" encoding="UTF-8" standalone="yes"?>
<svg xmlns="http://www.w3.org/2000/svg" xmlns:xlink="http://www.w3.org/1999/xlink" width="22" height="31" viewBox="0 0 22 31">
  <defs>
    <ellipse id="5g4mnr6yib" cx="10" cy="29" rx="4" ry="2"/>
    <filter id="or8n4twdga" width="262.5%" height="425%" x="-81.2%" y="-137.5%" filterUnits="objectBoundingBox">
      <feOffset dy="1" in="SourceAlpha" result="shadowOffsetOuter1"/>
      <feOffset in="SourceAlpha" result="shadowOffsetOuter2"/>
      <feGaussianBlur in="shadowOffsetOuter1" result="shadowBlurOuter1" stdDeviation="2"/>
      <feGaussianBlur in="shadowOffsetOuter2" result="shadowBlurOuter2" stdDeviation="1"/>
      <feColorMatrix in="shadowBlurOuter1" result="shadowMatrixOuter1" values="0 0 0 0 0.0470588235 0 0 0 0 0.0470588235 0 0 0 0 0.0549019608 0 0 0 0.2 0"/>
      <feColorMatrix in="shadowBlurOuter2" result="shadowMatrixOuter2" values="0 0 0 0 0.0470588235 0 0 0 0 0.0470588235 0 0 0 0 0.0549019608 0 0 0 0.12 0"/>
      <feMerge>
        <feMergeNode in="shadowMatrixOuter1"/>
        <feMergeNode in="shadowMatrixOuter2"/>
      </feMerge>
    </filter>
  </defs>
  <g fill="none" fill-rule="evenodd" transform="translate(1 1)">
    <path fill="#a125be" stroke="#811E98" d="M10 28c.552 0 1-.448 1-1 0-3.495 2.039-6.457 4.27-8.5C18 16 20 13.59 20 10c0-5.523-4.477-10-10-10S0 4.477 0 10c0 3.59 2 6 4.73 8.5C6.962 20.544 9 23.506 9 27c0 .552.448 1 1 1z"/>
  </g>
  <g transform="translate(-0.5 -0.5)">
    <path fill="#fff" transform="translate(6 6)" d="M10,2H9V1.3631C9,1.1625,8.8374,1,8.6369,1H1.3631C1.1626,1,1,1.1625,1,1.3631v2.2737C1,3.8374,1.1626,4,1.3631,4h7.2738&#xA;&#x9;C8.8374,4,9,3.8374,9,3.6368V3h0.5v2.0176L4.8965,5.9917C4.665,6.0405,4.5,6.2446,4.5,6.481v1.0959H4.459&#xA;&#x9;C4.2055,7.5769,4,7.7824,4,8.0359v2.0051C4,10.2945,4.2055,10.5,4.459,10.5h1.082C5.7945,10.5,6,10.2945,6,10.041V8.0359&#xA;&#x9;c0-0.2535-0.2055-0.459-0.459-0.459H5.5V6.8862l4.6035-0.9741C10.335,5.8633,10.5,5.6592,10.5,5.4229V2.5&#xA;&#x9;C10.5,2.2236,10.2764,2,10,2z"/>
  </g>
</svg>