<?xml version="1.0" encoding="UTF-8" standalone="yes"?>
<svg xmlns="http://www.w3.org/2000/svg" xmlns:xlink="http://www.w3.org/1999/xlink" width="22" height="31" viewBox="0 0 22 31">
  <defs>
    <ellipse id="5g4mnr6yib" cx="10" cy="29" rx="4" ry="2"/>
    <filter id="or8n4twdga" width="262.5%" height="425%" x="-81.2%" y="-137.5%" filterUnits="objectBoundingBox">
      <feOffset dy="1" in="SourceAlpha" result="shadowOffsetOuter1"/>
      <feOffset in="SourceAlpha" result="shadowOffsetOuter2"/>
      <feGaussianBlur in="shadowOffsetOuter1" result="shadowBlurOuter1" stdDeviation="2"/>
      <feGaussianBlur in="shadowOffsetOuter2" result="shadowBlurOuter2" stdDeviation="1"/>
      <feColorMatrix in="shadowBlurOuter1" result="shadowMatrixOuter1" values="0 0 0 0 0.0470588235 0 0 0 0 0.0470588235 0 0 0 0 0.0549019608 0 0 0 0.2 0"/>
      <feColorMatrix in="shadowBlurOuter2" result="shadowMatrixOuter2" values="0 0 0 0 0.0470588235 0 0 0 0 0.0470588235 0 0 0 0 0.0549019608 0 0 0 0.12 0"/>
      <feMerge>
        <feMergeNode in="shadowMatrixOuter1"/>
        <feMergeNode in="shadowMatrixOuter2"/>
      </feMerge>
    </filter>
  </defs>
  <g fill="none" fill-rule="evenodd" transform="translate(1 1)">
    <path fill="#5C6F84" stroke="#4A596A" d="M10 28c.552 0 1-.448 1-1 0-3.495 2.039-6.457 4.27-8.5C18 16 20 13.59 20 10c0-5.523-4.477-10-10-10S0 4.477 0 10c0 3.59 2 6 4.73 8.5C6.962 20.544 9 23.506 9 27c0 .552.448 1 1 1z"/>
  </g>
  <g transform="translate(-0.5 -0.5)">
    <path fill="#fff" transform="translate(6 6)" d="M3.33,2.19c-0.6075,0-1.1-0.4925-1.1-1.1s0.4925-1.1,1.1-1.1s1.1,0.4925,1.1,1.1v0C4.43,1.6975,3.9375,2.19,3.33,2.19z&#xA;&#x9; M10.27,1.09c0-0.6075-0.4925-1.1-1.1-1.1c-0.6075,0-1.1,0.4925-1.1,1.1s0.4925,1.1,1.1,1.1c0.6036,0,1.0945-0.4864,1.1-1.09V1.09z&#xA;&#x9; M6.51,4.93L6.51,4.93L4.7,3.12l0,0C4.6306,3.0442,4.5328,3.0008,4.43,3H2.22C2.1271,3.0008,2.0378,3.0365,1.97,3.1H2L0.14,4.93&#xA;&#x9;c-0.1709,0.1218-0.2107,0.3591-0.0889,0.53s0.3591,0.2107,0.53,0.0889C0.6155,5.5244,0.6455,5.4944,0.67,5.46l1.58-1.58L0.77,8h1.46&#xA;&#x9;v2.51c-0.0055,0.0365-0.0055,0.0735,0,0.11c0.0339,0.2071,0.2293,0.3475,0.4364,0.3136C2.8274,10.9072,2.9536,10.781,2.98,10.62H3V8&#xA;&#x9;h0.69v2.63l0,0c0.0339,0.2071,0.2293,0.3475,0.4364,0.3136C4.2874,10.9172,4.4136,10.791,4.44,10.63&#xA;&#x9;c0.0055-0.0365,0.0055-0.0735,0-0.11V8h1.44L4.41,3.88L6,5.46l0,0c0.0718,0.0783,0.1738,0.1221,0.28,0.12&#xA;&#x9;c0.2099,0,0.38-0.1701,0.38-0.38l0,0C6.6518,5.0924,6.597,4.9938,6.51,4.93z M8.62,7v3.63&#xA;&#x9;c-0.0335,0.2016,0.1028,0.3921,0.3044,0.4256c0.2016,0.0335,0.3921-0.1028,0.4256-0.3044c0.0067-0.0401,0.0067-0.0811,0-0.1212V7H11&#xA;&#x9;V3.37C11,3.1657,10.8343,3,10.63,3H7.71C7.5057,3,7.34,3.1657,7.34,3.37V7H8.62z"/>
  </g>
</svg>