<?xml version="1.0" encoding="UTF-8" standalone="yes"?>
<svg xmlns="http://www.w3.org/2000/svg" xmlns:xlink="http://www.w3.org/1999/xlink" width="22" height="31" viewBox="0 0 22 31">
  <defs>
    <ellipse id="5g4mnr6yib" cx="10" cy="29" rx="4" ry="2"/>
    <filter id="or8n4twdga" width="262.5%" height="425%" x="-81.2%" y="-137.5%" filterUnits="objectBoundingBox">
      <feOffset dy="1" in="SourceAlpha" result="shadowOffsetOuter1"/>
      <feOffset in="SourceAlpha" result="shadowOffsetOuter2"/>
      <feGaussianBlur in="shadowOffsetOuter1" result="shadowBlurOuter1" stdDeviation="2"/>
      <feGaussianBlur in="shadowOffsetOuter2" result="shadowBlurOuter2" stdDeviation="1"/>
      <feColorMatrix in="shadowBlurOuter1" result="shadowMatrixOuter1" values="0 0 0 0 0.0470588235 0 0 0 0 0.0470588235 0 0 0 0 0.0549019608 0 0 0 0.2 0"/>
      <feColorMatrix in="shadowBlurOuter2" result="shadowMatrixOuter2" values="0 0 0 0 0.0470588235 0 0 0 0 0.0470588235 0 0 0 0 0.0549019608 0 0 0 0.12 0"/>
      <feMerge>
        <feMergeNode in="shadowMatrixOuter1"/>
        <feMergeNode in="shadowMatrixOuter2"/>
      </feMerge>
    </filter>
  </defs>
  <g fill="none" fill-rule="evenodd" transform="translate(1 1)">
    <path fill="#a125be" stroke="#811E98" d="M10 28c.552 0 1-.448 1-1 0-3.495 2.039-6.457 4.27-8.5C18 16 20 13.59 20 10c0-5.523-4.477-10-10-10S0 4.477 0 10c0 3.59 2 6 4.73 8.5C6.962 20.544 9 23.506 9 27c0 .552.448 1 1 1z"/>
  </g>
  <g transform="translate(-0.5 -0.5)">
    <g fill="#fff" transform="translate(6 6)">
      <path d="M6,7.5552V6c0-0.2762-0.2239-0.5-0.5-0.5S5,5.7238,5,6v1.5552c-0.9391,0.1914-1.6886,0.9044-1.9231,1.827&#xA;&#x9;&#x9;C2.9976,9.6944,3.244,10,3.566,10H7.434c0.3221,0,0.5685-0.3056,0.4891-0.6177C7.6886,8.4596,6.9391,7.7466,6,7.5552z"/>
      <path d="M9.1348,4.2697L7.6395,1.2789C7.554,1.108,7.3793,1,7.1881,1H3.8119C3.6207,1,3.446,1.108,3.3605,1.2789L1.8652,4.2697&#xA;&#x9;&#x9;C1.6974,4.6052,1.9414,5,2.3166,5H7v0.75C7,5.8881,7.1119,6,7.25,6S7.5,5.8881,7.5,5.75V5h1.1834&#xA;&#x9;&#x9;C9.0586,5,9.3026,4.6052,9.1348,4.2697z"/>
    </g>
  </g>
</svg>