<?xml version="1.0" encoding="UTF-8" standalone="yes"?>
<svg xmlns="http://www.w3.org/2000/svg" xmlns:xlink="http://www.w3.org/1999/xlink" width="22" height="31" viewBox="0 0 22 31">
  <defs>
    <ellipse id="5g4mnr6yib" cx="10" cy="29" rx="4" ry="2"/>
    <filter id="or8n4twdga" width="262.5%" height="425%" x="-81.2%" y="-137.5%" filterUnits="objectBoundingBox">
      <feOffset dy="1" in="SourceAlpha" result="shadowOffsetOuter1"/>
      <feOffset in="SourceAlpha" result="shadowOffsetOuter2"/>
      <feGaussianBlur in="shadowOffsetOuter1" result="shadowBlurOuter1" stdDeviation="2"/>
      <feGaussianBlur in="shadowOffsetOuter2" result="shadowBlurOuter2" stdDeviation="1"/>
      <feColorMatrix in="shadowBlurOuter1" result="shadowMatrixOuter1" values="0 0 0 0 0.0470588235 0 0 0 0 0.0470588235 0 0 0 0 0.0549019608 0 0 0 0.2 0"/>
      <feColorMatrix in="shadowBlurOuter2" result="shadowMatrixOuter2" values="0 0 0 0 0.0470588235 0 0 0 0 0.0470588235 0 0 0 0 0.0549019608 0 0 0 0.12 0"/>
      <feMerge>
        <feMergeNode in="shadowMatrixOuter1"/>
        <feMergeNode in="shadowMatrixOuter2"/>
      </feMerge>
    </filter>
  </defs>
  <g fill="none" fill-rule="evenodd" transform="translate(1 1)">
    <path fill="#123295" stroke="#0E2877" d="M10 28c.552 0 1-.448 1-1 0-3.495 2.039-6.457 4.27-8.5C18 16 20 13.59 20 10c0-5.523-4.477-10-10-10S0 4.477 0 10c0 3.59 2 6 4.73 8.5C6.962 20.544 9 23.506 9 27c0 .552.448 1 1 1z"/>
  </g>
  <g transform="translate(-0.5 -0.5)">
    <path fill="#fff" transform="translate(6 6)" d="M4,0&#xA;&#x9;C3.5,0,3.5,0.5,3.5,0.5S3.5,1,4,1h1v0.9707L4,2c0,0-1,0-1,1v3c0,2,2,2,2,2h1c0,0,2,0,2-2V3c0-1-1-1-1-1H6V1h1c0.5,0,0.5-0.5,0.5-0.5&#xA;&#x9;S7.5,0,7,0H4z M5.5,3L7,3.5V5H5.5H4V3.5L5.5,3z M5.5,6C5.777,6,6,6.223,6,6.5S5.777,7,5.5,7S5,6.777,5,6.5S5.223,6,5.5,6z&#xA;&#x9; M2.834,8.5L2,11h1.5l0.334-1h3.332L7.5,11H9L8.166,8.5H6.668L6.834,9H4.166l0.166-0.5H2.834z"/>
  </g>
</svg>