<?xml version="1.0" encoding="UTF-8" standalone="yes"?>
<svg xmlns="http://www.w3.org/2000/svg" xmlns:xlink="http://www.w3.org/1999/xlink" width="22" height="31" viewBox="0 0 22 31">
  <defs>
    <ellipse id="5g4mnr6yib" cx="10" cy="29" rx="4" ry="2"/>
    <filter id="or8n4twdga" width="262.5%" height="425%" x="-81.2%" y="-137.5%" filterUnits="objectBoundingBox">
      <feOffset dy="1" in="SourceAlpha" result="shadowOffsetOuter1"/>
      <feOffset in="SourceAlpha" result="shadowOffsetOuter2"/>
      <feGaussianBlur in="shadowOffsetOuter1" result="shadowBlurOuter1" stdDeviation="2"/>
      <feGaussianBlur in="shadowOffsetOuter2" result="shadowBlurOuter2" stdDeviation="1"/>
      <feColorMatrix in="shadowBlurOuter1" result="shadowMatrixOuter1" values="0 0 0 0 0.0470588235 0 0 0 0 0.0470588235 0 0 0 0 0.0549019608 0 0 0 0.2 0"/>
      <feColorMatrix in="shadowBlurOuter2" result="shadowMatrixOuter2" values="0 0 0 0 0.0470588235 0 0 0 0 0.0470588235 0 0 0 0 0.0549019608 0 0 0 0.12 0"/>
      <feMerge>
        <feMergeNode in="shadowMatrixOuter1"/>
        <feMergeNode in="shadowMatrixOuter2"/>
      </feMerge>
    </filter>
  </defs>
  <g fill="none" fill-rule="evenodd" transform="translate(1 1)">
    <path fill="#5c6f84" stroke="#4A596A" d="M10 28c.552 0 1-.448 1-1 0-3.495 2.039-6.457 4.27-8.5C18 16 20 13.59 20 10c0-5.523-4.477-10-10-10S0 4.477 0 10c0 3.59 2 6 4.73 8.5C6.962 20.544 9 23.506 9 27c0 .552.448 1 1 1z"/>
  </g>
  <g transform="translate(-0.5 -0.5)">
    <path fill="#fff" transform="translate(6 6)" d="M11,3.68c-0.0021,0.602-0.4917,1.0883-1.0937,1.0863C9.3043,4.7642,8.818,4.2745,8.82,3.6726  c0.0021-0.602,0.4917-1.0883,1.0937-1.0863C9.9425,2.5864,9.9713,2.5876,10,2.59C10.5666,2.6369,11.0019,3.1115,11,3.68z M10.17,9  c-0.0623-0.1197-0.2083-0.1684-0.33-0.11C9.3623,9.1811,8.7807,9.247,8.25,9.07L3.69,6.81l1.9-1V3.68l1.09,0.55v2.18L7.77,7  l1.09-0.55L7.77,5.86V2.59L5.59,1.5L4.5,2v3.32l-1.9,1l-2-1C0.4757,5.2592,0.3258,5.3107,0.265,5.435  C0.2042,5.5593,0.2557,5.7092,0.38,5.77l0,0L8,9.54c0.2402,0.1011,0.4995,0.1489,0.76,0.14c0.4466-0.0082,0.8851-0.1212,1.28-0.33  c0.1286-0.0502,0.1922-0.1951,0.142-0.3238C10.1785,9.0173,10.1745,9.0085,10.17,9z"/>
  </g>
</svg>