<?xml version="1.0" encoding="UTF-8" standalone="yes"?>
<svg xmlns="http://www.w3.org/2000/svg" xmlns:xlink="http://www.w3.org/1999/xlink" width="22" height="31" viewBox="0 0 22 31">
  <defs>
    <ellipse id="5g4mnr6yib" cx="10" cy="29" rx="4" ry="2"/>
    <filter id="or8n4twdga" width="262.5%" height="425%" x="-81.2%" y="-137.5%" filterUnits="objectBoundingBox">
      <feOffset dy="1" in="SourceAlpha" result="shadowOffsetOuter1"/>
      <feOffset in="SourceAlpha" result="shadowOffsetOuter2"/>
      <feGaussianBlur in="shadowOffsetOuter1" result="shadowBlurOuter1" stdDeviation="2"/>
      <feGaussianBlur in="shadowOffsetOuter2" result="shadowBlurOuter2" stdDeviation="1"/>
      <feColorMatrix in="shadowBlurOuter1" result="shadowMatrixOuter1" values="0 0 0 0 0.0470588235 0 0 0 0 0.0470588235 0 0 0 0 0.0549019608 0 0 0 0.2 0"/>
      <feColorMatrix in="shadowBlurOuter2" result="shadowMatrixOuter2" values="0 0 0 0 0.0470588235 0 0 0 0 0.0470588235 0 0 0 0 0.0549019608 0 0 0 0.12 0"/>
      <feMerge>
        <feMergeNode in="shadowMatrixOuter1"/>
        <feMergeNode in="shadowMatrixOuter2"/>
      </feMerge>
    </filter>
  </defs>
  <g fill="none" fill-rule="evenodd" transform="translate(1 1)">
    <path fill="#a125be" stroke="#811E98" d="M10 28c.552 0 1-.448 1-1 0-3.495 2.039-6.457 4.27-8.5C18 16 20 13.59 20 10c0-5.523-4.477-10-10-10S0 4.477 0 10c0 3.59 2 6 4.73 8.5C6.962 20.544 9 23.506 9 27c0 .552.448 1 1 1z"/>
  </g>
  <g transform="translate(-0.5 -0.5)">
    <path fill="#fff" transform="translate(6 6)" d="M9.6,4H8.49L8.2,2.27C8.0832,1.7303,7.6738,1.3015,7.14,1.16C6.8794,1.0669,6.6064,1.013,6.33,1H4.67&#xA;&#x9;c-0.2721,0.0075-0.5416,0.0547-0.8,0.14C3.3269,1.2815,2.9117,1.7199,2.8,2.27L2.51,4H1.34&#xA;&#x9;C1.1357,4.0055,0.9746,4.1755,0.9801,4.3798C0.9811,4.4173,0.9878,4.4545,1,4.49l1.21,4.7l0,0C2.3454,9.6605,2.7706,9.9885,3.26,10&#xA;&#x9;h4.48C8.2331,9.9928,8.6635,9.6639,8.8,9.19l0,0l1.2-4.7c0.0682-0.1926-0.0326-0.4041-0.2252-0.4723&#xA;&#x9;C9.7188,3.9978,9.6588,3.9918,9.6,4z M3.27,4l0.27-1.61c0.061-0.2688,0.2782-0.4741,0.55-0.52c0.1846-0.0591,0.3763-0.0928,0.57-0.1&#xA;&#x9;h1.67c0.1937,0.0072,0.3854,0.0409,0.57,0.1c0.2718,0.0459,0.489,0.2512,0.55,0.52L7.73,4H3.27z"/>
  </g>
</svg>