<?xml version="1.0" encoding="UTF-8" standalone="yes"?>
<svg xmlns="http://www.w3.org/2000/svg" xmlns:xlink="http://www.w3.org/1999/xlink" width="22" height="31" viewBox="0 0 22 31">
  <defs>
    <ellipse id="5g4mnr6yib" cx="10" cy="29" rx="4" ry="2"/>
    <filter id="or8n4twdga" width="262.5%" height="425%" x="-81.2%" y="-137.5%" filterUnits="objectBoundingBox">
      <feOffset dy="1" in="SourceAlpha" result="shadowOffsetOuter1"/>
      <feOffset in="SourceAlpha" result="shadowOffsetOuter2"/>
      <feGaussianBlur in="shadowOffsetOuter1" result="shadowBlurOuter1" stdDeviation="2"/>
      <feGaussianBlur in="shadowOffsetOuter2" result="shadowBlurOuter2" stdDeviation="1"/>
      <feColorMatrix in="shadowBlurOuter1" result="shadowMatrixOuter1" values="0 0 0 0 0.0470588235 0 0 0 0 0.0470588235 0 0 0 0 0.0549019608 0 0 0 0.2 0"/>
      <feColorMatrix in="shadowBlurOuter2" result="shadowMatrixOuter2" values="0 0 0 0 0.0470588235 0 0 0 0 0.0470588235 0 0 0 0 0.0549019608 0 0 0 0.12 0"/>
      <feMerge>
        <feMergeNode in="shadowMatrixOuter1"/>
        <feMergeNode in="shadowMatrixOuter2"/>
      </feMerge>
    </filter>
  </defs>
  <g fill="none" fill-rule="evenodd" transform="translate(1 1)">
    <path fill="#6d6d76" stroke="#57575E" d="M10 28c.552 0 1-.448 1-1 0-3.495 2.039-6.457 4.27-8.5C18 16 20 13.59 20 10c0-5.523-4.477-10-10-10S0 4.477 0 10c0 3.59 2 6 4.73 8.5C6.962 20.544 9 23.506 9 27c0 .552.448 1 1 1z"/>
  </g>
  <g transform="translate(-0.5 -0.5)">
    <path fill="#fff" transform="translate(6 6)" d="M5.5,0C4.1193,0,3,1.1193,3,2.5c0.0018,1.0981,0.7217,2.0466,1.75,2.3711V9.416&#xA;&#x9;c-0.659-0.115-1.3381-0.3753-1.8926-0.8574C2.0886,7.8901,1.5,6.8297,1.5,5c0.0055-0.4226-0.3391-0.7664-0.7617-0.7598&#xA;&#x9;C0.3248,4.2467-0.0054,4.5865,0,5c0,2.1703,0.7731,3.7349,1.873,4.6914S4.3333,11,5.5,11s2.527-0.3521,3.627-1.3086S11,7.1703,11,5&#xA;&#x9;c0.0143-1.0142-1.5143-1.0142-1.5,0c0,1.8297-0.5886,2.8901-1.3574,3.5586C7.5881,9.0407,6.909,9.3011,6.25,9.416V4.875&#xA;&#x9;C7.2795,4.55,7.9999,3.5995,8,2.5C8,1.1193,6.8807,0,5.5,0z M5.5,1.5c0.5523,0,1,0.4477,1,1s-0.4477,1-1,1s-1-0.4477-1-1&#xA;&#x9;S4.9477,1.5,5.5,1.5z"/>
  </g>
</svg>