<?xml version="1.0" encoding="UTF-8" standalone="yes"?>
<svg xmlns="http://www.w3.org/2000/svg" xmlns:xlink="http://www.w3.org/1999/xlink" width="22" height="31" viewBox="0 0 22 31">
  <defs>
    <ellipse id="5g4mnr6yib" cx="10" cy="29" rx="4" ry="2"/>
    <filter id="or8n4twdga" width="262.5%" height="425%" x="-81.2%" y="-137.5%" filterUnits="objectBoundingBox">
      <feOffset dy="1" in="SourceAlpha" result="shadowOffsetOuter1"/>
      <feOffset in="SourceAlpha" result="shadowOffsetOuter2"/>
      <feGaussianBlur in="shadowOffsetOuter1" result="shadowBlurOuter1" stdDeviation="2"/>
      <feGaussianBlur in="shadowOffsetOuter2" result="shadowBlurOuter2" stdDeviation="1"/>
      <feColorMatrix in="shadowBlurOuter1" result="shadowMatrixOuter1" values="0 0 0 0 0.0470588235 0 0 0 0 0.0470588235 0 0 0 0 0.0549019608 0 0 0 0.2 0"/>
      <feColorMatrix in="shadowBlurOuter2" result="shadowMatrixOuter2" values="0 0 0 0 0.0470588235 0 0 0 0 0.0470588235 0 0 0 0 0.0549019608 0 0 0 0.12 0"/>
      <feMerge>
        <feMergeNode in="shadowMatrixOuter1"/>
        <feMergeNode in="shadowMatrixOuter2"/>
      </feMerge>
    </filter>
  </defs>
  <g fill="none" fill-rule="evenodd" transform="translate(1 1)">
    <path fill="#d76600" stroke="#AC5200" d="M10 28c.552 0 1-.448 1-1 0-3.495 2.039-6.457 4.27-8.5C18 16 20 13.59 20 10c0-5.523-4.477-10-10-10S0 4.477 0 10c0 3.59 2 6 4.73 8.5C6.962 20.544 9 23.506 9 27c0 .552.448 1 1 1z"/>
  </g>
  <g transform="translate(-0.5 -0.5)">
    <path fill="#fff" transform="translate(6 6)" d="M5.5,1c-2.3,0-3,0.66-3,0.66v2c0.0328,0.9197,0.2577,1.8223,0.66,2.65c0.376,0.9646,0.376,2.0354,0,3c0,0,0,0.66,2.32,0.66&#xA;&#x9;S7.8,9.31,7.8,9.31c-0.376-0.9646-0.376-2.0354,0-3c0.4023-0.8277,0.6272-1.7303,0.66-2.65v-2C8.46,1.66,7.8,1,5.5,1z M5.5,9.28&#xA;&#x9;C4.9736,9.3066,4.4465,9.2458,3.94,9.1c0.1326-0.4787,0.1999-0.9732,0.2-1.47h2.72c-0.0144,0.2198-0.0144,0.4402,0,0.66&#xA;&#x9;C6.8939,8.5635,6.9474,8.8342,7.02,9.1C6.5269,9.2448,6.0136,9.309,5.5,9.29V9.28z M7.82,3.28c-1.5116,0.4425-3.1184,0.4425-4.63,0&#xA;&#x9;L3.18,2c1.5151-0.4422,3.1249-0.4422,4.64,0c0,0,0.03,1.33,0,1.33L7.82,3.28z"/>
  </g>
</svg>