<?xml version="1.0" encoding="UTF-8" standalone="yes"?>
<svg xmlns="http://www.w3.org/2000/svg" xmlns:xlink="http://www.w3.org/1999/xlink" width="22" height="31" viewBox="0 0 22 31">
  <defs>
    <ellipse id="5g4mnr6yib" cx="10" cy="29" rx="4" ry="2"/>
    <filter id="or8n4twdga" width="262.5%" height="425%" x="-81.2%" y="-137.5%" filterUnits="objectBoundingBox">
      <feOffset dy="1" in="SourceAlpha" result="shadowOffsetOuter1"/>
      <feOffset in="SourceAlpha" result="shadowOffsetOuter2"/>
      <feGaussianBlur in="shadowOffsetOuter1" result="shadowBlurOuter1" stdDeviation="2"/>
      <feGaussianBlur in="shadowOffsetOuter2" result="shadowBlurOuter2" stdDeviation="1"/>
      <feColorMatrix in="shadowBlurOuter1" result="shadowMatrixOuter1" values="0 0 0 0 0.0470588235 0 0 0 0 0.0470588235 0 0 0 0 0.0549019608 0 0 0 0.2 0"/>
      <feColorMatrix in="shadowBlurOuter2" result="shadowMatrixOuter2" values="0 0 0 0 0.0470588235 0 0 0 0 0.0470588235 0 0 0 0 0.0549019608 0 0 0 0.12 0"/>
      <feMerge>
        <feMergeNode in="shadowMatrixOuter1"/>
        <feMergeNode in="shadowMatrixOuter2"/>
      </feMerge>
    </filter>
  </defs>
  <g fill="none" fill-rule="evenodd" transform="translate(1 1)">
    <path fill="#5C6F84" stroke="#4A596A" d="M10 28c.552 0 1-.448 1-1 0-3.495 2.039-6.457 4.27-8.5C18 16 20 13.59 20 10c0-5.523-4.477-10-10-10S0 4.477 0 10c0 3.59 2 6 4.73 8.5C6.962 20.544 9 23.506 9 27c0 .552.448 1 1 1z"/>
  </g>
  <g transform="translate(-0.5 -0.5)">
    <path fill="#fff" transform="translate(6 6)" d="M4.0492,0.638&#xA;&#x9;C3.5323,1.1814,4.2729,1.813,4.7284,1.3132l0.4953-0.5434l2.3326,1.3937L3.3063,4.5C3.0126,4.6615,2.9648,4.9407,3.0724,5.2212&#xA;&#x9;l0.8886,2.3165l-0.9355,2.8046C2.8974,10.7268,3.1975,10.991,3.5001,11c0.1954,0.0058,0.3919-0.093,0.4747-0.3413l0.9199-2.7636&#xA;&#x9;l0.8535-0.2832L6,8.1172V10.5c0,0,0,0.5,0.5,0.5S7,10.5,7,10.5V8.1172C7,8,6.9893,7.8618,6.9358,7.7548L5.6546,4.415l2.5528-1.4035&#xA;&#x9;c0.1868-0.0802,0.2901-0.2535,0.2901-0.5115c0-0.2259-0.2177-0.413-0.4564-0.5556L4.9047,0.0706&#xA;&#x9;c-0.1595-0.0953-0.2749-0.043-0.3226,0.0071L4.0492,0.638z M3,2.0002c-0.5523,0-1,0.4477-1,1s0.4477,1,1,1s1-0.4477,1-1&#xA;&#x9;S3.5523,2.0002,3,2.0002z"/>
  </g>
</svg>