<?xml version="1.0" encoding="UTF-8" standalone="yes"?>
<svg xmlns="http://www.w3.org/2000/svg" xmlns:xlink="http://www.w3.org/1999/xlink" width="22" height="31" viewBox="0 0 22 31">
  <defs>
    <ellipse id="5g4mnr6yib" cx="10" cy="29" rx="4" ry="2"/>
    <filter id="or8n4twdga" width="262.5%" height="425%" x="-81.2%" y="-137.5%" filterUnits="objectBoundingBox">
      <feOffset dy="1" in="SourceAlpha" result="shadowOffsetOuter1"/>
      <feOffset in="SourceAlpha" result="shadowOffsetOuter2"/>
      <feGaussianBlur in="shadowOffsetOuter1" result="shadowBlurOuter1" stdDeviation="2"/>
      <feGaussianBlur in="shadowOffsetOuter2" result="shadowBlurOuter2" stdDeviation="1"/>
      <feColorMatrix in="shadowBlurOuter1" result="shadowMatrixOuter1" values="0 0 0 0 0.0470588235 0 0 0 0 0.0470588235 0 0 0 0 0.0549019608 0 0 0 0.2 0"/>
      <feColorMatrix in="shadowBlurOuter2" result="shadowMatrixOuter2" values="0 0 0 0 0.0470588235 0 0 0 0 0.0470588235 0 0 0 0 0.0549019608 0 0 0 0.12 0"/>
      <feMerge>
        <feMergeNode in="shadowMatrixOuter1"/>
        <feMergeNode in="shadowMatrixOuter2"/>
      </feMerge>
    </filter>
  </defs>
  <g fill="none" fill-rule="evenodd" transform="translate(1 1)">
    <path fill="#a125be" stroke="#811E98" d="M10 28c.552 0 1-.448 1-1 0-3.495 2.039-6.457 4.27-8.5C18 16 20 13.59 20 10c0-5.523-4.477-10-10-10S0 4.477 0 10c0 3.59 2 6 4.73 8.5C6.962 20.544 9 23.506 9 27c0 .552.448 1 1 1z"/>
  </g>
  <g transform="translate(-0.5 -0.5)">
    <g fill="#fff" transform="translate(6 6)">
      <path d="M9.0769,5.1538H8.9651C8.8412,3.9112,8.0789,2.8648,7,2.3497V1H4v1.3497C2.8208,2.9127,2,4.1062,2,5.5&#xA;&#x9;&#x9;s0.8208,2.5873,2,3.1503V10h3V8.6503c1.0789-0.5151,1.8413-1.5615,1.9651-2.8041h0.1118c0.1912,0,0.3462-0.155,0.3462-0.3461&#xA;&#x9;&#x9;S9.2681,5.1538,9.0769,5.1538z M5.5,8C4.1193,8,3,6.8807,3,5.5C3,4.1193,4.1193,3,5.5,3S8,4.1193,8,5.5C8,6.8807,6.8807,8,5.5,8z"/>
      <path d="M6.5,5H6V4c0-0.2762-0.2239-0.5-0.5-0.5S5,3.7238,5,4v1.5C5,5.7761,5.2239,6,5.5,6h1C6.7761,6,7,5.7761,7,5.5&#xA;&#x9;&#x9;C7,5.2238,6.7761,5,6.5,5z"/>
    </g>
  </g>
</svg>