<?xml version="1.0" encoding="UTF-8" standalone="yes"?>
<svg xmlns="http://www.w3.org/2000/svg" xmlns:xlink="http://www.w3.org/1999/xlink" width="22" height="31" viewBox="0 0 22 31">
  <defs>
    <ellipse id="5g4mnr6yib" cx="10" cy="29" rx="4" ry="2"/>
    <filter id="or8n4twdga" width="262.5%" height="425%" x="-81.2%" y="-137.5%" filterUnits="objectBoundingBox">
      <feOffset dy="1" in="SourceAlpha" result="shadowOffsetOuter1"/>
      <feOffset in="SourceAlpha" result="shadowOffsetOuter2"/>
      <feGaussianBlur in="shadowOffsetOuter1" result="shadowBlurOuter1" stdDeviation="2"/>
      <feGaussianBlur in="shadowOffsetOuter2" result="shadowBlurOuter2" stdDeviation="1"/>
      <feColorMatrix in="shadowBlurOuter1" result="shadowMatrixOuter1" values="0 0 0 0 0.0470588235 0 0 0 0 0.0470588235 0 0 0 0 0.0549019608 0 0 0 0.2 0"/>
      <feColorMatrix in="shadowBlurOuter2" result="shadowMatrixOuter2" values="0 0 0 0 0.0470588235 0 0 0 0 0.0470588235 0 0 0 0 0.0549019608 0 0 0 0.12 0"/>
      <feMerge>
        <feMergeNode in="shadowMatrixOuter1"/>
        <feMergeNode in="shadowMatrixOuter2"/>
      </feMerge>
    </filter>
  </defs>
  <g fill="none" fill-rule="evenodd" transform="translate(1 1)">
    <path fill="#5C6F84" stroke="#4A596A" d="M10 28c.552 0 1-.448 1-1 0-3.495 2.039-6.457 4.27-8.5C18 16 20 13.59 20 10c0-5.523-4.477-10-10-10S0 4.477 0 10c0 3.59 2 6 4.73 8.5C6.962 20.544 9 23.506 9 27c0 .552.448 1 1 1z"/>
  </g>
  <g transform="translate(-0.5 -0.5)">
    <path fill="#fff" transform="translate(6 6)" d="M10,7.51c0,0.2761-0.2239,0.5-0.5,0.5l0,0C9.241,8.0319,9.0006,8.1539,8.83,8.35c-0.2714,0.2887-0.6175,0.4964-1,0.6&#xA;&#x9;C7.2185,9.1316,6.5566,8.9924,6.07,8.58L5.73,8.23c-0.2997-0.2948-0.7803-0.2948-1.08,0L5,9.38&#xA;&#x9;c0.0664,0.268-0.0971,0.5392-0.3651,0.6055C4.5908,9.9965,4.5454,10.0013,4.5,10h-3C1.2239,10,1,9.7761,1,9.5v-8&#xA;&#x9;C0.9999,1.2277,1.2178,1.0054,1.49,1h0.7c0.2346-0.0011,0.4384,0.1611,0.49,0.39L3.41,3.9l0.1-0.06C3.67,3.72,3.82,3.57,4,3.44&#xA;&#x9;c0.7076-0.5968,1.7424-0.5968,2.45,0C6.6,3.57,6.74,3.71,6.89,3.83c0.2847,0.2546,0.7153,0.2546,1,0l0.41-0.4&#xA;&#x9;C8.6306,3.1458,9.0541,2.9928,9.49,3l0,0c0.2761,0,0.5,0.2239,0.5,0.5S9.7661,4,9.49,4l0,0C9.231,4.0219,8.9906,4.1439,8.82,4.34&#xA;&#x9;c-0.2714,0.2887-0.6175,0.4964-1,0.6C7.2085,5.1216,6.5466,4.9824,6.06,4.57L5.73,4.23C5.4324,3.9262,4.9449,3.9213,4.6411,4.2189&#xA;&#x9;C4.6374,4.2226,4.6337,4.2263,4.63,4.23C4.49,4.35,4.36,4.48,4.21,4.6C4.0521,4.7221,3.8768,4.8198,3.69,4.89l0.67,2.32&#xA;&#x9;c0.6727-0.3402,1.4836-0.2458,2.06,0.24c0.15,0.13,0.29,0.27,0.44,0.39c0.2847,0.2546,0.7153,0.2546,1,0L8.3,7.42&#xA;&#x9;C8.6321,7.1394,9.0554,6.99,9.49,7l0,0C9.7661,6.9944,9.9944,7.2137,10,7.4898C10.0001,7.4965,10.0001,7.5033,10,7.51z"/>
  </g>
</svg>