<?xml version="1.0" encoding="UTF-8" standalone="yes"?>
<svg xmlns="http://www.w3.org/2000/svg" xmlns:xlink="http://www.w3.org/1999/xlink" width="22" height="31" viewBox="0 0 22 31">
  <defs>
    <ellipse id="5g4mnr6yib" cx="10" cy="29" rx="4" ry="2"/>
    <filter id="or8n4twdga" width="262.5%" height="425%" x="-81.2%" y="-137.5%" filterUnits="objectBoundingBox">
      <feOffset dy="1" in="SourceAlpha" result="shadowOffsetOuter1"/>
      <feOffset in="SourceAlpha" result="shadowOffsetOuter2"/>
      <feGaussianBlur in="shadowOffsetOuter1" result="shadowBlurOuter1" stdDeviation="2"/>
      <feGaussianBlur in="shadowOffsetOuter2" result="shadowBlurOuter2" stdDeviation="1"/>
      <feColorMatrix in="shadowBlurOuter1" result="shadowMatrixOuter1" values="0 0 0 0 0.0470588235 0 0 0 0 0.0470588235 0 0 0 0 0.0549019608 0 0 0 0.2 0"/>
      <feColorMatrix in="shadowBlurOuter2" result="shadowMatrixOuter2" values="0 0 0 0 0.0470588235 0 0 0 0 0.0470588235 0 0 0 0 0.0549019608 0 0 0 0.12 0"/>
      <feMerge>
        <feMergeNode in="shadowMatrixOuter1"/>
        <feMergeNode in="shadowMatrixOuter2"/>
      </feMerge>
    </filter>
  </defs>
  <g fill="none" fill-rule="evenodd" transform="translate(1 1)">
    <path fill="#6d6d76" stroke="#57575E" d="M10 28c.552 0 1-.448 1-1 0-3.495 2.039-6.457 4.27-8.5C18 16 20 13.59 20 10c0-5.523-4.477-10-10-10S0 4.477 0 10c0 3.59 2 6 4.73 8.5C6.962 20.544 9 23.506 9 27c0 .552.448 1 1 1z"/>
  </g>
  <g transform="translate(-0.5 -0.5)">
    <g fill="#fff" transform="translate(6 6)">
      <path d="M9.0252,7H8.84L8.5615,5.3301C8.4824,4.8491,8.0713,4.5,7.583,4.5H3.417c-0.4883,0-0.8994,0.3491-0.9785,0.8291L2.1599,7&#xA;&#x9;&#x9;H1.981C1.4391,7,1,7.4391,1,7.9809V10h1c0,0.5522,0.4477,1,1,1s1-0.4478,1-1h3c0,0.5522,0.4477,1,1,1s1-0.4478,1-1h1V7.9748&#xA;&#x9;&#x9;C10,7.4364,9.5635,7,9.0252,7z M3.25,9C2.8358,9,2.5,8.6642,2.5,8.25c0-0.4142,0.3358-0.75,0.75-0.75S4,7.8358,4,8.25&#xA;&#x9;&#x9;C4,8.6642,3.6642,9,3.25,9z M3.1708,7L3.417,5.5l4.1582-0.0068L7.8264,7H3.1708z M7.75,9C7.3358,9,7,8.6642,7,8.25&#xA;&#x9;&#x9;C7,7.8358,7.3358,7.5,7.75,7.5S8.5,7.8358,8.5,8.25C8.5,8.6642,8.1642,9,7.75,9z"/>
      <path d="M9.4969,0H7.9973C7.4465,0,7,0.4465,7,0.9972V1H2.5l-1,1l1,1l1-1l1,1l1-1l1,1h0.5008C7.0031,3.5526,7.4509,4,8.004,4&#xA;&#x9;&#x9;h1.4938C9.7751,4,10,3.7751,10,3.4977V0.5031C10,0.2252,9.7748,0,9.4969,0z M9,2.5C9,2.7761,8.7761,3,8.5,3S8,2.7761,8,2.5v-1&#xA;&#x9;&#x9;C8,1.2238,8.2239,1,8.5,1S9,1.2238,9,1.5V2.5z"/>
    </g>
  </g>
</svg>