<?xml version="1.0" encoding="UTF-8" standalone="yes"?>
<svg xmlns="http://www.w3.org/2000/svg" xmlns:xlink="http://www.w3.org/1999/xlink" width="22" height="31" viewBox="0 0 22 31">
  <defs>
    <ellipse id="5g4mnr6yib" cx="10" cy="29" rx="4" ry="2"/>
    <filter id="or8n4twdga" width="262.5%" height="425%" x="-81.2%" y="-137.5%" filterUnits="objectBoundingBox">
      <feOffset dy="1" in="SourceAlpha" result="shadowOffsetOuter1"/>
      <feOffset in="SourceAlpha" result="shadowOffsetOuter2"/>
      <feGaussianBlur in="shadowOffsetOuter1" result="shadowBlurOuter1" stdDeviation="2"/>
      <feGaussianBlur in="shadowOffsetOuter2" result="shadowBlurOuter2" stdDeviation="1"/>
      <feColorMatrix in="shadowBlurOuter1" result="shadowMatrixOuter1" values="0 0 0 0 0.0470588235 0 0 0 0 0.0470588235 0 0 0 0 0.0549019608 0 0 0 0.2 0"/>
      <feColorMatrix in="shadowBlurOuter2" result="shadowMatrixOuter2" values="0 0 0 0 0.0470588235 0 0 0 0 0.0470588235 0 0 0 0 0.0549019608 0 0 0 0.12 0"/>
      <feMerge>
        <feMergeNode in="shadowMatrixOuter1"/>
        <feMergeNode in="shadowMatrixOuter2"/>
      </feMerge>
    </filter>
  </defs>
  <g fill="none" fill-rule="evenodd" transform="translate(1 1)">
    <path fill="#a125be" stroke="#811E98" d="M10 28c.552 0 1-.448 1-1 0-3.495 2.039-6.457 4.27-8.5C18 16 20 13.59 20 10c0-5.523-4.477-10-10-10S0 4.477 0 10c0 3.59 2 6 4.73 8.5C6.962 20.544 9 23.506 9 27c0 .552.448 1 1 1z"/>
  </g>
  <g transform="translate(-0.5 -0.5)">
    <path fill="#fff" transform="translate(6 6)" d="M7,4v2.5c0.0018,0.6341,0.4021,1.1986,1,1.41V10H7.5C7.2239,10,7,10.2239,7,10.5S7.2239,11,7.5,11h2&#xA;&#x9;c0.2761,0,0.5-0.2239,0.5-0.5S9.7761,10,9.5,10H9V7.91c0.5979-0.2114,0.9982-0.7759,1-1.41V4H7z M9.5,6.5c0,0.5523-0.4477,1-1,1&#xA;&#x9;s-1-0.4477-1-1v-2h2V6.5z M4.21,2.85V2.5c0.1961,0,0.355-0.1589,0.355-0.355S4.4061,1.79,4.21,1.79V1.44&#xA;&#x9;c0.0001-0.1933-0.1566-0.3501-0.3499-0.3501c-0.0034,0-0.0068,0-0.0101,0.0001H3.14C2.9468,1.0845,2.7857,1.2366,2.7801,1.4299&#xA;&#x9;C2.78,1.4332,2.78,1.4366,2.78,1.44v0.35c-0.1961,0-0.355,0.1589-0.355,0.355S2.5839,2.5,2.78,2.5v0.35C2.79,3.87,1,5,1,6v4.25&#xA;&#x9;c-0.0056,0.3866,0.3033,0.7044,0.6899,0.71c0.0067,0.0001,0.0134,0.0001,0.0201,0h3.58c0.3628-0.0329,0.6561-0.3097,0.71-0.67V6&#xA;&#x9;C6,5.09,4.21,3.81,4.21,2.85z M3.5,9C2.6716,9,2,8.3284,2,7.5S2.6716,6,3.5,6S5,6.6716,5,7.5S4.3284,9,3.5,9z"/>
  </g>
</svg>