<?xml version="1.0" encoding="UTF-8" standalone="yes"?>
<svg xmlns="http://www.w3.org/2000/svg" xmlns:xlink="http://www.w3.org/1999/xlink" width="22" height="31" viewBox="0 0 22 31">
  <defs>
    <ellipse id="5g4mnr6yib" cx="10" cy="29" rx="4" ry="2"/>
    <filter id="or8n4twdga" width="262.5%" height="425%" x="-81.2%" y="-137.5%" filterUnits="objectBoundingBox">
      <feOffset dy="1" in="SourceAlpha" result="shadowOffsetOuter1"/>
      <feOffset in="SourceAlpha" result="shadowOffsetOuter2"/>
      <feGaussianBlur in="shadowOffsetOuter1" result="shadowBlurOuter1" stdDeviation="2"/>
      <feGaussianBlur in="shadowOffsetOuter2" result="shadowBlurOuter2" stdDeviation="1"/>
      <feColorMatrix in="shadowBlurOuter1" result="shadowMatrixOuter1" values="0 0 0 0 0.0470588235 0 0 0 0 0.0470588235 0 0 0 0 0.0549019608 0 0 0 0.2 0"/>
      <feColorMatrix in="shadowBlurOuter2" result="shadowMatrixOuter2" values="0 0 0 0 0.0470588235 0 0 0 0 0.0470588235 0 0 0 0 0.0549019608 0 0 0 0.12 0"/>
      <feMerge>
        <feMergeNode in="shadowMatrixOuter1"/>
        <feMergeNode in="shadowMatrixOuter2"/>
      </feMerge>
    </filter>
  </defs>
  <g fill="none" fill-rule="evenodd" transform="translate(1 1)">
    <path fill="#5C6F84" stroke="#4A596A" d="M10 28c.552 0 1-.448 1-1 0-3.495 2.039-6.457 4.27-8.5C18 16 20 13.59 20 10c0-5.523-4.477-10-10-10S0 4.477 0 10c0 3.59 2 6 4.73 8.5C6.962 20.544 9 23.506 9 27c0 .552.448 1 1 1z"/>
  </g>
  <g transform="translate(-0.5 -0.5)">
    <path fill="#fff" transform="translate(6 6)" d="M1,0.79c0.1286-0.5371,0.6683-0.8683,1.2054-0.7397S3.0736,0.7186,2.945,1.2557C2.8183,1.7849,2.2917,2.1156,1.76,2&#xA;&#x9;C1.2203,1.8826,0.878,1.35,0.9954,0.8103C0.9968,0.8035,0.9984,0.7968,1,0.79z M10.85,8.16L10.85,8.16l-2-2l0,0&#xA;&#x9;C8.76,6.0612,8.6336,6.0034,8.5,6H8.37l0,0L6.5,6.55V4l0,0C6.746,4.0083,6.96,3.8328,7,3.59C7.0558,3.3225,6.8866,3.0598,6.62,3H6.5&#xA;&#x9;V0H6.28v3L1.82,3.55l0,0C1.4201,3.6111,1.0965,3.9072,1,4.3C0.9688,4.4416,0.9688,4.5884,1,4.73l0,0l0.81,3.13l0,0&#xA;&#x9;c0.1012,0.3354,0.3706,0.5933,0.71,0.68c0.1513,0.0357,0.3087,0.0357,0.46,0H3l3.29-0.89v1.62l-3,0.74l0,0&#xA;&#x9;c-0.2761,0.0856-0.4306,0.3789-0.345,0.655c0.0856,0.2761,0.3789,0.4306,0.655,0.345c0.0566,0.0051,0.1134,0.0051,0.17,0l4-1&#xA;&#x9;c0.2761-0.0828,0.4328-0.3739,0.35-0.65C8.0372,9.0839,7.7461,8.9272,7.47,9.01L7.27,9L6.5,9.22V7.58l1.83-0.51l1.81,1.78l0,0&#xA;&#x9;c0.1758,0.213,0.4909,0.2432,0.7039,0.0674c0.213-0.1758,0.2432-0.4909,0.0674-0.7039C10.8956,8.1945,10.8784,8.1766,10.86,8.16&#xA;&#x9;H10.85z M6.28,6.61L4.21,7.07L3.5,4.33L6.28,4V6.61z"/>
  </g>
</svg>