<?xml version="1.0" encoding="UTF-8" standalone="yes"?>
<svg xmlns="http://www.w3.org/2000/svg" xmlns:xlink="http://www.w3.org/1999/xlink" width="22" height="31" viewBox="0 0 22 31">
  <defs>
    <ellipse id="5g4mnr6yib" cx="10" cy="29" rx="4" ry="2"/>
    <filter id="or8n4twdga" width="262.5%" height="425%" x="-81.2%" y="-137.5%" filterUnits="objectBoundingBox">
      <feOffset dy="1" in="SourceAlpha" result="shadowOffsetOuter1"/>
      <feOffset in="SourceAlpha" result="shadowOffsetOuter2"/>
      <feGaussianBlur in="shadowOffsetOuter1" result="shadowBlurOuter1" stdDeviation="2"/>
      <feGaussianBlur in="shadowOffsetOuter2" result="shadowBlurOuter2" stdDeviation="1"/>
      <feColorMatrix in="shadowBlurOuter1" result="shadowMatrixOuter1" values="0 0 0 0 0.0470588235 0 0 0 0 0.0470588235 0 0 0 0 0.0549019608 0 0 0 0.2 0"/>
      <feColorMatrix in="shadowBlurOuter2" result="shadowMatrixOuter2" values="0 0 0 0 0.0470588235 0 0 0 0 0.0470588235 0 0 0 0 0.0549019608 0 0 0 0.12 0"/>
      <feMerge>
        <feMergeNode in="shadowMatrixOuter1"/>
        <feMergeNode in="shadowMatrixOuter2"/>
      </feMerge>
    </filter>
  </defs>
  <g fill="none" fill-rule="evenodd" transform="translate(1 1)">
    <path fill="#a125be" stroke="#811E98" d="M10 28c.552 0 1-.448 1-1 0-3.495 2.039-6.457 4.27-8.5C18 16 20 13.59 20 10c0-5.523-4.477-10-10-10S0 4.477 0 10c0 3.59 2 6 4.73 8.5C6.962 20.544 9 23.506 9 27c0 .552.448 1 1 1z"/>
  </g>
  <g transform="translate(-0.5 -0.5)">
    <path fill="#fff" transform="translate(6 6)" d="M1.5,2C0.6716,2,0,2.6716,0,3.5v1C0,5,0.5,5,0.5,5h1C3,5,4,5.5,4,5.5S3,6,1.5,6h-1C0.5,6,0,6,0,6.5v1&#xA;&#x9;C0,8.3284,0.6716,9,1.5,9S3,8.3284,3,7.5V6.8848C3.8082,6.727,4.5865,6.4316,5.2246,6.1426L8.5,8C10,8.75,11,8,11,8L6.5,5.5L11,3&#xA;&#x9;c0,0-1-0.75-2.5,0L5.2246,4.8574C4.5866,4.5684,3.8081,4.2731,3,4.1152V3.5039C3,3.5026,3,3.5013,3,3.5C3,2.6716,2.3284,2,1.5,2z&#xA;&#x9; M1.5,3C1.7761,3,2,3.2239,2,3.5S1.7761,4,1.5,4S1,3.7761,1,3.5S1.2239,3,1.5,3z M5.2324,5.25c0.0059-0.0002,0.0117-0.0002,0.0176,0&#xA;&#x9;c0.1381,0,0.25,0.1119,0.25,0.25S5.3881,5.75,5.25,5.75S5,5.6381,5,5.5C4.9997,5.3685,5.1013,5.2592,5.2324,5.25z M1.5,7&#xA;&#x9;C1.7761,7,2,7.2239,2,7.5S1.7761,8,1.5,8S1,7.7761,1,7.5S1.2239,7,1.5,7z"/>
  </g>
</svg>