<?xml version="1.0" encoding="UTF-8" standalone="yes"?>
<svg xmlns="http://www.w3.org/2000/svg" xmlns:xlink="http://www.w3.org/1999/xlink" width="22" height="31" viewBox="0 0 22 31">
  <defs>
    <ellipse id="5g4mnr6yib" cx="10" cy="29" rx="4" ry="2"/>
    <filter id="or8n4twdga" width="262.5%" height="425%" x="-81.2%" y="-137.5%" filterUnits="objectBoundingBox">
      <feOffset dy="1" in="SourceAlpha" result="shadowOffsetOuter1"/>
      <feOffset in="SourceAlpha" result="shadowOffsetOuter2"/>
      <feGaussianBlur in="shadowOffsetOuter1" result="shadowBlurOuter1" stdDeviation="2"/>
      <feGaussianBlur in="shadowOffsetOuter2" result="shadowBlurOuter2" stdDeviation="1"/>
      <feColorMatrix in="shadowBlurOuter1" result="shadowMatrixOuter1" values="0 0 0 0 0.0470588235 0 0 0 0 0.0470588235 0 0 0 0 0.0549019608 0 0 0 0.2 0"/>
      <feColorMatrix in="shadowBlurOuter2" result="shadowMatrixOuter2" values="0 0 0 0 0.0470588235 0 0 0 0 0.0470588235 0 0 0 0 0.0549019608 0 0 0 0.12 0"/>
      <feMerge>
        <feMergeNode in="shadowMatrixOuter1"/>
        <feMergeNode in="shadowMatrixOuter2"/>
      </feMerge>
    </filter>
  </defs>
  <g fill="none" fill-rule="evenodd" transform="translate(1 1)">
    <path fill="#8C94A0" stroke="#6D7683" d="M10 28c.552 0 1-.448 1-1 0-3.495 2.039-6.457 4.27-8.5C18 16 20 13.59 20 10c0-5.523-4.477-10-10-10S0 4.477 0 10c0 3.59 2 6 4.73 8.5C6.962 20.544 9 23.506 9 27c0 .552.448 1 1 1z"/>
  </g>
  <g transform="translate(-0.5 -0.5)">
    <path transform="translate(4 4)" d="M4.51,8.88a0.51,0.51,0,0,0,0,.72l0.72,0.72L3.07,12.5,2.7,12.13A2.24,2.24,0,0,1,2,10.69V9.24a2.24,2.24,0,0,1,.7-1.45L7.77,2.72A2.24,2.24,0,0,1,9.22,2h1.45a2.24,2.24,0,0,1,1.45.72l0.36,0.36L10.31,5.26,9.58,4.53a0.51,0.51,0,0,0-.72,0ZM4.13,13.6a1,1,0,0,0,1.4137.0363Q5.5623,13.6186,5.58,13.6l0.72-.72a1,1,0,0,0,.0363-1.4137Q6.3186,11.4477,6.3,11.43Zm7.25-7.28a1,1,0,0,0,1.4137.0363C12.8061,6.3445,13.55,5.6,13.55,5.6a1,1,0,0,0,.0363-1.4137Q13.5686,4.1677,13.55,4.15Z" fill="#fff"/>
  </g>
</svg>