<?xml version="1.0" encoding="UTF-8" standalone="yes"?>
<svg xmlns="http://www.w3.org/2000/svg" xmlns:xlink="http://www.w3.org/1999/xlink" width="22" height="31" viewBox="0 0 22 31">
  <defs>
    <ellipse id="5g4mnr6yib" cx="10" cy="29" rx="4" ry="2"/>
    <filter id="or8n4twdga" width="262.5%" height="425%" x="-81.2%" y="-137.5%" filterUnits="objectBoundingBox">
      <feOffset dy="1" in="SourceAlpha" result="shadowOffsetOuter1"/>
      <feOffset in="SourceAlpha" result="shadowOffsetOuter2"/>
      <feGaussianBlur in="shadowOffsetOuter1" result="shadowBlurOuter1" stdDeviation="2"/>
      <feGaussianBlur in="shadowOffsetOuter2" result="shadowBlurOuter2" stdDeviation="1"/>
      <feColorMatrix in="shadowBlurOuter1" result="shadowMatrixOuter1" values="0 0 0 0 0.0470588235 0 0 0 0 0.0470588235 0 0 0 0 0.0549019608 0 0 0 0.2 0"/>
      <feColorMatrix in="shadowBlurOuter2" result="shadowMatrixOuter2" values="0 0 0 0 0.0470588235 0 0 0 0 0.0470588235 0 0 0 0 0.0549019608 0 0 0 0.12 0"/>
      <feMerge>
        <feMergeNode in="shadowMatrixOuter1"/>
        <feMergeNode in="shadowMatrixOuter2"/>
      </feMerge>
    </filter>
  </defs>
  <g fill="none" fill-rule="evenodd" transform="translate(1 1)">
    <path fill="#d76600" stroke="#AC5200" d="M10 28c.552 0 1-.448 1-1 0-3.495 2.039-6.457 4.27-8.5C18 16 20 13.59 20 10c0-5.523-4.477-10-10-10S0 4.477 0 10c0 3.59 2 6 4.73 8.5C6.962 20.544 9 23.506 9 27c0 .552.448 1 1 1z"/>
  </g>
  <g transform="translate(-0.5 -0.5)">
    <path fill="#fff" transform="translate(6 6)" d="M10,8L10,8c0,1.1046-0.8954,2-2,2H3c-1.1046,0-2-0.8954-2-2H10z M10,5H1C0.4477,5,0,5.4477,0,6s0.4477,1,1,1h9&#xA;&#x9;c0.5523,0,1-0.4477,1-1S10.5523,5,10,5z M8.55,1H2.46C1.6537,1,1,1.6536,1,2.46c0,0.0033,0,0.0067,0,0.01V4h9V2.47&#xA;&#x9;C10.0055,1.6637,9.3564,1.0055,8.55,1C8.55,1,8.55,1,8.55,1z M3.55,3C3.2752,3.0276,3.0301,2.8273,3.0025,2.5525&#xA;&#x9;C2.9749,2.2777,3.1753,2.0326,3.45,2.005c0.2748-0.0276,0.5199,0.1727,0.5475,0.4475C3.9991,2.4683,3.9999,2.4841,4,2.5&#xA;&#x9;C4,2.7761,3.7761,3,3.5,3H3.55z M7.55,3C7.2752,3.0276,7.0301,2.8273,7.0025,2.5525S7.1753,2.0326,7.45,2.005&#xA;&#x9;c0.2748-0.0276,0.5199,0.1727,0.5475,0.4475C7.9991,2.4683,7.9999,2.4841,8,2.5C8,2.7761,7.7761,3,7.5,3H7.55z"/>
  </g>
</svg>