<?xml version="1.0" encoding="UTF-8" standalone="yes"?>
<svg xmlns="http://www.w3.org/2000/svg" xmlns:xlink="http://www.w3.org/1999/xlink" width="22" height="31" viewBox="0 0 22 31">
  <defs>
    <ellipse id="5g4mnr6yib" cx="10" cy="29" rx="4" ry="2"/>
    <filter id="or8n4twdga" width="262.5%" height="425%" x="-81.2%" y="-137.5%" filterUnits="objectBoundingBox">
      <feOffset dy="1" in="SourceAlpha" result="shadowOffsetOuter1"/>
      <feOffset in="SourceAlpha" result="shadowOffsetOuter2"/>
      <feGaussianBlur in="shadowOffsetOuter1" result="shadowBlurOuter1" stdDeviation="2"/>
      <feGaussianBlur in="shadowOffsetOuter2" result="shadowBlurOuter2" stdDeviation="1"/>
      <feColorMatrix in="shadowBlurOuter1" result="shadowMatrixOuter1" values="0 0 0 0 0.0470588235 0 0 0 0 0.0470588235 0 0 0 0 0.0549019608 0 0 0 0.2 0"/>
      <feColorMatrix in="shadowBlurOuter2" result="shadowMatrixOuter2" values="0 0 0 0 0.0470588235 0 0 0 0 0.0470588235 0 0 0 0 0.0549019608 0 0 0 0.12 0"/>
      <feMerge>
        <feMergeNode in="shadowMatrixOuter1"/>
        <feMergeNode in="shadowMatrixOuter2"/>
      </feMerge>
    </filter>
  </defs>
  <g fill="none" fill-rule="evenodd" transform="translate(1 1)">
    <path fill="#123295" stroke="#0E2877" d="M10 28c.552 0 1-.448 1-1 0-3.495 2.039-6.457 4.27-8.5C18 16 20 13.59 20 10c0-5.523-4.477-10-10-10S0 4.477 0 10c0 3.59 2 6 4.73 8.5C6.962 20.544 9 23.506 9 27c0 .552.448 1 1 1z"/>
  </g>
  <g transform="translate(-0.5 -0.5)">
    <path fill="#fff" transform="translate(6 6)" d="M4,2.25C4,1.8358,4.3358,1.5,4.75,1.5S5.5,1.8358,5.5,2.25S5.1642,3,4.75,3S4,2.6642,4,2.25z M9.27,4H7.88&#xA;&#x9;C7.6856,3.998,7.4985,4.0736,7.36,4.21l-4,4C3.224,8.344,3.0409,8.4194,2.85,8.42H1.73C1.3268,8.42,1,8.7468,1,9.15l0,0&#xA;&#x9;c0,0.4032,0.3268,0.73,0.73,0.73h1.89c0.1909-0.0006,0.374-0.076,0.51-0.21l4-4C8.2644,5.5576,8.4348,5.4972,8.61,5.5h0.66&#xA;&#x9;C9.6732,5.5,10,5.1732,10,4.77l0,0c0.0221-0.4026-0.2863-0.7468-0.6889-0.7689C9.2974,4.0003,9.2837,4,9.27,4z M4.75,3.5&#xA;&#x9;C4.3358,3.5,4,3.8358,4,4.25V6l1.5-1.5V4.25C5.5,3.8358,5.1642,3.5,4.75,3.5z"/>
  </g>
</svg>