<?xml version="1.0" encoding="UTF-8" standalone="yes"?>
<svg xmlns="http://www.w3.org/2000/svg" xmlns:xlink="http://www.w3.org/1999/xlink" width="22" height="31" viewBox="0 0 22 31">
  <defs>
    <ellipse id="5g4mnr6yib" cx="10" cy="29" rx="4" ry="2"/>
    <filter id="or8n4twdga" width="262.5%" height="425%" x="-81.2%" y="-137.5%" filterUnits="objectBoundingBox">
      <feOffset dy="1" in="SourceAlpha" result="shadowOffsetOuter1"/>
      <feOffset in="SourceAlpha" result="shadowOffsetOuter2"/>
      <feGaussianBlur in="shadowOffsetOuter1" result="shadowBlurOuter1" stdDeviation="2"/>
      <feGaussianBlur in="shadowOffsetOuter2" result="shadowBlurOuter2" stdDeviation="1"/>
      <feColorMatrix in="shadowBlurOuter1" result="shadowMatrixOuter1" values="0 0 0 0 0.0470588235 0 0 0 0 0.0470588235 0 0 0 0 0.0549019608 0 0 0 0.2 0"/>
      <feColorMatrix in="shadowBlurOuter2" result="shadowMatrixOuter2" values="0 0 0 0 0.0470588235 0 0 0 0 0.0470588235 0 0 0 0 0.0549019608 0 0 0 0.12 0"/>
      <feMerge>
        <feMergeNode in="shadowMatrixOuter1"/>
        <feMergeNode in="shadowMatrixOuter2"/>
      </feMerge>
    </filter>
  </defs>
  <g fill="none" fill-rule="evenodd" transform="translate(1 1)">
    <path fill="#e2001c" stroke="#B50016" d="M10 28c.552 0 1-.448 1-1 0-3.495 2.039-6.457 4.27-8.5C18 16 20 13.59 20 10c0-5.523-4.477-10-10-10S0 4.477 0 10c0 3.59 2 6 4.73 8.5C6.962 20.544 9 23.506 9 27c0 .552.448 1 1 1z"/>
  </g>
  <g transform="translate(-0.5 -0.5)">
    <path fill="#fff" transform="translate(6 6)" d="M8,2C7.1,2,6.5,2.5,6.2,3.1C6.2,3.1,5.5,4,5,4H3C2.5,4,2,4.5,2,4.5l-2,2V7h0.5l1.2-1.2L1.9,6&#xA;&#x9;C1.9,6,1,7.7,1,9c0,0.5,0.5,0.5,0.5,0.5H2c0,0,0.2,0,0-0.2L1.8,9.1c0-0.5,0.8-1.4,1.2-1.9c0,0,0,0.8,0,1.4&#xA;&#x9;c0,0.3,0.1111,0.9,0.4111,0.9h0.5c0,0,0.2,0,0-0.2l-0.2-0.2C3.5111,8.7,4.3,7.5,4.3,7.5h1.8L6.6,9c0.2,0.5,0.5,0.5,0.5,0.5h1&#xA;&#x9;c0.2,0,0.7-0.2,0.2-0.5L8.1,8.8V7l0,0c1,0,1.1-1.3,1.5-1.7l0.7-0.1c0.2,0,0.8-0.2,0.8-0.8V4L9.9,3l0,0C9.4,2.4,8.7,2,8,2z"/>
  </g>
</svg>