<?xml version="1.0" encoding="UTF-8" standalone="yes"?>
<svg xmlns="http://www.w3.org/2000/svg" xmlns:xlink="http://www.w3.org/1999/xlink" width="22" height="31" viewBox="0 0 22 31">
  <defs>
    <ellipse id="5g4mnr6yib" cx="10" cy="29" rx="4" ry="2"/>
    <filter id="or8n4twdga" width="262.5%" height="425%" x="-81.2%" y="-137.5%" filterUnits="objectBoundingBox">
      <feOffset dy="1" in="SourceAlpha" result="shadowOffsetOuter1"/>
      <feOffset in="SourceAlpha" result="shadowOffsetOuter2"/>
      <feGaussianBlur in="shadowOffsetOuter1" result="shadowBlurOuter1" stdDeviation="2"/>
      <feGaussianBlur in="shadowOffsetOuter2" result="shadowBlurOuter2" stdDeviation="1"/>
      <feColorMatrix in="shadowBlurOuter1" result="shadowMatrixOuter1" values="0 0 0 0 0.0470588235 0 0 0 0 0.0470588235 0 0 0 0 0.0549019608 0 0 0 0.2 0"/>
      <feColorMatrix in="shadowBlurOuter2" result="shadowMatrixOuter2" values="0 0 0 0 0.0470588235 0 0 0 0 0.0470588235 0 0 0 0 0.0549019608 0 0 0 0.12 0"/>
      <feMerge>
        <feMergeNode in="shadowMatrixOuter1"/>
        <feMergeNode in="shadowMatrixOuter2"/>
      </feMerge>
    </filter>
  </defs>
  <g fill="none" fill-rule="evenodd" transform="translate(1 1)">
    <path fill="#123295" stroke="#0E2877" d="M10 28c.552 0 1-.448 1-1 0-3.495 2.039-6.457 4.27-8.5C18 16 20 13.59 20 10c0-5.523-4.477-10-10-10S0 4.477 0 10c0 3.59 2 6 4.73 8.5C6.962 20.544 9 23.506 9 27c0 .552.448 1 1 1z"/>
  </g>
  <g transform="translate(-0.5 -0.5)">
    <path fill="#fff" transform="translate(6 6)" d="M3,0C2,0,1,0.5312,1,2v4v3.5c0,0,0,0.5,0.5,0.5L2,10.0156V10.5&#xA;&#x9;c0,0,0,0.5,0.5,0.5H3c0,0,0.5,0,0.5-0.5v-0.4844L7.5,10v0.5c0,0,0,0.5,0.5,0.5h0.5C9,11,9,10.5,9,10.5v-0.4844L9.5,10&#xA;&#x9;c0,0,0.5,0,0.5-0.5V6V2c0-1.5-1-2-2-2H3z M3.75,1h3.5C7.3885,1,7.5,1.1115,7.5,1.25S7.3885,1.5,7.25,1.5h-3.5&#xA;&#x9;C3.6115,1.5,3.5,1.3885,3.5,1.25S3.6115,1,3.75,1z M3,2h5c1,0,1,1,1,1v2c0,0,0,1-1,1H3C2,6,2,5,2,5V3C2,3,2,2,3,2z M2.75,7.5&#xA;&#x9;c0.4142,0,0.75,0.3358,0.75,0.75C3.5,8.6642,3.1642,9,2.75,9S2,8.6642,2,8.25C2,7.8358,2.3358,7.5,2.75,7.5z M8.25,7.5&#xA;&#x9;C8.6642,7.5,9,7.8358,9,8.25C9,8.6642,8.6642,9,8.25,9C7.8358,9,7.5,8.6642,7.5,8.25C7.5,7.8358,7.8358,7.5,8.25,7.5z"/>
  </g>
</svg>