<?xml version="1.0" encoding="UTF-8" standalone="yes"?>
<svg xmlns="http://www.w3.org/2000/svg" xmlns:xlink="http://www.w3.org/1999/xlink" width="22" height="31" viewBox="0 0 22 31">
  <defs>
    <ellipse id="5g4mnr6yib" cx="10" cy="29" rx="4" ry="2"/>
    <filter id="or8n4twdga" width="262.5%" height="425%" x="-81.2%" y="-137.5%" filterUnits="objectBoundingBox">
      <feOffset dy="1" in="SourceAlpha" result="shadowOffsetOuter1"/>
      <feOffset in="SourceAlpha" result="shadowOffsetOuter2"/>
      <feGaussianBlur in="shadowOffsetOuter1" result="shadowBlurOuter1" stdDeviation="2"/>
      <feGaussianBlur in="shadowOffsetOuter2" result="shadowBlurOuter2" stdDeviation="1"/>
      <feColorMatrix in="shadowBlurOuter1" result="shadowMatrixOuter1" values="0 0 0 0 0.0470588235 0 0 0 0 0.0470588235 0 0 0 0 0.0549019608 0 0 0 0.2 0"/>
      <feColorMatrix in="shadowBlurOuter2" result="shadowMatrixOuter2" values="0 0 0 0 0.0470588235 0 0 0 0 0.0470588235 0 0 0 0 0.0549019608 0 0 0 0.12 0"/>
      <feMerge>
        <feMergeNode in="shadowMatrixOuter1"/>
        <feMergeNode in="shadowMatrixOuter2"/>
      </feMerge>
    </filter>
  </defs>
  <g fill="none" fill-rule="evenodd" transform="translate(1 1)">
    <path stroke="#000000" d="M10 28c.552 0 1-.448 1-1 0-3.495 2.039-6.457 4.27-8.5C18 16 20 13.59 20 10c0-5.523-4.477-10-10-10S0 4.477 0 10c0 3.59 2 6 4.73 8.5C6.962 20.544 9 23.506 9 27c0 .552.448 1 1 1z"/>
  </g>
  <g transform="translate(-0.5 -0.5)">
    <path d="m 5.395804,10.734324 5.106631,-6.9635878 c 0.15559,-0.212178 0.40297,-0.337532 0.66608,-0.337532 0.54464,0 0.9402,0.51788 0.7969,1.04333 l -1.12934,4.14089 c -0.04337,0.15904 0.07635,0.31578 0.24119,0.31578 h 3.41929 c 0.4161,0 0.7534,0.3372998 0.7534,0.7533698 0,0.16024 -0.0511,0.3163 -0.1458,0.44551 l -5.10668,6.96362 c -0.15559,0.2121 -0.40297,0.3375 -0.66608,0.3375 -0.5446402,0 -0.9402002,-0.5179 -0.7969002,-1.0433 l 1.1293402,-4.14092 c 0.04337,-0.15904 -0.07635,-0.31578 -0.24119,-0.31578 H 6.003324 c -0.41608,0 -0.75337,-0.33729 -0.75337,-0.75337 0,-0.16024 0.05109,-0.3163 0.14585,-0.44551 z" id="path25" style="fill:#ffffff" fill="#fff"/>
  </g>
</svg>