<?xml version="1.0" encoding="UTF-8" standalone="yes"?>
<svg xmlns="http://www.w3.org/2000/svg" xmlns:xlink="http://www.w3.org/1999/xlink" width="22" height="31" viewBox="0 0 22 31">
  <defs>
    <ellipse id="5g4mnr6yib" cx="10" cy="29" rx="4" ry="2"/>
    <filter id="or8n4twdga" width="262.5%" height="425%" x="-81.2%" y="-137.5%" filterUnits="objectBoundingBox">
      <feOffset dy="1" in="SourceAlpha" result="shadowOffsetOuter1"/>
      <feOffset in="SourceAlpha" result="shadowOffsetOuter2"/>
      <feGaussianBlur in="shadowOffsetOuter1" result="shadowBlurOuter1" stdDeviation="2"/>
      <feGaussianBlur in="shadowOffsetOuter2" result="shadowBlurOuter2" stdDeviation="1"/>
      <feColorMatrix in="shadowBlurOuter1" result="shadowMatrixOuter1" values="0 0 0 0 0.0470588235 0 0 0 0 0.0470588235 0 0 0 0 0.0549019608 0 0 0 0.2 0"/>
      <feColorMatrix in="shadowBlurOuter2" result="shadowMatrixOuter2" values="0 0 0 0 0.0470588235 0 0 0 0 0.0470588235 0 0 0 0 0.0549019608 0 0 0 0.12 0"/>
      <feMerge>
        <feMergeNode in="shadowMatrixOuter1"/>
        <feMergeNode in="shadowMatrixOuter2"/>
      </feMerge>
    </filter>
  </defs>
  <g fill="none" fill-rule="evenodd" transform="translate(1 1)">
    <path fill="#a125be" stroke="#811E98" d="M10 28c.552 0 1-.448 1-1 0-3.495 2.039-6.457 4.27-8.5C18 16 20 13.59 20 10c0-5.523-4.477-10-10-10S0 4.477 0 10c0 3.59 2 6 4.73 8.5C6.962 20.544 9 23.506 9 27c0 .552.448 1 1 1z"/>
  </g>
  <g transform="translate(-0.5 -0.5)">
    <path fill="#fff" transform="translate(6 6)" d="M0,5h4.5v1H0V5z M1,9.79C1,10.4583,1.5417,11,2.21,11c0.0033,0,0.0067,0,0.01,0h2.3V7H1V9.79z M7.64,4H3.36&#xA;&#x9;C2.6675,4.0686,2.0505,3.5629,1.9819,2.8704C1.9696,2.7467,1.9757,2.6219,2,2.5C1.9503,1.7229,2.5399,1.0526,3.3171,1.0028&#xA;&#x9;C3.3513,1.0006,3.3857,0.9997,3.42,1c1.0141-0.0115,1.8944,0.6969,2.1,1.69C5.7292,1.699,6.6072,0.9924,7.62,1&#xA;&#x9;c0.7893,0.026,1.4081,0.687,1.3821,1.4763C9.0016,2.4909,9.0009,2.5055,9,2.52c0.1185,0.6913-0.3458,1.3478-1.0371,1.4664&#xA;&#x9;C7.8563,4.0046,7.7478,4.0092,7.64,4z M4.82,3.25c0.0388-0.7888-0.5692-1.4597-1.358-1.4986C3.448,1.7508,3.434,1.7503,3.42,1.75&#xA;&#x9;C3.0447,1.7369,2.7298,2.0306,2.7168,2.4059C2.7157,2.4373,2.7167,2.4688,2.72,2.5C2.6811,2.8735,2.9524,3.2079,3.3259,3.2468&#xA;&#x9;C3.3572,3.25,3.3886,3.2511,3.42,3.25H4.82z M7.62,3.25c0.3753,0.0131,0.6902-0.2806,0.7032-0.6559&#xA;&#x9;c0.0011-0.0314,0-0.0628-0.0032-0.0941c0.0221-0.3915-0.2773-0.7268-0.6688-0.7489C7.6408,1.7505,7.6304,1.7501,7.62,1.75&#xA;&#x9;C6.8304,1.7656,6.2029,2.4184,6.2186,3.208C6.2188,3.222,6.2193,3.236,6.22,3.25H7.62z M6.52,5v1H11V5H6.52z M6.52,11h2.29&#xA;&#x9;c0.6604-0.0109,1.1901-0.5495,1.19-1.21V7H6.52V11z"/>
  </g>
</svg>