<?xml version="1.0" encoding="UTF-8" standalone="yes"?>
<svg xmlns="http://www.w3.org/2000/svg" xmlns:xlink="http://www.w3.org/1999/xlink" width="22" height="31" viewBox="0 0 22 31">
  <defs>
    <ellipse id="5g4mnr6yib" cx="10" cy="29" rx="4" ry="2"/>
    <filter id="or8n4twdga" width="262.5%" height="425%" x="-81.2%" y="-137.5%" filterUnits="objectBoundingBox">
      <feOffset dy="1" in="SourceAlpha" result="shadowOffsetOuter1"/>
      <feOffset in="SourceAlpha" result="shadowOffsetOuter2"/>
      <feGaussianBlur in="shadowOffsetOuter1" result="shadowBlurOuter1" stdDeviation="2"/>
      <feGaussianBlur in="shadowOffsetOuter2" result="shadowBlurOuter2" stdDeviation="1"/>
      <feColorMatrix in="shadowBlurOuter1" result="shadowMatrixOuter1" values="0 0 0 0 0.0470588235 0 0 0 0 0.0470588235 0 0 0 0 0.0549019608 0 0 0 0.2 0"/>
      <feColorMatrix in="shadowBlurOuter2" result="shadowMatrixOuter2" values="0 0 0 0 0.0470588235 0 0 0 0 0.0470588235 0 0 0 0 0.0549019608 0 0 0 0.12 0"/>
      <feMerge>
        <feMergeNode in="shadowMatrixOuter1"/>
        <feMergeNode in="shadowMatrixOuter2"/>
      </feMerge>
    </filter>
  </defs>
  <g fill="none" fill-rule="evenodd" transform="translate(1 1)">
    <path fill="#6d6d76" stroke="#57575E" d="M10 28c.552 0 1-.448 1-1 0-3.495 2.039-6.457 4.27-8.5C18 16 20 13.59 20 10c0-5.523-4.477-10-10-10S0 4.477 0 10c0 3.59 2 6 4.73 8.5C6.962 20.544 9 23.506 9 27c0 .552.448 1 1 1z"/>
  </g>
  <g transform="translate(-0.5 -0.5)">
    <path fill="#fff" transform="translate(6 6)" d="M9.5,1.25H4.3517C4.0547,0.5176,3.3389,0,2.5,0C1.7616,0,1.1238,0.4047,0.7774,1H2.5L3,2L2.5,3H0.7774&#xA;&#x9;C1.1238,3.5953,1.7616,4,2.5,4c0.8389,0,1.5547-0.5176,1.8517-1.25H9.5c0.4141,0,0.75-0.3359,0.75-0.75S9.9141,1.25,9.5,1.25z"/>
    <path fill="#fff" transform="translate(6 6)" d="M8.3105,7.0344l-0.249-1.2043C7.9824,5.3491,7.5713,5,7.083,5H3.917C3.4287,5,3.0176,5.3491,2.9424,5.8101L2.6891,7.0355&#xA;&#x9;C2.2987,7.1191,2,7.4498,2,7.8651V10h0.5c0,0.5522,0.4477,1,1,1s1-0.4478,1-1h2c0,0.5522,0.4477,1,1,1s1-0.4478,1-1H9V7.8597&#xA;&#x9;C9,7.4453,8.7008,7.1157,8.3105,7.0344z M3.75,9C3.3358,9,3,8.6642,3,8.25C3,7.8358,3.3358,7.5,3.75,7.5S4.5,7.8358,4.5,8.25&#xA;&#x9;C4.5,8.6642,4.1642,9,3.75,9z M3.7134,7L3.917,6l3.1621,0.0122L7.2831,7H3.7134z M7.25,9C6.8358,9,6.5,8.6642,6.5,8.25&#xA;&#x9;c0-0.4142,0.3358-0.75,0.75-0.75S8,7.8358,8,8.25C8,8.6642,7.6642,9,7.25,9z"/>
  </g>
</svg>