<?xml version="1.0" encoding="UTF-8" standalone="yes"?>
<svg xmlns="http://www.w3.org/2000/svg" xmlns:xlink="http://www.w3.org/1999/xlink" width="22" height="31" viewBox="0 0 22 31">
  <defs>
    <ellipse id="5g4mnr6yib" cx="10" cy="29" rx="4" ry="2"/>
    <filter id="or8n4twdga" width="262.5%" height="425%" x="-81.2%" y="-137.5%" filterUnits="objectBoundingBox">
      <feOffset dy="1" in="SourceAlpha" result="shadowOffsetOuter1"/>
      <feOffset in="SourceAlpha" result="shadowOffsetOuter2"/>
      <feGaussianBlur in="shadowOffsetOuter1" result="shadowBlurOuter1" stdDeviation="2"/>
      <feGaussianBlur in="shadowOffsetOuter2" result="shadowBlurOuter2" stdDeviation="1"/>
      <feColorMatrix in="shadowBlurOuter1" result="shadowMatrixOuter1" values="0 0 0 0 0.0470588235 0 0 0 0 0.0470588235 0 0 0 0 0.0549019608 0 0 0 0.2 0"/>
      <feColorMatrix in="shadowBlurOuter2" result="shadowMatrixOuter2" values="0 0 0 0 0.0470588235 0 0 0 0 0.0470588235 0 0 0 0 0.0549019608 0 0 0 0.12 0"/>
      <feMerge>
        <feMergeNode in="shadowMatrixOuter1"/>
        <feMergeNode in="shadowMatrixOuter2"/>
      </feMerge>
    </filter>
  </defs>
  <g fill="none" fill-rule="evenodd" transform="translate(1 1)">
    <path fill="#123295" stroke="#0E2877" d="M10 28c.552 0 1-.448 1-1 0-3.495 2.039-6.457 4.27-8.5C18 16 20 13.59 20 10c0-5.523-4.477-10-10-10S0 4.477 0 10c0 3.59 2 6 4.73 8.5C6.962 20.544 9 23.506 9 27c0 .552.448 1 1 1z"/>
  </g>
  <g transform="translate(-0.5 -0.5)">
    <path d="M13.3966067,6.39200006 L13.4252603,6.48802819 L13.8844351,8.64827587 L14.9516343,9.34132312 C16.1293847,9.20450922 17.2640829,9.75686971 17.8900288,10.7106136 C17.3645677,10.2935807 16.6994098,10.0441207 15.9759873,10.0441207 C14.27531,10.0441207 12.8966386,11.4227921 12.8966386,13.1234694 L12.9,13.266 L12.8831327,13.267263 C12.5807901,13.267263 12.3636602,13.1676861 12.29088,12.9440432 L12.2704694,12.8543137 C12.2700394,12.8512483 12.2696523,12.8481445 12.2693075,12.8450034 L12.2649334,12.854559 C12.0944642,11.7519961 12.5437579,10.6761669 13.3637784,10.0027995 L13.5218158,9.88135116 L12.9325784,9.49256863 L10.3174511,11.8266283 C10.6902461,12.222632 10.9705854,12.7127098 11.0912821,13.2805429 C11.4433332,14.9368131 10.3758478,16.5807563 8.7194571,16.932833 C7.06306641,17.2849098 5.41924366,16.2173988 5.06716695,14.5610081 C4.71509024,12.9046174 5.78260122,11.2607946 7.43899191,10.9087179 C7.62396236,10.8694013 7.80777342,10.8522893 7.99012604,10.8494769 L8.17198143,10.8511383 L7.37588591,9.66274833 L7.09347539,9.72277654 C6.31519147,9.89979106 6.04295657,8.77896621 6.7408174,8.54347019 L6.83738235,8.51795352 L9.27992007,7.9987761 C10.058204,7.82176158 10.3304389,8.94258644 9.63257806,9.17808245 L9.5360131,9.20359912 L8.67480561,9.38665443 L9.62185521,10.7988392 L12.530566,8.20316191 L12.3484838,7.34653274 L11.7460723,7.47457926 C10.9677884,7.65159378 10.6955535,6.53076892 11.3933978,6.29519541 L11.4899606,6.26966819 L12.6947836,6.01357515 C12.99417,5.94993859 13.2890741,6.11570698 13.3966067,6.39200006 Z M17.924884,11.7088103 C18.2868924,12.0590364 18.4722915,12.5534549 18.429838,13.0553543 C18.4849465,13.5743348 18.3014799,14.0902606 17.931118,14.4580042 C17.5173674,14.7564882 17.0127251,14.9019274 16.503532,14.8694482 L15.3128381,14.8694482 L15.3128381,16.8892642 L14.1283781,16.8892642 L14.1283781,11.2786643 L16.57834,11.2786643 C17.0646544,11.2528556 17.5436126,11.4059003 17.924884,11.7088103 Z M7.69505934,12.1134205 C6.68975501,12.3271045 6.05828033,13.2994902 6.27196437,14.3047946 C6.4856484,15.3100989 7.45803413,15.9415736 8.46333846,15.7278895 C9.46864278,15.5142055 10.1000919,14.5416993 9.88643343,13.5365155 C9.67277501,12.5313316 8.70036367,11.8997364 7.69505934,12.1134205 Z M16.397554,12.2511683 L15.3128381,12.2511683 L15.3128381,13.9031783 L16.385086,13.9031783 C16.6102581,13.9150852 16.8320638,13.8441423 17.008486,13.7036903 C17.1680141,13.5369308 17.2495548,13.3104495 17.23291,13.0802903 C17.2655138,12.8449568 17.1872771,12.6078154 17.020954,12.4381883 C16.8407914,12.3060898 16.6206689,12.2400718 16.397554,12.2511683 Z" fill="#fff"/>
  </g>
</svg>