<?xml version="1.0" encoding="UTF-8" standalone="yes"?>
<svg xmlns="http://www.w3.org/2000/svg" xmlns:xlink="http://www.w3.org/1999/xlink" width="22" height="31" viewBox="0 0 22 31">
  <defs>
    <ellipse id="5g4mnr6yib" cx="10" cy="29" rx="4" ry="2"/>
    <filter id="or8n4twdga" width="262.5%" height="425%" x="-81.2%" y="-137.5%" filterUnits="objectBoundingBox">
      <feOffset dy="1" in="SourceAlpha" result="shadowOffsetOuter1"/>
      <feOffset in="SourceAlpha" result="shadowOffsetOuter2"/>
      <feGaussianBlur in="shadowOffsetOuter1" result="shadowBlurOuter1" stdDeviation="2"/>
      <feGaussianBlur in="shadowOffsetOuter2" result="shadowBlurOuter2" stdDeviation="1"/>
      <feColorMatrix in="shadowBlurOuter1" result="shadowMatrixOuter1" values="0 0 0 0 0.0470588235 0 0 0 0 0.0470588235 0 0 0 0 0.0549019608 0 0 0 0.2 0"/>
      <feColorMatrix in="shadowBlurOuter2" result="shadowMatrixOuter2" values="0 0 0 0 0.0470588235 0 0 0 0 0.0470588235 0 0 0 0 0.0549019608 0 0 0 0.12 0"/>
      <feMerge>
        <feMergeNode in="shadowMatrixOuter1"/>
        <feMergeNode in="shadowMatrixOuter2"/>
      </feMerge>
    </filter>
  </defs>
  <g fill="none" fill-rule="evenodd" transform="translate(1 1)">
    <path fill="#5C6F84" stroke="#4A596A" d="M10 28c.552 0 1-.448 1-1 0-3.495 2.039-6.457 4.27-8.5C18 16 20 13.59 20 10c0-5.523-4.477-10-10-10S0 4.477 0 10c0 3.59 2 6 4.73 8.5C6.962 20.544 9 23.506 9 27c0 .552.448 1 1 1z"/>
  </g>
  <g transform="translate(-0.5 -0.5)">
    <path fill="#fff" transform="translate(6 6)" d="M9.5,3H9V1.5l0,0C9,1.2239,8.7761,1,8.5,1S8,1.2239,8,1.5l0,0V3c0,0.5523,0.4477,1,1,1v4.25C9,8.3881,8.8881,8.5,8.75,8.5&#xA;&#x9;S8.5,8.3881,8.5,8.25V6.5C8.5,5.6716,7.8284,5,7,5V2c0-0.5523-0.4477-1-1-1H2C1.4477,1,1,1.4477,1,2v7c0,0.5523,0.4477,1,1,1h4&#xA;&#x9;c0.5523,0,1-0.4477,1-1V6c0.2761,0,0.5,0.2239,0.5,0.5v1.75c0,0.6904,0.5596,1.25,1.25,1.25S10,8.9404,10,8.25V3.5&#xA;&#x9;C10,3.2239,9.7761,3,9.5,3z M6,4.5C6.0056,4.7706,5.7908,4.9944,5.5202,5C5.5201,5,5.5201,5,5.52,5h-3&#xA;&#x9;C2.2384,5.0056,2.0056,4.7818,2,4.5002C2,4.5001,2,4.5001,2,4.5l0,0V3c0-0.2761,0.2239-0.5,0.5-0.5h3C5.7761,2.5,6,2.7239,6,3V4.5z"/>
  </g>
</svg>