<?xml version="1.0" encoding="UTF-8" standalone="yes"?>
<svg xmlns="http://www.w3.org/2000/svg" xmlns:xlink="http://www.w3.org/1999/xlink" width="22" height="31" viewBox="0 0 22 31">
  <defs>
    <ellipse id="5g4mnr6yib" cx="10" cy="29" rx="4" ry="2"/>
    <filter id="or8n4twdga" width="262.5%" height="425%" x="-81.2%" y="-137.5%" filterUnits="objectBoundingBox">
      <feOffset dy="1" in="SourceAlpha" result="shadowOffsetOuter1"/>
      <feOffset in="SourceAlpha" result="shadowOffsetOuter2"/>
      <feGaussianBlur in="shadowOffsetOuter1" result="shadowBlurOuter1" stdDeviation="2"/>
      <feGaussianBlur in="shadowOffsetOuter2" result="shadowBlurOuter2" stdDeviation="1"/>
      <feColorMatrix in="shadowBlurOuter1" result="shadowMatrixOuter1" values="0 0 0 0 0.0470588235 0 0 0 0 0.0470588235 0 0 0 0 0.0549019608 0 0 0 0.2 0"/>
      <feColorMatrix in="shadowBlurOuter2" result="shadowMatrixOuter2" values="0 0 0 0 0.0470588235 0 0 0 0 0.0470588235 0 0 0 0 0.0549019608 0 0 0 0.12 0"/>
      <feMerge>
        <feMergeNode in="shadowMatrixOuter1"/>
        <feMergeNode in="shadowMatrixOuter2"/>
      </feMerge>
    </filter>
  </defs>
  <g fill="none" fill-rule="evenodd" transform="translate(1 1)">
    <path fill="#e2001c" stroke="#B50016" d="M10 28c.552 0 1-.448 1-1 0-3.495 2.039-6.457 4.27-8.5C18 16 20 13.59 20 10c0-5.523-4.477-10-10-10S0 4.477 0 10c0 3.59 2 6 4.73 8.5C6.962 20.544 9 23.506 9 27c0 .552.448 1 1 1z"/>
  </g>
  <g transform="translate(-0.5 -0.5)">
    <path d="M11.902 6.025c1.614.187 2.8 1.38 3.04 3.052l.005.04.03.29.02.302.003.044.002.022v.022c-.062 1.64-.604 2.922-1.71 3.892-.236.207-.487.37-.747.486l.414.507c.1.11.034.273-.09.31l-.057.01H12v1.854c0 .08-.224.146-.5.146-.242 0-.443-.05-.5-.117v-.03V15h-.81c-.14 0-.226-.148-.176-.27l.03-.05.415-.507a3.1 3.1 0 0 1-.651-.395c-1.55-1.214-2.235-3.693-1.53-5.547.576-1.516 2.018-2.392 3.625-2.206zm-2.508 2.36c-.055.142.016.3.158.356s.3-.016.356-.158c.173-.45.597-.705 1.082-.65.15.017.288-.09.305-.242s-.09-.288-.242-.305c-.734-.084-1.396.314-1.66 1z" fill="#fff"/>
  </g>
</svg>