<?xml version="1.0" encoding="UTF-8" standalone="yes"?>
<svg xmlns="http://www.w3.org/2000/svg" xmlns:xlink="http://www.w3.org/1999/xlink" width="22" height="31" viewBox="0 0 22 31">
  <defs>
    <ellipse id="5g4mnr6yib" cx="10" cy="29" rx="4" ry="2"/>
    <filter id="or8n4twdga" width="262.5%" height="425%" x="-81.2%" y="-137.5%" filterUnits="objectBoundingBox">
      <feOffset dy="1" in="SourceAlpha" result="shadowOffsetOuter1"/>
      <feOffset in="SourceAlpha" result="shadowOffsetOuter2"/>
      <feGaussianBlur in="shadowOffsetOuter1" result="shadowBlurOuter1" stdDeviation="2"/>
      <feGaussianBlur in="shadowOffsetOuter2" result="shadowBlurOuter2" stdDeviation="1"/>
      <feColorMatrix in="shadowBlurOuter1" result="shadowMatrixOuter1" values="0 0 0 0 0.0470588235 0 0 0 0 0.0470588235 0 0 0 0 0.0549019608 0 0 0 0.2 0"/>
      <feColorMatrix in="shadowBlurOuter2" result="shadowMatrixOuter2" values="0 0 0 0 0.0470588235 0 0 0 0 0.0470588235 0 0 0 0 0.0549019608 0 0 0 0.12 0"/>
      <feMerge>
        <feMergeNode in="shadowMatrixOuter1"/>
        <feMergeNode in="shadowMatrixOuter2"/>
      </feMerge>
    </filter>
  </defs>
  <g fill="none" fill-rule="evenodd" transform="translate(1 1)">
    <path fill="#5C6F84" stroke="#4A596A" d="M10 28c.552 0 1-.448 1-1 0-3.495 2.039-6.457 4.27-8.5C18 16 20 13.59 20 10c0-5.523-4.477-10-10-10S0 4.477 0 10c0 3.59 2 6 4.73 8.5C6.962 20.544 9 23.506 9 27c0 .552.448 1 1 1z"/>
  </g>
  <g transform="translate(-0.5 -0.5)">
    <path fill="#fff" transform="translate(6 6)" d="M5,0v3v0.0117&#xA;&#x9;C2.7922,3.1089,1.0876,3.8182,1,4.6816c0,0,0,2.4594,0,3.6816C0.9995,9.2672,3.0143,10,5.5,10s4.5005-0.7328,4.5-1.6367V4.6816&#xA;&#x9;C9.9122,3.8177,8.2093,3.1082,6,3.0117V2.5723L8.5,1.5L5,0z M1.8184,5.752C2.1366,5.9302,2.5373,6.0838,3,6.2051v2.459&#xA;&#x9;C2.2493,8.4283,1.8213,8.0972,1.8184,7.75V5.752z M9.1816,5.7559V7.75C9.1803,8.0979,8.7521,8.4298,8,8.666V6.2031&#xA;&#x9;C8.4614,6.0836,8.862,5.932,9.1816,5.7559z M4,6.3984C4.4815,6.4652,4.9888,6.4995,5.5,6.5C6.0112,6.4995,6.5185,6.4652,7,6.3984&#xA;&#x9;v2.4922C6.5282,8.9624,6.0171,8.9997,5.5,9C4.9829,8.9997,4.4718,8.9624,4,8.8906V6.3984z"/>
  </g>
</svg>