<?xml version="1.0" encoding="UTF-8" standalone="yes"?>
<svg xmlns="http://www.w3.org/2000/svg" xmlns:xlink="http://www.w3.org/1999/xlink" width="22" height="31" viewBox="0 0 22 31">
  <defs>
    <ellipse id="5g4mnr6yib" cx="10" cy="29" rx="4" ry="2"/>
    <filter id="or8n4twdga" width="262.5%" height="425%" x="-81.2%" y="-137.5%" filterUnits="objectBoundingBox">
      <feOffset dy="1" in="SourceAlpha" result="shadowOffsetOuter1"/>
      <feOffset in="SourceAlpha" result="shadowOffsetOuter2"/>
      <feGaussianBlur in="shadowOffsetOuter1" result="shadowBlurOuter1" stdDeviation="2"/>
      <feGaussianBlur in="shadowOffsetOuter2" result="shadowBlurOuter2" stdDeviation="1"/>
      <feColorMatrix in="shadowBlurOuter1" result="shadowMatrixOuter1" values="0 0 0 0 0.0470588235 0 0 0 0 0.0470588235 0 0 0 0 0.0549019608 0 0 0 0.2 0"/>
      <feColorMatrix in="shadowBlurOuter2" result="shadowMatrixOuter2" values="0 0 0 0 0.0470588235 0 0 0 0 0.0470588235 0 0 0 0 0.0549019608 0 0 0 0.12 0"/>
      <feMerge>
        <feMergeNode in="shadowMatrixOuter1"/>
        <feMergeNode in="shadowMatrixOuter2"/>
      </feMerge>
    </filter>
  </defs>
  <g fill="none" fill-rule="evenodd" transform="translate(1 1)">
    <path fill="#6d6d76" stroke="#57575E" d="M10 28c.552 0 1-.448 1-1 0-3.495 2.039-6.457 4.27-8.5C18 16 20 13.59 20 10c0-5.523-4.477-10-10-10S0 4.477 0 10c0 3.59 2 6 4.73 8.5C6.962 20.544 9 23.506 9 27c0 .552.448 1 1 1z"/>
  </g>
  <g transform="translate(-0.5 -0.5)">
    <path fill="#fff" transform="translate(6 6)" d="&#xA;&#x9;M0,1v7c3.26,0,5.4902,2,5.4902,2S7.76,8,11,8V1C7,1,5.4902,2.7246,5.4902,2.7246S4,1,0,1z M1,2c1.1953-0.0313,3.053,0.4015,4,1.3477&#xA;&#x9;L5.5,4L6,3.3477C6.9615,2.4183,8.8009,1.9878,10,2v5C8,7,6.6456,7.8564,5.4902,8.7812C4.3506,7.8533,3,7,1,7V2z M2,3.3027v0.1816&#xA;&#x9;c0.8234,0.1688,2.0997,0.6868,3,1.1758V4.4316C4.0828,3.9535,2.8241,3.46,2,3.3027z M9,3.3027C8.1759,3.46,6.9172,3.9535,6,4.4316&#xA;&#x9;v0.2285c0.9003-0.489,2.1766-1.007,3-1.1758V3.3027z M2,4.2227v0.1816c0.8217,0.1539,2.0985,0.6584,3,1.1328V5.3418&#xA;&#x9;C4.0827,4.8663,2.8238,4.3752,2,4.2227z M9,4.2227C8.1762,4.3752,6.9173,4.8663,6,5.3418v0.1953&#xA;&#x9;c0.9015-0.4744,2.1783-0.9789,3-1.1328V4.2227z M2,5.1172v0.1816c0.8216,0.1547,2.0984,0.659,3,1.1328V6.2363&#xA;&#x9;C4.0825,5.7614,2.8236,5.2707,2,5.1172z M9,5.1172C8.1764,5.2707,6.9175,5.7614,6,6.2363v0.1953&#xA;&#x9;c0.9016-0.4738,2.1784-0.9781,3-1.1328V5.1172z M2,6v0.1816C2.8201,6.322,4.097,6.811,5,7.2695V7.1191&#xA;&#x9;C4.0825,6.6445,2.8236,6.1538,2,6z M9,6C8.1764,6.1538,6.9175,6.6445,6,7.1191v0.1504C6.903,6.811,8.1799,6.322,9,6.1816V6z"/>
  </g>
</svg>