<?xml version="1.0" encoding="UTF-8" standalone="yes"?>
<svg xmlns="http://www.w3.org/2000/svg" xmlns:xlink="http://www.w3.org/1999/xlink" width="22" height="31" viewBox="0 0 22 31">
  <defs>
    <ellipse id="5g4mnr6yib" cx="10" cy="29" rx="4" ry="2"/>
    <filter id="or8n4twdga" width="262.5%" height="425%" x="-81.2%" y="-137.5%" filterUnits="objectBoundingBox">
      <feOffset dy="1" in="SourceAlpha" result="shadowOffsetOuter1"/>
      <feOffset in="SourceAlpha" result="shadowOffsetOuter2"/>
      <feGaussianBlur in="shadowOffsetOuter1" result="shadowBlurOuter1" stdDeviation="2"/>
      <feGaussianBlur in="shadowOffsetOuter2" result="shadowBlurOuter2" stdDeviation="1"/>
      <feColorMatrix in="shadowBlurOuter1" result="shadowMatrixOuter1" values="0 0 0 0 0.0470588235 0 0 0 0 0.0470588235 0 0 0 0 0.0549019608 0 0 0 0.2 0"/>
      <feColorMatrix in="shadowBlurOuter2" result="shadowMatrixOuter2" values="0 0 0 0 0.0470588235 0 0 0 0 0.0470588235 0 0 0 0 0.0549019608 0 0 0 0.12 0"/>
      <feMerge>
        <feMergeNode in="shadowMatrixOuter1"/>
        <feMergeNode in="shadowMatrixOuter2"/>
      </feMerge>
    </filter>
  </defs>
  <g fill="none" fill-rule="evenodd" transform="translate(1 1)">
    <path fill="#e2001c" stroke="#B50016" d="M10 28c.552 0 1-.448 1-1 0-3.495 2.039-6.457 4.27-8.5C18 16 20 13.59 20 10c0-5.523-4.477-10-10-10S0 4.477 0 10c0 3.59 2 6 4.73 8.5C6.962 20.544 9 23.506 9 27c0 .552.448 1 1 1z"/>
  </g>
  <g transform="translate(-0.5 -0.5)">
    <path fill="#fff" transform="translate(6 6)" d="M10,5.5v2C10,7.7761,9.7761,8,9.5,8S9,7.7761,9,7.5l0,0C8.9427,7.2478,8.7433,7.0523,8.49,7H8v1.63&#xA;&#x9;C8,8.8343,7.8343,9,7.63,9H1.37C1.1657,9,1,8.8343,1,8.63V5.37C1,5.1657,1.1657,5,1.37,5h6.26C7.8343,5,8,5.1657,8,5.37V6h0.49&#xA;&#x9;C8.7433,5.9477,8.9427,5.7522,9,5.5C9,5.2239,9.2239,5,9.5,5S10,5.2239,10,5.5z M2.5,2C1.6716,2,1,2.6716,1,3.5S1.6716,5,2.5,5&#xA;&#x9;S4,4.3284,4,3.5S3.3284,2,2.5,2z M2.5,4C2.2239,4,2,3.7761,2,3.5S2.2239,3,2.5,3S3,3.2239,3,3.5S2.7761,4,2.5,4z M6,1&#xA;&#x9;C4.8954,1,4,1.8954,4,3s0.8954,2,2,2s2-0.8954,2-2S7.1046,1,6,1z M6,4C5.4477,4,5,3.5523,5,3s0.4477-1,1-1s1,0.4477,1,1&#xA;&#x9;S6.5523,4,6,4z"/>
  </g>
</svg>