<?xml version="1.0" encoding="UTF-8" standalone="yes"?>
<svg xmlns="http://www.w3.org/2000/svg" xmlns:xlink="http://www.w3.org/1999/xlink" width="22" height="31" viewBox="0 0 22 31">
  <defs>
    <ellipse id="5g4mnr6yib" cx="10" cy="29" rx="4" ry="2"/>
    <filter id="or8n4twdga" width="262.5%" height="425%" x="-81.2%" y="-137.5%" filterUnits="objectBoundingBox">
      <feOffset dy="1" in="SourceAlpha" result="shadowOffsetOuter1"/>
      <feOffset in="SourceAlpha" result="shadowOffsetOuter2"/>
      <feGaussianBlur in="shadowOffsetOuter1" result="shadowBlurOuter1" stdDeviation="2"/>
      <feGaussianBlur in="shadowOffsetOuter2" result="shadowBlurOuter2" stdDeviation="1"/>
      <feColorMatrix in="shadowBlurOuter1" result="shadowMatrixOuter1" values="0 0 0 0 0.0470588235 0 0 0 0 0.0470588235 0 0 0 0 0.0549019608 0 0 0 0.2 0"/>
      <feColorMatrix in="shadowBlurOuter2" result="shadowMatrixOuter2" values="0 0 0 0 0.0470588235 0 0 0 0 0.0470588235 0 0 0 0 0.0549019608 0 0 0 0.12 0"/>
      <feMerge>
        <feMergeNode in="shadowMatrixOuter1"/>
        <feMergeNode in="shadowMatrixOuter2"/>
      </feMerge>
    </filter>
  </defs>
  <g fill="none" fill-rule="evenodd" transform="translate(1 1)">
    <path fill="#a125be" stroke="#811E98" d="M10 28c.552 0 1-.448 1-1 0-3.495 2.039-6.457 4.27-8.5C18 16 20 13.59 20 10c0-5.523-4.477-10-10-10S0 4.477 0 10c0 3.59 2 6 4.73 8.5C6.962 20.544 9 23.506 9 27c0 .552.448 1 1 1z"/>
  </g>
  <g transform="translate(-0.5 -0.5)">
    <path fill="#fff" transform="translate(6 6)" d="M9.75,1.5C9.7464,1.4999,9.4324,1.4942,9.1191,1.6875C8.8041,1.8819,8.5,2.3013,8.5,3H8.2539H1l0.75,3.5&#xA;&#x9;C1.8571,7,2.5,7,2.5,7h6c0,0-0.0027,0.2466-0.1523,0.4961S7.9306,8,7.25,8H2C1.6619,7.9952,1.6619,8.5048,2,8.5h1.25h4&#xA;&#x9;c0.8194,0,1.302-0.3705,1.5273-0.7461C9.0027,7.3784,9,7,9,7V3c0-0.567,0.1959-0.7725,0.3809-0.8867&#xA;&#x9;C9.5659,1.9991,9.7461,2,9.7461,2C9.7474,2,9.7487,2,9.75,2h0.5c0.3381,0.0048,0.3381-0.5048,0-0.5H9.7539H9.75z M7.25,8.5&#xA;&#x9;C6.8358,8.5,6.5,8.8358,6.5,9.25S6.8358,10,7.25,10S8,9.6642,8,9.25S7.6642,8.5,7.25,8.5z M3.25,8.5C2.8358,8.5,2.5,8.8358,2.5,9.25&#xA;&#x9;S2.8358,10,3.25,10S4,9.6642,4,9.25S3.6642,8.5,3.25,8.5z"/>
  </g>
</svg>