<?xml version="1.0" encoding="UTF-8" standalone="yes"?>
<svg xmlns="http://www.w3.org/2000/svg" xmlns:xlink="http://www.w3.org/1999/xlink" width="22" height="31" viewBox="0 0 22 31">
  <defs>
    <ellipse id="5g4mnr6yib" cx="10" cy="29" rx="4" ry="2"/>
    <filter id="or8n4twdga" width="262.5%" height="425%" x="-81.2%" y="-137.5%" filterUnits="objectBoundingBox">
      <feOffset dy="1" in="SourceAlpha" result="shadowOffsetOuter1"/>
      <feOffset in="SourceAlpha" result="shadowOffsetOuter2"/>
      <feGaussianBlur in="shadowOffsetOuter1" result="shadowBlurOuter1" stdDeviation="2"/>
      <feGaussianBlur in="shadowOffsetOuter2" result="shadowBlurOuter2" stdDeviation="1"/>
      <feColorMatrix in="shadowBlurOuter1" result="shadowMatrixOuter1" values="0 0 0 0 0.0470588235 0 0 0 0 0.0470588235 0 0 0 0 0.0549019608 0 0 0 0.2 0"/>
      <feColorMatrix in="shadowBlurOuter2" result="shadowMatrixOuter2" values="0 0 0 0 0.0470588235 0 0 0 0 0.0470588235 0 0 0 0 0.0549019608 0 0 0 0.12 0"/>
      <feMerge>
        <feMergeNode in="shadowMatrixOuter1"/>
        <feMergeNode in="shadowMatrixOuter2"/>
      </feMerge>
    </filter>
  </defs>
  <g fill="none" fill-rule="evenodd" transform="translate(1 1)">
    <path fill="#a125be" stroke="#811E98" d="M10 28c.552 0 1-.448 1-1 0-3.495 2.039-6.457 4.27-8.5C18 16 20 13.59 20 10c0-5.523-4.477-10-10-10S0 4.477 0 10c0 3.59 2 6 4.73 8.5C6.962 20.544 9 23.506 9 27c0 .552.448 1 1 1z"/>
  </g>
  <g transform="translate(-0.5 -0.5)">
    <path fill="#fff" transform="translate(6 6)" d="M1.2174,8.3652C0.8535,8.8127,0.9497,9.4896,1.423,9.8184c0.4178,0.2902,0.9442,0.238,1.3172-0.1347&#xA;&#x9;&#x9;&#x9;c1.2813-1.2802,2.562-2.5611,3.841-3.8436C6.6447,5.7764,6.6952,5.7546,6.788,5.7863c0.4279,0.1458,0.8659,0.1627,1.3055,0.0611&#xA;&#x9;&#x9;&#x9;c1.3402-0.3096,2.1605-1.6406,1.8354-2.9751C9.906,2.7783,9.8722,2.6868,9.8351,2.567C9.7998,2.6112,8.8376,3.5803,8.3764,4.0471&#xA;&#x9;&#x9;&#x9;c-0.0587,0.0595-0.1167,0.0784-0.195,0.0665C8.0791,4.0979,7.2868,4.034,7,4C6.9522,3.5907,6.9268,3.1638,6.8846,2.7619&#xA;&#x9;&#x9;&#x9;c-0.004-0.0378,0.0229-0.0894,0.0517-0.1185C7.2869,2.2885,8.2679,1.31,8.4116,1.1666C8.1,1.0195,7.5652,0.9615,7.1668,1.0263&#xA;&#x9;&#x9;&#x9;c-1.5072,0.245-2.4274,1.7518-1.95,3.1974c0.0262,0.0795,0.0098,0.1259-0.0469,0.1824L1.2174,8.3652z"/>
  </g>
</svg>