<?xml version="1.0" encoding="UTF-8" standalone="yes"?>
<svg xmlns="http://www.w3.org/2000/svg" xmlns:xlink="http://www.w3.org/1999/xlink" width="22" height="31" viewBox="0 0 22 31">
  <defs>
    <ellipse id="5g4mnr6yib" cx="10" cy="29" rx="4" ry="2"/>
    <filter id="or8n4twdga" width="262.5%" height="425%" x="-81.2%" y="-137.5%" filterUnits="objectBoundingBox">
      <feOffset dy="1" in="SourceAlpha" result="shadowOffsetOuter1"/>
      <feOffset in="SourceAlpha" result="shadowOffsetOuter2"/>
      <feGaussianBlur in="shadowOffsetOuter1" result="shadowBlurOuter1" stdDeviation="2"/>
      <feGaussianBlur in="shadowOffsetOuter2" result="shadowBlurOuter2" stdDeviation="1"/>
      <feColorMatrix in="shadowBlurOuter1" result="shadowMatrixOuter1" values="0 0 0 0 0.0470588235 0 0 0 0 0.0470588235 0 0 0 0 0.0549019608 0 0 0 0.2 0"/>
      <feColorMatrix in="shadowBlurOuter2" result="shadowMatrixOuter2" values="0 0 0 0 0.0470588235 0 0 0 0 0.0470588235 0 0 0 0 0.0549019608 0 0 0 0.12 0"/>
      <feMerge>
        <feMergeNode in="shadowMatrixOuter1"/>
        <feMergeNode in="shadowMatrixOuter2"/>
      </feMerge>
    </filter>
  </defs>
  <g fill="none" fill-rule="evenodd" transform="translate(1 1)">
    <path fill="#5d9836" stroke="#4A7A2B" d="M10 28c.552 0 1-.448 1-1 0-3.495 2.039-6.457 4.27-8.5C18 16 20 13.59 20 10c0-5.523-4.477-10-10-10S0 4.477 0 10c0 3.59 2 6 4.73 8.5C6.962 20.544 9 23.506 9 27c0 .552.448 1 1 1z"/>
  </g>
  <g transform="translate(-0.5 -0.5)">
    <path fill="#fff" transform="translate(6 6)" d="M7.5,1&#xA;&#x9;c0,0-0.3457,0.0371-0.5,0.5l-0.5,2l2,1.5H10c1,0,1-1,1-1L9.5,2.5C9,2,8.5,2,8,2V1.5C8,1.5,8,1,7.5,1z M2.5,2&#xA;&#x9;c0,0-0.3534-0.0069-0.7227,0.1777S1,2.8333,1,3.5v0.9648C0.9996,4.4766,0.9996,4.4883,1,4.5V5v0.5C1,6.5,1,7,0.5,7C0.5,7,0,7,0,7.5&#xA;&#x9;v2c0,0,0,0.5,0.5,0.5S1,9.5,1,9.5V8c0.3537,0,0.6906-0.1371,1-0.2988V9.5c0,0,0,0.5,0.5,0.5S3,9.5,3,9.5V7h3l0.6641,1.9922&#xA;&#x9;C7,9.9999,7.5,10,7.5,10H8c0,0,0.5,0,0.5-0.5S8,9,8,9V6.5C8,5.6094,7.3678,5.2449,7,5L5.498,4H2V3.5&#xA;&#x9;c0-0.3333,0.0919-0.3624,0.2227-0.4277C2.3534,3.0069,2.5,3,2.5,3C3.1762,3.0096,3.1762,1.9904,2.5,2z"/>
  </g>
</svg>