<?xml version="1.0" encoding="UTF-8" standalone="yes"?>
<svg xmlns="http://www.w3.org/2000/svg" xmlns:xlink="http://www.w3.org/1999/xlink" width="22" height="31" viewBox="0 0 22 31">
  <defs>
    <ellipse id="5g4mnr6yib" cx="10" cy="29" rx="4" ry="2"/>
    <filter id="or8n4twdga" width="262.5%" height="425%" x="-81.2%" y="-137.5%" filterUnits="objectBoundingBox">
      <feOffset dy="1" in="SourceAlpha" result="shadowOffsetOuter1"/>
      <feOffset in="SourceAlpha" result="shadowOffsetOuter2"/>
      <feGaussianBlur in="shadowOffsetOuter1" result="shadowBlurOuter1" stdDeviation="2"/>
      <feGaussianBlur in="shadowOffsetOuter2" result="shadowBlurOuter2" stdDeviation="1"/>
      <feColorMatrix in="shadowBlurOuter1" result="shadowMatrixOuter1" values="0 0 0 0 0.0470588235 0 0 0 0 0.0470588235 0 0 0 0 0.0549019608 0 0 0 0.2 0"/>
      <feColorMatrix in="shadowBlurOuter2" result="shadowMatrixOuter2" values="0 0 0 0 0.0470588235 0 0 0 0 0.0470588235 0 0 0 0 0.0549019608 0 0 0 0.12 0"/>
      <feMerge>
        <feMergeNode in="shadowMatrixOuter1"/>
        <feMergeNode in="shadowMatrixOuter2"/>
      </feMerge>
    </filter>
  </defs>
  <g fill="none" fill-rule="evenodd" transform="translate(1 1)">
    <path fill="#5d9836" stroke="#4A7A2B" d="M10 28c.552 0 1-.448 1-1 0-3.495 2.039-6.457 4.27-8.5C18 16 20 13.59 20 10c0-5.523-4.477-10-10-10S0 4.477 0 10c0 3.59 2 6 4.73 8.5C6.962 20.544 9 23.506 9 27c0 .552.448 1 1 1z"/>
  </g>
  <g transform="translate(-0.5 -0.5)">
    <path fill="#fff" transform="translate(6 6)" d="M5.92,2.19C5.7745,1.9553,5.4663,1.8829,5.2316,2.0284C5.166,2.0691,5.1107,2.1244,5.07,2.19L1.5,8h-1&#xA;&#x9;C0.2724,7.9555,0.0517,8.104,0.0072,8.3316C0.0034,8.3509,0.001,8.3704,0,8.39V9.5C-0.0056,9.7706,0.2092,9.9944,0.4798,10&#xA;&#x9;c0.0067,0.0001,0.0135,0.0001,0.0202,0h10c0.2706,0.0056,0.4944-0.2092,0.5-0.4798c0.0001-0.0067,0.0001-0.0135,0-0.0202V8.39&#xA;&#x9;c-0.0123-0.2316-0.21-0.4095-0.4416-0.3972C10.5388,7.9938,10.5193,7.9962,10.5,8h-1L5.92,2.19z M5.5,3l3,5h-6L5.5,3z"/>
  </g>
</svg>