<?xml version="1.0" encoding="UTF-8" standalone="yes"?>
<svg xmlns="http://www.w3.org/2000/svg" xmlns:xlink="http://www.w3.org/1999/xlink" width="22" height="31" viewBox="0 0 22 31">
  <defs>
    <ellipse id="5g4mnr6yib" cx="10" cy="29" rx="4" ry="2"/>
    <filter id="or8n4twdga" width="262.5%" height="425%" x="-81.2%" y="-137.5%" filterUnits="objectBoundingBox">
      <feOffset dy="1" in="SourceAlpha" result="shadowOffsetOuter1"/>
      <feOffset in="SourceAlpha" result="shadowOffsetOuter2"/>
      <feGaussianBlur in="shadowOffsetOuter1" result="shadowBlurOuter1" stdDeviation="2"/>
      <feGaussianBlur in="shadowOffsetOuter2" result="shadowBlurOuter2" stdDeviation="1"/>
      <feColorMatrix in="shadowBlurOuter1" result="shadowMatrixOuter1" values="0 0 0 0 0.0470588235 0 0 0 0 0.0470588235 0 0 0 0 0.0549019608 0 0 0 0.2 0"/>
      <feColorMatrix in="shadowBlurOuter2" result="shadowMatrixOuter2" values="0 0 0 0 0.0470588235 0 0 0 0 0.0470588235 0 0 0 0 0.0549019608 0 0 0 0.12 0"/>
      <feMerge>
        <feMergeNode in="shadowMatrixOuter1"/>
        <feMergeNode in="shadowMatrixOuter2"/>
      </feMerge>
    </filter>
  </defs>
  <g fill="none" fill-rule="evenodd" transform="translate(1 1)">
    <path fill="#a125be" stroke="#811E98" d="M10 28c.552 0 1-.448 1-1 0-3.495 2.039-6.457 4.27-8.5C18 16 20 13.59 20 10c0-5.523-4.477-10-10-10S0 4.477 0 10c0 3.59 2 6 4.73 8.5C6.962 20.544 9 23.506 9 27c0 .552.448 1 1 1z"/>
  </g>
  <g transform="translate(-0.5 -0.5)">
    <path fill="#fff" transform="translate(6 6)" d="M11,5.75v.241C11,7,10,6.5,10,6.5H8A3.081,3.081,0,0,1,7,8a2.848,2.848,0,0,1-.416.9.26.26,0,0,0-.05.242l.458,1.55A.227.227,0,0,1,7,10.75a.25.25,0,0,1-.25.25.259.259,0,0,1-.244-.173L6,9V8.5H2.75l-.21.42a.25.25,0,0,0-.02.168L3,10.75a.25.25,0,0,1-.25.25.26.26,0,0,1-.237-.172L2,9V8.5a4.013,4.013,0,0,1-.843-.139,1.383,1.383,0,0,1-.5,1.045.242.242,0,0,0-.094.282l.414.99a.213.213,0,0,1,.011.072.25.25,0,0,1-.25.25.253.253,0,0,1-.228-.148L0,9.5a6.031,6.031,0,0,0,0-2v-2A1.486,1.486,0,0,1,2,4.1s.768.132,1.1.154A2.457,2.457,0,0,0,4,4.087,1.666,1.666,0,0,1,4.5,4a1.648,1.648,0,0,1,.844.257,3.166,3.166,0,0,0,.9.23L7,4.5s.966-.484,1-.5V3.5l.5.5A1.474,1.474,0,0,1,10,3.5.914.914,0,0,0,9,4l1,1,.68.529a.425.425,0,0,1,.07-.029A.238.238,0,0,1,11,5.75Z"/>
  </g>
</svg>