<?xml version="1.0" encoding="UTF-8" standalone="yes"?>
<svg xmlns="http://www.w3.org/2000/svg" xmlns:xlink="http://www.w3.org/1999/xlink" width="22" height="31" viewBox="0 0 22 31">
  <defs>
    <ellipse id="5g4mnr6yib" cx="10" cy="29" rx="4" ry="2"/>
    <filter id="or8n4twdga" width="262.5%" height="425%" x="-81.2%" y="-137.5%" filterUnits="objectBoundingBox">
      <feOffset dy="1" in="SourceAlpha" result="shadowOffsetOuter1"/>
      <feOffset in="SourceAlpha" result="shadowOffsetOuter2"/>
      <feGaussianBlur in="shadowOffsetOuter1" result="shadowBlurOuter1" stdDeviation="2"/>
      <feGaussianBlur in="shadowOffsetOuter2" result="shadowBlurOuter2" stdDeviation="1"/>
      <feColorMatrix in="shadowBlurOuter1" result="shadowMatrixOuter1" values="0 0 0 0 0.0470588235 0 0 0 0 0.0470588235 0 0 0 0 0.0549019608 0 0 0 0.2 0"/>
      <feColorMatrix in="shadowBlurOuter2" result="shadowMatrixOuter2" values="0 0 0 0 0.0470588235 0 0 0 0 0.0470588235 0 0 0 0 0.0549019608 0 0 0 0.12 0"/>
      <feMerge>
        <feMergeNode in="shadowMatrixOuter1"/>
        <feMergeNode in="shadowMatrixOuter2"/>
      </feMerge>
    </filter>
  </defs>
  <g fill="none" fill-rule="evenodd" transform="translate(1 1)">
    <path fill="#a125be" stroke="#811E98" d="M10 28c.552 0 1-.448 1-1 0-3.495 2.039-6.457 4.27-8.5C18 16 20 13.59 20 10c0-5.523-4.477-10-10-10S0 4.477 0 10c0 3.59 2 6 4.73 8.5C6.962 20.544 9 23.506 9 27c0 .552.448 1 1 1z"/>
  </g>
  <g transform="translate(-0.5 -0.5)">
    <g fill="#fff" transform="translate(6 6)">
      <path d="M8.478,7.1855H9.9722v.6H8.6465A3.3857,3.3857,0,0,1,9.6982,9.3311L9.13,9.5244A2.7584,2.7584,0,0,0,7.87,7.9763L6.3715,8.9914,4.53,8.9744,3.0376,8.0105A2.7482,2.7482,0,0,0,1.832,9.5244l-.5683-.1933A3.3857,3.3857,0,0,1,2.3154,7.7852H.99v-.6H2.4882a.539.539,0,0,1,.0727-.081l.7122-.6387-.7-1.1433c-.0146,0-.0246.0048-.04.0048,0,0-1.5334,0-1.5334-1.4445A4.9644,4.9644,0,0,1,2.5334.994L2,3V4H3l.9918-2.006v2a1.4231,1.4231,0,0,1-.7024,1.159l.5132.838.132-.1184a2.5517,2.5517,0,0,1,3.11,0l.116.1043.5148-.8381A1.4264,1.4264,0,0,1,7.0072,3.994v-2L8,4H9V3L8.4656.994A4.9682,4.9682,0,0,1,9.994,3.8828c0,1.4445-1.5284,1.4445-1.5284,1.4445-.0294,0-.05-.0083-.0777-.0094L7.6907,6.4531l.6729.6049A.5511.5511,0,0,1,8.478,7.1855Z"/>
    </g>
  </g>
</svg>