<?xml version="1.0" encoding="UTF-8" standalone="yes"?>
<svg xmlns="http://www.w3.org/2000/svg" xmlns:xlink="http://www.w3.org/1999/xlink" width="22" height="31" viewBox="0 0 22 31">
  <defs>
    <ellipse id="5g4mnr6yib" cx="10" cy="29" rx="4" ry="2"/>
    <filter id="or8n4twdga" width="262.5%" height="425%" x="-81.2%" y="-137.5%" filterUnits="objectBoundingBox">
      <feOffset dy="1" in="SourceAlpha" result="shadowOffsetOuter1"/>
      <feOffset in="SourceAlpha" result="shadowOffsetOuter2"/>
      <feGaussianBlur in="shadowOffsetOuter1" result="shadowBlurOuter1" stdDeviation="2"/>
      <feGaussianBlur in="shadowOffsetOuter2" result="shadowBlurOuter2" stdDeviation="1"/>
      <feColorMatrix in="shadowBlurOuter1" result="shadowMatrixOuter1" values="0 0 0 0 0.0470588235 0 0 0 0 0.0470588235 0 0 0 0 0.0549019608 0 0 0 0.2 0"/>
      <feColorMatrix in="shadowBlurOuter2" result="shadowMatrixOuter2" values="0 0 0 0 0.0470588235 0 0 0 0 0.0470588235 0 0 0 0 0.0549019608 0 0 0 0.12 0"/>
      <feMerge>
        <feMergeNode in="shadowMatrixOuter1"/>
        <feMergeNode in="shadowMatrixOuter2"/>
      </feMerge>
    </filter>
  </defs>
  <g fill="none" fill-rule="evenodd" transform="translate(1 1)">
    <path fill="#123295" stroke="#0E2877" d="M10 28c.552 0 1-.448 1-1 0-3.495 2.039-6.457 4.27-8.5C18 16 20 13.59 20 10c0-5.523-4.477-10-10-10S0 4.477 0 10c0 3.59 2 6 4.73 8.5C6.962 20.544 9 23.506 9 27c0 .552.448 1 1 1z"/>
  </g>
  <g transform="translate(-0.5 -0.5)">
    <path fill="#fff" transform="translate(6 6)" d="M9,4.5H6V3.1c0.1992-0.1183,0.3512-0.3021,0.43-0.52L9.5,2C9.7761,2,10,1.7761,10,1.5S9.7761,1,9.5,1&#xA;&#x9;L6.25,1.61C5.8847,1.1957,5.2528,1.156,4.8386,1.5213C4.713,1.6321,4.6172,1.7726,4.56,1.93L1.5,2.5C1.2239,2.5,1,2.7239,1,3&#xA;&#x9;s0.2239,0.5,0.5,0.5l3.25-0.61C4.8213,2.9732,4.9057,3.0442,5,3.1v1.4H2c-0.5523,0-1,0.4477-1,1V9c0,0.5523,0.4477,1,1,1h7&#xA;&#x9;c0.5523,0,1-0.4477,1-1V5.5C10,4.9477,9.5523,4.5,9,4.5z M5,8.5H2.5v-3H5V8.5z M8.5,8.5H6v-3h2.5V8.5z"/>
  </g>
</svg>