<?xml version="1.0" encoding="UTF-8" standalone="yes"?>
<svg xmlns="http://www.w3.org/2000/svg" xmlns:xlink="http://www.w3.org/1999/xlink" width="22" height="31" viewBox="0 0 22 31">
  <defs>
    <ellipse id="5g4mnr6yib" cx="10" cy="29" rx="4" ry="2"/>
    <filter id="or8n4twdga" width="262.5%" height="425%" x="-81.2%" y="-137.5%" filterUnits="objectBoundingBox">
      <feOffset dy="1" in="SourceAlpha" result="shadowOffsetOuter1"/>
      <feOffset in="SourceAlpha" result="shadowOffsetOuter2"/>
      <feGaussianBlur in="shadowOffsetOuter1" result="shadowBlurOuter1" stdDeviation="2"/>
      <feGaussianBlur in="shadowOffsetOuter2" result="shadowBlurOuter2" stdDeviation="1"/>
      <feColorMatrix in="shadowBlurOuter1" result="shadowMatrixOuter1" values="0 0 0 0 0.0470588235 0 0 0 0 0.0470588235 0 0 0 0 0.0549019608 0 0 0 0.2 0"/>
      <feColorMatrix in="shadowBlurOuter2" result="shadowMatrixOuter2" values="0 0 0 0 0.0470588235 0 0 0 0 0.0470588235 0 0 0 0 0.0549019608 0 0 0 0.12 0"/>
      <feMerge>
        <feMergeNode in="shadowMatrixOuter1"/>
        <feMergeNode in="shadowMatrixOuter2"/>
      </feMerge>
    </filter>
  </defs>
  <g fill="none" fill-rule="evenodd" transform="translate(1 1)">
    <path fill="#e2001c" stroke="#B50016" d="M10 28c.552 0 1-.448 1-1 0-3.495 2.039-6.457 4.27-8.5C18 16 20 13.59 20 10c0-5.523-4.477-10-10-10S0 4.477 0 10c0 3.59 2 6 4.73 8.5C6.962 20.544 9 23.506 9 27c0 .552.448 1 1 1z"/>
  </g>
  <g transform="translate(-0.5 -0.5)">
    <path fill="#fff" transform="translate(6 6)" d="M5.5,1C3.0206,1,1,3.0206,1,5.5c0,1.7919,1.0627,3.3316,2.584,4.0547L2.5,11h6L7.416,9.5547&#xA;&#x9;C8.9373,8.8316,10,7.2919,10,5.5C10,3.0206,7.9794,1,5.5,1z M5.375,2.0117v1.9941c-0.3108,0.026-0.6057,0.1482-0.8438,0.3496&#xA;&#x9;L3.1191,2.9434C3.7146,2.3888,4.5013,2.0428,5.375,2.0117z M5.625,2.0117c0.8737,0.0311,1.6604,0.3771,2.2559,0.9316L6.4688,4.3555&#xA;&#x9;c-0.0007-0.0007-0.0013-0.0013-0.002-0.002C6.229,4.1532,5.9348,4.0317,5.625,4.0059V2.0117z M2.9434,3.1191l1.4121,1.4121&#xA;&#x9;c-0.0007,0.0007-0.0013,0.0013-0.002,0.002C4.1532,4.771,4.0317,5.0652,4.0059,5.375H2.0117&#xA;&#x9;C2.0428,4.5013,2.3888,3.7146,2.9434,3.1191z M8.0566,3.1191C8.6112,3.7146,8.9572,4.5013,8.9883,5.375H6.9941&#xA;&#x9;c-0.026-0.3108-0.1482-0.6057-0.3496-0.8438L8.0566,3.1191z M2.0117,5.625h1.9941c0.026,0.3108,0.1482,0.6057,0.3496,0.8438&#xA;&#x9;L2.9434,7.8809C2.3888,7.2854,2.0428,6.4987,2.0117,5.625z M6.9941,5.625h1.9941C8.9572,6.4987,8.6112,7.2854,8.0566,7.8809&#xA;&#x9;L6.6445,6.4688c0.0007-0.0007,0.0013-0.0013,0.002-0.002C6.8468,6.229,6.9683,5.9348,6.9941,5.625z M4.5312,6.6445&#xA;&#x9;c0.0007,0.0007,0.0013,0.0013,0.002,0.002C4.6716,6.7624,4.8297,6.8524,5,6.9121v2.0391C4.2765,8.8476,3.6278,8.5303,3.1191,8.0566&#xA;&#x9;L4.5312,6.6445z M6.4688,6.6445l1.4121,1.4121C7.3722,8.5303,6.7235,8.8476,6,8.9512V6.9121C6.1711,6.852,6.33,6.7613,6.4688,6.6445&#xA;&#x9;z"/>
  </g>
</svg>