<?xml version="1.0" encoding="UTF-8" standalone="yes"?>
<svg xmlns="http://www.w3.org/2000/svg" xmlns:xlink="http://www.w3.org/1999/xlink" width="22" height="31" viewBox="0 0 22 31">
  <defs>
    <ellipse id="5g4mnr6yib" cx="10" cy="29" rx="4" ry="2"/>
    <filter id="or8n4twdga" width="262.5%" height="425%" x="-81.2%" y="-137.5%" filterUnits="objectBoundingBox">
      <feOffset dy="1" in="SourceAlpha" result="shadowOffsetOuter1"/>
      <feOffset in="SourceAlpha" result="shadowOffsetOuter2"/>
      <feGaussianBlur in="shadowOffsetOuter1" result="shadowBlurOuter1" stdDeviation="2"/>
      <feGaussianBlur in="shadowOffsetOuter2" result="shadowBlurOuter2" stdDeviation="1"/>
      <feColorMatrix in="shadowBlurOuter1" result="shadowMatrixOuter1" values="0 0 0 0 0.0470588235 0 0 0 0 0.0470588235 0 0 0 0 0.0549019608 0 0 0 0.2 0"/>
      <feColorMatrix in="shadowBlurOuter2" result="shadowMatrixOuter2" values="0 0 0 0 0.0470588235 0 0 0 0 0.0470588235 0 0 0 0 0.0549019608 0 0 0 0.12 0"/>
      <feMerge>
        <feMergeNode in="shadowMatrixOuter1"/>
        <feMergeNode in="shadowMatrixOuter2"/>
      </feMerge>
    </filter>
  </defs>
  <g fill="none" fill-rule="evenodd" transform="translate(1 1)">
    <path fill="#6d6d76" stroke="#57575E" d="M10 28c.552 0 1-.448 1-1 0-3.495 2.039-6.457 4.27-8.5C18 16 20 13.59 20 10c0-5.523-4.477-10-10-10S0 4.477 0 10c0 3.59 2 6 4.73 8.5C6.962 20.544 9 23.506 9 27c0 .552.448 1 1 1z"/>
  </g>
  <g transform="translate(-0.5 -0.5)">
    <path fill="#fff" transform="translate(6 6)" d="M11,5.8V5.3H9.988A4.473,4.473,0,0,0,8.85,2.554l.827-.827-.354-.354L8.5,2.2A4.474,4.474,0,0,0,5.75,1.062V0h-.5V1.062a4.471,4.471,0,0,0-2.7,1.1l-.875-.886-.355.352L2.19,2.5A4.477,4.477,0,0,0,1.012,5.3H0v.5H1.012A4.474,4.474,0,0,0,2.15,8.546l-.827.827.354.354L2.5,8.9A4.474,4.474,0,0,0,5.25,10.038V11h.5v-.962A4.475,4.475,0,0,0,8.5,8.895l.82.831.355-.352L8.854,8.54A4.473,4.473,0,0,0,9.988,5.8ZM9.561,5.3H6.1L8.548,2.856A4.049,4.049,0,0,1,9.561,5.3ZM8.194,2.5,5.75,4.946V1.489A4.048,4.048,0,0,1,8.194,2.5ZM5.25,1.489v3.4l-2.4-2.428A4.045,4.045,0,0,1,5.25,1.489ZM2.491,2.809,4.951,5.3H1.439A4.053,4.053,0,0,1,2.491,2.809ZM1.439,5.8H4.9L2.452,8.244A4.049,4.049,0,0,1,1.439,5.8ZM2.806,8.6,5.25,6.153V9.61A4.049,4.049,0,0,1,2.806,8.6ZM5.75,9.61v-3.5L8.2,8.591A4.049,4.049,0,0,1,5.75,9.61Zm2.8-1.374L6.147,5.8H9.561A4.048,4.048,0,0,1,8.554,8.236Z"/>
  </g>
</svg>