<?xml version="1.0" encoding="UTF-8" standalone="yes"?>
<svg xmlns="http://www.w3.org/2000/svg" xmlns:xlink="http://www.w3.org/1999/xlink" width="22" height="31" viewBox="0 0 22 31">
  <defs>
    <ellipse id="5g4mnr6yib" cx="10" cy="29" rx="4" ry="2"/>
    <filter id="or8n4twdga" width="262.5%" height="425%" x="-81.2%" y="-137.5%" filterUnits="objectBoundingBox">
      <feOffset dy="1" in="SourceAlpha" result="shadowOffsetOuter1"/>
      <feOffset in="SourceAlpha" result="shadowOffsetOuter2"/>
      <feGaussianBlur in="shadowOffsetOuter1" result="shadowBlurOuter1" stdDeviation="2"/>
      <feGaussianBlur in="shadowOffsetOuter2" result="shadowBlurOuter2" stdDeviation="1"/>
      <feColorMatrix in="shadowBlurOuter1" result="shadowMatrixOuter1" values="0 0 0 0 0.0470588235 0 0 0 0 0.0470588235 0 0 0 0 0.0549019608 0 0 0 0.2 0"/>
      <feColorMatrix in="shadowBlurOuter2" result="shadowMatrixOuter2" values="0 0 0 0 0.0470588235 0 0 0 0 0.0470588235 0 0 0 0 0.0549019608 0 0 0 0.12 0"/>
      <feMerge>
        <feMergeNode in="shadowMatrixOuter1"/>
        <feMergeNode in="shadowMatrixOuter2"/>
      </feMerge>
    </filter>
  </defs>
  <g fill="none" fill-rule="evenodd" transform="translate(1 1)">
    <path fill="#5C6F84" stroke="#4A596A" d="M10 28c.552 0 1-.448 1-1 0-3.495 2.039-6.457 4.27-8.5C18 16 20 13.59 20 10c0-5.523-4.477-10-10-10S0 4.477 0 10c0 3.59 2 6 4.73 8.5C6.962 20.544 9 23.506 9 27c0 .552.448 1 1 1z"/>
  </g>
  <g transform="translate(-0.5 -0.5)">
    <path fill="#fff" transform="translate(6 6)" d="M4.4029,5.7765a.852.852,0,0,0-.183.2151L.75,3.3215a5.78,5.78,0,0,1,1.1-1.11ZM9.15,2.2216,6.6059,5.7824a1.3786,1.3786,0,0,1,.1841.1992l3.47-2.66A5.78,5.78,0,0,0,9.15,2.2216ZM5.37,7.0087a1,1,0,1,0,1.122.8609A1,1,0,0,0,5.37,7.0087ZM4.72,1.0216a5.7742,5.7742,0,0,0-1.52.41L4.9676,5.4353a.815.815,0,0,1,.2382-.0618Zm1.56.01L5.8265,5.3853a.7611.7611,0,0,1,.2059.0441L7.79,1.4315A5.5185,5.5185,0,0,0,6.28,1.0316Z"/>
  </g>
</svg>