<?xml version="1.0" encoding="UTF-8" standalone="yes"?>
<svg xmlns="http://www.w3.org/2000/svg" xmlns:xlink="http://www.w3.org/1999/xlink" width="22" height="31" viewBox="0 0 22 31">
  <defs>
    <ellipse id="5g4mnr6yib" cx="10" cy="29" rx="4" ry="2"/>
    <filter id="or8n4twdga" width="262.5%" height="425%" x="-81.2%" y="-137.5%" filterUnits="objectBoundingBox">
      <feOffset dy="1" in="SourceAlpha" result="shadowOffsetOuter1"/>
      <feOffset in="SourceAlpha" result="shadowOffsetOuter2"/>
      <feGaussianBlur in="shadowOffsetOuter1" result="shadowBlurOuter1" stdDeviation="2"/>
      <feGaussianBlur in="shadowOffsetOuter2" result="shadowBlurOuter2" stdDeviation="1"/>
      <feColorMatrix in="shadowBlurOuter1" result="shadowMatrixOuter1" values="0 0 0 0 0.0470588235 0 0 0 0 0.0470588235 0 0 0 0 0.0549019608 0 0 0 0.2 0"/>
      <feColorMatrix in="shadowBlurOuter2" result="shadowMatrixOuter2" values="0 0 0 0 0.0470588235 0 0 0 0 0.0470588235 0 0 0 0 0.0549019608 0 0 0 0.12 0"/>
      <feMerge>
        <feMergeNode in="shadowMatrixOuter1"/>
        <feMergeNode in="shadowMatrixOuter2"/>
      </feMerge>
    </filter>
  </defs>
  <g fill="none" fill-rule="evenodd" transform="translate(1 1)">
    <path fill="#5C6F84" stroke="#4A596A" d="M10 28c.552 0 1-.448 1-1 0-3.495 2.039-6.457 4.27-8.5C18 16 20 13.59 20 10c0-5.523-4.477-10-10-10S0 4.477 0 10c0 3.59 2 6 4.73 8.5C6.962 20.544 9 23.506 9 27c0 .552.448 1 1 1z"/>
  </g>
  <g transform="translate(-0.5 -0.5)">
    <path fill="#fff" transform="translate(6 6)" d="M11,1c0,0.5523-0.4477,1-1,1S9,1.5523,9,1s0.4477-1,1-1S11,0.4477,11,1z M4.5,3C5.3284,3,6,2.3284,6,1.5S5.3284,0,4.5,0&#xA;&#x9;S3,0.6716,3,1.5S3.6716,3,4.5,3z M8.39,9.69L6,6.59V4.5h0.5c0.1669-0.0018,0.3214-0.0885,0.41-0.23l0,0l1.5-2l0,0&#xA;&#x9;C8.4661,2.1909,8.4974,2.0969,8.5,2C8.4962,1.7239,8.2692,1.5032,7.9931,1.507C7.8597,1.5088,7.7326,1.5639,7.64,1.66l0,0L6.25,3.5&#xA;&#x9;H2.5C2.3632,3.5018,2.233,3.5596,2.14,3.66l0,0l-2,2.54l0,0C0.0599,6.2807,0.0104,6.3868,0,6.5C0,6.7761,0.2239,7,0.5,7&#xA;&#x9;c0.1669-0.0018,0.3214-0.0885,0.41-0.23l0,0L2.74,4.5H3v2.09l-2.39,3.1l0,0C0.5387,9.7776,0.4999,9.8871,0.5,10&#xA;&#x9;c0,0.2761,0.2239,0.5,0.5,0.5c0.1669-0.0018,0.3214-0.0885,0.41-0.23l0,0L3.94,7h1.12l2.52,3.27l0,0&#xA;&#x9;C7.6705,10.4145,7.8295,10.5016,8,10.5c0.2761,0,0.5-0.2239,0.5-0.5C8.4979,9.8905,8.4592,9.7849,8.39,9.7l0,0V9.69z"/>
  </g>
</svg>