<?xml version="1.0" encoding="UTF-8" standalone="yes"?>
<svg xmlns="http://www.w3.org/2000/svg" xmlns:xlink="http://www.w3.org/1999/xlink" width="22" height="31" viewBox="0 0 22 31">
  <defs>
    <ellipse id="5g4mnr6yib" cx="10" cy="29" rx="4" ry="2"/>
    <filter id="or8n4twdga" width="262.5%" height="425%" x="-81.2%" y="-137.5%" filterUnits="objectBoundingBox">
      <feOffset dy="1" in="SourceAlpha" result="shadowOffsetOuter1"/>
      <feOffset in="SourceAlpha" result="shadowOffsetOuter2"/>
      <feGaussianBlur in="shadowOffsetOuter1" result="shadowBlurOuter1" stdDeviation="2"/>
      <feGaussianBlur in="shadowOffsetOuter2" result="shadowBlurOuter2" stdDeviation="1"/>
      <feColorMatrix in="shadowBlurOuter1" result="shadowMatrixOuter1" values="0 0 0 0 0.0470588235 0 0 0 0 0.0470588235 0 0 0 0 0.0549019608 0 0 0 0.2 0"/>
      <feColorMatrix in="shadowBlurOuter2" result="shadowMatrixOuter2" values="0 0 0 0 0.0470588235 0 0 0 0 0.0470588235 0 0 0 0 0.0549019608 0 0 0 0.12 0"/>
      <feMerge>
        <feMergeNode in="shadowMatrixOuter1"/>
        <feMergeNode in="shadowMatrixOuter2"/>
      </feMerge>
    </filter>
  </defs>
  <g fill="none" fill-rule="evenodd" transform="translate(1 1)">
    <path fill="#d76600" stroke="#AC5200" d="M10 28c.552 0 1-.448 1-1 0-3.495 2.039-6.457 4.27-8.5C18 16 20 13.59 20 10c0-5.523-4.477-10-10-10S0 4.477 0 10c0 3.59 2 6 4.73 8.5C6.962 20.544 9 23.506 9 27c0 .552.448 1 1 1z"/>
  </g>
  <g transform="translate(-0.5 -0.5)">
    <g id="confectionary-11" fill="#fff" transform="translate(6 6)">
      <path d="M9.2407,2.513a.7461.7461,0,0,0-.7461-.7461.7461.7461,0,1,0-1.4922,0V3.5132A2.4888,2.4888,0,0,0,3.5113,7H1.7485a.7461.7461,0,0,0,0,1.4922.7461.7461,0,0,0,.7461.7461.7461.7461,0,0,0,1.4922,0V7.4778A2.4887,2.4887,0,0,0,7.493,4.0052H9.2407a.7461.7461,0,0,0,0-1.4922ZM5.5,7.2842a1.7824,1.7824,0,0,1-.72-3.4135.8158.8158,0,0,1,.2438.1772A1.6481,1.6481,0,0,1,5.3252,5.124v.7373a1.9718,1.9718,0,0,0,.3877,1.3213,1.1554,1.1554,0,0,0,.0958.07A1.7759,1.7759,0,0,1,5.5,7.2842Zm.72-.1549a.8158.8158,0,0,1-.2438-.1772A1.6481,1.6481,0,0,1,5.6748,5.876V5.1387a1.9718,1.9718,0,0,0-.3877-1.3213,1.1554,1.1554,0,0,0-.0958-.07A1.78,1.78,0,0,1,6.22,7.1293Z"/>
    </g>
  </g>
</svg>