<?xml version="1.0" encoding="UTF-8" standalone="yes"?>
<svg xmlns="http://www.w3.org/2000/svg" xmlns:xlink="http://www.w3.org/1999/xlink" width="22" height="31" viewBox="0 0 22 31">
  <defs>
    <ellipse id="5g4mnr6yib" cx="10" cy="29" rx="4" ry="2"/>
    <filter id="or8n4twdga" width="262.5%" height="425%" x="-81.2%" y="-137.5%" filterUnits="objectBoundingBox">
      <feOffset dy="1" in="SourceAlpha" result="shadowOffsetOuter1"/>
      <feOffset in="SourceAlpha" result="shadowOffsetOuter2"/>
      <feGaussianBlur in="shadowOffsetOuter1" result="shadowBlurOuter1" stdDeviation="2"/>
      <feGaussianBlur in="shadowOffsetOuter2" result="shadowBlurOuter2" stdDeviation="1"/>
      <feColorMatrix in="shadowBlurOuter1" result="shadowMatrixOuter1" values="0 0 0 0 0.0470588235 0 0 0 0 0.0470588235 0 0 0 0 0.0549019608 0 0 0 0.2 0"/>
      <feColorMatrix in="shadowBlurOuter2" result="shadowMatrixOuter2" values="0 0 0 0 0.0470588235 0 0 0 0 0.0470588235 0 0 0 0 0.0549019608 0 0 0 0.12 0"/>
      <feMerge>
        <feMergeNode in="shadowMatrixOuter1"/>
        <feMergeNode in="shadowMatrixOuter2"/>
      </feMerge>
    </filter>
  </defs>
  <g fill="none" fill-rule="evenodd" transform="translate(1 1)">
    <path fill="#a125be" stroke="#811E98" d="M10 28c.552 0 1-.448 1-1 0-3.495 2.039-6.457 4.27-8.5C18 16 20 13.59 20 10c0-5.523-4.477-10-10-10S0 4.477 0 10c0 3.59 2 6 4.73 8.5C6.962 20.544 9 23.506 9 27c0 .552.448 1 1 1z"/>
  </g>
  <g transform="translate(-0.5 -0.5)">
    <path fill="#fff" transform="translate(6 6)" d="M1,9H3a.979.979,0,0,1-1,1A.979.979,0,0,1,1,9ZM9.753,4H9V3h.351a.282.282,0,0,0,.223-.148l.268-.536a.333.333,0,0,0,.009-.066A.25.25,0,0,0,9.6,2H9V1.5H6.25a.25.25,0,0,0,0,.5H8V4.5L5,7H4V5.5A.5.5,0,0,0,3.5,5H3V4H4.75A.25.25,0,0,0,5,3.75a.245.245,0,0,0-.223-.239V3.5L1.25,3A.25.25,0,0,0,1,3.25v.5A.25.25,0,0,0,1.25,4H2V5H1.5a.5.5,0,0,0-.5.5V8H6.172a1,1,0,0,0,.709-.294L7.3,7.292A1,1,0,0,1,8,7H9.752A.248.248,0,0,0,10,6.752v-2.5A.247.247,0,0,0,9.753,4ZM9,8a1,1,0,1,0,1,1A1,1,0,0,0,9,8Z"/>
  </g>
</svg>