<svg width="16" height="16" xmlns="http://www.w3.org/2000/svg"><g fill="none" fill-rule="evenodd"><path d="M0 0h16v16H0z"/><path d="M11.682 9.735a.667.667 0 1 1 .002-1.334.667.667 0 0 1-.002 1.334m-7.364 0A.667.667 0 1 1 4.32 8.4a.667.667 0 0 1-.002 1.334m7.603-4.013 1.332-2.307a.277.277 0 0 0-.48-.277l-1.349 2.336A8.22 8.22 0 0 0 8 4.74a8.22 8.22 0 0 0-3.424.733L3.227 3.138a.277.277 0 0 0-.48.277L4.08 5.722C1.793 6.965.229 9.28 0 12.015h16c-.229-2.735-1.793-5.05-4.079-6.293" fill="#050506" fill-rule="nonzero"/></g></svg>