<svg xmlns="http://www.w3.org/2000/svg" width="48" height="48" viewBox="0 0 48 48">
    <g fill="none" fill-rule="evenodd">
        <g>
            <g>
                <g>
                    <g>
                        <path fill="#AF27CC" d="M29.702 43.233c-.193.54-.74.628-1.233.75-.587.144-1.182.258-1.78.349-1.084.163-2.18.232-3.275.278-1.134.046-2.292-.056-3.414-.213-1.194-.168-2.373-.437-3.519-.807-2.093-.676-4.075-1.69-5.829-3.015-.563-.425-1.1-.88-1.612-1.364-1.11-1.05-2.093-2.233-2.917-3.523-1.229-1.926-2.13-4.059-2.63-6.287-.508-2.27-.603-4.76-.379-7.074l.006-.053c.217 3.288 1.619 7.447 7.098 12.177 5.679 4.903 14.606 3.75 16.525 3.036.03.005.06.013.09.022.265.083.453.273.576.515.445.868.879 1.742 1.317 2.613l.046.092.672 1.332c.188.375.415.733.258 1.172" transform="translate(-812 -216) translate(696) translate(30 176) translate(86 40)"/>
                        <path fill="#FF3B4A" d="M3.126 22.265c.26-1.589 1.9-3.232 3.815-3.037 2.427.247 3.37 2.157 3.282 3.692l-.019.152c-.265 2.287.069 4.632.981 6.749.564 1.307 1.341 2.516 2.287 3.575.562.629 1.182 1.204 1.854 1.715 1.825 1.39 4.009 2.298 6.287 2.597 1.201.158 2.423.156 3.623-.013.292-.04.58-.09.868-.15.217-.046.422-.098.639-.057-1.92.714-3.997 1.104-6.168 1.104-.478 0-.95-.019-1.418-.057-5.327-.42-9.981-3.199-12.9-7.279-1.814-2.536-2.92-5.694-3.137-8.982" transform="translate(-812 -216) translate(696) translate(30 176) translate(86 40)"/>
                        <path fill="#FFDA12" d="M23.366 4.5c-.627 0-1.253.025-1.876.074-2.33.181-4.628.73-6.762 1.685-2.11.944-4.062 2.266-5.73 3.86-1.68 1.607-3.052 3.523-4.058 5.614-.921 1.915-1.519 3.973-1.79 6.076v.001c-.019.15-.024.3-.024.455 0 1.934 1.542 3.507 3.467 3.566l.111.002c1.752 0 3.21-1.255 3.519-2.913v-.004c.014-.105.028-.21.044-.313l.001-.004.03-.193c.094-1.839.74-6.552 5.978-11.221 6.708-5.978 16.404-4.63 16.626-4.545-1.454-.715-2.993-1.253-4.574-1.606-.925-.205-1.863-.35-2.807-.436-.708-.065-1.418-.097-2.128-.098h-.027z" transform="translate(-812 -216) translate(696) translate(30 176) translate(86 40)"/>
                        <path fill="#65CEE7" d="M42.855 30.542c-.326 1.024-.736 2.024-1.224 2.982-.1.197-.205.393-.314.587-.15.274-.307.545-.47.81-.175.283-.463.62-.579.944 0 0 1.078-4.557.305-9.118-.921-5.439-7.311-12.327-10.49-13.539-.06-.036-.122-.071-.184-.106V13.1c-2.093-1.114-1.992-3.505-1.443-4.812.556-1.325 2.472-2.064 5.104-1.31.259.14.513.284.765.434 1.738 1.038 3.308 2.345 4.635 3.872 1.446 1.665 2.622 3.572 3.43 5.622.883 2.235 1.317 4.636 1.373 7.033.053 2.24-.23 4.464-.908 6.603" transform="translate(-812 -216) translate(696) translate(30 176) translate(86 40)"/>
                        <path fill="#87C966" d="M35.181 9.964c0 .467-.09.912-.252 1.32-.527 1.316-1.817 2.246-3.324 2.246-.617 0-1.198-.156-1.705-.43l-.001.002c-1.647-.926-3.468-1.477-5.356-1.659-2.337-.225-4.707.215-6.825 1.211-1.03.484-1.993 1.102-2.863 1.83-.819.685-1.555 1.467-2.187 2.329-1.212 1.65-2.028 3.577-2.37 5.593.094-1.839.469-3.602 1.086-5.248 2.477-6.608 8.83-11.311 16.278-11.311.355 0 .708.01 1.057.033 1.198.071 2.362.265 3.482.569h.005c.26.07.518.147.772.23.193.094.386.193.575.295l.007.004c.977.637 1.621 1.737 1.621 2.986" transform="translate(-812 -216) translate(696) translate(30 176) translate(86 40)"/>
                        <path fill="#4BA2EA" d="M35.506 43.27c.193.384.378.96.771 1.188.285.164.628.127.944.127l5.81-.001c.698-.014 1.188-.748.846-1.385l-1.101-2.068-2.244-4.21c-.104-.194-.242-.399-.28-.618 0 0-.081-.128.031-.487.102-.268.197-.539.286-.812.547-1.697.843-3.507.843-5.386 0-3.897-1.272-7.497-3.428-10.41-1.986-2.687-4.722-4.789-7.9-6 .14.082.279.167.417.254 1.619 1.031 3.007 2.412 4.043 4.026 1.224 1.904 1.94 4.113 2.068 6.372.114 2.028-.243 4.08-1.045 5.947-.284.66-.622 1.297-1.01 1.9-.662 1.03-1.465 1.97-2.382 2.782-.208.184-.413.336-.5.611-.071.224-.061.47.034.685l3.797 7.485z" transform="translate(-812 -216) translate(696) translate(30 176) translate(86 40)"/>
                    </g>
                </g>
            </g>
        </g>
    </g>
</svg>
