<svg xmlns="http://www.w3.org/2000/svg" width="48" height="48" viewBox="0 0 48 48">
    <g fill="none" fill-rule="evenodd">
        <g fill-rule="nonzero">
            <g>
                <g>
                    <g>
                        <path fill="#FF3B4A" d="M30.43 32.058c.175-.15.347-.304.514-.46 2.284-2.147 3.53-5.201 3.411-8.361-.119-3.16-1.59-6.11-4.03-8.073-.428-.343-.882-.653-1.356-.927-3.119-1.788-6.92-1.838-10.082-.13-.497.27-.972.578-1.42.924-.059.044-.116.087-.17.133-.45.361-.871.759-1.26 1.188-3.597 4.03-3.705 10.144-.252 14.303.108.13.22.256.333.38.107.115.217.229.332.339.664.616 1.367 1.187 2.105 1.71l5.214 4.119 2.002-1.573 4.66-3.572z" transform="translate(-1044 -216) translate(696) translate(262 176) translate(86 40)"/>
                        <path fill="#E6F4DB" d="M29.17 37.535l3.164 5.941c-.813.357-1.647.664-2.497.918-.243.095-.493.17-.748.224-.374.092-.75.175-1.129.247-1.37.278-2.764.424-4.16.436-.055.003-.11.007-.164.008-1.232.034-2.465-.044-3.684-.234-1.288-.185-2.558-.484-3.796-.893-2.263-.742-4.388-1.867-6.288-3.329-.606-.469-1.187-.972-1.74-1.508-.325-.316-.643-.644-.948-.982l6.136-4.812c.907.977 1.915 1.732 2.89 2.467l7.38 5.938 5.585-4.421z" transform="translate(-1044 -216) translate(696) translate(262 176) translate(86 40)"/>
                        <path fill="#C0EAB8" d="M1.667 20.506v-.002c.294-2.297.958-4.532 1.967-6.62C4.74 11.598 6.25 9.527 8.094 7.77c.212-.2.427-.396.646-.589l4.931 6.28c-4.607 4.59-5.6 11.65-2.437 17.316L4.907 35.58c-1.344-2.087-2.312-4.39-2.863-6.805-.377-1.718-.559-3.473-.543-5.232l.166-3.037z" transform="translate(-1044 -216) translate(696) translate(262 176) translate(86 40)"/>
                        <path fill="#93D7F9" d="M35.683 41.498l-3.349-6.183c.385-.308.79-.65 1.185-1.015 2.498-2.315 4.076-5.464 4.442-8.863h7.46c-.124 1.552-.422 3.086-.887 4.57-.343 1.09-.775 2.148-1.29 3.166-.107.208-.217.417-.33.622-.158.29-.326.577-.497.859-.183.297-.48.647-.605.987-.1.352-.022.48-.022.48.063.232.163.453.295.654l2.366 4.468 1.162 2.195c.159.313.145.687-.037.987-.182.3-.506.482-.855.482h-6.129c-.332 0-.693.041-.993-.133-.105-.063-.197-.145-.272-.24-.053-.107-.145-.2-.202-.308-.078-.15-.148-.306-.224-.458-.386-.767-.81-1.515-1.218-2.27z" transform="translate(-1044 -216) translate(696) translate(262 176) translate(86 40)"/>
                        <path fill="#C8E2BA" d="M16.456 11.416L11.643 4.97c.845-.554 1.727-1.045 2.639-1.469 2.193-1.008 4.53-1.638 6.917-1.864 1.752-.198 3.521-.183 5.27.046.856.098 1.707.244 2.547.437 1.715.398 3.379 1.006 4.956 1.812-.047-.013-.095-.023-.143-.029.075.024.152.047.227.073.209.107.416.218.621.334.004 0 .006.002.01.004.278.158.555.32.827.49.297.186.59.378.877.578l-5.05 6.26c-2.282-1.495-4.921-2.29-7.616-2.295-2.558-.007-5.07.707-7.27 2.068z" transform="translate(-1044 -216) translate(696) translate(262 176) translate(86 40)"/>
                        <path fill="#C6E6FD" d="M38.222 21.786c-.428-2.924-1.776-5.646-3.86-7.792l5.191-6.003c.46.425.897.874 1.316 1.34 1.609 1.794 2.894 3.84 3.798 6.053.82 2.05 1.312 4.208 1.462 6.402h-7.907z" transform="translate(-1044 -216) translate(696) translate(262 176) translate(86 40)"/>
                    </g>
                </g>
            </g>
        </g>
    </g>
</svg>
