<svg width="100" height="100" xmlns="http://www.w3.org/2000/svg"><g fill="none" fill-rule="evenodd"><rect fill="#FFEF1F" width="100" height="100" rx="4"/><g fill-rule="nonzero"><path fill="#ED6765" d="M75 24.8v-5.6h-5.6v-5.6H52.6v5.6H47v-5.6h-5.6V8H30.2v5.6h-5.6v5.6H19v22.4h5.6v11.2h5.6v-28h5.6v-5.6h5.6v5.6h-5.6v16.8h5.6V64H47v22.4H30.2V92h50.4v-5.6H63.8V69.6H75V58.4h5.6V24.8z"/><path fill="#5AA575" d="M52.6 13.601h5.601v5.601H52.6z"/><path fill="#76C393" d="M58.2 13.601h5.601v5.601H58.2z"/><path fill="#76C393" d="M63.8 13.601h5.601v5.601H63.8z"/><path fill="#5AA575" d="M47 19.2h5.601v5.601H47z"/><path fill="#76C393" d="M52.6 19.2h5.601v5.601H52.6z"/><path fill="#76C393" d="M58.2 19.2h5.601v5.601H58.2z"/><path fill="#76C393" d="M63.8 19.2h5.601v5.601H63.8z"/><path fill="#76C393" d="M69.4 19.2h5.601v5.601H69.4z"/><path fill="#5AA575" d="M41.4 24.8h5.601v5.601H41.4z"/><path fill="#76C393" d="M47 24.8h5.601v5.601H47z"/><path fill="#F3A569" d="M52.6 24.8h5.601v5.601H52.6z"/><path fill="#F6C69F" d="M58.2 24.8h5.601v5.601H58.2z"/><path fill="#F6C69F" d="M63.8 24.8h5.601v5.601H63.8z"/><path fill="#F6C69F" d="M69.4 24.8h5.601v5.601H69.4z"/><path fill="#76C393" d="M75 24.8h5.601v5.601H75z"/><path fill="#5AA575" d="M41.4 30.4h5.601v5.601H41.4zm0-16.799h5.601v5.601H41.4z"/><path fill="#5AA575" d="M41.4 19.2h5.601v5.601H41.4zm-16.799-5.599h5.601v5.601h-5.601z"/><path fill="#ED6765" d="M35.8 13.601h5.601v5.601H35.8zM35.8 8h5.601v5.601H35.8z"/><path fill="#5AA575" d="M30.2 13.601h5.601v5.601H30.2zM30.2 8h5.601v5.601H30.2z"/><path fill="#5AA575" d="M30.2 19.2h5.601v5.601H30.2z"/><path fill="#5AA575" d="M24.601 24.8h5.601v5.601h-5.601z"/><path fill="#5AA575" d="M24.601 19.2h5.601v5.601h-5.601zm0 16.8h5.601v5.601h-5.601zM19 36h5.601v5.601H19z"/><path fill="#5AA575" d="M24.601 30.4h5.601v5.601h-5.601zM19 24.8h5.601v5.601H19z"/><path fill="#5AA575" d="M19 19.2h5.601v5.601H19zm0 11.2h5.601v5.601H19zm5.601 16.8h5.601v5.601h-5.601z"/><path fill="#5AA575" d="M24.601 41.6h5.601v5.601h-5.601z"/><path fill="#76C393" d="M47 30.4h5.601v5.601H47z"/><path fill="#F3A569" d="M52.6 30.4h5.601v5.601H52.6z"/><path fill="#F6C69F" d="M58.2 30.4h5.601v5.601H58.2z"/><path fill="#F6C69F" d="M63.8 30.4h5.601v5.601H63.8z"/><path fill="#F6C69F" d="M69.4 30.4h5.601v5.601H69.4z"/><path fill="#F3A569" d="M75 30.4h5.601v5.601H75z"/><path fill="#5AA575" d="M41.4 36h5.601v5.601H41.4z"/><path fill="#F3A569" d="M47 36h5.601v5.601H47z"/><path fill="#F6C69F" d="M52.6 36h5.601v5.601H52.6z"/><path fill="#000" d="M58.2 36h5.601v5.601H58.2z"/><path fill="#F3A569" d="M63.8 36h5.601v5.601H63.8z"/><path fill="#000" d="M69.4 36h5.601v5.601H69.4z"/><path fill="#F3A569" d="M75 36h5.601v5.601H75z"/><path fill="#5AA575" d="M41.4 41.6h5.601v5.601H41.4z"/><path fill="#5AA575" d="M35.8 36h5.601v5.601H35.8z"/><path fill="#5AA575" d="M35.8 30.4h5.601v5.601H35.8z"/><path fill="#5AA575" d="M35.8 24.8h5.601v5.601H35.8z"/><path fill="#F3A569" d="M47 41.6h5.601v5.601H47z"/><path fill="#F6C69F" d="M52.6 41.6h5.601v5.601H52.6z"/><path fill="#F6C69F" d="M58.2 41.6h5.601v5.601H58.2z"/><path fill="#F3A569" d="M63.8 41.6h5.601v5.601H63.8z"/><path fill="#F6C69F" d="M69.4 41.6h5.601v5.601H69.4z"/><path fill="#F3A569" d="M75 41.6h5.601v5.601H75z"/><path fill="#5AA575" d="M41.4 47.2h5.601v5.601H41.4z"/><path fill="#F3A569" d="M47 47.2h5.601v5.601H47z"/><path fill="#F6C69F" d="M52.6 47.2h5.601v5.601H52.6z"/><path fill="#F6C69F" d="M58.2 47.2h5.601v5.601H58.2z"/><path fill="#F6C69F" d="M63.8 47.2h5.601v5.601H63.8z"/><path fill="#F6C69F" d="M69.4 47.2h5.601v5.601H69.4z"/><path fill="#F3A569" d="M75 47.2h5.601v5.601H75zm-33.6 5.6h5.601v5.601H41.4z"/><path fill="#F3A569" d="M47 52.8h5.601v5.601H47z"/><path fill="#F6C69F" d="M52.6 52.8h5.601v5.601H52.6z"/><path fill="#F5F7F0" d="M58.2 52.8h5.601v5.601H58.2z"/><path fill="#F5F7F0" d="M63.8 52.8h5.601v5.601H63.8z"/><path fill="#F3A569" d="M69.4 52.8h5.601v5.601H69.4z"/><path fill="#F6C69F" d="M75 52.8h5.601v5.601H75z"/><path fill="#F3A569" d="M41.4 58.4h5.601v5.601H41.4z"/><path fill="#F3A569" d="M47 58.4h5.601v5.601H47z"/><path fill="#F6C69F" d="M52.6 58.4h5.601v5.601H52.6z"/><path fill="#F6C69F" d="M58.2 58.4h5.601v5.601H58.2z"/><path fill="#F6C69F" d="M63.8 58.4h5.601v5.601H63.8z"/><path fill="#F6C69F" d="M69.4 58.4h5.601v5.601H69.4z"/><path fill="#F3A569" d="M47 64h5.601v5.601H47z"/><path fill="#F6C69F" d="M52.6 64h5.601v5.601H52.6z"/><path fill="#F6C69F" d="M58.2 64h5.601v5.601H58.2z"/><path fill="#F6C69F" d="M63.8 64h5.601v5.601H63.8z"/><path fill="#F6C69F" d="M69.4 64h5.601v5.601H69.4z"/><path fill="#F3A569" d="M47 69.6h5.601v5.601H47z"/><path fill="#F3A569" d="M52.6 69.6h5.601v5.601H52.6z"/><path fill="#F6C69F" d="M58.2 69.6h5.601v5.601H58.2z"/><path fill="#EB3D33" d="M47 75.2h5.601v5.601H47z"/><path fill="#F3A569" d="M52.6 75.2h5.601v5.601H52.6z"/><path fill="#ED6765" d="M58.2 75.2h5.601v5.601H58.2z"/><path fill="#EB3D33" d="M47 80.8h5.601v5.601H47z"/><path fill="#F3A569" d="M52.6 80.8h5.601v5.601H52.6z"/><path fill="#ED6765" d="M58.2 80.8h5.601v5.601H58.2z"/><path fill="#EB3D33" d="M41.4 86.399h5.601V92H41.4z"/><path fill="#ED6765" d="M47 86.399h5.601V92H47z"/><path fill="#F3A569" d="M52.6 86.399h5.601V92H52.6z"/><path fill="#ED6765" d="M58.2 86.399h5.601V92H58.2z"/><path fill="#ED6765" d="M63.8 86.399h5.601V92H63.8z"/><path fill="#ED6765" d="M69.4 86.399h5.601V92H69.4z"/><path fill="#ED6765" d="M75 86.399h5.601V92H75z"/><path fill="#EB3D33" d="M30.2 86.399h5.601V92H30.2z"/><path fill="#EB3D33" d="M35.8 86.399h5.601V92H35.8z"/></g></g></svg>