<svg width="32" height="32" viewBox="0 0 32 32" xmlns="http://www.w3.org/2000/svg">
    <g fill="none" fill-rule="evenodd">
        <path d="M4.326 4.326h23.758v23.758H4.326z"/>
        <path d="m17.414 3.414 11.172 11.172a2 2 0 0 1 0 2.828L17.414 28.586a2 2 0 0 1-2.828 0L3.414 17.414a2 2 0 0 1 0-2.828L14.586 3.414a2 2 0 0 1 2.828 0z" stroke="#050506" stroke-width="2" fill="#FFF"/>
        <path d="M3.16 4.15h23.759v23.759H3.159z"/>
        <path d="m19.83 15.704-2.233 2.233a.742.742 0 0 0 1.05 1.05l3.5-3.5c.29-.29.29-.76 0-1.05l-3.5-3.5a.742.742 0 0 0-1.05 1.05l2.232 2.232h-7.427c-.957 0-1.733.776-1.733 1.732v3.62c.394.495 1.116.495 1.485 0v-3.62c0-.136.111-.247.248-.247h7.427z" fill="#050506"/>
    </g>
</svg>
