<svg width="112" height="112" viewBox="0 0 112 112" xmlns="http://www.w3.org/2000/svg">
    <g fill="none" fill-rule="evenodd">
        <path d="M14 0h84c7.732 0 14 6.268 14 14v84c0 7.732-6.268 14-14 14H14c-7.732 0-14-6.268-14-14V14C0 6.268 6.268 0 14 0z" fill="#57C78F"/>
        <path d="M91.169 85.11H56.37l-.487.005 4.59 14.635h35.288L91.17 85.11zM68.74 55.286 55.882 68.146 43.024 55.287c-7.089-7.09-7.09-18.627 0-25.716a18.066 18.066 0 0 1 12.858-5.326c4.857 0 9.424 1.891 12.859 5.326 7.09 7.09 7.09 18.626 0 25.716M86.06 42.43c0-8.061-3.14-15.64-8.839-21.34-5.7-5.7-13.279-8.839-21.34-8.839-8.06 0-15.64 3.14-21.34 8.84-5.7 5.7-8.839 13.278-8.839 21.34 0 8.06 3.14 15.639 8.84 21.339l21.34 21.34 21.339-21.34c5.7-5.7 8.84-13.279 8.84-21.34" fill="#050506"/>
    </g>
</svg>
