<svg xmlns="http://www.w3.org/2000/svg" width="24" height="24" viewBox="0 0 24 24">
    <path d="M13 1l.001 3.062c3.625.458 6.48 3.313 6.937 6.938H23v2l-3.062.001c-.458 3.625-3.312 6.479-6.937 6.937L13 23h-2v-3.062c-3.625-.458-6.48-3.312-6.938-6.937L1 13v-2h3.062C4.52 7.375 7.375 4.52 11 4.062V1h2zm-1 5c-3.314 0-6 2.686-6 6s2.686 6 6 6 6-2.686 6-6-2.686-6-6-6zm0 4c1.105 0 2 .895 2 2s-.895 2-2 2-2-.895-2-2 .895-2 2-2z" transform="translate(-328.000000, -512.000000) translate(316.000000, 500.000000) translate(12.000000, 12.000000)"/>
</svg>
