<svg width="106" height="28" viewBox="0 0 106 28" fill="none" xmlns="http://www.w3.org/2000/svg">
<path d="M4.9 0.579987H0.35C0.17 0.579987 0.0200005 0.729985 0.0200005 0.909985V27.24C0.0200005 27.42 0.17 27.57 0.35 27.57H4.9C5.08 27.57 5.23 27.42 5.23 27.24V0.909985C5.23 0.729985 5.08 0.579987 4.9 0.579987Z" fill="#00A3A6"/>
<path d="M30.55 0.579987H26.02C25.84 0.579987 25.69 0.729985 25.69 0.909985V18.52L14.53 0.739986C14.47 0.639986 14.36 0.589985 14.25 0.589985H9.69C9.51 0.589985 9.36 0.739983 9.36 0.919983V27.25C9.36 27.43 9.51 27.58 9.69 27.58H14.26C14.44 27.58 14.59 27.43 14.59 27.25V9.70998L25.7 27.42C25.76 27.52 25.87 27.57 25.98 27.57H30.55C30.73 27.57 30.88 27.42 30.88 27.24V0.909985C30.88 0.729985 30.73 0.579987 30.55 0.579987" fill="#00A3A6"/>
<path d="M49.68 16.2C51.09 15.55 52.22 14.64 53.04 13.49C53.93 12.25 54.37 10.7 54.37 8.86998C54.37 6.19998 53.5 4.11999 51.78 2.69999C50.08 1.28999 47.64 0.579987 44.54 0.579987H35.29C35.11 0.579987 34.96 0.729985 34.96 0.909985V27.24C34.96 27.42 35.11 27.57 35.29 27.57H39.86C40.04 27.57 40.19 27.42 40.19 27.24V17.44H44.76L49.94 27.39C50 27.5 50.11 27.57 50.23 27.57H55.12C55.3 27.57 55.45 27.42 55.45 27.24V27.01C55.45 26.95 55.44 26.9 55.41 26.85L49.68 16.2V16.2ZM47.95 12.02C47.15 12.74 46.01 13.1 44.56 13.1H40.19V4.92999H44.68C46.18 4.94999 47.31 5.31998 48.04 6.02998C48.77 6.72998 49.14 7.75998 49.14 9.06998C49.14 10.33 48.75 11.3 47.95 12.02" fill="#00A3A6"/>
<path d="M71.8 18.39L71.84 18.49H64.17L64.78 16.75L68 7.49999L71.8 18.39ZM92.09 4.92999C93.24 4.92999 94.36 5.13999 95.43 5.55999C92.75 10.51 88.45 14.4 83.27 16.57C83.04 15.76 82.93 14.94 82.93 14.1C82.93 9.04999 87.04 4.93999 92.09 4.92999M105.89 14.1C105.89 12.25 105.5 10.43 104.78 8.72999C104.65 8.53999 104.52 8.64999 104.47 8.69999L101.73 13C101.48 13.43 101.31 13.73 101.26 14.8C101.26 14.87 101.25 14.93 101.24 14.99C100.79 19.63 96.87 23.27 92.11 23.27C91.22 23.27 90.33 23.14 89.48 22.88C88.03 22.44 86.69 21.64 85.62 20.57C85.58 20.53 85.54 20.49 85.51 20.45C91.36 17.87 96.25 13.37 99.33 7.74999C100 6.51999 100.59 5.22999 101.08 3.90999C101.13 3.77999 101.09 3.62999 100.98 3.53999C99.96 2.67999 98.82 1.96999 97.6 1.43999C95.86 0.679987 94.02 0.299988 92.11 0.299988H92.1C92.1 0.299988 92.1 0.299988 92.09 0.299988C87.37 0.299988 83.21 2.68999 80.72 6.31999C79.2 8.52999 78.31 11.21 78.31 14.09C78.31 15.39 78.49 16.69 78.86 17.93C78.23 18.06 77.6 18.17 76.97 18.25L70.37 0.779987C70.32 0.649987 70.2 0.569988 70.06 0.569988H65.96C65.82 0.569988 65.7 0.649987 65.65 0.779987L55.72 27.11C55.68 27.21 55.7 27.32 55.76 27.41C55.82 27.5 55.92 27.55 56.03 27.55H60.78C60.92 27.55 61.04 27.46 61.09 27.33L62.68 22.75H73.33L73.38 22.89L74.93 27.33C74.98 27.46 75.1 27.55 75.24 27.55H80.01C80.12 27.55 80.22 27.5 80.28 27.41C80.34 27.32 80.36 27.21 80.32 27.11L78.58 22.51C79.32 22.39 80.06 22.23 80.79 22.05C80.81 22.04 80.83 22.04 80.85 22.04C80.87 22.07 80.89 22.1 80.91 22.13C81.81 23.39 82.91 24.47 84.18 25.37C86.51 27.01 89.24 27.88 92.09 27.88C92.1 27.88 92.1 27.88 92.11 27.88C99.7 27.89 105.89 21.71 105.89 14.1" fill="#00A3A6"/>
</svg>
