<?xml version="1.0" encoding="UTF-8"?>
<svg width="21px" height="20px" viewBox="0 0 21 20" version="1.1" xmlns="http://www.w3.org/2000/svg" xmlns:xlink="http://www.w3.org/1999/xlink">
    <!-- Generator: Sketch 52.2 (67145) - http://www.bohemiancoding.com/sketch -->
    <title>Mask</title>
    <desc>Created with Sketch.</desc>
    <defs>
        <path d="M19.7,18.3 L15.2,13.8 C16.3,12.4 17,10.5 17,8.5 C17,3.8 13.2,0 8.5,0 C3.8,0 0,3.8 0,8.5 C0,13.2 3.8,17 8.5,17 C10.5,17 12.3,16.3 13.8,15.2 L18.3,19.7 C18.5,19.9 18.8,20 19,20 C19.2,20 19.5,19.9 19.7,19.7 C20.1,19.3 20.1,18.7 19.7,18.3 Z M2,8.5 C2,4.9 4.9,2 8.5,2 C12.1,2 15,4.9 15,8.5 C15,10.3 14.3,11.9 13.1,13.1 C13.1,13.1 13.1,13.1 13.1,13.1 C13.1,13.1 13.1,13.1 13.1,13.1 C11.9,14.3 10.3,15 8.5,15 C4.9,15 2,12.1 2,8.5 Z" id="path-1"></path>
    </defs>
    <g id="Symbols" stroke="none" stroke-width="1" fill="none" fill-rule="evenodd">
        <g id="Components/Qwant/Layout/Main-search/Active" transform="translate(-677.000000, -24.000000)">
            <g id="Components/Main-search/Active">
                <g id="Icons/24x24/search" transform="translate(677.933975, 24.000000)">
                    <mask id="mask-2" fill="white">
                        <use xlink:href="#path-1"></use>
                    </mask>
                    <use id="Mask" fill="#898991" fill-rule="nonzero" xlink:href="#path-1"></use>
                </g>
            </g>
        </g>
    </g>
</svg>
