<svg xmlns="http://www.w3.org/2000/svg" width="28" height="28" viewBox="0 0 28 28">
  <path fill-opacity=".3" fill-rule="evenodd" d="M11.9856273,27.7208599 C6.61163076,27.7208599 2.24014116,23.3483718 2.24014116,17.9743752 C2.24014116,12.6003786 6.61163076,8.22888899 11.9856273,8.22888899 C17.3606224,8.22888899 21.7331106,12.6003786 21.7331106,17.9743752 C21.7331106,23.3483718 17.3606224,27.7208599 11.9856273,27.7208599 M19.2095605,9.69271731 C17.276033,8.00459978 14.7481616,6.98074783 11.9856273,6.98074783 C5.92465387,6.98074783 0.992,11.9124032 0.992,17.9743752 C0.992,24.0373457 5.92465387,28.969001 11.9856273,28.969001 C18.0485979,28.969001 22.9812517,24.0373457 22.9812517,17.9743752 C22.9812517,15.2122202 21.9571363,12.684741 20.268616,10.7515536 L28.992,2.02912222 L27.9325778,0.9697 L19.2095605,9.69271731 Z" transform="matrix(1 0 0 -1 -1 29)"/>
</svg>
