<svg xmlns="http://www.w3.org/2000/svg" width="18" height="18" viewBox="0 0 18 18">
    <g fill="none" fill-rule="nonzero">
        <path fill="#FCEB23" d="M16.26 18H1.74C.78 18 0 17.166 0 16.139V1.861C0 .834.78 0 1.74 0h14.52C17.22 0 18 .834 18 1.861v14.278C18 17.166 17.22 18 16.26 18z"/>
        <path fill="#040505" d="M4.803 7.325a.747.747 0 0 1-.764-.735v-.84c0-.42.351-.75.764-.75a.77.77 0 0 1 .764.75v.825c0 .42-.336.75-.749.75h-.015zM9.573 14c-.703 0-1.407-.12-2.064-.345a7.364 7.364 0 0 1-3.348-2.34.754.754 0 0 1 .138-1.065.767.767 0 0 1 1.07.12s0 .015.015.015c1.376 1.71 3.684 2.505 5.488 1.905 1.682-.57 2.6-2.205 2.6-4.605V5.75c0-.42.336-.75.764-.75a.75.75 0 0 1 .764.75v1.935c0 3.06-1.33 5.25-3.638 6.03a5.577 5.577 0 0 1-1.79.285z"/>
    </g>
</svg>
