<svg xmlns="http://www.w3.org/2000/svg" xmlns:xlink="http://www.w3.org/1999/xlink" width="382" height="4" viewBox="0 0 382 4">
    <defs>
        <path id="a" d="M3 0h376a3 3 0 0 1 3 3v1H0V3a3 3 0 0 1 3-3z"/>
    </defs>
    <g fill="none" fill-rule="evenodd">
        <mask id="b" fill="#fff">
            <use xlink:href="#a"/>
        </mask>
        <use fill="#D8D8D8" xlink:href="#a"/>
        <path fill="#73B852" fill-rule="nonzero" d="M-1.019-86.897h382V7.724h-382z" mask="url(#b)"/>
        <path fill="#428BCA" fill-rule="nonzero" d="M99.83-86.897C93.426-51.617 85.7-19.716 76.942 7.724H44.821c4.93-29.332 8.905-61.098 11.775-94.62h43.233z" mask="url(#b)"/>
        <path fill="#1BB7CF" fill-rule="nonzero" d="M57.045-86.897c-2.813 33.523-6.76 65.289-11.693 94.621h-46.37v-94.62h58.063z" mask="url(#b)"/>
        <path fill="#82C363" fill-rule="nonzero" d="M228.181 7.724h-72.11c-11.279-25.547-21.307-57.448-29.756-94.62h84.858c4.592 34.198 10.323 65.964 17.008 94.62z" mask="url(#b)"/>
        <path fill="#87C966" fill-rule="nonzero" d="M379.963-86.897V7.724h-96.774c11.318-25.547 21.383-57.448 29.862-94.62h66.912z" mask="url(#b)"/>
        <path fill="#9DDC7D" fill-rule="nonzero" d="M314.768-86.897c-8.529 37.173-18.69 69.074-30.036 94.621H228.07c-6.749-28.656-12.57-60.422-17.206-94.62h103.904z" mask="url(#b)"/>
        <path fill="#76BC54" fill-rule="nonzero" d="M382-86.897V7.724h-48.896c.572-32.576 2.098-64.207 4.539-94.62H382z" mask="url(#b)"/>
    </g>
</svg>
