<svg xmlns="http://www.w3.org/2000/svg" width="535.1" height="109.6" viewBox="16 227.3 535.1 109.6"><path fill="#010101" d="M67.7 334.4a8 8 0 01-2.5-5.8v-1.5-3-16-45.3-2.3c0-.6 0-1.2.2-1.7a8 8 0 012.3-4 9 9 0 016.1-2.6h467.4c1 0 1.9 0 2.8.2a8.5 8.5 0 017 8v68.2c0 2.3-.9 4.3-2.5 5.8-.7.6-1.4 1.2-2.3 1.6-1.1.5-2.4.9-3.8.9H74c-2.4 0-4.6-1-6.2-2.5z"/><path fill="#FFF" d="M351.6 278.7c-1.3 0-2.4 1.1-2.4 2.4v7.9c0 10.1-4 17-11.1 19.4-1.7.6-3.6.9-5.6.9a23 23 0 01-17.6-8.8c-.5-.5-1.1-.9-1.9-.9-.6 0-1 .2-1.5.5-.5.4-.9 1-1 1.6 0 .6.1 1.2.6 1.7 3.4 4.3 8.1 7.6 13.2 9.3a24.3 24.3 0 0015.3.2c9-3 14.4-11.7 14.4-23.8v-8c0-1.3-1.1-2.4-2.4-2.4zm-199.8 0H138c-1.3 0-2.4 1.1-2.4 2.4v30c0 1.3 1.1 2.3 2.4 2.3 1.3 0 2.4-1 2.4-2.3v-5.9h10.4c9.1 0 16.8-4.5 16.8-13.4v-.1c0-8-6.3-13-16-13zm11.1 13.4c0 5.4-4.7 9-11.7 9h-10.6v-18h10.8c7 0 11.5 3 11.5 8.9zm23.7-9.7c-4 0-7.2.8-10.3 2.1a2 2 0 00-1.3 1.9c0 1 1 1.9 2 1.9l1-.2c2.3-1 4.9-1.7 8.1-1.7 6 0 9.4 2.8 9.4 8.3v1c-2.8-.7-5.7-1.2-9.8-1.2-8 0-13.5 3.4-13.5 9.7v.2c0 6.2 6 9.4 11.8 9.4a14 14 0 0011.5-5.2v2.8c0 1.1 1 2.1 2.3 2.1 1.3 0 2.3-1 2.3-2.2v-16.6c0-3.9-1.1-6.8-3.3-8.8-2.3-2.3-5.8-3.5-10.2-3.5zm9 19.6c0 4.8-4.8 8.2-10.6 8.2-4.3 0-8-2.3-8-6v-.1c0-3.9 3.3-6.3 9.2-6.3 3.9 0 7 .7 9.4 1.3v3zm41.7-19.4c-1.4 0-2.4 1-2.4 2.3v3.4a15 15 0 00-12.4-6.2c-7.5 0-14.9 5.5-14.9 14.4v.1c0 8.8 7.3 14.2 15 14.2 5.8 0 9.6-3 12.4-6.4v3.5c0 7.2-4.6 10.8-11.6 10.8-4.1 0-7.9-1.1-11.1-3.3l-1-.3c-1.2 0-2.2 1-2.2 2a2 2 0 001.2 1.9c4 2.3 8.4 3.5 13.3 3.5 5 0 9.2-1.3 12-4 2.6-2.4 4-6 4-10.7v-23c0-1.2-1-2.2-2.3-2.2zm-2.2 14c0 6-5.6 10.2-11.7 10.2-5.8 0-11-4.2-11-10.3v-.2c0-6.2 5-10.2 11-10.2s11.7 4.1 11.7 10.3v.1zm245.1-14.2c-8.7 0-15.2 7-15.2 15.7v.1c0 9.4 7.2 15.8 15.9 15.8 5.4 0 9-1.8 12-4.6.4-.4.7-.9.7-1.5 0-1-1-1.9-2-1.9a2 2 0 00-1.4.5c-2.4 2-5.2 3.5-9.1 3.5a11 11 0 01-11.2-10.3h23c1 0 2.1-.8 2.1-2 0-8-5.4-15.3-14.8-15.3zm-10.4 14c.6-5.8 4.8-10.3 10.3-10.3 6.2 0 9.6 4.9 10 10.4h-20.3zm-23.2-14a12 12 0 00-10.8 5.9V285c0-1.3-1.1-2.3-2.5-2.3-1.2 0-2.3 1-2.3 2.3v26.3c0 1.3 1 2.3 2.4 2.3s2.4-1 2.4-2.3v-15.4a9 9 0 019.4-9.5c5.6 0 8.8 3.5 8.8 9.1v15.7c0 1.3 1 2.3 2.4 2.3 1.3 0 2.4-1 2.4-2.3v-16.7c-.1-7.3-4.6-12.1-12.2-12.1zm67.7 13.6c-4.2-1.2-8.1-2.4-8.1-5.2v-.2c0-2.5 2.4-4.4 6-4.4 2.8 0 5.6.9 8.3 2.4l1 .2c1.2 0 2.1-.9 2.1-2 0-.8-.6-1.4-1.1-1.9-3-1.5-6.8-2.5-10.1-2.5-6.3 0-10.8 3.4-10.8 8.7v.1c0 5.6 5.5 7.2 10.5 8.5 4.2 1.2 7.9 2.3 7.9 5.4v.1c0 3-2.7 4.8-6.6 4.8-3.4 0-6.8-1.1-10-3.2a2 2 0 00-1.2-.4c-1.1 0-2 .9-2 2 0 .8.4 1.3.8 1.6 3.5 2.4 8 3.9 12.2 3.9 6.3 0 11.3-3.4 11.3-9.2v-.1c-.1-5.4-5.4-7.2-10.2-8.6zm-218.7-.2c-4.2-1.2-8.1-2.3-8.1-5.2v-.1c0-2.5 2.3-4.4 6.1-4.4 2.7 0 5.6.8 8.3 2.3.2.2.6.2 1 .2 1.2 0 2.1-.8 2.1-1.9 0-.8-.6-1.5-1.1-1.8-3-1.6-6.8-2.6-10.1-2.6-6.3 0-10.8 3.4-10.8 8.6v.2c0 5.5 5.5 7.1 10.5 8.5 4.2 1.1 7.9 2.3 7.9 5.3v.2c0 3-2.8 4.8-6.6 4.8-3.4 0-6.7-1.2-10-3.2a2 2 0 00-1.2-.4c-1.1 0-2.1 1-2.1 2 0 .7.4 1.3.9 1.6 3.4 2.3 8 3.8 12.1 3.8 6.3 0 11.3-3.3 11.3-9v-.2c0-5.4-5.3-7.2-10.2-8.7zm-33.4-13.6c-8.8 0-15.2 7-15.2 15.8v.1c0 9.3 7 15.8 15.8 15.8 5.4 0 9-1.8 12-4.6.4-.4.7-1 .7-1.5 0-1-1-2-2.1-2-.6 0-1 .3-1.4.6-2.3 2-5.2 3.5-9 3.5a11 11 0 01-11.3-10.3h23c1.1 0 2.2-1 2.2-2.1 0-8-5.3-15.3-14.7-15.3zm-10.4 14.1c.6-5.9 4.8-10.3 10.3-10.3 6.4 0 9.6 4.8 10.1 10.3h-20.4zm121.4-13.7c-4 0-7.2.8-10.3 2a2 2 0 00-1.3 1.9c0 1 1 2 2 2l1-.2c2.3-1 5-1.7 8.1-1.7 6 0 9.4 2.7 9.4 8.2v1.1c-2.8-.8-5.7-1.3-9.8-1.3-8 0-13.5 3.4-13.5 9.8v.1c0 6.2 6 9.4 11.8 9.4a14 14 0 0011.5-5.2v2.8c0 1.1 1 2.1 2.3 2.1 1.3 0 2.3-.9 2.3-2.2v-16.6c0-3.8-1.2-6.7-3.3-8.8-2.3-2.3-5.7-3.4-10.2-3.4zm9 19.6c0 4.7-4.8 8.2-10.6 8.2-4.3 0-8-2.2-8-6v-.2c0-3.8 3.3-6.3 9.2-6.3 3.9 0 7 .6 9.4 1.3v3zm37.6-19.6c-1.4 0-2.4 1-2.4 2.3v15.3a9 9 0 01-9.4 9.5c-5.6 0-8.8-3.5-8.8-9.1v-15.7c0-1.3-1-2.3-2.4-2.3s-2.4 1-2.4 2.3v16.8c0 7.2 4.5 12.2 12.1 12.2 5.5 0 8.7-2.7 10.9-6v3.3c0 1.3 1 2.3 2.3 2.3 1.4 0 2.4-1 2.4-2.3V285c0-1.2-1-2.3-2.3-2.3z"/><path fill="#FDEB03" d="M108 229.7c-1.3-1.2-3-2-4.7-2.3l-1.8-.1H24c-1 .1-2.4.5-3.3.8-.9.5-1.6 1-2.3 1.6-1 1-1.7 2-2.1 3.2-.4 1-.4 2.2-.4 3.3V304l.2 1.9a9 9 0 002.3 3.7c.7.7 1.4 1.3 2.4 1.6.8.4.8.4 2.8.8 1.2.3 2.6.3 4 .3H101.4c.7 0 1.3 0 1.9-.2a8.2 8.2 0 007.2-8v-11.4-19.9-25.5-7-4.1c0-1.1 0-2.2-.4-3.3-.6-1.2-1.3-2.3-2.3-3.2z"/><path fill="#010101" d="M39.5 263c2.7 0 4.8-1.9 4.8-4v-4.6c0-2.2-2.1-4-4.8-4-2.6 0-4.7 1.8-4.7 4v4.5c0 2.3 2.1 4 4.7 4zm48-12.6a4 4 0 00-3.9 3.9v10.2c0 12.6-4.7 21.2-13.4 24.1-9.4 3.2-21.3-1-28.3-9.9a4 4 0 00-5.6-.7 4 4 0 00-.7 5.6 37 37 0 0017.2 12.2 32.6 32.6 0 0019.9.3c11.9-4 18.8-15.6 18.8-31.6v-10.1a4 4 0 00-4-4z"/></svg>
