<?xml version="1.0" encoding="utf-8"?>
<!-- Generator: Adobe Illustrator 21.0.2, SVG Export Plug-In . SVG Version: 6.00 Build 0)  -->
<svg version="1.1" id="Calque_1" xmlns="http://www.w3.org/2000/svg" xmlns:xlink="http://www.w3.org/1999/xlink" x="0px" y="0px"
	 viewBox="0 0 499.1 115.8" style="enable-background:new 0 0 499.1 115.8;" xml:space="preserve">
<style type="text/css">
	.st0{fill:#FFEC00;}
</style>
<title>Fichier 1</title>
<g id="Calque_2">
	<g id="Calque_1-2">
		<path class="st0" d="M111.8,115.8H12c-6.6,0-12-5.4-12-12V12C0,5.4,5.4,0,12,0h99.8c6.6,0,12,5.4,12,12v91.8
			C123.8,110.4,118.4,115.8,111.8,115.8z"/>
		<g>
			<path d="M30.7,49.8c-2.8,0-5.2-2.3-5.2-5.1c0,0,0-0.1,0-0.1v-5.7c0-2.9,2.3-5.2,5.2-5.2s5.2,2.3,5.2,5.2l0,0v5.7
				C35.9,47.4,33.6,49.8,30.7,49.8C30.8,49.8,30.7,49.8,30.7,49.8z"/>
			<path d="M63,95.9c-4.8,0-9.5-0.8-14-2.4c-8.9-3.1-16.8-8.7-22.6-16.1c-1.8-2.3-1.3-5.5,0.9-7.3c2.2-1.8,5.5-1.4,7.2,0.8
				c0,0,0.1,0.1,0.1,0.1c9.3,11.8,24.9,17.3,37.2,13.1c11.4-3.9,17.6-15.2,17.6-31.8V39c0-2.9,2.3-5.2,5.2-5.2
				c2.9,0,5.2,2.3,5.2,5.2v13.4c0,21.1-9,36.2-24.6,41.6C71.3,95.2,67.1,95.9,63,95.9z"/>
		</g>
		<g>
			<path d="M345.4,40c-1.2,0-2.1,0.9-2.1,2.1v7.2c0,9.2-3.5,15.4-9.9,17.6c-1.6,0.5-3.2,0.8-4.9,0.8c-6.2-0.2-11.9-3.1-15.7-8
				c-0.4-0.5-1-0.8-1.7-0.8c-0.5,0-0.9,0.2-1.3,0.5c-0.4,0.4-0.7,0.9-0.8,1.4c-0.1,0.6,0.1,1.1,0.4,1.6c3,3.9,7.1,6.8,11.8,8.4
				c4.4,1.6,9.2,1.6,13.6,0.2c8.1-2.8,12.8-10.7,12.8-21.7v-7.2C347.5,40.9,346.6,40,345.4,40z"/>
			<path d="M167.8,40h-12.1c-1.1,0-2.1,1-2.1,2.1v27.2c0,1.2,0.9,2.1,2.1,2.1c1.2,0,2.1-0.9,2.2-2.1V64h9.3c8.1,0,15-4.1,15-12.2
				v-0.1C182,44.5,176.4,40,167.8,40z M177.7,52.1c0,4.9-4.2,8.2-10.5,8.2h-9.4V43.9h9.7C173.6,43.9,177.7,46.7,177.7,52.1z"/>
			<path d="M198.7,43.4c-3.2,0-6.3,0.6-9.2,1.9c-0.6,0.3-1.1,1-1.1,1.7c0,1,0.9,1.8,1.9,1.8c0.3,0,0.6-0.1,0.8-0.2
				c2.3-1,4.8-1.6,7.3-1.6c5.3,0,8.4,2.5,8.4,7.5v1c-2.8-0.8-5.8-1.2-8.7-1.2c-7.1,0-12,3.1-12,8.9v0.1c0,5.6,5.3,8.6,10.5,8.6
				c3.9,0.1,7.7-1.6,10.2-4.7v2.5c0,1,0.8,1.9,1.8,1.9c0.1,0,0.1,0,0.2,0c1.1,0,2-0.9,2-2V54.5c0-3.5-1-6.2-2.9-8
				C205.7,44.4,202.7,43.4,198.7,43.4z M206.7,61.2c0,4.4-4.3,7.5-9.4,7.5c-3.8,0-7.1-2-7.1-5.5v-0.1c0-3.5,2.9-5.7,8.2-5.7
				c2.8,0,5.6,0.4,8.3,1.2V61.2z"/>
			<path d="M243.8,43.5c-1.2,0-2.1,0.9-2.1,2.1v3.1c-2.5-3.5-6.7-5.6-11-5.5c-6.7,0-13.2,4.9-13.2,13v0.1c0,7.9,6.5,12.9,13.2,12.9
				c5.2,0,8.6-2.6,11.1-5.8v3.2c0,6.5-4,9.8-10.3,9.8c-3.6,0-7-1.1-10-3c-0.3-0.2-0.6-0.3-0.9-0.3c-1,0-1.8,0.8-1.9,1.8
				c0,0.7,0.4,1.4,1.1,1.7c3.6,2.1,7.6,3.3,11.8,3.3c4.5,0,8.2-1.2,10.7-3.7c2.3-2.2,3.6-5.5,3.6-9.7V45.6
				C245.9,44.5,244.9,43.5,243.8,43.5z M241.8,56.2c0,5.5-5,9.3-10.4,9.3c-5.2,0.2-9.5-3.9-9.7-9.1c0-0.1,0-0.2,0-0.3V56
				c0-5.6,4.4-9.3,9.7-9.3S241.8,50.5,241.8,56.2z"/>
			<path d="M459.7,43.3c-7.8,0-13.5,6.4-13.5,14.3v0.1c-0.3,7.6,5.7,14,13.3,14.3c0.3,0,0.5,0,0.8,0c3.9,0.1,7.8-1.3,10.6-4.1
				c0.4-0.3,0.6-0.8,0.7-1.3c0-0.9-0.8-1.7-1.7-1.7c0,0-0.1,0-0.1,0c-0.5,0-0.9,0.2-1.2,0.5c-2.2,2.1-5.1,3.2-8.1,3.2
				c-5,0-9.3-3.3-9.9-9.3H471c1.1,0,1.9-0.8,2-1.9C472.8,50,468.1,43.3,459.7,43.3z M450.5,56.1c0.5-5.4,4.2-9.4,9.1-9.4
				c5.6,0,8.6,4.4,9,9.4H450.5z"/>
			<path d="M429.8,43.3c-4-0.1-7.7,1.9-9.7,5.4v-3c0-1.1-0.9-2.1-2-2.1c0,0-0.1,0-0.1,0c-1.1,0-2.1,1-2.1,2.1v23.9
				c0,1.2,0.9,2.1,2.1,2.1s2.1-0.9,2.1-2.1V55.7c0-5.2,3.6-8.6,8.4-8.6c5,0,7.8,3.2,7.8,8.3v14.3c0,1.1,0.9,2.1,2,2.1
				c0,0,0.1,0,0.1,0c1.2,0,2.1-0.9,2.1-2.1V54.3C440.6,47.8,436.6,43.3,429.8,43.3z"/>
			<path d="M490,55.7c-3.8-1.1-7.2-2.1-7.2-4.7v-0.1c0-2.3,2.1-4,5.4-4c2.6,0.1,5.1,0.8,7.4,2.1c0.3,0.1,0.6,0.2,0.9,0.2
				c1,0,1.9-0.8,1.9-1.8c0-0.7-0.4-1.3-1-1.7c-2.8-1.4-5.9-2.2-9-2.3c-5.5,0-9.6,3.1-9.6,7.9v0.1c0,5.1,4.9,6.5,9.3,7.8
				c3.7,1,7,2.1,7,4.8v0.1c0,2.7-2.4,4.4-5.8,4.4c-3.2,0-6.3-1.1-8.9-2.9c-0.3-0.2-0.6-0.3-1-0.3c-1,0-1.9,0.8-1.9,1.8
				c0,0.6,0.3,1.1,0.7,1.5c3.2,2.2,7,3.4,10.9,3.5c5.6,0,10-3,10-8.2v-0.1C499,58.6,494.3,57,490,55.7z"/>
			<path d="M295.6,55.6c-3.8-1.1-7.2-2.1-7.2-4.7v-0.1c0-2.3,2.1-4,5.4-4c2.6,0.1,5.1,0.8,7.4,2.1c0.3,0.1,0.6,0.2,0.9,0.2
				c1,0,1.8-0.8,1.8-1.8c0,0,0,0,0,0c0-0.7-0.4-1.3-1-1.7c-2.8-1.4-5.9-2.2-9-2.3c-5.6,0-9.6,3.1-9.6,7.9v0.1c0,5.1,4.9,6.5,9.3,7.8
				c3.7,1,7,2.1,7,4.8V64c0,2.7-2.4,4.4-5.8,4.4c-3.2-0.1-6.3-1.1-8.9-2.9c-0.3-0.2-0.6-0.3-1-0.3c-1-0.1-1.8,0.7-1.9,1.7
				c0,0.6,0.3,1.3,0.8,1.6c3.2,2.2,7,3.4,10.9,3.5c5.6,0,10-3,10-8.2v-0.3C304.7,58.5,300,56.9,295.6,55.6z"/>
			<path d="M265.9,43.2c-7.8,0-13.5,6.4-13.5,14.3v0.1c-0.3,7.6,5.7,14,13.3,14.3c0.3,0,0.5,0,0.8,0c3.9,0.1,7.7-1.4,10.6-4.1
				c0.4-0.3,0.7-0.8,0.7-1.3c0-1-0.9-1.8-1.9-1.8c-0.5,0-0.9,0.2-1.2,0.5c-2.2,2.1-5.1,3.2-8.1,3.2c-5,0-9.3-3.4-9.9-9.3h20.4
				c1.1,0,1.9-0.8,2-1.9C279,49.9,274.3,43.2,265.9,43.2z M256.7,56c0.5-5.4,4.3-9.4,9.2-9.4c5.6,0,8.5,4.4,9,9.4H256.7z"/>
			<path d="M364.6,43.5c-3.2,0-6.3,0.6-9.2,1.9c-0.7,0.3-1.1,1-1.1,1.7c0,1,0.8,1.8,1.8,1.8c0.3,0,0.5-0.1,0.8-0.2
				c2.3-1,4.8-1.5,7.3-1.5c5.3,0,8.4,2.5,8.4,7.5v1c-2.8-0.8-5.8-1.2-8.7-1.2c-7.1,0-12,3.1-12,8.9v0.1c0,5.6,5.3,8.5,10.5,8.5
				c4,0.1,7.7-1.6,10.2-4.7v2.5c0,1,0.8,1.9,1.8,1.9c0.1,0,0.1,0,0.2,0c1.1,0,2-0.9,2-2v-15c0-3.5-1-6.2-2.9-8
				C371.6,44.6,368.6,43.5,364.6,43.5z M372.6,61.3c0,4.3-4.3,7.5-9.4,7.5c-3.8,0-7.1-2-7.1-5.5v-0.1c0-3.4,3-5.7,8.2-5.7
				c2.8,0,5.6,0.4,8.3,1.2V61.3z"/>
			<path d="M406,43.6c-1.1,0-2.1,0.9-2.1,2c0,0,0,0.1,0,0.1v13.9c0,5.2-3.6,8.6-8.4,8.6c-5,0-7.8-3.2-7.8-8.3V45.7
				c0-1.2-0.9-2.1-2.1-2.1c-1.1,0-2.1,0.9-2.1,2c0,0,0,0.1,0,0.1V61c0,6.5,4,11,10.8,11c4,0.1,7.7-1.9,9.6-5.4v3
				c0,1.1,0.9,2.1,2,2.1c0,0,0.1,0,0.1,0c1.2,0,2.1-0.9,2.1-2.1V45.7C408.1,44.6,407.1,43.6,406,43.6z"/>
		</g>
	</g>
</g>
</svg>
