<svg width="24" height="24" viewBox="0 0 24 24" xmlns="http://www.w3.org/2000/svg">
    <g fill="none" fill-rule="evenodd">
        <path d="M4 0h16a4 4 0 0 1 4 4v16a4 4 0 0 1-4 4H4a4 4 0 0 1-4-4V4a4 4 0 0 1 4-4z" fill="#5C97FF"/>
        <path d="M12.094 18.162c4.235-.057 7.663-3.52 7.663-7.768 0-4.284-3.485-7.769-7.769-7.769-4.284 0-7.77 3.485-7.77 7.77 0 4.283 3.486 7.768 7.769 7.768l1.007 3.212h7.745l-1.008-3.213h-7.637zm-5.247-7.768a5.147 5.147 0 0 1 5.141-5.14 5.147 5.147 0 0 1 5.141 5.14 5.147 5.147 0 0 1-5.141 5.141 5.147 5.147 0 0 1-5.141-5.14z" fill="#050506"/>
    </g>
</svg>
