<?xml version="1.0" encoding="UTF-8"?>
<svg width="52px" height="51px" viewBox="0 0 52 51" version="1.1" xmlns="http://www.w3.org/2000/svg" xmlns:xlink="http://www.w3.org/1999/xlink">
    <!-- Generator: Sketch 51.1 (57501) - http://www.bohemiancoding.com/sketch -->
    <title>Elements/Logos/Without-text/Colored</title>
    <desc>Created with Sketch.</desc>
    <defs></defs>
    <g id="Styles" stroke="none" stroke-width="1" fill="none" fill-rule="evenodd">
        <g id="Logos" transform="translate(-748.000000, -571.000000)">
            <g id="Icons" transform="translate(96.000000, 160.000000)">
                <g id="Stacked-Group" transform="translate(31.000000, 346.000000)">
                    <g transform="translate(564.000000, 63.000000)" id="logo-without-text">
                        <g>
                            <g id="Group" transform="translate(54.000000, 0.000000)">
                                <g id="Elements/Logos/Without-text/Colored/360">
                                    <g id="QWANT_LOGO" transform="translate(3.000000, 2.000000)">
                                        <path d="M33.8756941,49.2348124 C33.6312235,49.9203747 32.9359294,50.0329507 32.3105176,50.1873608 C31.5658118,50.3706788 30.8109882,50.5161581 30.0524,50.6310843 C28.6771059,50.8386097 27.2879294,50.9258032 25.8987529,50.9840889 C24.4599294,51.0435498 22.9898118,50.913347 21.5665176,50.7133424 C20.0516941,50.5008816 18.5564,50.158218 17.1025176,49.6877018 C14.4469882,48.8286926 11.9331059,47.5410014 9.70792941,45.8561212 C8.99381176,45.3160382 8.31122353,44.7367065 7.66298824,44.1218862 C6.25334118,42.7874253 5.00745882,41.2832779 3.96251765,39.6439922 C2.40345882,37.1952871 1.25875294,34.4845313 0.625576471,31.6522687 C-0.0191294118,28.7671258 -0.139364706,25.6008954 0.145341176,22.6600521 C0.147929412,22.6372548 0.149105882,22.6158677 0.151694118,22.5930705 C0.427929412,26.7722502 2.20581176,32.0586235 9.15687059,38.071218 C16.3611059,44.3030889 27.6867529,42.8393654 30.1208706,41.9310014 C30.1587529,41.937347 30.1966353,41.9462779 30.2359294,41.9589691 C30.5714588,42.0637894 30.8098118,42.3056281 30.9667529,42.6128032 C31.5314588,43.7160014 32.0811059,44.8276604 32.6371059,45.9346189 C32.6559294,45.9738677 32.6761647,46.0117065 32.6952235,46.0509553 C32.9801647,46.6152456 33.2639294,47.180476 33.5474588,47.7445313 C33.7869882,48.2213931 34.0745176,48.6768677 33.8756941,49.2348124" id="Fill-1" fill="#AF27CC"></path>
                                        <path d="M0.159458824,22.5816249 C0.490047059,20.5620719 2.56981176,18.4736571 4.99992941,18.7211364 C8.07828235,19.0344221 9.27451765,21.4629152 9.16345882,23.4140765 C9.15451765,23.4784728 9.14698824,23.5428691 9.13945882,23.6075005 C8.80369412,26.5142654 9.22675294,29.4955327 10.3841647,32.1860765 C11.0996941,33.8469843 12.0851059,35.3838 13.2855765,36.7309521 C13.9985176,37.5293253 14.7848706,38.260247 15.6371059,38.9105558 C17.9521647,40.6762839 20.7232235,41.8311871 23.6128706,42.2119244 C25.1375765,42.4128691 26.6874588,42.4093438 28.2098118,42.1954728 C28.5796941,42.1435327 28.9455765,42.0803115 29.3102824,42.0043991 C29.5862824,41.9463484 29.8460471,41.8791318 30.1208706,41.9310719 C27.6867529,42.8394359 25.0502824,43.3350995 22.2959294,43.3350995 C21.6905176,43.3350995 21.0902824,43.3111272 20.4975765,43.2631825 C13.7401647,42.728035 7.83498824,39.1963438 4.13216471,34.0100903 C1.83098824,30.7872194 0.427929412,26.7723207 0.151694118,22.592906" id="Fill-3" fill="#FF3B4A"></path>
                                        <path d="M25.8374118,0 C25.0423529,0.000470046083 24.248,0.0319631336 23.4569412,0.0937741935 C20.5014118,0.324096774 17.5861176,1.02235023 14.8785882,2.23553917 C12.2014118,3.43580184 9.72564706,5.11574654 7.60847059,7.14329032 C5.47835294,9.18470046 3.73717647,11.6211843 2.46164706,14.2788249 C1.29294118,16.7122535 0.534588235,19.3282949 0.191294118,22.0021521 L0.191058824,22.0033272 C0.166823529,22.1929908 0.159529412,22.3854747 0.159529412,22.5817189 C0.159529412,25.0393548 2.116,27.0391659 4.55764706,27.1139032 C4.60470588,27.1150783 4.65247059,27.1164885 4.69952941,27.1164885 C6.92188235,27.1164885 8.77247059,25.5213871 9.16329412,23.4139355 L9.16329412,23.408765 C9.18117647,23.275977 9.19905882,23.1431889 9.21929412,23.011576 C9.21929412,23.0092258 9.21929412,23.0068756 9.22070588,23.0054654 C9.23294118,22.9246175 9.24588235,22.8421244 9.25952941,22.7612765 C9.37764706,20.4237373 10.1976471,14.4318249 16.8430588,8.49749309 C25.3529412,0.898493088 37.6531765,2.61110599 37.9343529,2.71992166 C36.0905882,1.81179263 34.1376471,1.12740553 32.132,0.679451613 C30.9590588,0.417635945 29.7687059,0.234317972 28.5708235,0.124327189 C27.6731765,0.0415990783 26.772,0.000705069124 25.8712941,0 L25.8374118,0 Z" id="Clip-7"></path>
                                        <path d="M25.8374118,0 C25.0423529,0.000470046083 24.248,0.0319631336 23.4569412,0.0937741935 C20.5014118,0.324096774 17.5861176,1.02235023 14.8785882,2.23553917 C12.2014118,3.43580184 9.72564706,5.11574654 7.60847059,7.14329032 C5.47835294,9.18470046 3.73717647,11.6211843 2.46164706,14.2788249 C1.29294118,16.7122535 0.534588235,19.3282949 0.191294118,22.0021521 L0.191058824,22.0033272 C0.166823529,22.1929908 0.159529412,22.3854747 0.159529412,22.5817189 C0.159529412,25.0393548 2.116,27.0391659 4.55764706,27.1139032 C4.60470588,27.1150783 4.65247059,27.1164885 4.69952941,27.1164885 C6.92188235,27.1164885 8.77247059,25.5213871 9.16329412,23.4139355 L9.16329412,23.408765 C9.18117647,23.275977 9.19905882,23.1431889 9.21929412,23.011576 C9.21929412,23.0092258 9.21929412,23.0068756 9.22070588,23.0054654 C9.23294118,22.9246175 9.24588235,22.8421244 9.25952941,22.7612765 C9.37764706,20.4237373 10.1976471,14.4318249 16.8430588,8.49749309 C25.3529412,0.898493088 37.6531765,2.61110599 37.9343529,2.71992166 C36.0905882,1.81179263 34.1376471,1.12740553 32.132,0.679451613 C30.9590588,0.417635945 29.7687059,0.234317972 28.5708235,0.124327189 C27.6731765,0.0415990783 26.772,0.000705069124 25.8712941,0 L25.8374118,0 Z" id="Fill-6" fill="#FFE600"></path>
                                        <path d="M50.5613412,33.1020083 C50.1486353,34.404741 49.6279294,35.6748055 49.0086353,36.89293 C48.8808706,37.1434645 48.7491059,37.3925889 48.6112235,37.6391281 C48.4211059,37.9871972 48.2211059,38.331271 48.0135765,38.6689991 C47.7916941,39.0281143 47.4267529,39.4565613 47.2796941,39.8687917 C47.2796941,39.8687917 48.6469882,34.0759438 47.6665176,28.2786304 C46.4975765,21.3649576 38.3914588,12.6089392 34.3594588,11.0695382 C34.2820471,11.0227687 34.2034588,10.9785843 34.1251059,10.934165 L34.1262824,10.9315797 C31.4705176,9.51603594 31.5980471,6.47648295 32.2940471,4.81557512 C32.9999294,3.13116498 35.4312235,2.19107281 38.7702824,3.14996682 C39.0980471,3.32717419 39.4211059,3.51049217 39.7401647,3.70133088 C41.9451059,5.02075023 43.9371059,6.68283318 45.6199294,8.62318341 C47.4549882,10.7395659 48.9467529,13.1642986 49.9724,15.7699991 C51.0919294,18.6109576 51.6429882,21.6620267 51.7135765,24.7093355 C51.7811059,27.5566396 51.4225176,30.3837318 50.5613412,33.1020083" id="Fill-9" fill="#65CEE7"></path>
                                        <path d="M40.8267529,6.94594147 C40.8267529,7.53913963 40.7128706,8.10460507 40.5065176,8.62447604 C39.8378118,10.296665 38.2015765,11.4781258 36.2893412,11.4781258 C35.5067529,11.4781258 34.7698118,11.2795313 34.1262824,10.9316972 L34.1251059,10.9342825 C32.0356941,9.75775714 29.7255765,9.05715346 27.3309882,8.82565576 C24.3662824,8.53986774 21.3587529,9.09898756 18.6714588,10.3650567 C17.3646353,10.979877 16.1439294,11.765324 15.0394588,12.6913147 C14.0011059,13.56137 13.0676941,14.5557525 12.2648706,15.6511949 C10.7274588,17.7497157 9.69287059,20.1984207 9.25969412,22.761112 C9.37757647,20.4238078 9.85357647,18.1823931 10.6361647,16.0899829 C13.7782824,7.6897894 21.8387529,1.71174332 31.2872235,1.71174332 C31.7380471,1.71174332 32.1848706,1.72560968 32.6281647,1.75357742 C34.1476941,1.84453134 35.6246353,2.09130553 37.0453412,2.47697834 L37.0467529,2.47697834 C37.0476941,2.47697834 37.0502824,2.47838848 37.0516941,2.47838848 C37.3808706,2.56675714 37.7088706,2.66429171 38.0319294,2.769347 C38.2761647,2.88944378 38.5206353,3.01447604 38.7613412,3.14491382 C38.7651059,3.14608894 38.7676941,3.14867419 38.7702824,3.15008433 C40.0086353,3.95950369 40.8267529,5.35718571 40.8267529,6.94594147" id="Fill-11" fill="#87C966"></path>
                                        <path d="M41.2382824,49.281629 C41.4839294,49.7697719 41.7182824,50.5021037 42.2171059,50.7918871 C42.5780471,51.0003525 43.0138118,50.9524078 43.4138118,50.9524078 L50.7855765,50.9512327 C51.6707529,50.933371 52.2924,50.0012696 51.8582824,49.1916152 C51.3919294,48.3152143 50.9262824,47.4385783 50.4613412,46.5619424 L47.6145176,41.2099977 C47.4827529,40.9646336 47.3081647,40.7039931 47.2599294,40.4257258 C47.2599294,40.4257258 47.1564,40.2628548 47.2992235,39.80597 C47.4284,39.4656567 47.5486353,39.121818 47.6613412,38.7739839 C48.3552235,36.6171774 48.7314588,34.3163018 48.7314588,31.9282327 C48.7314588,26.9746521 47.1168706,22.3982834 44.3827529,18.6957304 C41.8625176,15.2806106 38.3914588,12.6088687 34.3594588,11.0697028 C34.5378118,11.1733479 34.7138118,11.2807535 34.8888706,11.3921544 C36.9427529,12.7026429 38.7041647,14.458265 40.0187529,16.508841 C41.5714588,18.9298134 42.4792235,21.7378687 42.6415765,24.6091452 C42.7858118,27.1871129 42.3335765,29.7942235 41.3154588,32.1684263 C40.9559294,33.0083986 40.5267529,33.8166429 40.0340471,34.5844631 C39.1954588,35.8935415 38.1761647,37.0865184 37.0124,38.1199147 C36.7491059,38.3537627 36.4881647,38.5462465 36.3780471,38.8964309 C36.2879294,39.1810438 36.3008706,39.4936244 36.4208706,39.7667212 L41.2382824,49.281629 Z" id="Fill-13" fill="#4BA2EA"></path>
                                    </g>
                                </g>
                            </g>
                        </g>
                    </g>
                </g>
            </g>
        </g>
    </g>
</svg>