<?xml version="1.0" encoding="utf-8"?>
<!-- Generator: Adobe Illustrator 22.0.1, SVG Export Plug-In . SVG Version: 6.00 Build 0)  -->
<svg version="1.1" id="Calque_1" xmlns="http://www.w3.org/2000/svg" xmlns:xlink="http://www.w3.org/1999/xlink" x="0px" y="0px"
	 viewBox="0 0 19 21" style="enable-background:new 0 0 19 21;" xml:space="preserve">
<style type="text/css">
	.st0{opacity:0.3;fill:#7F7F7F;}
</style>
<path class="st0" d="M14.9,9.3c-0.2-0.1-0.4-0.1-0.5,0l-3.9,3.1c-0.1,0.1-0.2,0.2-0.2,0.3v7.9c0,0.2,0.2,0.4,0.4,0.4h2.6
	c0.2,0,0.4-0.2,0.4-0.4l0,0v-3h1.7v3c0,0.2,0.2,0.4,0.4,0.4h2.6c0.2,0,0.4-0.2,0.4-0.4l0,0v-7.9c0-0.1-0.1-0.3-0.2-0.3L14.9,9.3z
	 M13.8,15.9h-1.7v-1.7h1.7V15.9z M17.3,15.9h-1.7v-1.7h1.7V15.9z M6.4,0.2C6.3,0.1,6.2,0,6,0S5.8,0.1,5.7,0.2l-5.6,7
	C0,7.3,0,7.4,0,7.5v13.1c0,0.1,0,0.2,0.1,0.3C0.2,21,0.3,21,0.4,21h4.3c0.2,0,0.4-0.2,0.4-0.4v-3h1.7v3c0,0.2,0.2,0.4,0.4,0.4h1.3
	V10.8c0-0.3,0.1-0.5,0.3-0.7l3.1-2.7C12.1,7.3,6.4,0.2,6.4,0.2z M3.5,14.2H1.7v-1.7h1.7V14.2z M3.5,9H1.7V7.3h1.7V9z M6.9,14.2H5.2
	v-1.7h1.7V14.2z M6.9,9H5.2V7.3h1.7V9z"/>
</svg>
