<svg xmlns="http://www.w3.org/2000/svg" fill="none" viewBox="0 0 32 32"><circle cx="16" cy="16" r="16" fill="#34E0A1"/><path fill="#000" d="M26.04 12.66 28 10.44h-4.35a13.16 13.16 0 0 0-15.29 0H4l1.96 2.22a6.32 6.32 0 0 0-1.95 4.6 6.11 6.11 0 0 0 6 6.23c1.56 0 3-.63 4.07-1.66L16 24l1.92-2.17a5.85 5.85 0 0 0 4.07 1.66c3.31 0 6-2.79 6-6.23a6.3 6.3 0 0 0-1.95-4.6ZM10 21.47a4.14 4.14 0 0 1-4.05-4.2A4.14 4.14 0 0 1 10 13.04a4.14 4.14 0 0 1 4.06 4.21A4.14 4.14 0 0 1 10 21.47Zm6-4.33c0-2.77-1.94-5.15-4.5-6.17a11.27 11.27 0 0 1 9 0c-2.56 1.02-4.5 3.4-4.5 6.17Zm6 4.33a4.14 4.14 0 0 1-4.06-4.2A4.14 4.14 0 0 1 22 13.04a4.14 4.14 0 0 1 4.05 4.21A4.14 4.14 0 0 1 22 21.47Zm0-6.42c-1.18 0-2.13.99-2.13 2.21s.95 2.2 2.13 2.2c1.17 0 2.12-.98 2.12-2.2 0-1.22-.95-2.2-2.12-2.2Zm-9.87 2.21c0 1.22-.95 2.21-2.13 2.21a2.17 2.17 0 0 1-2.12-2.2c0-1.23.95-2.22 2.12-2.22 1.18 0 2.13 1 2.13 2.21Z"/></svg>
