<svg width="20" height="20" xmlns="http://www.w3.org/2000/svg"><g fill="none" fill-rule="evenodd"><path d="M0 0h20v20H0z"/><path d="M10.8333333 6.66666667v6.66666663c0 1.3807119-1.11928809 2.5-2.49999997 2.5H6.525c-.40588213 1.1484386-1.58013445 1.8374137-2.78065714 1.6315093C2.54382016 17.2589383 1.6662602 16.2180523 1.6662602 15c0-1.2180523.87755996-2.2589383 2.07808266-2.4648426 1.20052269-.2059044 2.37477501.4830707 2.78065714 1.6315093h1.80833333c.46023729 0 .83333334-.3730961.83333334-.8333334V6.66666667c0-1.38071188 1.11928813-2.5 2.50000003-2.5h2.5v-2.5L18.3333333 5l-4.1666666 3.33333333v-2.5h-2.5c-.4602373 0-.8333334.37309605-.8333334.83333334ZM4.16666667 15.8333333C4.62690396 15.8333333 5 15.4602373 5 15c0-.4602373-.37309604-.8333333-.83333333-.8333333-.46023729 0-.83333334.373096-.83333334.8333333 0 .4602373.37309605.8333333.83333334.8333333Z" fill="#000"/></g></svg>