<svg xmlns="http://www.w3.org/2000/svg" width="16" height="16" viewBox="0 0 16 16">
    <g fill="none" fill-rule="evenodd">
        <g>
            <g>
                <g>
                    <g>
                        <path d="M0 0L16 0 16 16 0 16z" transform="translate(-23 -132) translate(11 68) translate(12 16) translate(0 48)"/>
                        <path fill="#898991" d="M8 15.152l-4.243-4.243c-2.343-2.343-2.343-6.142 0-8.485C6.101.081 9.9.081 12.243 2.424c2.343 2.343 2.343 6.142 0 8.485L8 15.152zm3.3-5.185c1.822-1.823 1.822-4.778 0-6.6-1.823-1.822-4.777-1.822-6.6 0-1.822 1.822-1.822 4.777 0 6.6l3.3 3.3 3.3-3.3zM8 8c-.736 0-1.333-.597-1.333-1.333 0-.737.597-1.334 1.333-1.334s1.333.597 1.333 1.334C9.333 7.403 8.736 8 8 8z" transform="translate(-23 -132) translate(11 68) translate(12 16) translate(0 48)"/>
                    </g>
                </g>
            </g>
        </g>
    </g>
</svg>
