<svg xmlns="http://www.w3.org/2000/svg" height="24" width="24"><path fill="none" d="M0-3h27v27H0z"/><path d="M5.571 2c-.789 0-1.428.64-1.428 1.429v11.428c0 .79.64 1.429 1.428 1.429H18.43c.789 0 1.428-.64 1.428-1.429V3.43c0-.79-.64-1.429-1.428-1.429zm3.929.714h5.014a.357.357 0 110 .715H9.5a.357.357 0 110-.715zM6.286 4.857h5v5.714h-5a.714.714 0 01-.715-.714V5.571c0-.394.32-.714.715-.714zm6.428 0h5c.395 0 .715.32.715.714v4.286c0 .395-.32.714-.715.714h-5zM8.43 12a1.429 1.429 0 110 2.857 1.429 1.429 0 010-2.857zm7.142 0a1.429 1.429 0 110 2.857 1.429 1.429 0 010-2.857zm.637 5.706a.714.714 0 00-.608.965l.242.472H8.158l.184-.385a.714.714 0 00-1.3-.586l-1.429 2.857a.695.695 0 00-.042.257c0 .394.32.714.715.714a.699.699 0 00.614-.371v-.073H7l.444-.985h9.112l.444.985v.073c.12.227.356.37.614.371.394 0 .714-.32.714-.714a.701.701 0 000-.343L16.9 18.085a.714.714 0 00-.692-.38z"/></svg>