<?xml version="1.0" standalone="no"?> 
<!DOCTYPE svg PUBLIC "-//W3C//DTD SVG 1.1//EN" "http://www.w3.org/Graphics/SVG/1.1/DTD/svg11.dtd" >
<svg xmlns="http://www.w3.org/2000/svg">
<defs>
  <font id="iconfont" horiz-adv-x="27">
    <font-face font-family="iconfont"
      units-per-em="150" ascent="150"
      descent="0" />
    <missing-glyph horiz-adv-x="0" />
    <glyph glyph-name="aerialway"
      unicode="&#xF101;"
      horiz-adv-x="150" d=" M105.5555555555556 88.8888888888889H77.7777777777778V102.2222222222222C78.8077777777778 102.8038888888889 79.625 103.6994444444445 80.1111111111111 104.7777777777778L108.3333333333333 108.3333333333333C109.8672222222222 108.3333333333333 111.1111111111111 109.5772222222222 111.1111111111111 111.1111111111111S109.8672222222222 113.8888888888889 108.3333333333333 113.8888888888889L79.3333333333333 110.2777777777778C78.3077777777778 111.6461111111111 76.7094444444444 112.4655555555556 75 112.5C72.7572222222222 112.4888888888889 70.7411111111111 111.13 69.8888888888889 109.0555555555556L41.6666666666667 105.5555555555556C40.1327777777778 105.5555555555556 38.8888888888889 104.3116666666667 38.8888888888889 102.7777777777778S40.1327777777778 100 41.6666666666667 100L70.6666666666667 103.6111111111111C71.0927777777778 103.0538888888889 71.6205555555556 102.5827777777778 72.2222222222222 102.2222222222222V88.8888888888889H44.4444444444444C41.3761111111111 88.8888888888889 38.8888888888889 86.4016666666667 38.8888888888889 83.3333333333333V44.4444444444444C38.8888888888889 41.3761111111111 41.3761111111111 38.8888888888889 44.4444444444444 38.8888888888889H105.5555555555556C108.6238888888889 38.8888888888889 111.1111111111111 41.3761111111111 111.1111111111111 44.4444444444444V83.3333333333333C111.1111111111111 86.4016666666667 108.6238888888889 88.8888888888889 105.5555555555556 88.8888888888889zM72.2222222222222 55.5555555555556H50V77.7777777777778H72.2222222222222V55.5555555555556zM100 55.5555555555556H77.7777777777778V77.7777777777778H100V55.5555555555556z" />
    <glyph glyph-name="airfield"
      unicode="&#xF102;"
      horiz-adv-x="150" d=" M71.2122222222222 112.8788888888889H59.8483333333333C56.0605555555556 112.8788888888889 56.0605555555556 116.6666666666667 59.8483333333333 116.6666666666667H90.1511111111111C93.9388888888889 116.6666666666667 93.9388888888889 112.8788888888889 90.1511111111111 112.8788888888889H78.7877777777778C78.7877777777778 112.8788888888889 83.3333333333333 109.5961111111111 83.3333333333333 102.0205555555556V94.4444444444444H116.6666666666667V83.3333333333333L83.3333333333333 72.2222222222222L80.5555555555556 44.4444444444444L94.4444444444444 37.1211111111111V33.3333333333333H55.5555555555556V37.1211111111111L69.4444444444444 44.4444444444444L66.6666666666667 72.2222222222222L33.3333333333333 83.3333333333333V94.4444444444444H66.6666666666667V102.02C66.6666666666667 109.5961111111111 71.2122222222222 112.8788888888889 71.2122222222222 112.8788888888889z" />
    <glyph glyph-name="airport"
      unicode="&#xF103;"
      horiz-adv-x="150" d=" M116.6666666666667 78.7877777777778L116.6666666666667 69.4444444444444L80.5555555555556 75L78.7877777777778 48.485L94.4444444444444 38.8888888888889V33.3333333333333L75 37.1211111111111L55.5555555555556 33.3333333333333V38.8888888888889L71.2122222222222 48.485L69.4444444444444 75L33.3333333333333 69.4444444444444V78.7877777777778L69.4444444444444 91.6666666666667V108.3333333333333C69.4444444444444 108.3333333333333 69.4444444444444 116.6666666666667 75 116.6666666666667S80.5555555555556 108.3333333333333 80.5555555555556 108.3333333333333V92.6766666666667L116.6666666666667 78.7877777777778z" />
    <glyph glyph-name="alcohol-shop"
      unicode="&#xF104;"
      horiz-adv-x="150" d=" M111.1111111111111 94.4444444444444H88.8888888888889V75.3333333333333L88.8888888888889 75.3333333333333C88.8888888888889 75.3333333333333 88.8888888888889 75.3333333333333 88.8888888888889 75C88.9055555555556 69.9466666666667 92.3294444444444 65.5411111111111 97.2222222222222 64.2777777777778V44.4444444444444H94.4444444444444C92.9105555555556 44.4444444444444 91.6666666666667 43.2005555555556 91.6666666666667 41.6666666666667S92.9105555555556 38.8888888888889 94.4444444444444 38.8888888888889H105.5555555555556C107.0894444444444 38.8888888888889 108.3333333333333 40.1327777777778 108.3333333333333 41.6666666666667S107.0894444444444 44.4444444444444 105.5555555555556 44.4444444444444H102.7777777777778V64.2777777777778C107.6705555555556 65.5411111111111 111.0944444444444 69.9466666666667 111.1111111111111 75C111.1111111111111 75 111.1111111111111 75 111.1111111111111 75.3333333333333L111.1111111111111 75.3333333333333V94.4444444444444zM105.5555555555556 75C105.5555555555556 71.9316666666667 103.0683333333333 69.4444444444444 100 69.4444444444444S94.4444444444444 71.9316666666667 94.4444444444444 75V88.8888888888889H105.5555555555556V75zM63.8888888888889 102.7777777777778V105.5555555555556C65.4227777777778 105.5555555555556 66.6666666666667 106.7994444444445 66.6666666666667 108.3333333333333S65.4227777777778 111.1111111111111 63.8888888888889 111.1111111111111V113.8888888888889C63.8888888888889 115.4227777777778 62.645 116.6666666666667 61.1111111111111 116.6666666666667H55.5555555555556C54.0216666666667 116.6666666666667 52.7777777777778 115.4227777777778 52.7777777777778 113.8888888888889V111.1111111111111C51.2438888888889 111.1111111111111 50 109.8672222222222 50 108.3333333333333S51.2438888888889 105.5555555555556 52.7777777777778 105.5555555555556V102.7777777777778C52.7777777777778 94.8333333333333 38.8888888888889 85.7222222222222 38.8888888888889 77.7777777777778V44.4444444444444C38.8888888888889 41.3761111111111 41.3761111111111 38.8888888888889 44.4444444444444 38.8888888888889H72.2222222222222C75.1766666666667 39.1472222222222 77.5194444444445 41.49 77.7777777777778 44.4444444444444V77.7777777777778C77.7777777777778 85.2777777777778 63.8888888888889 95.2777777777778 63.8888888888889 102.7777777777778zM58.3333333333333 50C50.6627777777778 50 44.4444444444444 56.2183333333334 44.4444444444444 63.8888888888889S50.6627777777778 77.7777777777778 58.3333333333333 77.7777777777778S72.2222222222222 71.5594444444444 72.2222222222222 63.8888888888889S66.0038888888889 50 58.3333333333333 50z" />
    <glyph glyph-name="america-football"
      unicode="&#xF105;"
      horiz-adv-x="150" d=" M75.1666666666667 100C50.5 100 38.8888888888889 75 38.8888888888889 75S50.5 50 75.1666666666667 50S111.1111111111111 75 111.1111111111111 75S100 100 75.1666666666667 100zM94.4444444444444 77.7777777777778V69.4444444444444C94.4444444444444 67.9105555555556 93.2005555555556 66.6666666666667 91.6666666666667 66.6666666666667S88.8888888888889 67.9105555555556 88.8888888888889 69.4444444444444V72.2222222222222H77.7777777777778V69.4444444444444C77.7777777777778 67.9105555555556 76.5338888888889 66.6666666666667 75 66.6666666666667S72.2222222222222 67.9105555555556 72.2222222222222 69.4444444444444V72.2222222222222H61.1111111111111V69.4444444444444C61.1111111111111 67.9105555555556 59.8672222222222 66.6666666666667 58.3333333333333 66.6666666666667S55.5555555555556 67.9105555555556 55.5555555555556 69.4444444444444V80.5555555555556C55.5555555555556 82.0894444444444 56.7994444444445 83.3333333333333 58.3333333333333 83.3333333333333S61.1111111111111 82.0894444444444 61.1111111111111 80.5555555555556V77.7777777777778H72.2222222222222V80.5555555555556C72.2222222222222 82.0894444444444 73.4661111111111 83.3333333333333 75 83.3333333333333S77.7777777777778 82.0894444444444 77.7777777777778 80.5555555555556V77.7777777777778H88.8888888888889V80.5555555555556C88.8888888888889 82.0894444444444 90.1327777777778 83.3333333333333 91.6666666666667 83.3333333333333S94.4444444444444 82.0894444444444 94.4444444444444 80.5555555555556V77.7777777777778z" />
    <glyph glyph-name="amusement-park"
      unicode="&#xF106;"
      horiz-adv-x="150" d=" M75 116.6666666666667C55.1055555555556 116.6666666666667 38.8888888888889 100.45 38.8888888888889 80.5555555555556C38.8888888888889 67.6883333333333 45.695 56.3977777777778 55.87 50H55.5555555555556L50 38.8888888888889H100L94.4444444444444 50H94.13C104.305 56.3977777777778 111.1111111111111 67.6883333333333 111.1111111111111 80.5555555555556C111.1111111111111 100.45 94.8944444444444 116.6666666666667 75 116.6666666666667zM74.3055555555556 108.3005555555556V88.8561111111111C72.5788888888889 88.7116666666667 70.9405555555556 88.0327777777778 69.6177777777778 86.9138888888889L55.87 100.6616666666667C60.6905555555556 105.2472222222222 67.1394444444445 108.1244444444444 74.3055555555556 108.3005555555556zM75.6944444444444 108.3005555555556C82.8605555555556 108.1244444444444 89.3094444444445 105.2472222222222 94.13 100.6616666666667L80.3822222222222 86.9138888888889C80.3783333333333 86.9177777777778 80.375 86.9211111111111 80.3711111111111 86.925C79.05 88.0377777777778 77.4155555555555 88.7127777777778 75.6944444444444 88.8561111111111V108.3005555555556zM54.8938888888889 99.6855555555556L68.6416666666667 85.9377777777778C68.6377777777778 85.9338888888889 68.6344444444444 85.9305555555556 68.6305555555556 85.9266666666667C67.5177777777778 84.6055555555556 66.8427777777778 82.9711111111111 66.6994444444444 81.25H47.255C47.4311111111111 88.4161111111111 50.3083333333333 94.865 54.8938888888889 99.6855555555556zM95.1061111111111 99.6855555555556C99.6916666666667 94.8655555555556 102.5688888888889 88.4161111111111 102.745 81.25H83.3005555555556C83.1561111111111 82.9766666666667 82.4772222222222 84.615 81.3583333333333 85.9377777777778L95.1061111111111 99.6855555555556zM47.255 79.8611111111111H66.6994444444444C66.8438888888889 78.1344444444444 67.5227777777778 76.4961111111111 68.6416666666667 75.1733333333333L54.8938888888889 61.4255555555556C50.3083333333333 66.2461111111111 47.4311111111111 72.695 47.255 79.8611111111111zM83.3005555555556 79.8611111111111H102.745C102.5688888888889 72.695 99.6916666666667 66.2461111111111 95.1061111111111 61.4255555555556L81.3583333333333 75.1733333333333C81.3622222222222 75.1772222222222 81.3655555555556 75.1805555555556 81.3694444444445 75.1844444444445C82.4822222222222 76.5055555555556 83.1572222222222 78.14 83.3005555555556 79.8611111111111zM69.6177777777778 74.1972222222222C69.6216666666667 74.1933333333333 69.625 74.19 69.6288888888889 74.1861111111111C70.3977777777778 73.5422222222222 71.2761111111111 73.0422222222222 72.2222222222222 72.7105555555556V52.9188888888889C65.8872222222222 53.5433333333334 60.2188888888889 56.3122222222222 55.87 60.4494444444445L69.6177777777778 74.1972222222222zM80.3822222222222 74.1972222222222L94.13 60.4494444444445C89.7811111111111 56.3122222222222 84.1133333333333 53.5438888888889 77.7777777777778 52.9188888888889V72.7105555555556C78.7283333333333 73.0444444444445 79.6111111111111 73.5483333333333 80.3822222222222 74.1972222222222z" />
    <glyph glyph-name="aquarium"
      unicode="&#xF107;"
      horiz-adv-x="150" d=" M93.8888888888889 52.2222222222222C92.2222222222222 55.5555555555556 92.2222222222222 65 93.8888888888889 67.7777777777778C96.1111111111111 71.1111111111111 112.7777777777778 60 112.7777777777778 60C117.7777777777778 57.7777777777778 117.7777777777778 93.8888888888889 112.7777777777778 91.6666666666667C112.7777777777778 91.6666666666667 95.5555555555555 80 93.8888888888889 83.8888888888889C92.2222222222222 87.7777777777778 92.2222222222222 95.5555555555555 93.8888888888889 99.4444444444444C95.5555555555555 102.7777777777778 116.6666666666667 103.3333333333333 116.6666666666667 103.3333333333333C116.6666666666667 107.2222222222222 100.5555555555556 111.1111111111111 93.8888888888889 111.1111111111111S80 110.5555555555556 71.1111111111111 106.6666666666667C62.2222222222222 103.3333333333333 55 97.7777777777778 48.3333333333333 91.1111111111111S33.3333333333333 71.1111111111111 33.3333333333333 67.2222222222222S41.6666666666667 51.6666666666667 53.8888888888889 46.6666666666667S72.2222222222222 40.5555555555555 78.8888888888889 39.4444444444444C85 38.8888888888889 93.3333333333333 39.4444444444444 100.5555555555555 41.1111111111111C106.1111111111111 42.2222222222222 116.6666666666667 45 116.6666666666667 47.2222222222222C116.6666666666667 48.3333333333333 95.5555555555555 48.8888888888889 93.8888888888889 52.2222222222222zM58.3333333333333 65C53.8888888888889 65 50 68.8888888888889 50 73.3333333333333S53.8888888888889 81.6666666666667 58.3333333333333 81.6666666666667S66.6666666666667 77.7777777777778 66.6666666666667 73.3333333333333S62.7777777777778 65 58.3333333333333 65z" />
    <glyph glyph-name="art-gallery"
      unicode="&#xF108;"
      horiz-adv-x="150" d=" M92.8333333333333 94.4444444444444L76.9444444444444 110.2777777777778C75.8638888888889 111.3672222222222 74.1055555555556 111.3744444444444 73.0161111111111 110.2938888888889C73.0105555555556 110.2883333333333 73.0055555555556 110.2833333333333 73 110.2777777777778L57.1666666666667 94.4444444444444H41.6666666666667C40.1327777777778 94.4444444444444 38.8888888888889 93.2005555555556 38.8888888888889 91.6666666666667V41.6666666666667C38.8888888888889 40.1327777777778 40.1327777777778 38.8888888888889 41.6666666666667 38.8888888888889H108.3333333333333C109.8672222222222 38.8888888888889 111.1111111111111 40.1327777777778 111.1111111111111 41.6666666666667V91.6666666666667C111.1111111111111 93.2005555555556 109.8672222222222 94.4444444444444 108.3333333333333 94.4444444444444H92.8333333333333zM75 104.3888888888889L84.9444444444444 94.4444444444444H65.0555555555556L75 104.3888888888889zM105.5555555555556 44.4444444444444H44.4444444444444V88.8888888888889H105.5555555555556V44.4444444444444zM61.1111111111111 72.2222222222222C58.0427777777778 72.2222222222222 55.5555555555556 74.7094444444445 55.5555555555556 77.7777777777778S58.0427777777778 83.3333333333333 61.1111111111111 83.3333333333333S66.6666666666667 80.8461111111111 66.6666666666667 77.7777777777778S64.1794444444444 72.2222222222222 61.1111111111111 72.2222222222222zM100 50H58.3333333333333L66.6666666666667 66.6666666666667L73.6111111111111 52.7777777777778L86.1111111111111 77.7777777777778L100 50z" />
    <glyph glyph-name="attraction"
      unicode="&#xF109;"
      horiz-adv-x="150" d=" M66.6666666666667 105.5555555555556C63.5888888888889 105.5555555555556 62.4877777777778 102.7527777777778 61.1111111111111 100L58.3333333333333 94.4444444444444H47.2222222222222C42.6055555555556 94.4444444444444 38.8888888888889 90.7277777777778 38.8888888888889 86.1111111111111V58.3333333333333C38.8888888888889 53.7166666666667 42.6055555555556 50 47.2222222222222 50H102.7777777777778C107.3944444444444 50 111.1111111111111 53.7166666666667 111.1111111111111 58.3333333333333V86.1111111111111C111.1111111111111 90.7277777777778 107.3944444444444 94.4444444444444 102.7777777777778 94.4444444444444H91.6666666666667L88.8888888888889 100C87.5 102.7777777777778 86.4111111111111 105.5555555555556 83.3333333333333 105.5555555555556H66.6666666666667zM47.2222222222222 88.8888888888889C48.7561111111111 88.8888888888889 50 87.645 50 86.1111111111111S48.7561111111111 83.3333333333333 47.2222222222222 83.3333333333333S44.4444444444444 84.5772222222222 44.4444444444444 86.1111111111111S45.6883333333333 88.8888888888889 47.2222222222222 88.8888888888889zM75 88.8888888888889C84.205 88.8888888888889 91.6666666666667 81.4272222222222 91.6666666666667 72.2222222222222S84.205 55.5555555555556 75 55.5555555555556S58.3333333333333 63.0172222222222 58.3333333333333 72.2222222222222S65.795 88.8888888888889 75 88.8888888888889zM75 80.5555555555556C70.3977777777778 80.5555555555556 66.6666666666667 76.8244444444445 66.6666666666667 72.2222222222222L66.6666666666667 72.2222222222222C66.6666666666667 67.62 70.3977777777778 63.8888888888889 75 63.8888888888889L75 63.8888888888889C79.6022222222222 63.8888888888889 83.3333333333333 67.62 83.3333333333333 72.2222222222222L83.3333333333333 72.2222222222222C83.3333333333333 76.8244444444445 79.6022222222222 80.5555555555556 75 80.5555555555556L75 80.5555555555556z" />
    <glyph glyph-name="bakery"
      unicode="&#xF10A;"
      horiz-adv-x="150" d=" M62.745 92.32L66.6666666666667 63.8888888888889C66.6666666666667 63.8888888888889 66.6666666666667 58.3333333333333 72.2222222222222 58.3333333333333H77.7777777777778C83.3333333333333 58.3333333333333 83.3333333333333 63.8888888888889 83.3333333333333 63.8888888888889L87.255 92.32C87.255 100 75 100 75 100S62.7277777777778 100 62.745 92.32zM52.7777777777778 88.8888888888889C44.4444444444444 88.8888888888889 44.4444444444444 83.3333333333333 44.4444444444444 83.3333333333333L50 61.1111111111111H58.3333333333333C62.5277777777778 61.1111111111111 62.745 65.3594444444445 62.745 65.3594444444445L58.3333333333333 88.8888888888889H52.7777777777778zM41.6666666666667 75C41.6666666666667 75 38.2355555555556 75.1633333333333 35.7844444444444 72.7122222222222C33.3333333333333 70.2616666666667 33.3333333333333 67.8105555555556 33.3333333333333 67.8105555555556V55.5555555555556H38.2355555555556C44.4444444444444 55.5555555555556 44.4444444444444 61.1111111111111 44.4444444444444 61.1111111111111L41.6666666666667 75z M97.2222222222222 88.8888888888889C105.5555555555556 88.8888888888889 105.5555555555556 83.3333333333333 105.5555555555556 83.3333333333333L100 61.1111111111111H91.6666666666667C87.4722222222222 61.1111111111111 87.255 65.3594444444445 87.255 65.3594444444445L91.6666666666667 88.8888888888889H97.2222222222222zM108.3333333333333 75C108.3333333333333 75 111.7644444444444 75.1633333333333 114.2155555555556 72.7122222222222C116.6666666666667 70.2616666666667 116.6666666666667 67.8105555555556 116.6666666666667 67.8105555555556V55.5555555555556H111.7644444444444C105.5555555555556 55.5555555555556 105.5555555555556 61.1111111111111 105.5555555555556 61.1111111111111L108.3333333333333 75z" />
    <glyph glyph-name="bank"
      unicode="&#xF10B;"
      horiz-adv-x="150" d=" M38.8888888888889 100C35.8111111111111 100 33.3333333333333 97.5222222222222 33.3333333333333 94.4444444444444V55.5555555555556C33.3333333333333 52.4777777777778 35.8111111111111 50 38.8888888888889 50H111.1111111111111C114.1888888888889 50 116.6666666666667 52.4777777777778 116.6666666666667 55.5555555555556V94.4444444444444C116.6666666666667 97.5222222222222 114.1888888888889 100 111.1111111111111 100H38.8888888888889zM38.8888888888889 94.4444444444444H47.2222222222222C48.7561111111111 94.4444444444444 50 93.2005555555556 50 91.6666666666667S48.7561111111111 88.8888888888889 47.2222222222222 88.8888888888889S44.4444444444444 90.1327777777778 44.4444444444444 91.6666666666667L41.6666666666667 88.8888888888889C43.2005555555556 88.8888888888889 44.4444444444444 87.645 44.4444444444444 86.1111111111111S43.2005555555556 83.3333333333333 41.6666666666667 83.3333333333333S38.8888888888889 84.5772222222222 38.8888888888889 86.1111111111111V94.4444444444444zM75 94.4444444444444C82.6705555555556 94.4444444444444 88.8888888888889 85.7388888888889 88.8888888888889 75L88.8888888888889 75C88.8888888888889 64.2611111111111 82.6705555555556 55.5555555555556 75 55.5555555555556S61.1111111111111 64.2611111111111 61.1111111111111 75S67.3294444444444 94.4444444444444 75 94.4444444444444zM102.7777777777778 94.4444444444444H111.1111111111111V86.1111111111111C111.1111111111111 84.5772222222222 109.8672222222222 83.3333333333333 108.3333333333333 83.3333333333333S105.5555555555556 84.5772222222222 105.5555555555556 86.1111111111111S106.7994444444445 88.8888888888889 108.3333333333333 88.8888888888889L105.5555555555556 91.6666666666667C105.5555555555556 90.1327777777778 104.3116666666667 88.8888888888889 102.7777777777778 88.8888888888889S100 90.1327777777778 100 91.6666666666667S101.2438888888889 94.4444444444444 102.7777777777778 94.4444444444444zM75 86.1111111111111C73.2055555555556 86.1111111111111 72.0355555555556 85.5066666666667 71.2133333333333 84.7222222222222H78.7872222222222C77.9644444444444 85.5066666666667 76.7944444444444 86.1111111111111 75 86.1111111111111zM70.1388888888889 83.3333333333333C69.8861111111111 82.8277777777778 69.7961111111111 82.3827777777778 69.6938888888889 81.9444444444444H80.3061111111111C80.2038888888889 82.3827777777778 80.1138888888889 82.8277777777778 79.8611111111111 83.3333333333333H70.1388888888889zM69.4444444444444 80.5555555555556V79.1666666666667H80.5555555555556V80.5555555555556H69.4444444444444zM69.4444444444444 77.7777777777778V76.3888888888889H80.5555555555556V77.7777777777778H69.4444444444444zM69.4444444444444 75V73.6111111111111H80.5555555555556V75H69.4444444444444zM69.4444444444444 72.2222222222222L68.0555555555556 70.8333333333333H79.1666666666667L80.5555555555556 72.2222222222222H69.4444444444444zM66.6666666666667 69.4444444444444C66.6666666666667 69.4444444444444 66.8627777777778 68.8755555555556 67.2311111111111 68.0555555555556H79.8611111111111L77.7777777777778 69.4444444444444H66.6666666666667zM41.6666666666667 66.6666666666667C43.2005555555556 66.6666666666667 44.4444444444444 65.4227777777778 44.4444444444444 63.8888888888889S43.2005555555556 61.1111111111111 41.6666666666667 61.1111111111111L44.4444444444444 58.3333333333333C44.4444444444444 59.8672222222222 45.6883333333333 61.1111111111111 47.2222222222222 61.1111111111111S50 59.8672222222222 50 58.3333333333333S48.7561111111111 55.5555555555556 47.2222222222222 55.5555555555556H38.8888888888889V63.8888888888889C38.8888888888889 65.4227777777778 40.1327777777778 66.6666666666667 41.6666666666667 66.6666666666667zM67.9905555555556 66.6666666666667C68.2455555555556 66.1911111111111 68.4133333333333 65.7833333333333 68.75 65.2777777777778H81.3477777777778C81.7177777777778 66.0438888888889 81.9444444444444 66.6666666666667 81.9444444444444 66.6666666666667H67.9905555555556zM108.3333333333333 66.6666666666667C109.8672222222222 66.6666666666667 111.1111111111111 65.4227777777778 111.1111111111111 63.8888888888889V55.5555555555556H102.7777777777778C101.2438888888889 55.5555555555556 100 56.7994444444445 100 58.3333333333333S101.2438888888889 61.1111111111111 102.7777777777778 61.1111111111111S105.5555555555556 59.8672222222222 105.5555555555556 58.3333333333333L108.3333333333333 61.1111111111111C106.7994444444445 61.1111111111111 105.5555555555556 62.355 105.5555555555556 63.8888888888889S106.7994444444445 66.6666666666667 108.3333333333333 66.6666666666667zM69.8133333333333 63.8888888888889C70.25 63.3822222222222 70.7283333333333 62.9094444444445 71.2566666666667 62.5H79.145C79.7011111111111 62.9294444444444 80.1877777777778 63.3983333333333 80.5555555555556 63.8888888888889H69.8133333333333z" />
    <glyph glyph-name="bar"
      unicode="&#xF10C;"
      horiz-adv-x="150" d=" M75 111.1111111111111C63.8888888888889 111.1111111111111 36.1111111111111 109.7222222222222 38.8888888888889 106.9444444444444L72.2222222222222 72.2222222222222V50C72.2222222222222 44.4444444444444 55.5555555555556 47.2222222222222 55.5555555555556 38.8888888888889H94.4444444444444C94.4444444444444 47.2222222222222 77.7777777777778 44.4444444444444 77.7777777777778 50V72.2222222222222L111.1111111111111 106.9444444444444C113.8888888888889 109.7222222222222 86.1111111111111 111.1111111111111 75 111.1111111111111zM75 105.5555555555556C88.8888888888889 105.5555555555556 101.3888888888889 104.1666666666667 101.3888888888889 104.1666666666667L97.2222222222222 100H52.7777777777778L48.6111111111111 104.1666666666667C48.6111111111111 104.1666666666667 61.1111111111111 105.5555555555556 75 105.5555555555556z" />
    <glyph glyph-name="barrier"
      unicode="&#xF10D;"
      horiz-adv-x="150" d=" M118.421052631579 110.5263157894737H31.5789473684211A7.894736842105263 7.894736842105263 0 0 1 23.6842105263158 102.6315789473684V55.2631578947369A7.894736842105263 7.894736842105263 0 0 1 31.5789473684211 47.3684210526316H39.4736842105263V27.6315789473684A3.9473684210526314 3.9473684210526314 0 0 1 47.3684210526316 27.6315789473684V31.5789473684211H102.6315789473684V27.6315789473684A3.9473684210526314 3.9473684210526314 0 0 1 110.5263157894737 27.6315789473684V47.3684210526316H118.421052631579A7.894736842105263 7.894736842105263 0 0 1 126.3157894736842 55.2631578947369V102.6315789473684A7.894736842105263 7.894736842105263 0 0 1 118.421052631579 110.5263157894737zM118.421052631579 102.6315789473684V86.8421052631579L102.6315789473684 102.6315789473684zM90.7894736842105 102.6315789473684L118.421052631579 75V55.2631578947369L71.0526315789474 102.6315789473684zM59.2105263157895 55.2631578947369L31.5789473684211 82.8947368421053V102.6315789473684L78.9473684210526 55.2631578947369zM31.5789473684211 55.2631578947369V71.0526315789474L47.3684210526316 55.2631578947369zM102.6315789473684 39.4736842105263H47.3684210526316V47.3684210526316H102.6315789473684zM100.9973684210526 55.2631578947369H90.7894736842105L43.4210526315789 102.6315789473684H59.2105263157895L106.5789473684211 55.2631578947369z" />
    <glyph glyph-name="baseball"
      unicode="&#xF10E;"
      horiz-adv-x="150" d=" M88.8888888888889 97.2222222222222C88.8888888888889 92.62 85.1577777777778 88.8888888888889 80.5555555555556 88.8888888888889S72.2222222222222 92.62 72.2222222222222 97.2222222222222S75.9533333333333 105.5555555555556 80.5555555555556 105.5555555555556S88.8888888888889 101.8244444444445 88.8888888888889 97.2222222222222zM72.2222222222222 115.1111111111111C72.2222222222222 115.97 71.5255555555556 116.6666666666667 70.6666666666667 116.6666666666667C70.6666666666667 116.6666666666667 70.6666666666667 116.6666666666667 70.6666666666667 116.6666666666667C70.1227777777778 116.5211111111111 69.6377777777778 116.2105555555556 69.2777777777778 115.7777777777778L55.5555555555556 91.1666666666667C55.5227777777778 90.9272222222222 55.5227777777778 90.6838888888889 55.5555555555556 90.4444444444445C55.5555555555556 89.5855555555556 56.2522222222222 88.8888888888889 57.1111111111111 88.8888888888889C57.675 89.0238888888889 58.1811111111111 89.335 58.5555555555556 89.7777777777778L72.2222222222222 114.3888888888889C72.2555555555556 114.6283333333333 72.2555555555556 114.8716666666667 72.2222222222222 115.1111111111111zM105 37.7777777777778L105 37.7777777777778L88.8888888888889 81.1666666666667L88.8888888888889 81.1666666666667C88.6255555555556 82.4294444444444 87.5122222222222 83.3338888888889 86.2222222222222 83.3333333333333H58.4444444444444C56.9105555555556 83.3333333333333 55.6666666666667 82.0894444444444 55.6666666666667 80.5555555555556S56.9105555555556 77.7777777777778 58.4444444444444 77.7777777777778H72.2222222222222L80.2777777777778 63.8333333333333L56.5555555555556 38.2222222222222L56.5555555555556 38.2222222222222C55.9216666666667 37.7044444444445 55.5544444444444 36.9294444444445 55.5555555555556 36.1111111111111C55.5555555555556 34.5772222222222 56.7994444444445 33.3333333333333 58.3333333333333 33.3333333333333C59.0133333333333 33.3366666666667 59.6672222222222 33.5944444444445 60.1666666666667 34.0555555555556L60.1666666666667 34.0555555555556L84.8888888888889 57.1111111111111L100.2222222222222 34.8888888888889L100.2222222222222 34.8888888888889C100.7194444444445 34.0044444444445 101.6522222222222 33.4533333333333 102.6666666666667 33.4444444444444C104.22 33.4433333333333 105.4955555555556 34.6705555555556 105.5555555555556 36.2222222222222C105.5322222222222 36.785 105.3388888888889 37.3277777777778 105 37.7777777777778z" />
    <glyph glyph-name="basketball"
      unicode="&#xF10F;"
      horiz-adv-x="150" d=" M83.3333333333333 97.2222222222222C83.3333333333333 92.62 79.6022222222222 88.8888888888889 75 88.8888888888889S66.6666666666667 92.62 66.6666666666667 97.2222222222222S70.3977777777778 105.5555555555556 75 105.5555555555556S83.3333333333333 101.8244444444445 83.3333333333333 97.2222222222222zM111.1111111111111 111.1111111111111C108.0427777777778 111.1111111111111 105.5555555555556 108.6238888888889 105.5555555555556 105.5555555555556S108.0427777777778 100 111.1111111111111 100S116.6666666666667 102.4872222222222 116.6666666666667 105.5555555555556S114.1794444444445 111.1111111111111 111.1111111111111 111.1111111111111zM99.3888888888889 43.3888888888889L83.3333333333333 63.4444444444444V80.5555555555556H86.1111111111111C87.0383333333333 80.5655555555556 87.8966666666667 81.0472222222222 88.3888888888889 81.8333333333333L88.3888888888889 81.8333333333333L99.1666666666667 95.2777777777778L99.1666666666667 95.2777777777778L99.5 95.7222222222222L99.5 95.7222222222222C99.8116666666667 96.1616666666667 99.9855555555556 96.6838888888889 100 97.2222222222222C99.9788888888889 98.7561111111111 98.7177777777778 99.9822222222222 97.1838888888889 99.9611111111111C96.4427777777778 99.9511111111111 95.7366666666667 99.645 95.2222222222222 99.1111111111111L95.2222222222222 99.1111111111111L84.7777777777778 86.1111111111111H63.8888888888889C63.1288888888889 86.1011111111111 62.4055555555556 85.78 61.8888888888889 85.2222222222222L61.8888888888889 85.2222222222222L50.7777777777778 71.1111111111111L50.7777777777778 71.1111111111111C50.3327777777778 70.6627777777778 50.0577777777778 70.0733333333333 50 69.4444444444444C50 67.9105555555556 51.2438888888889 66.6666666666667 52.7777777777778 66.6666666666667C53.705 66.6766666666667 54.5633333333333 67.1583333333333 55.0555555555556 67.9444444444444L55.0555555555556 67.9444444444444L65.2222222222222 80.5555555555556H66.6666666666667V63.4444444444444L50.6111111111111 43.3888888888889L50.6111111111111 43.3888888888889C50.2266666666667 42.9172222222222 50.0116666666667 42.3305555555556 50 41.7222222222222C50 40.1883333333333 51.2438888888889 38.9444444444444 52.7777777777778 38.9444444444444C53.705 38.9544444444444 54.5633333333333 39.4361111111111 55.0555555555556 40.2222222222222L55.0555555555556 40.2222222222222L71.7222222222222 61.1666666666667H78.1111111111111L94.7777777777778 40.2222222222222L94.7777777777778 40.2222222222222C95.27 39.4361111111111 96.1283333333333 38.9544444444444 97.0555555555556 38.9444444444444C98.5894444444445 38.9444444444444 99.8333333333333 40.1883333333333 99.8333333333333 41.7222222222222C99.8216666666667 42.3305555555556 99.6066666666667 42.9172222222222 99.2222222222222 43.3888888888889L99.2222222222222 43.3888888888889H99.3888888888889z" />
    <glyph glyph-name="bbq"
      unicode="&#xF110;"
      horiz-adv-x="150" d=" M85.1111111111111 74.1388888888889C93.7677777777778 77.1777777777778 99.7061111111111 85.2744444444444 100 94.4444444444444H50C50.2944444444444 85.3894444444445 56.0988888888889 77.3733333333333 64.6111111111111 74.2722222222222L60.6833333333333 66.4222222222222C53.1438888888889 67.7305555555556 45.9711111111111 62.6794444444444 44.6627777777778 55.14S48.4055555555556 40.4277777777778 55.945 39.1194444444444C61.0705555555556 38.2294444444444 66.2627777777778 40.2861111111111 69.3888888888889 44.4444444444444H92.85L94.7111111111111 40.4611111111111C95.1755555555556 39.4972222222222 96.1522222222222 38.8855555555556 97.2222222222222 38.8888888888889C97.6294444444445 38.8872222222222 98.0316666666667 38.9766666666667 98.4 39.15C99.7872222222222 39.8 100.3861111111111 41.4505555555556 99.7388888888889 42.8388888888889L85.1111111111111 74.1388888888889zM58.3333333333333 45.8333333333333C54.4977777777778 45.8333333333333 51.3888888888889 48.9422222222222 51.3888888888889 52.7777777777778S54.4977777777778 59.7222222222222 58.3333333333333 59.7222222222222S65.2777777777778 56.6133333333334 65.2777777777778 52.7777777777778C65.2688888888889 48.9461111111111 62.165 45.8422222222222 58.3333333333333 45.8333333333333zM71.9444444444444 50C73.0922222222222 55.5944444444445 70.6844444444444 61.3188888888889 65.8833333333333 64.4111111111111L70 72.65C73.2055555555556 72.0711111111111 76.4888888888889 72.0711111111111 79.6944444444444 72.65L90.25 50.0388888888889L71.9444444444444 50zM59.7222222222222 111.1111111111111C58.955 111.1111111111111 58.3333333333333 110.4894444444445 58.3333333333333 109.7222222222222C58.3333333333333 106.9444444444444 55.5555555555556 106.9444444444444 55.5555555555556 106.9444444444444C50 106.9444444444444 50 101.3888888888889 50 101.3888888888889C50 100.6216666666667 50.6216666666667 100 51.3888888888889 100S52.7777777777778 100.6216666666667 52.7777777777778 101.3888888888889C52.7777777777778 104.1666666666667 55.5555555555556 104.1666666666667 55.5555555555556 104.1666666666667C61.1111111111111 104.1666666666667 61.1111111111111 109.7222222222222 61.1111111111111 109.7222222222222C61.1111111111111 110.4894444444445 60.4894444444444 111.1111111111111 59.7222222222222 111.1111111111111zM70.8333333333333 111.1111111111111C70.0661111111111 111.1111111111111 69.4444444444444 110.4894444444445 69.4444444444444 109.7222222222222C69.4444444444444 106.9444444444444 66.6666666666667 106.9444444444444 66.6666666666667 106.9444444444444C61.1111111111111 106.9444444444444 61.1111111111111 101.3888888888889 61.1111111111111 101.3888888888889C61.1111111111111 100.6216666666667 61.7327777777778 100 62.5 100S63.8888888888889 100.6216666666667 63.8888888888889 101.3888888888889C63.8888888888889 104.1666666666667 66.6666666666667 104.1666666666667 66.6666666666667 104.1666666666667C72.2222222222222 104.1666666666667 72.2222222222222 109.7222222222222 72.2222222222222 109.7222222222222C72.2222222222222 110.4894444444445 71.6005555555556 111.1111111111111 70.8333333333333 111.1111111111111zM81.9444444444444 111.1111111111111C81.1772222222222 111.1111111111111 80.5555555555556 110.4894444444445 80.5555555555556 109.7222222222222C80.5555555555556 106.9444444444444 77.7777777777778 106.9444444444444 77.7777777777778 106.9444444444444C72.2222222222222 106.9444444444444 72.2222222222222 101.3888888888889 72.2222222222222 101.3888888888889C72.2222222222222 100.6216666666667 72.8438888888889 100 73.6111111111111 100S75 100.6216666666667 75 101.3888888888889C75 104.1666666666667 77.7777777777778 104.1666666666667 77.7777777777778 104.1666666666667C83.3333333333333 104.1666666666667 83.3333333333333 109.7222222222222 83.3333333333333 109.7222222222222C83.3333333333333 110.4894444444445 82.7116666666667 111.1111111111111 81.9444444444444 111.1111111111111zM93.0555555555556 111.1111111111111C92.2883333333333 111.1111111111111 91.6666666666667 110.4894444444445 91.6666666666667 109.7222222222222C91.6666666666667 106.9444444444444 88.8888888888889 106.9444444444444 88.8888888888889 106.9444444444444C83.3333333333333 106.9444444444444 83.3333333333333 101.3888888888889 83.3333333333333 101.3888888888889C83.3333333333333 100.6216666666667 83.955 100 84.7222222222222 100S86.1111111111111 100.6216666666667 86.1111111111111 101.3888888888889C86.1111111111111 104.1666666666667 88.8888888888889 104.1666666666667 88.8888888888889 104.1666666666667C94.4444444444444 104.1666666666667 94.4444444444444 109.7222222222222 94.4444444444444 109.7222222222222C94.4444444444444 110.4894444444445 93.8227777777778 111.1111111111111 93.0555555555556 111.1111111111111zM104.1666666666667 111.1111111111111C103.3994444444444 111.1111111111111 102.7777777777778 110.4894444444445 102.7777777777778 109.7222222222222C102.7777777777778 106.9444444444444 100 106.9444444444444 100 106.9444444444444C94.4444444444444 106.9444444444444 94.4444444444444 101.3888888888889 94.4444444444444 101.3888888888889C94.4444444444444 100.6216666666667 95.0661111111111 100 95.8333333333333 100S97.2222222222222 100.6216666666667 97.2222222222222 101.3888888888889C97.2222222222222 104.1666666666667 100 104.1666666666667 100 104.1666666666667C105.5555555555556 104.1666666666667 105.5555555555556 109.7222222222222 105.5555555555556 109.7222222222222C105.5555555555556 110.4894444444445 104.9338888888889 111.1111111111111 104.1666666666667 111.1111111111111z" />
    <glyph glyph-name="beer"
      unicode="&#xF111;"
      horiz-adv-x="150" d=" M100 88.8888888888889V105.5555555555556C100 105.5555555555556 94.4444444444444 111.1111111111111 75 111.1111111111111S50 105.5555555555556 50 105.5555555555556V88.8888888888889C50.16 81.1583333333333 52.0588888888889 73.5633333333333 55.5555555555556 66.6666666666667C59.0305555555556 58.6955555555556 59.0305555555556 49.6377777777778 55.5555555555556 41.6666666666667C55.5555555555556 41.6666666666667 55.5555555555556 36.1111111111111 75 36.1111111111111S94.4444444444444 41.6666666666667 94.4444444444444 41.6666666666667C90.9694444444445 49.6377777777778 90.9694444444445 58.6955555555556 94.4444444444444 66.6666666666667C97.9411111111111 73.5633333333333 99.84 81.1583333333333 100 88.8888888888889zM75 41.6666666666667C70.5744444444444 41.4722222222222 66.1461111111111 41.9977777777778 61.8888888888889 43.2222222222222C63.0166666666667 47.2355555555556 63.5777777777778 51.3866666666667 63.5555555555556 55.5555555555556H86.4444444444445C86.4222222222222 51.3866666666667 86.9833333333333 47.2355555555556 88.1111111111111 43.2222222222222C83.8538888888889 41.9977777777778 79.4255555555556 41.4722222222222 75 41.6666666666667zM75 88.8888888888889C68.4088888888889 88.7227777777778 61.8366666666667 89.6616666666667 55.5555555555556 91.6666666666667V102.7777777777778C61.8388888888889 104.7716666666667 68.4094444444445 105.71 75 105.5555555555556C81.5905555555556 105.71 88.1611111111111 104.7716666666667 94.4444444444444 102.7777777777778V91.6666666666667C88.1633333333333 89.6616666666667 81.5911111111111 88.7227777777778 75 88.8888888888889z" />
    <glyph glyph-name="bicycle"
      unicode="&#xF112;"
      horiz-adv-x="150" d=" M75 105.5555555555556C71.2438888888889 105.6111111111111 71.2438888888889 99.9466666666667 75 100H83.3333333333333V92.9688888888889L67.7627777777778 80.0022222222222L62.3477777777778 94.4444444444444H63.8888888888889C67.645 94.3888888888889 67.645 100.0533333333333 63.8888888888889 100H52.7777777777778C49.0216666666667 100.0555555555556 49.0216666666667 94.3911111111111 52.7777777777778 94.4444444444444H56.4016666666667L61.35 81.25C58.7511111111111 82.5422222222222 55.8661111111111 83.3333333333333 52.7777777777778 83.3333333333333C42.0716666666667 83.3333333333333 33.3333333333333 74.595 33.3333333333333 63.8888888888889S42.0716666666667 44.4444444444444 52.7777777777778 44.4444444444444S72.2222222222222 53.1827777777778 72.2222222222222 63.8888888888889C72.2222222222222 67.6105555555556 71.1094444444444 71.0616666666667 69.2816666666667 74.0233333333333L84.95 87.0766666666667L87.5216666666667 80.6311111111111C81.73 77.2572222222222 77.7777777777778 71.0488888888889 77.7777777777778 63.8888888888889C77.7777777777778 53.1827777777778 86.5161111111111 44.4444444444444 97.2222222222222 44.4444444444444S116.6666666666667 53.1827777777778 116.6666666666667 63.8888888888889S107.9283333333333 83.3333333333333 97.2222222222222 83.3333333333333C95.6494444444444 83.3333333333333 94.1422222222222 83.0922222222222 92.6755555555556 82.7366666666667L88.8888888888889 92.2094444444444V102.7777777777778C88.8888888888889 104.3116666666667 87.645 105.5555555555556 86.1111111111111 105.5555555555556H75zM52.7777777777778 77.7777777777778C56.0683333333333 77.7777777777778 59.0422222222222 76.6005555555556 61.415 74.7072222222222L50.9983333333333 66.0266666666667C48.16 63.6527777777778 51.7083333333333 59.3905555555556 54.5572222222222 61.7516666666667L64.9738888888889 70.4322222222222C66.0194444444445 68.4777777777778 66.6666666666667 66.2716666666667 66.6666666666667 63.8888888888889C66.6666666666667 56.1855555555556 60.4811111111111 50 52.7777777777778 50S38.8888888888889 56.1855555555556 38.8888888888889 63.8888888888889S45.0738888888889 77.7777777777778 52.7777777777778 77.7777777777778L52.7777777777778 77.7777777777778zM97.2222222222222 77.7777777777778C104.9255555555556 77.7777777777778 111.1111111111111 71.5922222222222 111.1111111111111 63.8888888888889S104.9255555555556 50 97.2222222222222 50S83.3333333333333 56.1855555555556 83.3333333333333 63.8888888888889C83.3333333333333 68.7611111111111 85.8155555555556 73.0116666666667 89.5833333333333 75.4883333333333L94.64 62.8583333333333C96.0066666666667 59.3966666666667 101.1977777777778 61.4688888888889 99.805 64.92L94.7594444444444 77.5283333333333C95.5605555555556 77.6705555555556 96.3783333333334 77.7777777777778 97.2222222222222 77.7777777777778L97.2222222222222 77.7777777777778z" />
    <glyph glyph-name="bicycle-share"
      unicode="&#xF113;"
      horiz-adv-x="150" d=" M88.8888888888889 111.1111111111111C85.8205555555555 111.1111111111111 83.3333333333333 108.6238888888889 83.3333333333333 105.5555555555556C83.3333333333333 102.4872222222222 85.8205555555555 100 88.8888888888889 100S94.4444444444444 102.4872222222222 94.4444444444444 105.5555555555556C94.4444444444444 108.6238888888889 91.9572222222222 111.1111111111111 88.8888888888889 111.1111111111111zM78.5805555555556 100.0327777777778C77.8583333333333 100.03 77.1655555555556 99.7455555555556 76.6488888888889 99.2405555555556L61.9788888888889 85.3516666666667C60.7255555555556 84.1694444444445 60.8394444444445 82.1433333333333 62.2177777777778 81.1088888888889L72.2222222222222 73.6111111111111V58.3333333333333C72.1666666666667 54.5766666666667 77.8311111111111 54.5766666666667 77.7777777777778 58.3333333333333V75C77.7794444444444 75.8744444444445 77.3694444444444 76.6983333333333 76.6711111111111 77.2244444444445L72.4066666666667 80.4255555555556L82.5066666666667 89.9877777777778L86.6644444444444 84.4405555555556C87.1905555555556 83.7416666666667 88.0144444444444 83.3316666666667 88.8888888888889 83.3333333333333H97.2222222222222C100.9783333333333 83.2777777777778 100.9783333333333 88.9422222222222 97.2222222222222 88.8888888888889H90.2777777777778L86.1111111111111 94.4444444444444L82.78 98.8933333333334C82.2794444444444 99.58 81.4916666666667 100 80.6422222222222 100.0327777777778H78.5805555555556zM50 77.7777777777778C40.795 77.7777777777778 33.3333333333333 70.3155555555556 33.3333333333333 61.1111111111111S40.795 44.4444444444444 50 44.4444444444444S66.6666666666667 51.9066666666667 66.6666666666667 61.1111111111111S59.205 77.7777777777778 50 77.7777777777778zM100 77.7777777777778C90.795 77.7777777777778 83.3333333333333 70.3155555555556 83.3333333333333 61.1111111111111S90.795 44.4444444444444 100 44.4444444444444S116.6666666666667 51.9066666666667 116.6666666666667 61.1111111111111S109.205 77.7777777777778 100 77.7777777777778zM50 72.2222222222222C56.1366666666667 72.2222222222222 61.1111111111111 67.2477777777778 61.1111111111111 61.1111111111111S56.1366666666667 50 50 50S38.8888888888889 54.9744444444444 38.8888888888889 61.1111111111111S43.8633333333333 72.2222222222222 50 72.2222222222222zM100 72.2222222222222C106.1366666666667 72.2222222222222 111.1111111111111 67.2477777777778 111.1111111111111 61.1111111111111S106.1366666666667 50 100 50S88.8888888888889 54.9744444444444 88.8888888888889 61.1111111111111S93.8633333333334 72.2222222222222 100 72.2222222222222z" />
    <glyph glyph-name="blood-bank"
      unicode="&#xF114;"
      horiz-adv-x="150" d=" M95.5555555555555 77.2222222222222L95.5555555555555 77.2222222222222L75 105.5555555555556L54.4444444444445 77.2222222222222H54.4444444444445C51.6666666666667 73.3333333333333 50 68.3333333333333 50 63.3333333333333C50 50 61.1111111111111 38.8888888888889 75 38.8888888888889C75 38.8888888888889 75 38.8888888888889 75 38.8888888888889C88.8888888888889 38.8888888888889 100 50 100 63.3333333333333C100 63.3333333333333 100 63.3333333333333 100 63.3333333333333C100 68.3333333333333 98.3333333333333 73.3333333333333 95.5555555555555 77.2222222222222zM88.8888888888889 61.1111111111111H77.7777777777778V50H72.2222222222222V61.1111111111111H61.1111111111111V66.6666666666667H72.2222222222222V77.7777777777778H77.7777777777778V66.6666666666667H88.8888888888889V61.1111111111111z" />
    <glyph glyph-name="buddhism"
      unicode="&#xF115;"
      horiz-adv-x="150" d=" M122.3684210526316 78.9473684210526H118.1605263157895A43.13684210526316 43.13684210526316 0 0 1 108.3078947368421 102.7184210526316L111.2921052631579 105.7026315789474A3.9473684210526314 3.9473684210526314 0 1 1 105.7105263157895 111.2842105263158L102.7263157894737 108.3A43.14473684210527 43.14473684210527 0 0 1 78.9473684210526 118.1605263157895V122.3684210526316A3.9473684210526314 3.9473684210526314 0 0 1 71.0526315789474 122.3684210526316V118.1605263157895A43.14473684210527 43.14473684210527 0 0 1 47.2815789473684 108.3L44.2973684210526 111.3157894736842A3.9473684210526314 3.9473684210526314 0 0 1 38.7157894736842 105.7342105263158L41.7 102.75A43.13684210526316 43.13684210526316 0 0 1 31.8394736842105 78.9473684210526H27.6315789473684A3.9473684210526314 3.9473684210526314 0 0 1 27.6315789473684 71.0526315789474H31.8394736842105A43.13684210526316 43.13684210526316 0 0 1 41.6921052631579 47.2815789473684L38.7078947368421 44.2973684210526A3.9473684210526314 3.9473684210526314 0 1 1 44.2894736842105 38.7157894736842L47.2736842105263 41.7A43.12894736842105 43.12894736842105 0 0 1 71.0526315789474 31.8394736842105V27.6315789473684A3.9473684210526314 3.9473684210526314 0 0 1 78.9473684210526 27.6315789473684V31.8394736842105A43.13684210526316 43.13684210526316 0 0 1 102.7184210526316 41.7L105.7026315789474 38.7157894736842A3.9473684210526314 3.9473684210526314 0 1 1 111.2842105263158 44.2973684210526H111.2842105263158L108.3 47.2815789473684A43.14473684210527 43.14473684210527 0 0 1 118.1605263157895 71.0526315789474H122.3684210526316A3.9473684210526314 3.9473684210526314 0 0 1 122.3684210526316 78.9473684210526zM78.9473684210526 110.1236842105263A35.131578947368425 35.131578947368425 0 0 0 97.05 102.6315789473684L80.0763157894737 85.6578947368421A11.723684210526317 11.723684210526317 0 0 1 78.9473684210526 86.1157894736842zM71.0526315789474 110.1236842105263V86.1157894736842A11.723684210526317 11.723684210526317 0 0 1 69.9236842105263 85.6578947368421L52.95 102.6315789473684A35.131578947368425 35.131578947368425 0 0 0 71.0526315789474 110.1236842105263zM47.3684210526316 97.05L64.3421052631579 80.0763157894737A11.723684210526317 11.723684210526317 0 0 1 63.8842105263158 78.9473684210526H39.8763157894737A35.131578947368425 35.131578947368425 0 0 0 47.3684210526316 97.05zM39.8763157894737 71.0526315789474H63.8842105263158A11.842105263157894 11.842105263157894 0 0 1 64.3421052631579 69.9236842105263L47.3684210526316 52.95A35.123684210526314 35.123684210526314 0 0 0 39.8763157894737 71.0526315789474zM71.0526315789474 39.8763157894737A35.131578947368425 35.131578947368425 0 0 0 52.95 47.3684210526316L69.9236842105263 64.3421052631579A11.723684210526317 11.723684210526317 0 0 1 71.0526315789474 63.8842105263158zM78.9473684210526 39.8763157894737V63.8842105263158A11.668421052631578 11.668421052631578 0 0 1 80.0763157894737 64.3421052631579L97.05 47.3684210526316A35.123684210526314 35.123684210526314 0 0 0 78.9473684210526 39.8763157894737zM102.6315789473684 52.95L85.6578947368421 69.9236842105263A11.842105263157894 11.842105263157894 0 0 1 86.1157894736842 71.0526315789474H110.1315789473684A35.123684210526314 35.123684210526314 0 0 0 102.6315789473684 52.95zM86.1157894736842 78.9473684210526A11.723684210526317 11.723684210526317 0 0 1 85.6578947368421 80.0763157894737L102.6315789473684 97.05A35.131578947368425 35.131578947368425 0 0 0 110.1236842105263 78.9473684210526z" />
    <glyph glyph-name="building"
      unicode="&#xF116;"
      horiz-adv-x="150" d=" M39.4736842105263 118.421052631579V31.5789473684211H78.9473684210526V55.2631578947369H102.6315789473684V31.5789473684211H110.5263157894737V118.421052631579H39.4736842105263zM71.0526315789474 39.4736842105263H47.3684210526316V55.2631578947369H71.0526315789474V39.4736842105263zM71.0526315789474 63.1578947368421H47.3684210526316V78.9473684210526H71.0526315789474V63.1578947368421zM71.0526315789474 86.8421052631579H47.3684210526316V102.6315789473684H71.0526315789474V86.8421052631579zM102.6315789473684 63.1578947368421H78.9473684210526V78.9473684210526H102.6315789473684V63.1578947368421zM102.6315789473684 86.8421052631579H78.9473684210526V102.6315789473684H102.6315789473684V86.8421052631579z" />
    <glyph glyph-name="building-alt1"
      unicode="&#xF117;"
      horiz-adv-x="150" d=" M102.6315789473684 27.6315789473684V98.6842105263158C102.6315789473684 101.0526315789474 101.0526315789474 102.6315789473684 98.6842105263158 102.6315789473684H86.8421052631579V126.3157894736842L55.2631578947368 117.6315789473684V27.6315789473684H31.5789473684211V23.6842105263158H118.421052631579V27.6315789473684H102.6315789473684zM71.0526315789474 27.6315789473684V110.5263157894737H78.9473684210526V27.6315789473684H71.0526315789474z" />
    <glyph glyph-name="bus"
      unicode="&#xF118;"
      horiz-adv-x="150" d=" M55.5555555555556 116.6666666666667C47.98 116.6666666666667 38.8888888888889 112.5372222222222 38.8888888888889 101.4105555555556V71.1155555555556V50C38.8888888888889 50 38.8888888888889 44.4444444444444 44.4444444444444 44.4444444444444V38.8888888888889C44.4444444444444 38.8888888888889 44.4444444444444 33.3333333333333 50 33.3333333333333S55.5555555555556 38.8888888888889 55.5555555555556 38.8888888888889V44.4444444444444H94.4444444444444V38.8888888888889C94.4444444444444 38.8888888888889 94.4444444444444 33.3333333333333 100 33.3333333333333S105.5555555555556 38.8888888888889 105.5555555555556 38.8888888888889V44.4444444444444C105.5555555555556 44.4444444444444 111.1111111111111 44.4444444444444 111.1111111111111 50V101.4105555555556C111.1111111111111 112.7744444444445 104.2444444444444 116.6666666666667 96.6688888888889 116.6666666666667H55.5555555555556zM56.9444444444444 108.3333333333333H93.0555555555556C93.825 108.3333333333333 94.4444444444444 107.7138888888889 94.4444444444444 106.9444444444444S93.825 105.5555555555556 93.0555555555556 105.5555555555556H56.9444444444444C56.175 105.5555555555556 55.5555555555556 106.175 55.5555555555556 106.9444444444444S56.175 108.3333333333333 56.9444444444444 108.3333333333333zM50 100H100C105.5555555555556 100 105.5555555555556 94.6288888888889 105.5555555555556 94.6288888888889V77.7777777777778C105.5555555555556 77.7777777777778 105.5555555555556 72.2222222222222 100 72.2222222222222H50C44.4444444444444 72.2222222222222 44.4444444444444 77.7777777777778 44.4444444444444 77.7777777777778V94.4444444444444C44.4444444444444 94.4444444444444 44.4444444444444 100 50 100zM50 61.1111111111111C53.0683333333333 61.1111111111111 55.5555555555556 58.6238888888889 55.5555555555556 55.5555555555556S53.0683333333333 50 50 50S44.4444444444444 52.4872222222222 44.4444444444444 55.5555555555556S46.9316666666667 61.1111111111111 50 61.1111111111111zM100 61.1111111111111C103.0683333333333 61.1111111111111 105.5555555555556 58.6238888888889 105.5555555555556 55.5555555555556S103.0683333333333 50 100 50S94.4444444444444 52.4872222222222 94.4444444444444 55.5555555555556S96.9316666666666 61.1111111111111 100 61.1111111111111z" />
    <glyph glyph-name="cafe"
      unicode="&#xF119;"
      horiz-adv-x="150" d=" M100 88.8888888888889H88.8888888888889V100H44.4444444444444V77.7777777777778C44.5183333333333 65.505 54.5272222222222 55.6161111111111 66.8 55.69C74.6361111111111 55.7372222222222 81.8677777777778 59.9077777777778 85.8333333333333 66.6666666666667H100C106.1366666666667 66.6666666666667 111.1111111111111 71.6411111111111 111.1111111111111 77.7777777777778S106.1366666666667 88.8888888888889 100 88.8888888888889zM100 72.2222222222222H88.1111111111111C88.6038888888889 74.0338888888889 88.8655555555556 75.9005555555556 88.8888888888889 77.7777777777778V83.3333333333333H100C103.0683333333333 83.3333333333333 105.5555555555556 80.8461111111111 105.5555555555556 77.7777777777778S103.0683333333333 72.2222222222222 100 72.2222222222222zM88.8888888888889 47.2222222222222C88.8888888888889 45.6883333333333 87.645 44.4444444444444 86.1111111111111 44.4444444444444H47.2222222222222C45.6883333333333 44.4444444444444 44.4444444444444 45.6883333333333 44.4444444444444 47.2222222222222S45.6883333333333 50 47.2222222222222 50H86.1111111111111C87.645 50 88.8888888888889 48.7561111111111 88.8888888888889 47.2222222222222z" />
    <glyph glyph-name="campsite"
      unicode="&#xF11A;"
      horiz-adv-x="150" d=" M72.2222222222222 108.3333333333333L41.6666666666667 58.3333333333333H38.8888888888889C33.3333333333333 58.3333333333333 33.3333333333333 52.7777777777778 33.3333333333333 52.7777777777778V47.2222222222222C33.3333333333333 47.2222222222222 33.3333333333333 41.6666666666667 38.8888888888889 41.6666666666667H111.1111111111111C116.6666666666667 41.6666666666667 116.6666666666667 47.2222222222222 116.6666666666667 47.2222222222222V52.7777777777778C116.6666666666667 52.7777777777778 116.6666666666667 58.3333333333333 111.1111111111111 58.3333333333333H108.3333333333333L77.7777777777778 108.3333333333333C76.6666666666667 110.5555555555556 73.3333333333333 110.5555555555556 72.2222222222222 108.3333333333333zM75 88.8888888888889L92.7777777777778 58.3333333333333H56.6666666666667L75 88.8888888888889z" />
    <glyph glyph-name="car"
      unicode="&#xF11B;"
      horiz-adv-x="150" d=" M111.1111111111111 77.7777777777778C111.0888888888889 81.6133333333334 108.4516666666667 84.9383333333333 104.7222222222222 85.8333333333333L97 103.8333333333333L97 103.8333333333333L97 103.8333333333333L97 103.8333333333333C96.5738888888889 104.8705555555556 95.5661111111111 105.55 94.4444444444444 105.5555555555556H55.5555555555556C54.5133333333333 105.5366666666667 53.5694444444444 104.9361111111111 53.1111111111111 104L53.1111111111111 104L53.1111111111111 104L53.1111111111111 104L45.2777777777778 85.8888888888889C41.5277777777778 84.9888888888889 38.8855555555556 81.6338888888889 38.8888888888889 77.7777777777778V58.3333333333333H44.4444444444444V52.7777777777778C44.4444444444444 49.7094444444445 46.9316666666667 47.2222222222222 50 47.2222222222222S55.5555555555556 49.7094444444445 55.5555555555556 52.7777777777778V58.3333333333333H94.4444444444444V52.7777777777778C94.4444444444444 49.7094444444445 96.9316666666667 47.2222222222222 100 47.2222222222222S105.5555555555556 49.7094444444445 105.5555555555556 52.7777777777778V58.3333333333333H111.1111111111111V77.7777777777778zM57.2222222222222 100H92.7777777777778L98.6111111111111 86.1111111111111H51.3888888888889L57.2222222222222 100zM50 66.6666666666667C46.9316666666667 66.6666666666667 44.4444444444444 69.1538888888889 44.4444444444444 72.2222222222222S46.9316666666667 77.7777777777778 50 77.7777777777778S55.5555555555556 75.2905555555556 55.5555555555556 72.2222222222222S53.0683333333333 66.6666666666667 50 66.6666666666667zM100 66.6666666666667C96.9316666666667 66.6666666666667 94.4444444444444 69.1538888888889 94.4444444444444 72.2222222222222S96.9316666666667 77.7777777777778 100 77.7777777777778S105.5555555555556 75.2905555555556 105.5555555555556 72.2222222222222S103.0683333333333 66.6666666666667 100 66.6666666666667z" />
    <glyph glyph-name="castle"
      unicode="&#xF11C;"
      horiz-adv-x="150" d=" M94.4444444444444 94.4444444444444H55.5555555555556C52.4872222222222 94.4444444444444 50 96.9316666666667 50 100V113.8888888888889C50 115.4227777777778 51.2438888888889 116.6666666666667 52.7777777777778 116.6666666666667S55.5555555555556 115.4227777777778 55.5555555555556 113.8888888888889V105.5555555555556H61.1111111111111V111.1111111111111C61.1111111111111 114.1794444444445 63.5983333333333 116.6666666666667 66.6666666666667 116.6666666666667S72.2222222222222 114.1794444444445 72.2222222222222 111.1111111111111V105.5555555555556H77.7777777777778V111.1111111111111C77.7777777777778 114.1794444444445 80.265 116.6666666666667 83.3333333333333 116.6666666666667S88.8888888888889 114.1794444444445 88.8888888888889 111.1111111111111V105.5555555555556H94.4444444444444V113.8888888888889C94.4444444444444 115.4227777777778 95.6883333333333 116.6666666666667 97.2222222222222 116.6666666666667S100 115.4227777777778 100 113.8888888888889V100C100 96.9316666666667 97.5127777777778 94.4444444444444 94.4444444444444 94.4444444444444zM111.1111111111111 36.1111111111111C111.1111111111111 34.5772222222222 109.8672222222222 33.3333333333333 108.3333333333333 33.3333333333333H41.6666666666667C40.1327777777778 33.3333333333333 38.8888888888889 34.5772222222222 38.8888888888889 36.1111111111111S40.1327777777778 38.8888888888889 41.6666666666667 38.8888888888889H44.4444444444444C47.5127777777778 38.8888888888889 50 41.3761111111111 50 44.4444444444444C50 44.4444444444444 55.5555555555556 77.7777777777778 55.5555555555556 83.3333333333333C55.5555555555556 86.4016666666667 58.0427777777778 88.8888888888889 61.1111111111111 88.8888888888889H88.8888888888889C91.9572222222222 88.8888888888889 94.4444444444444 86.4016666666667 94.4444444444444 83.3333333333333C94.4444444444444 77.7777777777778 100 44.4444444444444 100 44.4444444444444C100 41.3761111111111 102.4872222222222 38.8888888888889 105.5555555555556 38.8888888888889H108.3333333333333C109.8461111111111 38.8894444444445 111.0811111111111 37.6788888888889 111.1111111111111 36.1666666666667V36.1111111111111zM83.3333333333333 58.3333333333333C83.3333333333333 62.9355555555556 79.6022222222222 66.6666666666667 75 66.6666666666667S66.6666666666667 62.9355555555556 66.6666666666667 58.3333333333333V38.8888888888889H83.3333333333333V58.3333333333333z" />
    <glyph glyph-name="cemetery"
      unicode="&#xF11D;"
      horiz-adv-x="150" d=" M97 50H93.2222222222222L100 96.9444444444444C100.0972222222222 98.5372222222222 98.8844444444444 99.9066666666667 97.2922222222222 100.0038888888889C97.1577777777778 100.0116666666667 97.0227777777778 100.0105555555556 96.8888888888889 100H90.3333333333333C90.3333333333333 105.1111111111111 83.5 111.1111111111111 75.0555555555555 111.1111111111111S59.8333333333333 105.1111111111111 59.8333333333333 100H53C51.4055555555556 100.0638888888889 50.0616666666667 98.8238888888889 49.9972222222222 97.2294444444445C49.9933333333333 97.1344444444444 49.9944444444445 97.0394444444445 50 96.9444444444444L56.6666666666667 50H53.0555555555556C51.4494444444444 50.0633333333333 50.09 48.8266666666667 50 47.2222222222222V38.8888888888889H100V47.2777777777778C99.9105555555556 48.8516666666667 98.575 50.0633333333333 97 50zM58.3333333333333 88.8888888888889H91.6666666666667V83.3333333333333H58.3333333333333V88.8888888888889z" />
    <glyph glyph-name="cinema"
      unicode="&#xF11E;"
      horiz-adv-x="150" d=" M111.1111111111111 75V63.8888888888889C111.1111111111111 62.355 109.8672222222222 61.1111111111111 108.3333333333333 61.1111111111111S105.5555555555556 62.355 105.5555555555556 63.8888888888889C105.5555555555556 63.8888888888889 105.8888888888889 66.6666666666667 100 66.6666666666667H94.4444444444444V52.7777777777778C94.4444444444444 51.2438888888889 93.2005555555556 50 91.6666666666667 50H47.2222222222222C45.6883333333333 50 44.4444444444444 51.2438888888889 44.4444444444444 52.7777777777778V75C44.4444444444444 76.5338888888889 45.6883333333333 77.7777777777778 47.2222222222222 77.7777777777778H91.6666666666667C93.2005555555556 77.7777777777778 94.4444444444444 76.5338888888889 94.4444444444444 75V72.2222222222222H100C105.8888888888889 72.2222222222222 105.5555555555556 75 105.5555555555556 75C105.5555555555556 76.5338888888889 106.7994444444445 77.7777777777778 108.3333333333333 77.7777777777778S111.1111111111111 76.5338888888889 111.1111111111111 75zM55.5555555555556 100C49.4188888888889 100 44.4444444444444 95.0255555555556 44.4444444444444 88.8888888888889S49.4188888888889 77.7777777777778 55.5555555555556 77.7777777777778S66.6666666666667 82.7522222222222 66.6666666666667 88.8888888888889S61.6922222222222 100 55.5555555555556 100zM55.5555555555556 83.3333333333333C52.4872222222222 83.3333333333333 50 85.8205555555556 50 88.8888888888889S52.4872222222222 94.4444444444444 55.5555555555556 94.4444444444444S61.1111111111111 91.9572222222222 61.1111111111111 88.8888888888889S58.6238888888889 83.3333333333333 55.5555555555556 83.3333333333333zM80.5555555555556 105.5555555555556C72.885 105.5555555555556 66.6666666666667 99.3372222222222 66.6666666666667 91.6666666666667S72.885 77.7777777777778 80.5555555555556 77.7777777777778S94.4444444444444 83.9961111111111 94.4444444444444 91.6666666666667S88.2261111111111 105.5555555555556 80.5555555555556 105.5555555555556zM80.5555555555556 83.3333333333333C75.9533333333333 83.3333333333333 72.2222222222222 87.0644444444445 72.2222222222222 91.6666666666667S75.9533333333333 100 80.5555555555556 100S88.8888888888889 96.2688888888889 88.8888888888889 91.6666666666667S85.1577777777778 83.3333333333333 80.5555555555556 83.3333333333333z" />
    <glyph glyph-name="circle"
      unicode="&#xF11F;"
      horiz-adv-x="150" d=" M111.1111111111111 75C111.1111111111111 55.0561111111111 94.9438888888889 38.8888888888889 75 38.8888888888889S38.8888888888889 55.0561111111111 38.8888888888889 75S55.0561111111111 111.1111111111111 75 111.1111111111111S111.1111111111111 94.9438888888889 111.1111111111111 75z" />
    <glyph glyph-name="circle-stroked"
      unicode="&#xF120;"
      horiz-adv-x="150" d=" M75 116.6666666666667C98.0122222222222 116.6666666666667 116.6666666666667 98.0122222222222 116.6666666666667 75S98.0122222222222 33.3333333333333 75 33.3333333333333S33.3333333333333 51.9877777777778 33.3333333333333 75S51.9877777777778 116.6666666666667 75 116.6666666666667zM75 107.4077777777778C57.1016666666667 107.4077777777778 42.5927777777778 92.8983333333333 42.5927777777778 75S57.1016666666667 42.5922222222222 75 42.5922222222222S107.4072222222222 57.1016666666667 107.4072222222222 75S92.8983333333333 107.4077777777778 75 107.4077777777778z" />
    <glyph glyph-name="city"
      unicode="&#xF121;"
      horiz-adv-x="150" d=" M123.4657894736842 102.6315789473684H110.5263157894737V123.4657894736842A2.8499999999999996 2.8499999999999996 0 0 1 107.6763157894737 126.3157894736842H105.4815789473684A2.8499999999999996 2.8499999999999996 0 0 1 102.6315789473684 123.4657894736842H102.6315789473684V102.6315789473684H89.6921052631579A2.8499999999999996 2.8499999999999996 0 0 1 86.8421052631579 99.7815789473684H86.8421052631579V55.2631578947369H58.1289473684211A2.86578947368421 2.86578947368421 0 0 1 55.2631578947368 52.3973684210526V26.5421052631579A2.86578947368421 2.86578947368421 0 0 1 58.1289473684211 23.6842105263158H123.4657894736842A2.8499999999999996 2.8499999999999996 0 0 1 126.3157894736842 26.5342105263158H126.3157894736842V99.7815789473684A2.8499999999999996 2.8499999999999996 0 0 1 123.4657894736842 102.6315789473684zM71.0526315789474 39.4736842105263H63.1578947368421V47.3684210526316H71.0526315789474zM86.8421052631579 39.4736842105263H78.9473684210526V47.3684210526316H86.8421052631579zM102.6315789473684 39.4736842105263H94.7368421052632V47.3684210526316H102.6315789473684zM102.6315789473684 55.2631578947369H94.7368421052632V63.1578947368421H102.6315789473684zM102.6315789473684 71.0526315789474H94.7368421052632V78.9473684210526H102.6315789473684zM102.6315789473684 86.8421052631579H94.7368421052632V94.7368421052632H102.6315789473684zM118.421052631579 39.4736842105263H110.5263157894737V47.3684210526316H118.421052631579zM118.421052631579 55.2631578947369H110.5263157894737V63.1578947368421H118.421052631579zM118.421052631579 71.0526315789474H110.5263157894737V78.9473684210526H118.421052631579zM118.421052631579 86.8421052631579H110.5263157894737V94.7368421052632H118.421052631579zM78.9473684210526 123.4657894736842A2.8499999999999996 2.8499999999999996 0 0 1 76.0973684210526 126.3157894736842H58.1131578947368A2.8499999999999996 2.8499999999999996 0 0 1 55.2631578947368 123.4657894736842H55.2631578947368V110.5263157894737H42.3236842105263A2.8499999999999996 2.8499999999999996 0 0 1 39.4736842105263 107.6763157894737H39.4736842105263V102.6315789473684H26.5342105263158A2.8499999999999996 2.8499999999999996 0 0 1 23.6842105263158 99.7815789473684H23.6842105263158V26.5342105263158A2.8499999999999996 2.8499999999999996 0 0 1 26.5342105263158 23.6842105263158H47.3684210526316V63.1578947368421H78.9473684210526zM39.4736842105263 39.4736842105263H31.5789473684211V47.3684210526316H39.4736842105263zM39.4736842105263 55.2631578947369H31.5789473684211V63.1578947368421H39.4736842105263zM39.4736842105263 71.0526315789474H31.5789473684211V78.9473684210526H39.4736842105263zM39.4736842105263 86.8421052631579H31.5789473684211V94.7368421052632H39.4736842105263zM55.2631578947368 71.0526315789474H47.3684210526316V78.9473684210526H55.2631578947368zM55.2631578947368 86.8421052631579H47.3684210526316V94.7368421052632H55.2631578947368zM71.0526315789474 71.0526315789474H63.1578947368421V78.9473684210526H71.0526315789474zM71.0526315789474 86.8421052631579H63.1578947368421V94.7368421052632H71.0526315789474zM71.0526315789474 102.6315789473684H63.1578947368421V110.5263157894737H71.0526315789474z" />
    <glyph glyph-name="clothing-store"
      unicode="&#xF122;"
      horiz-adv-x="150" d=" M52.7777777777778 111.1111111111111L33.3333333333333 94.4444444444444V77.7777777777778H49.4444444444444L50 38.8888888888889H100V77.7777777777778H116.6666666666667V94.4444444444444L97.2222222222222 111.1111111111111H88.8888888888889L75 88.8888888888889L61.1111111111111 111.1111111111111H52.7777777777778z" />
    <glyph glyph-name="college"
      unicode="&#xF123;"
      horiz-adv-x="150" d=" M75 111.1111111111111L33.3333333333333 91.6666666666667L44.4444444444444 86.6666666666667V77.2222222222222C41.1111111111111 76.1111111111111 38.8888888888889 72.7777777777778 38.8888888888889 69.4444444444444S41.1111111111111 62.7777777777778 44.4444444444444 61.6666666666667V61.1111111111111L39.4444444444444 49.4444444444444C37.7777777777778 44.4444444444444 38.8888888888889 38.8888888888889 47.2222222222222 38.8888888888889S56.6666666666667 44.4444444444444 55 49.4444444444444L50 61.1111111111111C53.3333333333333 62.7777777777778 55.5555555555556 65.5555555555556 55.5555555555556 69.4444444444444S53.3333333333333 76.1111111111111 50 77.2222222222222V83.8888888888889L75 72.2222222222222L116.6666666666667 91.6666666666667L75 111.1111111111111zM99.4444444444444 75L74.4444444444444 63.8888888888889L61.1111111111111 70V69.4444444444444C61.1111111111111 65.5555555555556 59.4444444444444 62.2222222222222 56.6666666666667 59.4444444444444L60 51.6666666666667V51.1111111111111C60.5555555555556 48.8888888888889 61.1111111111111 46.6666666666667 60.5555555555556 44.4444444444444C64.4444444444444 42.7777777777778 68.8888888888889 41.6666666666667 74.4444444444444 41.6666666666667C92.7777777777778 41.6666666666667 99.4444444444444 52.7777777777778 99.4444444444444 58.3333333333333L99.4444444444444 75L99.4444444444444 75z" />
    <glyph glyph-name="commercial"
      unicode="&#xF124;"
      horiz-adv-x="150" d=" M126.3157894736842 78.9473684210526H23.6842105263158C24.3797368421053 89.865 27.0552631578947 100.5655263157895 31.5789473684211 110.5263157894737H118.421052631579C122.9455263157895 100.5655263157895 125.6202631578947 89.865 126.3157894736842 78.9473684210526zM39.4736842105263 71.0526315789474H110.5263157894737V23.6842105263158H102.6315789473684V63.1578947368421H78.9473684210526V23.6842105263158H39.4736842105263V71.0526315789474zM47.3684210526316 47.3684210526316H71.0526315789474V63.1578947368421H47.3684210526316V47.3684210526316z" />
    <glyph glyph-name="cricket"
      unicode="&#xF125;"
      horiz-adv-x="150" d=" M77.7777777777778 108.3333333333333C77.7777777777778 103.7311111111111 74.0466666666667 100 69.4444444444444 100S61.1111111111111 103.7311111111111 61.1111111111111 108.3333333333333S64.8422222222222 116.6666666666667 69.4444444444444 116.6666666666667S77.7777777777778 112.9355555555556 77.7777777777778 108.3333333333333zM93.7777777777778 76.7777777777778L93.7777777777778 76.7777777777778L82.6666666666667 87.8888888888889L82.6666666666667 87.8888888888889L82.6666666666667 87.8888888888889C82.1194444444444 88.5466666666667 81.2994444444445 88.9155555555556 80.4444444444444 88.8888888888889H54.1666666666667C52.0755555555556 88.9361111111111 50.2822222222222 87.4061111111111 50 85.3333333333333L50 85.3333333333333L44.4444444444444 42.5555555555556L44.4444444444444 42.5555555555556C44.4066666666667 42.2977777777778 44.4066666666667 42.0355555555556 44.4444444444444 41.7777777777778C44.4444444444444 40.2438888888889 45.6883333333333 39 47.2222222222222 39C48.4727777777778 38.915 49.6194444444444 39.695 50 40.8888888888889L50 40.8888888888889L56.6666666666667 62.5L56.6666666666667 62.5L58.1111111111111 67.1111111111111L60.3333333333333 64.6666666666667L60.3333333333333 64.6666666666667L66.6666666666667 57.7777777777778V41.6666666666667C66.6666666666667 40.1327777777778 67.9105555555556 38.8888888888889 69.4444444444444 38.8888888888889S72.2222222222222 40.1327777777778 72.2222222222222 41.6666666666667V58.3333333333333L72.2222222222222 58.3333333333333L72.2222222222222 58.3333333333333C72.1772222222222 58.7711111111111 72.0244444444444 59.1911111111111 71.7777777777778 59.5555555555556L71.7777777777778 59.5555555555556L63.7777777777778 69.4444444444444L69.3333333333333 83.3333333333333H78.8333333333333L89.9444444444444 73.1111111111111L89.9444444444444 73.1111111111111C90.46 72.5127777777778 91.21 72.1683333333333 92 72.1666666666667C93.4238888888889 72.3383333333333 94.4833333333333 73.5661111111111 94.4444444444444 75C94.4427777777778 75.6533333333333 94.2061111111111 76.2844444444445 93.7777777777778 76.7777777777778zM111.1111111111111 54.0555555555556C108.81 54.0555555555556 106.9444444444444 52.19 106.9444444444444 49.8888888888889S108.81 45.7222222222222 111.1111111111111 45.7222222222222S115.2777777777778 47.5877777777778 115.2777777777778 49.8888888888889S113.4122222222222 54.0555555555556 111.1111111111111 54.0555555555556zM93.1111111111111 62.5555555555556V66.6666666666667C93.1111111111111 67.4338888888889 92.4894444444445 68.0555555555556 91.7222222222222 68.0555555555556S90.3333333333333 67.4338888888889 90.3333333333333 66.6666666666667V62.5555555555556C89.4877777777778 62.0805555555556 88.9588888888889 61.1916666666667 88.9444444444444 60.2222222222222V41.6666666666667C88.9444444444444 40.1327777777778 90.1883333333333 38.8888888888889 91.7222222222222 38.8888888888889S94.5 40.1327777777778 94.5 41.6666666666667V60.2222222222222C94.4855555555556 61.1916666666667 93.9566666666667 62.0805555555556 93.1111111111111 62.5555555555556z" />
    <glyph glyph-name="cross"
      unicode="&#xF126;"
      horiz-adv-x="150" d=" M36.6315789473684 124.1842105263158L75 85.8157894736842L113.2105263157895 124.0263157894737C114.5636842105263 125.4663157894737 116.445 126.2928947368421 118.421052631579 126.3157894736842C122.7813157894737 126.3157894736842 126.3157894736842 122.7813157894737 126.3157894736842 118.421052631579C126.3528947368421 116.4647368421053 125.5815789473684 114.5794736842105 124.1842105263158 113.2105263157895L85.5789473684211 75L124.1842105263158 36.3947368421053C125.4852631578947 35.1221052631579 126.2486842105263 33.3978947368421 126.3157894736842 31.5789473684211C126.3157894736842 27.2186842105263 122.7813157894737 23.6842105263158 118.421052631579 23.6842105263158C116.3865789473684 23.5997368421053 114.4105263157895 24.3734210526316 112.9736842105263 25.8157894736842L75 64.1842105263158L36.7105263157895 25.8947368421053C35.3628947368421 24.5028947368421 33.5155263157895 23.7071052631579 31.5789473684211 23.6842105263158C27.2186842105263 23.6842105263158 23.6842105263158 27.2186842105263 23.6842105263158 31.5789473684211C23.6471052631579 33.5352631578947 24.4184210526316 35.4205263157895 25.8157894736842 36.7894736842105L64.421052631579 75L25.8157894736842 113.6052631578948C24.5147368421053 114.8778947368421 23.7513157894737 116.6021052631579 23.6842105263158 118.421052631579C23.6842105263158 122.7813157894737 27.2186842105263 126.3157894736842 31.5789473684211 126.3157894736842C33.4768421052632 126.2928947368421 35.2902631578947 125.5278947368421 36.6315789473684 124.1842105263158z" />
    <glyph glyph-name="dam"
      unicode="&#xF127;"
      horiz-adv-x="150" d=" M125.8421052631579 59.2105263157895C125.8421052631579 57.0307894736842 124.0744736842105 55.2631578947369 121.8947368421053 55.2631578947369L121.8947368421053 55.2631578947369C119.85 55.0902631578947 117.9521052631579 54.1271052631579 116.6052631578947 52.5789473684211C114.4626315789474 50.2997368421053 111.7302631578947 48.66 108.7105263157895 47.8421052631579C103.8828947368421 46.4084210526316 98.6573684210526 47.5073684210526 94.8157894736842 50.7631578947369L91.7368421052632 53.5263157894737C89.3873684210526 55.9247368421053 85.5386842105263 55.9634210526316 83.1402631578947 53.6139473684211C83.1110526315789 53.5847368421053 83.0818421052632 53.5555263157895 83.0526315789474 53.5263157894737C81.9473684210526 52.5789473684211 80.921052631579 51.5526315789474 79.7368421052632 50.6052631578947C73.9910526315789 46.0389473684211 65.7923684210526 46.2718421052632 60.3157894736842 51.1578947368421L57.6315789473684 53.7631578947369L56.8421052631579 54.2368421052632L59.2105263157895 44.6052631578947L63.0789473684211 28.8157894736842C63.7334210526316 26.7363157894737 62.5784210526316 24.5202631578947 60.4997368421053 23.865C60.0828947368421 23.7339473684211 59.6471052631579 23.6731578947368 59.2105263157895 23.6842105263158H27.6315789473684C25.4518421052632 23.6842105263158 23.6842105263158 25.4518421052632 23.6842105263158 27.6315789473684V122.3684210526316C23.6842105263158 124.5481578947369 25.4518421052632 126.3157894736842 27.6315789473684 126.3157894736842H36.3157894736842C38.1678947368421 126.3244736842105 39.7768421052632 125.0439473684211 40.1842105263158 123.2368421052632L47.3684210526316 94.2631578947369V93.1578947368421C52.5544736842105 95.6368421052632 58.7060526315789 94.8986842105263 63.1578947368421 91.2631578947369C64.421052631579 90.2368421052632 65.6052631578947 89.0526315789474 66.8684210526316 88.0263157894737C69.116052631579 86.0163157894737 72.5155263157895 86.0163157894737 74.7631578947369 88.0263157894737C76.0263157894737 89.0526315789474 77.2105263157895 90.2368421052632 78.4736842105263 91.2631578947369C84.06 95.9747368421053 92.2294736842105 95.9747368421053 97.8157894736842 91.2631578947369C99 90.2368421052632 100.1052631578947 89.1315789473684 101.2894736842105 88.1842105263158C103.5371052631579 86.1742105263158 106.9365789473684 86.1742105263158 109.1842105263158 88.1842105263158L112.8947368421053 91.421052631579C115.3918421052632 93.5305263157895 118.5465789473684 94.7028947368421 121.8157894736842 94.7368421052632L121.8157894736842 94.7368421052632C123.9955263157895 94.7368421052632 125.7631578947368 92.9692105263158 125.7631578947368 90.7894736842105S123.9955263157895 86.8421052631579 121.8157894736842 86.8421052631579L121.8157894736842 86.8421052631579C119.771052631579 86.6692105263158 117.8731578947368 85.7060526315789 116.5263157894737 84.1578947368421C114.3836842105263 81.8786842105263 111.6513157894737 80.2389473684211 108.6315789473684 79.421052631579C103.8039473684211 77.9873684210526 98.5784210526316 79.0863157894737 94.7368421052632 82.3421052631579L92.1315789473684 85.0263157894737C89.7821052631579 87.4247368421053 85.9334210526316 87.4634210526316 83.535 85.1139473684211C83.5057894736842 85.0847368421053 83.4765789473684 85.0555263157895 83.4473684210526 85.0263157894737C82.3421052631579 84.0789473684211 81.3157894736842 83.0526315789474 80.1315789473684 82.1052631578947C74.3857894736842 77.5389473684211 66.1871052631579 77.7718421052632 60.7105263157895 82.6578947368421L57.6315789473684 85.3421052631579C55.3839473684211 87.3521052631579 51.9844736842105 87.3521052631579 49.7368421052632 85.3421052631579L49.2631578947368 84.9473684210526L54.7105263157895 63.1578947368421C57.81 62.9289473684211 60.7618421052632 61.7423684210526 63.1578947368421 59.7631578947369C64.421052631579 58.7368421052632 65.6052631578947 57.5526315789474 66.8684210526316 56.5263157894737C69.116052631579 54.5163157894737 72.5155263157895 54.5163157894737 74.7631578947369 56.5263157894737C76.0263157894737 57.5526315789474 77.2105263157895 58.7368421052632 78.4736842105263 59.7631578947369C84.06 64.4747368421053 92.2294736842105 64.4747368421053 97.8157894736842 59.7631578947369C99 58.7368421052632 100.1052631578947 57.6315789473684 101.2894736842105 56.6842105263158C103.5371052631579 54.6742105263158 106.9365789473684 54.6742105263158 109.1842105263158 56.6842105263158L112.8947368421053 59.921052631579C115.4028947368421 62.0021052631579 118.5568421052632 63.146052631579 121.8157894736842 63.1578947368421L121.8157894736842 63.1578947368421C123.9955263157895 63.2013157894737 125.7978947368421 61.47 125.8413157894737 59.2902631578947C125.8421052631579 59.2634210526316 125.8421052631579 59.2373684210526 125.8421052631579 59.2105263157895z" />
    <glyph glyph-name="danger"
      unicode="&#xF128;"
      horiz-adv-x="150" d=" M110.7777777777778 35.1111111111111C110.3616666666667 34.0333333333333 109.3222222222222 33.325 108.1666666666667 33.3333333333333C107.8361111111111 33.2738888888889 107.4972222222222 33.2738888888889 107.1666666666667 33.3333333333333L75 46.8888888888889L42.7777777777778 33.3333333333333C41.3488888888889 32.775 39.7377777777778 33.4811111111111 39.18 34.91C39.1755555555556 34.9216666666667 39.1711111111111 34.9327777777778 39.1666666666667 34.9444444444444C38.4494444444444 36.3005555555556 38.9677777777778 37.9816666666667 40.3244444444444 38.6983333333333C40.4694444444444 38.775 40.6211111111111 38.8388888888889 40.7777777777778 38.8888888888889L67.7222222222222 50L40.7777777777778 61.1111111111111C39.31 61.5572222222222 38.4816666666667 63.1088888888889 38.9277777777778 64.5766666666667S40.9255555555556 66.8727777777778 42.3933333333333 66.4266666666667C42.525 66.3866666666667 42.6533333333333 66.3366666666667 42.7777777777778 66.2777777777778L75 52.8888888888889L107.2222222222222 66.2777777777778C108.6077777777778 66.9361111111111 110.265 66.3466666666667 110.9233333333333 64.9611111111111C111.5816666666667 63.5755555555556 110.9922222222222 61.9183333333333 109.6066666666667 61.26C109.4822222222222 61.2005555555556 109.3538888888889 61.1511111111111 109.2222222222222 61.1111111111111L82.2222222222222 50L109.1666666666667 38.8888888888889C110.615 38.3833333333333 111.3794444444444 36.7994444444444 110.8744444444444 35.3511111111111C110.8461111111111 35.2694444444445 110.8138888888889 35.1894444444445 110.7777777777778 35.1111111111111zM100 93.1666666666667V90.6666666666667C99.9883333333334 89.4838888888889 99.5988888888889 88.3355555555556 98.8888888888889 87.3888888888889C95.7855555555556 83.9538888888889 92.4438888888889 80.7422222222222 88.8888888888889 77.7777777777778V71.3333333333333C88.8972222222222 70.1777777777778 88.1888888888889 69.1383333333333 87.1111111111111 68.7222222222222L75.1111111111111 63.8888888888889H74.7222222222222L62.6666666666667 68.7222222222222C61.6755555555556 69.2066666666667 61.065 70.2311111111111 61.1111111111111 71.3333333333333V77.7777777777778C57.5155555555556 80.7361111111111 54.1366666666667 83.9483333333333 51 87.3888888888889C50.3294444444445 88.3488888888889 49.9794444444444 89.4961111111111 50 90.6666666666667V93.1666666666667C50.9272222222222 105.4905555555556 60.5411111111111 115.385 72.8333333333333 116.6666666666667H74.8333333333333L74.8333333333333 116.6666666666667H77C89.3677777777778 115.4827777777778 99.0822222222222 105.5572222222222 100 93.1666666666667zM66.6666666666667 94.4444444444444C66.6666666666667 97.5127777777778 64.1794444444444 100 61.1111111111111 100S55.5555555555556 97.5127777777778 55.5555555555556 94.4444444444444S58.0427777777778 88.8888888888889 61.1111111111111 88.8888888888889S66.6666666666667 91.3761111111111 66.6666666666667 94.4444444444444zM72.2222222222222 77.7777777777778C72.2222222222222 79.3116666666667 70.9783333333333 80.5555555555556 69.4444444444444 80.5555555555556S66.6666666666667 79.3116666666667 66.6666666666667 77.7777777777778V75C66.6666666666667 73.4661111111111 67.9105555555556 72.2222222222222 69.4444444444444 72.2222222222222S72.2222222222222 73.4661111111111 72.2222222222222 75V77.7777777777778zM83.3333333333333 77.7777777777778C83.3333333333333 79.3116666666667 82.0894444444444 80.5555555555556 80.5555555555556 80.5555555555556S77.7777777777778 79.3116666666667 77.7777777777778 77.7777777777778V75C77.7777777777778 73.4661111111111 79.0216666666667 72.2222222222222 80.5555555555556 72.2222222222222S83.3333333333333 73.4661111111111 83.3333333333333 75V77.7777777777778zM94.4444444444444 94.4444444444444C94.4444444444444 97.5127777777778 91.9572222222222 100 88.8888888888889 100S83.3333333333333 97.5127777777778 83.3333333333333 94.4444444444444S85.8205555555555 88.8888888888889 88.8888888888889 88.8888888888889S94.4444444444444 91.3761111111111 94.4444444444444 94.4444444444444z" />
    <glyph glyph-name="defibrillator"
      unicode="&#xF129;"
      horiz-adv-x="150" d=" M41.9444444444444 81.455C28.6844444444444 106.9911111111111 62.1111111111111 124.0155555555556 75.0111111111111 98.4794444444445C87.9083333333333 124.0155555555556 121.3372222222222 106.9916666666667 108.0794444444444 81.455C107.5966666666667 80.5266666666667 106.9527777777778 79.535 106.3494444444445 78.5594444444444H96.3055555555556L86.225 93.6794444444445A3.4733333333333327 3.4733333333333327 0 0 1 80.1111111111111 93.0422222222222L70.9533333333333 70.1533333333333L63.5644444444444 77.5422222222222A3.474444444444444 3.474444444444444 0 0 1 61.1111111111111 78.5588888888889H43.6727777777778C43.0694444444444 79.535 42.4255555555556 80.5266666666667 41.9444444444444 81.455zM94.4444444444444 71.6144444444445A3.4794444444444443 3.4794444444444443 0 0 0 91.5527777777778 73.1605555555556L84.1038888888889 84.3333333333333L75.4444444444444 62.6844444444445A3.4694444444444446 3.4694444444444446 0 0 0 72.9188888888889 60.5733333333334A3.3594444444444442 3.3594444444444442 0 0 0 72.2222222222222 60.5033333333333A3.472777777777778 3.472777777777778 0 0 0 69.7672222222222 61.5177777777778L59.6733333333333 71.6144444444445H48.5322222222222A237.05555555555557 237.05555555555557 0 0 1 73.31 45.6522222222222A2.578888888888889 2.578888888888889 0 0 1 76.7666666666667 45.6522222222222A240.3333333333333 240.3333333333333 0 0 1 101.4916666666667 71.6144444444444H94.4444444444444z" />
    <glyph glyph-name="dentist"
      unicode="&#xF12A;"
      horiz-adv-x="150" d=" M57.5555555555556 38.8888888888889C52 38.8888888888889 54.4444444444444 53.7222222222222 52.7777777777778 66.6666666666667C52.2222222222222 70.8888888888889 47.2222222222222 74.9444444444444 46.5555555555556 78.1111111111111C44.4444444444444 88.8888888888889 41.0555555555556 108.6666666666667 53.6666666666667 111.1111111111111S66.6666666666667 100 75.2222222222222 100S83.9444444444444 113.1111111111111 96.6111111111111 111.1111111111111S105.4444444444444 89.4444444444444 103.7777777777778 78.3333333333333C103.2222222222222 75.8333333333333 97.6666666666667 70.1111111111111 97.2222222222222 66.8888888888889C95.3888888888889 53.5555555555556 99 39.1111111111111 92.7777777777778 39.1111111111111C87.6111111111111 39.1111111111111 85.4444444444444 54.2222222222222 81.6666666666667 64.1111111111111C80.1666666666667 68.7222222222222 78.1111111111111 72.2222222222222 75.2222222222222 72.2222222222222C66.6666666666667 72.2222222222222 65.2777777777778 38.8888888888889 57.5555555555556 38.8888888888889z" />
    <glyph glyph-name="doctor"
      unicode="&#xF12B;"
      horiz-adv-x="150" d=" M63.8888888888889 77.7777777777778C56.2183333333333 77.7777777777778 50 83.9961111111111 50 91.6666666666667L50 91.6666666666667V102.7777777777778C50 104.3116666666667 51.2438888888889 105.5555555555556 52.7777777777778 105.5555555555556H55.5555555555556C57.0894444444444 105.5555555555556 58.3333333333333 106.7994444444445 58.3333333333333 108.3333333333333S57.0894444444444 111.1111111111111 55.5555555555556 111.1111111111111H52.7777777777778C48.1755555555556 111.1111111111111 44.4444444444444 107.38 44.4444444444444 102.7777777777778V91.6666666666667C44.4516666666667 85.2966666666667 47.5877777777778 79.3361111111111 52.8333333333333 75.7222222222222L52.8333333333333 75.7222222222222C57.8505555555556 71.2988888888889 60.8411111111111 65.0166666666667 61.1111111111111 58.3333333333333C61.1111111111111 47.5944444444445 69.8166666666667 38.8888888888889 80.5555555555556 38.8888888888889S100 47.5944444444445 100 58.3333333333333V61.5C105.9416666666667 63.0338888888889 109.5144444444444 69.0944444444445 107.9805555555555 75.0361111111111C106.4461111111111 80.9777777777778 100.3861111111111 84.5505555555556 94.4444444444444 83.0166666666667C88.5027777777778 81.4822222222222 84.93 75.4222222222222 86.4638888888889 69.4805555555556C87.4744444444445 65.5666666666667 90.5305555555556 62.5105555555556 94.4444444444444 61.5V58.3333333333333C94.4444444444444 50.6627777777778 88.2261111111111 44.4444444444444 80.5555555555556 44.4444444444444S66.6666666666667 50.6627777777778 66.6666666666667 58.3333333333333C66.9505555555556 65.025 69.9622222222222 71.3088888888889 75 75.7222222222222L75 75.7222222222222C80.2244444444445 79.3488888888889 83.3388888888889 85.3066666666667 83.3333333333333 91.6666666666667V102.7777777777778C83.3333333333333 107.38 79.6022222222222 111.1111111111111 75 111.1111111111111H72.2222222222222C70.6883333333333 111.1111111111111 69.4444444444444 109.8672222222222 69.4444444444444 108.3333333333333S70.6883333333333 105.5555555555556 72.2222222222222 105.5555555555556H75C76.5338888888889 105.5555555555556 77.7777777777778 104.3116666666667 77.7777777777778 102.7777777777778V91.6666666666667L77.7777777777778 91.6666666666667C77.7777777777778 83.9961111111111 71.5594444444445 77.7777777777778 63.8888888888889 77.7777777777778M97.2222222222222 66.6666666666667C94.1538888888889 66.6666666666667 91.6666666666667 69.1538888888889 91.6666666666667 72.2222222222222S94.1538888888889 77.7777777777778 97.2222222222222 77.7777777777778S102.7777777777778 75.2905555555556 102.7777777777778 72.2222222222222S100.2905555555556 66.6666666666667 97.2222222222222 66.6666666666667z" />
    <glyph glyph-name="dog-park"
      unicode="&#xF12C;"
      horiz-adv-x="150" d=" M90.5598944444444 109.8849827777778C88.4137844444445 109.8849827777778 86.6666666666667 110 86.1111111111111 105.5555555555556L83.8867188888889 91.5473088888889L97.2222222222222 80.5555555555556L108.3333333333333 80.5555555555556C116.1111111111111 80.5555555555556 116.6666666666667 85.8832466666667 116.6666666666667 85.8832466666667L106.1089388888889 98.2096355555556C102.22005 102.0985244444445 98.3333333333333 102.7777777777778 94.4444444444444 102.7777777777778L94.4444444444444 105.5555555555556C94.4444444444444 105.5555555555556 94.8193388888889 109.8855383333333 90.5598944444444 109.8849827777778zM59.7222222222222 108.3333333333333C59.7222222222222 108.3333333333333 54.4401038888889 108.2188716666667 51.1067711111111 107.107205C47.7734372222222 105.9960938888889 44.4444444444444 102.1050344444444 44.4444444444444 96.5494788888889L44.4444444444444 74.8806422222222C44.4444444444444 65.4361977777778 40.5555555555556 63.8888888888889 38.8888888888889 63.8888888888889C38.8888888888889 63.8888888888889 33.3333333333333 63.7695311111111 33.3333333333333 58.2139777777778L33.3333333333333 45.9960944444445C33.3333333333333 45.9960944444445 33.3376736111111 41.5473111111111 37.7821180555556 41.5473111111111L38.8888888888889 41.5473111111111L41.6666666666667 41.5473111111111L44.4444444444444 41.5473111111111L44.4444444444444 44.3250888888889L44.4444444444444 45.4318555555556C44.4444444444444 47.6540777777778 43.3333333333333 48.7717 41.6666666666667 49.3272555555556L41.6666666666667 55.4362C47.2222222222222 55.4362 47.7777777777778 56.55165 50 57.1072055555556L53.0598955555556 44.9001722222222C53.6154516666667 43.2335055555556 54.1710072222222 42.1245666666667 55.8376733333333 41.5690111111111L61.3932288888889 41.5690111111111L66.6666666666667 41.6666666666667L66.6666666666667 46.11545C66.6666666666667 49.8732277777778 61.1111111111111 50 61.1111111111111 50L61.1111111111111 63.8888888888889L80.5555555555556 63.8888888888889L84.4401044444444 49.3272555555556C86.6623266666667 41.5494777777778 91.6666666666667 41.6666666666667 91.6666666666667 41.6666666666667L94.4444444444444 41.6666666666667L100 41.6666666666667L100 46.11545C100 50.0698944444445 94.4444444444444 50 94.4444444444444 50L94.9978277777778 72.65625L77.7777777777778 86.1111111111111L52.7777777777778 86.1111111111111L52.7777777777778 97.2222222222222C52.7777777777778 99.4444444444445 54.3138888888889 99.9705555555556 55.5555555555556 100C58.3005555555556 100.0655555555556 59.7222222222222 100 59.7222222222222 100C62.0233333333333 100 63.8888888888889 101.8655555555556 63.8888888888889 104.1666666666667C63.8888888888889 106.4677777777778 62.0233333333333 108.3333333333333 59.7222222222222 108.3333333333333zM98.6111111111111 94.4444444444444C99.3783333333334 94.4444444444444 100 93.8227777777778 100 93.0555555555556C100 92.2883333333333 99.3783333333334 91.6666666666667 98.6111111111111 91.6666666666667C97.8438888888889 91.6666666666667 97.2222222222222 92.2883333333333 97.2222222222222 93.0555555555556C97.2222222222222 93.8227777777778 97.8438888888889 94.4444444444444 98.6111111111111 94.4444444444444z" />
    <glyph glyph-name="drinking-water"
      unicode="&#xF12D;"
      horiz-adv-x="150" d=" M66.6666666666667 111.1111111111111A11.11111111111111 11.11111111111111 0 0 1 55.5555555555556 100V80.5555555555556A2.7777777777777777 2.7777777777777777 0 0 1 58.3333333333333 77.7777777777778H69.4444444444444A2.7777777777777777 2.7777777777777777 0 0 1 72.2222222222222 80.5555555555556V91.6666666666667A2.7777777777777777 2.7777777777777777 0 0 0 75 94.4444444444444H111.1111111111111V111.1111111111111H66.6666666666667z M72.2222222222222 33.3333333333333H55.5555555555556A2.7777777777777777 2.7777777777777777 0 0 0 52.8888888888889 35.4444444444444L44.4444444444444 68.7777777777778A2.7777777777777777 2.7777777777777777 0 0 0 47.2222222222222 72.2222222222222H80.5555555555556A2.7777777777777777 2.7777777777777777 0 0 0 83.3333333333333 68.7777777777778L75 35.4444444444445A2.7777777777777777 2.7777777777777777 0 0 0 72.2222222222222 33.3333333333333zM53.6111111111111 55.5555555555556L74.2222222222222 55.5555555555556L77 66.6666666666667H50.7777777777778z" />
    <glyph glyph-name="embassy"
      unicode="&#xF12E;"
      horiz-adv-x="150" d=" M70.2777777777778 105.5555555555556C63.5 105.5555555555556 58.2222222222222 97.8888888888889 56.1666666666667 95.4444444444444C55.7583333333333 94.9433333333333 55.5416666666667 94.3127777777778 55.5555555555556 93.6666666666667V69.2222222222222C55.4911111111111 67.8738888888889 56.5322222222222 66.7283333333333 57.8805555555556 66.6638888888889C58.4888888888889 66.635 59.0861111111111 66.8338888888889 59.5555555555556 67.2222222222222C62.1472222222222 70.7022222222222 65.9938888888889 73.0338888888889 70.2777777777778 73.7222222222222C78.1111111111111 73.7222222222222 81.1111111111111 66.6666666666667 89.2777777777778 66.6666666666667C94.8044444444445 67.2088888888889 100.0638888888889 69.3088888888889 104.4444444444444 72.7222222222222C105.1511111111111 73.2411111111111 105.5644444444444 74.0677777777778 105.5555555555556 74.9444444444444V103.0555555555556C105.7083333333333 104.3966666666667 104.745 105.6083333333334 103.4033333333333 105.7611111111111C102.9622222222222 105.8111111111111 102.515 105.74 102.1111111111111 105.5555555555556C98.3261111111111 102.66 93.9411111111111 100.6477777777778 89.2777777777778 99.6666666666667C81.1111111111111 99.5555555555556 78.4444444444444 105.5555555555556 70.2777777777778 105.5555555555556zM47.2222222222222 100C44.1538888888889 100 41.6666666666667 102.4872222222222 41.6666666666667 105.5555555555556S44.1538888888889 111.1111111111111 47.2222222222222 111.1111111111111S52.7777777777778 108.6238888888889 52.7777777777778 105.5555555555556S50.2905555555556 100 47.2222222222222 100zM50 94.4444444444444V41.7777777777778C50 40.2438888888889 48.7561111111111 39 47.2222222222222 39S44.4444444444444 40.2438888888889 44.4444444444444 41.7777777777778V94.4444444444444C44.4444444444444 95.9783333333333 45.6883333333333 97.2222222222222 47.2222222222222 97.2222222222222S50 95.9783333333333 50 94.4444444444444z" />
    <glyph glyph-name="emergency-phone"
      unicode="&#xF12F;"
      horiz-adv-x="150" d=" M77.0833333333333 52.8333333333333A2.833333333333333 2.833333333333333 0 0 1 81.0833333333333 52.8333333333333L85.0833333333333 56.8333333333333L97.1944444444444 44.8333333333333L95.1388888888889 42.7777777777778A12.444444444444446 12.444444444444446 0 0 0 87.1388888888889 38.8888888888889H79.1111111111111A12.444444444444446 12.444444444444446 0 0 0 71.0555555555556 42.7777777777778L42.8888888888889 70.9444444444444A12.444444444444446 12.444444444444446 0 0 0 38.8888888888889 79V87.0555555555556A12.444444444444446 12.444444444444446 0 0 0 42.8888888888889 95.1111111111111L44.8888888888889 97.1111111111111L57 85.0555555555556L52.9444444444444 81A2.833333333333333 2.833333333333333 0 0 1 52.9444444444444 77zM103.3055555555555 50.7222222222222A5.555555555555555 5.555555555555555 0 0 1 103.5055555555556 58.5777777777778H103.5055555555556L103.3055555555555 58.7777777777778L99.3055555555556 62.7777777777778A5.555555555555555 5.555555555555555 0 0 1 91.45 62.9777777777778H91.45L91.25 62.7777777777778zM62.8611111111111 91A5.555555555555555 5.555555555555555 0 0 1 63.0611111111111 98.8555555555556H63.0611111111111L58.8611111111111 103.0555555555556A5.555555555555555 5.555555555555555 0 0 1 51.0055555555555 103.2555555555556H51.0055555555555L50.7777777777778 103.0555555555556zM88.8888888888889 105.5555555555556V94.4444444444444H77.7777777777778V88.8888888888889H88.8888888888889V77.7777777777778H94.4444444444444V88.8888888888889H105.5555555555556V94.4444444444444H94.4444444444444V105.5555555555556z" />
    <glyph glyph-name="entrance"
      unicode="&#xF130;"
      horiz-adv-x="150" d=" M72.2222222222222 80.5555555555556V86.1111111111111C72.2222222222222 89.1794444444444 69.735 91.6666666666667 66.6666666666667 91.6666666666667S61.1111111111111 89.1794444444444 61.1111111111111 86.1111111111111V69.4444444444444L72.2222222222222 80.5555555555556zM59.1666666666667 58L61.1111111111111 100C61.1111111111111 103.0683333333333 63.5983333333333 105.5555555555556 66.6666666666667 105.5555555555556S72.2222222222222 103.0683333333333 72.2222222222222 100S69.735 94.4444444444444 66.6666666666667 94.4444444444444S61.1111111111111 96.9316666666667 61.1111111111111 100L59.1666666666667 58z M111.1111111111111 83.3333333333333L111.1111111111111 83.3333333333333C111.1111111111111 80.265 108.6238888888889 77.7777777777778 105.5555555555556 77.7777777777778H96.7777777777778C95.3011111111111 77.7861111111111 93.8816666666667 77.2066666666667 92.8333333333333 76.1666666666667L62.7222222222222 46.0555555555556C61.6872222222222 45.0294444444445 60.2905555555556 44.4505555555555 58.8333333333333 44.4444444444444H44.4444444444444C41.3761111111111 44.4444444444444 38.8888888888889 46.9316666666667 38.8888888888889 50L38.8888888888889 50C38.8888888888889 53.0683333333333 41.3761111111111 55.5555555555556 44.4444444444444 55.5555555555556H53.2777777777778C54.735 55.5616666666667 56.1316666666667 56.1405555555556 57.1666666666667 57.1666666666667L87.2777777777778 87.2777777777778C88.3261111111111 88.3177777777778 89.7455555555556 88.8972222222222 91.2222222222222 88.8888888888889H105.5555555555556C108.6238888888889 88.8888888888889 111.1111111111111 86.4016666666667 111.1111111111111 83.3333333333333z" />
    <glyph glyph-name="entrance-alt1"
      unicode="&#xF131;"
      horiz-adv-x="150" d=" M67.5315789473684 58.1131578947369A3.9473684210526314 3.9473684210526314 0 0 1 73.1131578947369 52.5315789473684L94.1684210526316 73.6657894736842A1.9736842105263157 1.9736842105263157 0 0 1 94.1684210526316 76.4605263157895H94.1684210526316L73.1131578947368 97.5868421052632A3.9473684210526314 3.9473684210526314 0 0 1 67.5315789473684 92.0052631578948L80.5263157894737 78.9473684210526H27.6315789473684A3.9473684210526314 3.9473684210526314 0 0 1 27.6315789473684 71.0526315789474H80.5263157894737zM110.5263157894737 126.3157894736842H59.2105263157895A3.9473684210526314 3.9473684210526314 0 0 1 59.2105263157895 118.421052631579H106.5789473684211A3.9473684210526314 3.9473684210526314 0 0 0 110.5263157894737 114.4736842105263V35.5263157894737A3.9473684210526314 3.9473684210526314 0 0 0 106.5789473684211 31.5789473684211H57.2368421052632A3.9473684210526314 3.9473684210526314 0 0 1 57.2368421052632 23.6842105263158H110.5263157894737A7.894736842105263 7.894736842105263 0 0 1 118.421052631579 31.5789473684211V118.421052631579A7.894736842105263 7.894736842105263 0 0 1 110.5263157894737 126.3157894736842z" />
    <glyph glyph-name="farm"
      unicode="&#xF132;"
      horiz-adv-x="150" d=" M78.9473684210526 78.9473684210526L55.2631578947368 94.7368421052632L31.5789473684211 78.9473684210526L23.6842105263158 63.1578947368421V31.5789473684211H39.4736842105263V47.3684210526316H71.0526315789474V31.5789473684211H86.8421052631579V63.1578947368421zM63.1578947368421 63.1578947368421H47.3684210526316V78.9473684210526H63.1578947368421V63.1578947368421zM126.3157894736842 31.5789473684211H102.6315789473684V106.5789473684211A11.842105263157894 11.842105263157894 0 0 0 126.3157894736842 106.5789473684211V31.5789473684211z" />
    <glyph glyph-name="fast-food"
      unicode="&#xF133;"
      horiz-adv-x="150" d=" M111.1111111111111 72.2222222222222C111.1111111111111 69.1538888888889 108.6238888888889 66.6666666666667 105.5555555555556 66.6666666666667H44.4444444444444C41.3761111111111 66.6666666666667 38.8888888888889 69.1538888888889 38.8888888888889 72.2222222222222S41.3761111111111 77.7777777777778 44.4444444444444 77.7777777777778H105.5555555555556C108.6238888888889 77.7777777777778 111.1111111111111 75.2905555555556 111.1111111111111 72.2222222222222zM52.7777777777778 61.1111111111111H44.4444444444444C44.4444444444444 51.9061111111111 51.9061111111111 44.4444444444444 61.1111111111111 44.4444444444444H88.8888888888889C98.0938888888889 44.4444444444444 105.5555555555556 51.9061111111111 105.5555555555556 61.1111111111111H52.7777777777778zM50 83.3333333333333H44.4444444444444V94.4444444444444C44.4444444444444 100.5811111111111 49.4188888888889 105.5555555555556 55.5555555555556 105.5555555555556H94.4444444444444C100.5811111111111 105.5555555555556 105.5555555555556 100.5811111111111 105.5555555555556 94.4444444444444V83.3333333333333H50zM94.4444444444444 91.6666666666667C94.4444444444444 90.1327777777778 95.6883333333333 88.8888888888889 97.2222222222222 88.8888888888889S100 90.1327777777778 100 91.6666666666667S98.7561111111111 94.4444444444444 97.2222222222222 94.4444444444444S94.4444444444444 93.2005555555556 94.4444444444444 91.6666666666667zM83.3333333333333 97.2222222222222C83.3333333333333 95.6883333333333 84.5772222222222 94.4444444444444 86.1111111111111 94.4444444444444S88.8888888888889 95.6883333333333 88.8888888888889 97.2222222222222S87.645 100 86.1111111111111 100S83.3333333333333 98.7561111111111 83.3333333333333 97.2222222222222zM72.2222222222222 91.6666666666667C72.2222222222222 90.1327777777778 73.4661111111111 88.8888888888889 75 88.8888888888889S77.7777777777778 90.1327777777778 77.7777777777778 91.6666666666667S76.5338888888889 94.4444444444444 75 94.4444444444444S72.2222222222222 93.2005555555556 72.2222222222222 91.6666666666667zM61.1111111111111 97.2222222222222C61.1111111111111 95.6883333333333 62.355 94.4444444444444 63.8888888888889 94.4444444444444S66.6666666666667 95.6883333333333 66.6666666666667 97.2222222222222S65.4227777777778 100 63.8888888888889 100S61.1111111111111 98.7561111111111 61.1111111111111 97.2222222222222zM50 91.6666666666667C50 90.1327777777778 51.2438888888889 88.8888888888889 52.7777777777778 88.8888888888889S55.5555555555556 90.1327777777778 55.5555555555556 91.6666666666667S54.3116666666667 94.4444444444444 52.7777777777778 94.4444444444444S50 93.2005555555556 50 91.6666666666667z" />
    </font>
</defs>
</svg>
