<?xml version="1.0" encoding="UTF-8"?>
<svg width="24px" height="24px" viewBox="0 0 24 24" version="1.1" xmlns="http://www.w3.org/2000/svg" xmlns:xlink="http://www.w3.org/1999/xlink">
    <!-- Generator: Sketch 52.5 (67469) - http://www.bohemiancoding.com/sketch -->
    <title>Icons/24x24/arrow-reverse</title>
    <desc>Created with Sketch.</desc>
    <defs>
        <path d="M10.7837248,10.044065 L10.7837248,6.40257492 L8.23473154,8.96786701 C7.80989933,9.3954157 7.24345638,9.3954157 6.81862416,8.96786701 C6.39379195,8.54031833 6.39379195,7.97025342 6.81862416,7.54270474 L11.0669463,3.26721793 C11.1377517,3.19595981 11.2793624,3.05344359 11.4209732,3.05344359 C11.6333893,2.98218547 11.9166107,2.98218547 12.1290268,3.05344359 C12.2706376,3.05344359 12.4122483,3.19595981 12.4830537,3.26721793 L16.7313758,7.54270474 C17.1562081,7.97025342 17.1562081,8.54031833 16.7313758,8.96786701 C16.3065436,9.3954157 15.7401007,9.3954157 15.3152685,8.96786701 L12.7662752,6.40257492 L12.7662752,10.044065 L12.7662752,17.5974251 L15.3152685,15.032133 C15.7401007,14.6045843 16.3065436,14.6045843 16.7313758,15.032133 C17.1562081,15.4596817 17.1562081,16.0297466 16.7313758,16.4572953 L12.4830537,20.7327821 C12.4122483,20.8040402 12.2706376,20.9465564 12.1290268,20.9465564 C11.9166107,21.0178145 11.6333893,21.0178145 11.4209732,20.9465564 C11.2793624,20.9465564 11.1377517,20.8040402 11.0669463,20.7327821 L6.81862416,16.4572953 C6.39379195,16.0297466 6.39379195,15.4596817 6.81862416,15.032133 C7.24345638,14.6045843 7.80989933,14.6045843 8.23473154,15.032133 L10.7837248,17.5974251 L10.7837248,10.044065 Z" id="path-1"></path>
    </defs>
    <g id="Icons/24x24/arrow-reverse" stroke="none" stroke-width="1" fill="none" fill-rule="evenodd">
        <mask id="mask-2" fill="white">
            <use xlink:href="#path-1"></use>
        </mask>
        <use id="Combined-Shape" fill="#000000" fill-rule="nonzero" xlink:href="#path-1"></use>
        <g id="Mixins/Colors/UI/1-Darkblue" mask="url(#mask-2)" fill="#353C52">
            <rect id="Mixins/Colors/Darkblue" x="0" y="0" width="24" height="24"></rect>
        </g>
    </g>
</svg>