<svg xmlns="http://www.w3.org/2000/svg" width="19" height="16" viewBox="0 0 19 16">
    <path fill="#fff" fill-rule="evenodd" d="M13.737 1.558a1.557 1.557 0 1 1-3.114 0 1.557 1.557 0 0 1 3.114 0zM9.034 12.803a.747.747 0 0 1-.748-.748V8.752L6.449 6.915a.748.748 0 0 1-.022-1.034c.084-.092 2.07-2.259 2.39-2.578a.747.747 0 0 1 1.05-.006l2.4 2.342h1.938a.747.747 0 1 1 0 1.495h-2.243a.75.75 0 0 1-.522-.213L9.367 4.898c-.393.423-.93 1.004-1.354 1.466l1.55 1.55c.14.14.219.33.219.528v3.613a.747.747 0 0 1-.748.748zM3.987 9.377a2.495 2.495 0 0 0-2.492 2.492 2.495 2.495 0 0 0 2.492 2.492 2.495 2.495 0 0 0 2.493-2.492 2.495 2.495 0 0 0-2.493-2.492zm0 6.479A3.992 3.992 0 0 1 0 11.869a3.991 3.991 0 0 1 3.987-3.987 3.992 3.992 0 0 1 3.988 3.987 3.992 3.992 0 0 1-3.988 3.987zm10.343-6.48a2.495 2.495 0 0 0-2.492 2.493 2.495 2.495 0 0 0 2.492 2.492 2.495 2.495 0 0 0 2.492-2.492 2.495 2.495 0 0 0-2.492-2.492zm0 6.48a3.991 3.991 0 0 1-3.987-3.987 3.99 3.99 0 0 1 3.987-3.987 3.99 3.99 0 0 1 3.987 3.987 3.991 3.991 0 0 1-3.987 3.987z"/>
</svg>
