<svg xmlns="http://www.w3.org/2000/svg" height="24" width="24"><path d="M7.333 2c-1.818 0-4 .991-4 3.661V18s0 1.333 1.334 1.333v1.334S4.667 22 6 22s1.333-1.333 1.333-1.333v-1.334h9.334v1.334S16.667 22 18 22s1.333-1.333 1.333-1.333v-1.334s1.334 0 1.334-1.333V5.661C20.667 2.934 19.019 2 17.2 2zm.334 2h8.666a.333.333 0 110 .667H7.667a.333.333 0 110-.667zM6 6h12c1.333 0 1.333 1.29 1.333 1.29v4.043s0 1.334-1.333 1.334H6c-1.333 0-1.333-1.334-1.333-1.334v-4S4.667 6 6 6zm0 9.333A1.333 1.333 0 116 18a1.333 1.333 0 010-2.667zm12 0A1.333 1.333 0 1118 18a1.333 1.333 0 010-2.667z"/></svg>