<svg xmlns="http://www.w3.org/2000/svg" width="19" height="15" viewBox="0 0 19 15">
    <path fill="#5C6F84" fill-rule="evenodd" d="M15.139 6.455H3.877a.61.61 0 0 1-.594-.748l.879-3.8a.61.61 0 0 1 .595-.473h9.502a.61.61 0 0 1 .594.473l.88 3.8a.61.61 0 0 1-.594.748m-1.882 4.392a1.232 1.232 0 1 1 0-2.464 1.232 1.232 0 0 1 0 2.464m-7.498 0a1.232 1.232 0 1 1 0-2.464 1.232 1.232 0 0 1 0 2.464m13.256-4.438c0-.568-.46-1.028-1.027-1.028-.102 0-.194.031-.287.058l-1.87-4.88A1.01 1.01 0 0 0 14.929 0H4.087c-.383 0-.732.217-.902.559l-1.87 4.88c-.093-.027-.185-.058-.287-.058C.46 5.381 0 5.841 0 6.409c0 .409.244.755.59.921l-.028.073a1.01 1.01 0 0 0-.105.448v5.403c0 .894.724 1.618 1.617 1.618h.381c.557 0 1.008-.451 1.008-1.008 0-.556.451-1.007 1.007-1.007h10.075c.557 0 1.008.451 1.008 1.007 0 .557.451 1.008 1.007 1.008h.381c.893 0 1.617-.724 1.617-1.618V7.851a1.01 1.01 0 0 0-.105-.448l-.028-.073c.346-.166.59-.512.59-.921"/>
</svg>
