<svg xmlns="http://www.w3.org/2000/svg" width="12" height="18" viewBox="0 0 12 18">
    <path fill="#353c52" fill-rule="evenodd" d="M10.942 5.619a.846.846 0 0 1 0 1.693l-1.61.01h-.805c-.033 0-.197.007-.353-.024a1.52 1.52 0 0 1-.43-.147c-.277-.13-.513-.422-.55-.468l-.526-.61-.075-.087A254.86 254.86 0 0 1 5.513 8.9l2.22 2.27c.155.159.241.37.241.593v4.542a.846.846 0 1 1-1.693 0v-4.197l-1.385-1.416c-.21.686-.419 1.372-.65 2.053l-.037.108a.805.805 0 0 1-.116.219l-2.575 3.356a.847.847 0 0 1-1.364-1.004l2.313-3.277c.165-.98.37-1.95.552-2.925l.002-.01.022-.072c.448-1.505.87-3.02 1.338-4.517l-.097-.05-1.36.796-.119.069-.01.669-.022 1.61a.743.743 0 0 1-.752.732.743.743 0 0 1-.73-.732l-.023-1.61-.005-.403-.003-.201c.001-.08-.007-.094.004-.273a1.465 1.465 0 0 1 .64-1.085l.184-.123 1.345-.885a1.505 1.505 0 0 1 .759-.269c.283-.036.651.074.83.179l.715.367.716.367.36.183.178.092c.036.02.046.02.103.056.063.04.126.085.187.13.298.237.313.304.414.408l.264.303.53.607.04.047h.803l1.61.01zM7.16 3.154A1.577 1.577 0 1 1 7.16 0a1.577 1.577 0 0 1 0 3.154z"/>
</svg>
