<svg id="icon-gps" version="1.1"  x="0px" y="0px" viewBox="0 0 18 18" style="enable-background:new 0 0 18 18;" xml:space="preserve">
<style type="text/css">
	.st0{fill:#5C6F84;}
</style>
<circle class="st0" cx="9" cy="9" r="3"/>
<path class="st0" d="M8,15.9c-3.1-0.4-5.5-2.9-5.9-5.9c0,0,0,0-0.1,0H1c-0.6,0-1-0.4-1-1s0.4-1,1-1h1c0,0,0,0,0.1,0	C2.5,4.9,4.9,2.5,8,2.1C8,2,8,2,8,2V1c0-0.6,0.4-1,1-1s1,0.4,1,1v1c0,0,0,0,0,0.1c3.1,0.4,5.5,2.9,5.9,5.9c0,0,0,0,0.1,0h1	c0.6,0,1,0.4,1,1s-0.4,1-1,1h-1c0,0,0,0-0.1,0c-0.4,3.1-2.9,5.5-5.9,5.9c0,0,0,0,0,0.1v1c0,0.6-0.4,1-1,1s-1-0.4-1-1L8,15.9
	C8,16,8,16,8,15.9z M9,14c2.8,0,5-2.2,5-5s-2.2-5-5-5S4,6.2,4,9S6.2,14,9,14z"/>
</svg>