<svg xmlns="http://www.w3.org/2000/svg" width="63.01" height="63.01" viewBox="0 0 16.671 16.671"><path d="M8.336 0a8.336 8.336 0 108.335 8.336A8.336 8.336 0 008.336 0zm0 15.745a7.41 7.41 0 117.41-7.41 7.41 7.41 0 01-7.41 7.41z" class="cls-1" fill="#33c"/><path d="M8.336 8.336c-1.39-.223-2.01-.944-2.483-1.493-.438-.507-.672-.823-1.217-.823H2.29a6.456 6.456 0 00-.434 2.316z" class="cls-1" fill="#33c"/><path d="M14.745 7.41a6.466 6.466 0 00-11.46-3.118c-.265.392-.172.802 1.346.802.998 0 1.49.571 1.927 1.075.525.609 1.068 1.24 2.706 1.24h3.705c-1 0-1.49.572-1.927 1.076-.526.608-1.07 1.24-2.707 1.24H2.773c-.02 0-.846.011-.491.926h6.053c2.063 0 2.84-.904 3.408-1.563.438-.507.673-.752 1.217-.752h1.854a6.48 6.48 0 00-.069-.926z" class="cls-1" fill="#33c"/></svg>
