<svg xmlns="http://www.w3.org/2000/svg" height="24" width="24"><path fill="none" d="M0-3h27v27H0z"/><path d="M9.333 2S8.333 2 8 3.333l-2 7.334v4.666c0 1.334 1.333 1.334 1.333 1.334h9.334s1.333 0 1.333-1.334v-4.666l-2-7.334C15.636 2 14.667 2 14.667 2zm1.334 2h2.666s.715 0 1 1.333l1 4.667C15.62 11.336 14 11.333 14 11.333h-4S8.38 11.336 8.667 10l1-4.667C9.952 4 10.667 4 10.667 4zm-2 8.667a1.333 1.333 0 110 2.666 1.333 1.333 0 010-2.666zm2.333 0h2a.333.333 0 110 .666h-2a.333.333 0 110-.666zm4.333 0a1.333 1.333 0 110 2.666 1.333 1.333 0 010-2.666zM7.5 18L6 22h2l.5-1.333h7L16 22h2l-1.5-4h-2l.5 1.333H9L9.5 18z"/></svg>