<svg xmlns="http://www.w3.org/2000/svg" width="16" height="16" viewBox="0 0 16 16">
    <g fill="none" fill-rule="evenodd">
        <g>
            <g>
                <g>
                    <path d="M0 0L16 0 16 16 0 16z" transform="translate(-34 -80) translate(14 64) translate(20 16)"/>
                    <path fill="#0C0C0E" d="M8 13.333c2.946 0 5.333-2.387 5.333-5.333S10.946 2.667 8 2.667 2.667 5.054 2.667 8 5.054 13.333 8 13.333zm0 1.334c-3.682 0-6.667-2.985-6.667-6.667S4.318 1.333 8 1.333 14.667 4.318 14.667 8 11.682 14.667 8 14.667zm0-5.334c-.736 0-1.333-.597-1.333-1.333S7.264 6.667 8 6.667 9.333 7.264 9.333 8 8.736 9.333 8 9.333z" transform="translate(-34 -80) translate(14 64) translate(20 16)"/>
                </g>
            </g>
        </g>
    </g>
</svg>
