<?xml version="1.0" encoding="UTF-8"?>
<svg preserveAspectRatio="none" width="400px" height="4px" viewBox="0 0 400 4" version="1.1" xmlns="http://www.w3.org/2000/svg" xmlns:xlink="http://www.w3.org/1999/xlink">
    <!-- Generator: Sketch 52.2 (67145) - http://www.bohemiancoding.com/sketch -->
    <title>BANDEAU</title>
    <desc>Created with Sketch.</desc>
    <defs>
        <rect id="path-1" x="0" y="0" width="400" height="4"/>
    </defs>
    <g id="Desktop" stroke="none" stroke-width="1" fill="none" fill-rule="evenodd">
        <g id="@1438px---itineraire---dropdown-Partir-à" transform="translate(-18.000000, -104.000000)">
            <g id="Group-2" transform="translate(18.000000, 104.000000)">
                <g id="BANDEAU">
                    <g>
                        <g id="Rectangle-path-+-Shape-+-Shape-+-Shape-+-Shape-+-Shape-+-Shape-Mask">
                            <mask id="mask-2" fill="white">
                                <use xlink:href="#path-1"/>
                            </mask>
                            <use id="Mask" fill="#D8D8D8" xlink:href="#path-1"/>
                            <rect id="Rectangle-path" fill="#73B852" fill-rule="nonzero" mask="url(#mask-2)" x="-1.06666667" y="-86.8965517" width="400" height="94.6206897"/>
                            <path d="M104.533333,-86.8965517 C97.8293868,-51.6165517 89.7384169,-19.7158621 80.5686511,7.72413793 L46.9333333,7.72413793 C52.0961427,-21.6082759 56.2572129,-53.3737931 59.2624303,-86.8965517 L104.533333,-86.8965517 Z" id="Shape" fill="#428BCA" fill-rule="nonzero" mask="url(#mask-2)"/>
                            <path d="M59.7333333,-86.8965517 C56.7870778,-53.3737931 52.6546675,-21.6082759 47.4891546,7.72413793 L-1.06666667,7.72413793 L-1.06666667,-86.8965517 L59.7333333,-86.8965517 Z" id="Shape" fill="#1BB7CF" fill-rule="nonzero" mask="url(#mask-2)"/>
                            <path d="M238.933333,7.72413793 L163.424258,7.72413793 C151.615146,-17.8234483 141.113884,-49.7241379 132.266667,-86.8965517 L221.1235,-86.8965517 C225.931771,-52.697931 231.932492,-20.9324138 238.933333,7.72413793 Z" id="Shape" fill="#82C363" fill-rule="nonzero" mask="url(#mask-2)"/>
                            <path d="M397.866667,-86.8965517 L397.866667,7.72413793 L296.533333,7.72413793 C308.384508,-17.8234483 318.923175,-49.7241379 327.801905,-86.8965517 L397.866667,-86.8965517 Z" id="Shape" fill="#87C966" fill-rule="nonzero" mask="url(#mask-2)"/>
                            <path d="M329.6,-86.8965517 C320.669236,-49.7241379 310.029979,-17.8234483 298.14818,7.72413793 L238.816845,7.72413793 C231.749893,-20.9324138 225.653676,-52.697931 220.8,-86.8965517 L329.6,-86.8965517 Z" id="Shape" fill="#9DDC7D" fill-rule="nonzero" mask="url(#mask-2)"/>
                            <path d="M400,-86.8965517 L400,7.72413793 L348.8,7.72413793 C349.399064,-24.8524138 350.996568,-56.4827586 353.552574,-86.8965517 L400,-86.8965517 Z" id="Shape" fill="#76BC54" fill-rule="nonzero" mask="url(#mask-2)"/>
                        </g>
                    </g>
                </g>
            </g>
        </g>
    </g>
</svg>