<?xml version="1.0" encoding="UTF-8"?>
<svg width="24px" height="24px" viewBox="0 0 24 24" version="1.1" xmlns="http://www.w3.org/2000/svg" xmlns:xlink="http://www.w3.org/1999/xlink">
    <!-- Generator: Sketch 52.5 (67469) - http://www.bohemiancoding.com/sketch -->
    <title>Icons/24x24/roundabout</title>
    <desc>Created with Sketch.</desc>
    <defs>
        <path d="M10.1022005,20.2747243 L9.7272005,20.2747243 L10.1022005,20.2747243 C10.1022005,20.8824138 9.60826201,21.375 8.99993379,21.375 C8.39160558,21.375 7.89766709,20.8824138 7.89766709,20.2747243 L7.89766709,16.2305873 C7.89766709,15.6258589 8.38506164,15.1292099 8.98962231,15.1303121 C12.4235119,15.1357836 15.1703342,12.4006883 15.1703342,8.97783073 C15.1703342,5.49885117 12.336474,2.7400072 8.83762822,2.82740958 C5.46457383,2.91135153 2.71096164,5.84091254 2.83365066,9.20938321 C2.88721333,10.6863365 3.45639333,12.0607565 4.42301224,13.1204075 C4.46705206,13.1667259 4.52232965,13.2374659 4.57630173,13.3311443 C4.78296676,13.6898494 4.80384975,14.1043221 4.49910296,14.4772056 C4.45654606,14.5292776 4.40825475,14.5791406 4.35425872,14.6267899 C4.27315898,14.6983457 4.18627356,14.756682 4.09459065,14.8017878 C3.77261861,14.9601902 3.44028726,14.9439314 3.13404117,14.8280562 C3.04646012,14.7949179 2.9786857,14.7602351 2.85717527,14.6693217 C1.43042772,13.137091 0.625,11.1243632 0.625,8.97783073 C0.625,4.22028377 4.55399726,0.445430731 9.3388045,0.631606807 C13.5785125,0.795775381 17.1022018,4.22895269 17.3589018,8.45024828 C17.629717,12.8980489 14.4338165,16.6944792 10.1022005,17.2558009 L10.1022005,20.2747243 Z" id="path-1"></path>
    </defs>
    <g id="Icons/24x24/roundabout" stroke="none" stroke-width="1" fill="none" fill-rule="evenodd">
        <g id="🎨" transform="translate(3.000000, 1.000000)">
            <mask id="mask-2" fill="white">
                <use xlink:href="#path-1"></use>
            </mask>
            <use id="Mask" fill="#000000" fill-rule="nonzero" xlink:href="#path-1"></use>
            <g id="Mixins/Colors/UI/1-Darkblue" mask="url(#mask-2)" fill="#353C52">
                <g transform="translate(-3.000000, -1.000000)" id="Mixins/Colors/Darkblue">
                    <rect x="0" y="0" width="24" height="24"></rect>
                </g>
            </g>
        </g>
    </g>
</svg>