<?xml version="1.0" encoding="UTF-8"?>
<svg viewBox="0 0 375 50" version="1.1" xmlns="http://www.w3.org/2000/svg" xmlns:xlink="http://www.w3.org/1999/xlink">
    <!-- Generator: Sketch 52 (66869) - http://www.bohemiancoding.com/sketch -->
    <title>Elements/Background-search/Mobile/360</title>
    <desc>Created with Sketch.</desc>
    <g id="Symbols" stroke="none" stroke-width="1" fill="none" fill-rule="evenodd">
        <g id="Components/Qwant/Layout/Header/Mobile/Active">
            <g id="Elements/Background-search/Mobile/360">
                <path d="M0,0 L0,34.482 C9.242,40.33 24.908,44.523 46.991,47.066 C76,49 98,0 81.233,0 L0,0 Z" id="cyan" fill="#65CEE7"/>
                <path d="M81.2329,0 C78.6539,19.665 65.6249,36.69 46.9909,47.066 C60.8079,48.656 77.1499,49.598 95.9949,49.895 C134.9999,49 142.9999,0 128.4409,0 L81.2329,0 Z" id="blue" fill="#4BA2EA"/>
                <path d="M161.75,0 L128.44,0 C125.791,20.205 113.691,37.965 95.995,49.895 C100.313,49.963 104.75,50 109.333,50 L195.879,50 C208,50 181,0 161.75,0" id="darkblue" fill="#76BC54"/>
                <path d="M198.8418,0 L161.7498,0 C163.6928,20.79 176.7718,38.947 195.8798,50 L230.8248,50 C248.9998,50 221.9998,0 198.8418,0" id="green" fill="#87C966"/>
                <path d="M308.8896,0 L198.8416,0 C202.3156,19.825 214.0666,37.368 230.8256,50 L238.9986,50 L266.6896,50 L274.6596,50 C274.6826,49.986 274.7046,49.973 274.7276,49.959 C303.9996,49.959 324.9996,0 308.8896,0" id="yellow" fill="#9DDC7D"/>
                <path d="M338.8281,0 L308.8901,0 C306.8491,20.765 293.7981,38.902 274.7271,49.959 C299.9211,49.723 320.8021,48.357 337.3711,45.863 C357.0001,41 351.0001,0 338.8281,0" id="red" fill="#87C966"/>
                <path d="M338.8281,0 C335.1491,7.586 333.1061,15.862 333.1061,24.569 C333.1061,32.04 334.6201,39.19 337.3711,45.863 C353.5711,43.425 365.6581,39.91 373.6151,35.313 C374.0901,35.04 374.5561,34.764 375.0001,34.482 L375.0001,33.597 L375.0001,0 L338.8281,0 Z" id="purple" fill="#76BC54"/>
            </g>
        </g>
    </g>
</svg>