<svg xmlns="http://www.w3.org/2000/svg" height="24" width="24"><path fill="none" d="M0-3h27v27H0z"/><path d="M9.333 2c-.666 0-.666.667-.666.667V4A.665.665 0 1010 4v-.667h1.333V6H10S7.333 6 7.333 8.667v4c0 4 4 4 4 4h1.334s4 0 4-4v-4C16.667 6 14 6 14 6h-1.333V3.333H14V4c0 .37.297.667.667.667.369 0 .666-.298.666-.667V2.667c0-.667-.666-.667-.666-.667zM12 7.333l2.727 1.032.606 2.302c.176.666-.666.666-.666.666H9.333s-.842 0-.666-.666l.606-2.302zm0 5.334A.667.667 0 1112 14a.667.667 0 010-1.333zM7.5 18L6 22h2l.5-1.333h7L16 22h2l-1.5-4h-2l.5 1.333H9L9.5 18z"/></svg>