<?xml version="1.0" encoding="UTF-8"?>
<svg width="24px" height="24px" viewBox="0 0 24 24" version="1.1" xmlns="http://www.w3.org/2000/svg" xmlns:xlink="http://www.w3.org/1999/xlink">
    <!-- Generator: Sketch 52.5 (67469) - http://www.bohemiancoding.com/sketch -->
    <title>Icons/24x24/u-turn</title>
    <desc>Created with Sketch.</desc>
    <defs>
        <path d="M6.84666667,13.3994788 L6.84666667,14.8773864 L9.87166667,11.8466143 C10.2383333,11.479248 10.7883333,11.479248 11.155,11.8466143 C11.5216667,12.2139806 11.5216667,12.7650301 11.155,13.1323964 L6.57166667,17.7244753 C6.48,17.8163168 6.38833333,17.9081584 6.29666667,17.9081584 C6.205,18 6.02166667,18 5.93,18 C5.83833333,18 5.655,18 5.56333333,17.9081584 C5.47166667,17.8163168 5.38,17.8163168 5.28833333,17.7244753 L0.705,13.1323964 C0.338333333,12.7650301 0.338333333,12.2139806 0.705,11.8466143 C1.07166667,11.479248 1.62166667,11.479248 1.98833333,11.8466143 L5.01333333,14.8773864 L5.01333333,9.52567944 L5,6.62838502 C5,2.96762906 7.91014913,-6.47126797e-11 11.5,-6.47126797e-11 C15.0898509,-6.47126797e-11 18,2.96762906 18,6.62838502 L18,17.0530879 C18,17.576053 17.5842644,18 17.0714286,18 C16.5585927,18 16.1428571,17.576053 16.1428571,17.0530879 L16.1428571,6.62838502 C16.1428571,4.01355933 14.0641792,1.89382429 11.5,1.89382429 C8.9358208,1.89382429 6.85714286,4.01355933 6.85714286,6.62838502 L6.85714286,13.25677 C6.85714286,13.305278 6.85356603,13.352934 6.84666667,13.3994788 Z" id="path-1"></path>
    </defs>
    <g id="Icons/24x24/u-turn" stroke="none" stroke-width="1" fill="none" fill-rule="evenodd">
        <g id="🎨" transform="translate(12.500000, 12.000000) scale(-1, 1) translate(-12.500000, -12.000000) translate(3.500000, 3.000000)">
            <mask id="mask-2" fill="white">
                <use xlink:href="#path-1"></use>
            </mask>
            <use id="Mask" fill="#000000" fill-rule="nonzero" xlink:href="#path-1"></use>
            <g id="Mixins/Colors/UI/1-Darkblue" mask="url(#mask-2)" fill="#353C52">
                <g transform="translate(-2.000000, -3.000000)" id="Mixins/Colors/Darkblue">
                    <rect x="0" y="0" width="24" height="24"></rect>
                </g>
            </g>
        </g>
    </g>
</svg>