<svg xmlns="http://www.w3.org/2000/svg" width="24" height="24"><path d="M17.886 8.552a.987.987 0 110 1.974l-1.877.012h-.939c-.038 0-.23.008-.411-.028a1.77 1.77 0 01-.511-.176l.01.005c-.323-.152-.599-.492-.642-.546l-.7-.813c-1.09 3.183-1.516 4.308-1.95 5.43l.69-2.032 2.589 2.647c.18.186.28.432.28.692v5.296a.987.987 0 11-1.973 0V16.12l-1.615-1.651c-.245.8-.489 1.6-.758 2.394l-.043.126a.939.939 0 01-.137.258l.002-.002-3.003 3.913a.987.987 0 01-1.589-1.174l-.002.003 2.698-3.821c.192-1.143.431-2.274.643-3.41l.002-.013.026-.084c.522-1.755 1.014-3.521 1.56-5.267l-.113-.058-1.725 1.009-.011.78-.026 1.877a.866.866 0 01-.878.854h.001A.866.866 0 016.633 11l-.027-1.878-.006-.47-.004-.235c.001-.093-.008-.11.005-.318a1.71 1.71 0 01.74-1.261l.006-.004.215-.144L9.13 5.658c.248-.176.552-.29.88-.313h.006c.33-.042.759.086.968.208l1.668.856.42.214.208.107c.042.023.053.023.12.065.073.047.147.1.218.152.347.276.365.354.483.476l.307.353.618.708.047.054h.936l1.878.012zm-4.41-2.874a1.839 1.839 0 110-3.678 1.839 1.839 0 110 3.678z"/></svg>