<svg width="305" height="240" viewBox="0 0 305 240" xmlns="http://www.w3.org/2000/svg" xmlns:xlink="http://www.w3.org/1999/xlink">
    <defs>
        <linearGradient x1="50%" y1="0%" x2="50%" y2="100%" id="y8gsf1d5vg">
            <stop stop-color="#FFF" stop-opacity="0" offset="0%"/>
            <stop stop-color="#FFF" offset="99.997%"/>
        </linearGradient>
        <linearGradient x1="50%" y1="0%" x2="50%" y2="100%" id="scs66pameh">
            <stop stop-color="#FFF" offset=".003%"/>
            <stop stop-color="#FFF" stop-opacity="0" offset="100%"/>
        </linearGradient>
        <filter x="-70.8%" y="-62.5%" width="241.7%" height="241.7%" filterUnits="objectBoundingBox" id="dgck46xtpc">
            <feMorphology radius="2" operator="dilate" in="SourceAlpha" result="shadowSpreadOuter1"/>
            <feOffset dy="1" in="shadowSpreadOuter1" result="shadowOffsetOuter1"/>
            <feGaussianBlur stdDeviation="2" in="shadowOffsetOuter1" result="shadowBlurOuter1"/>
            <feComposite in="shadowBlurOuter1" in2="SourceAlpha" operator="out" result="shadowBlurOuter1"/>
            <feColorMatrix values="0 0 0 0 0.0470588235 0 0 0 0 0.0470588235 0 0 0 0 0.0549019608 0 0 0 0.2 0" in="shadowBlurOuter1" result="shadowMatrixOuter1"/>
            <feMorphology radius="2" operator="dilate" in="SourceAlpha" result="shadowSpreadOuter2"/>
            <feOffset in="shadowSpreadOuter2" result="shadowOffsetOuter2"/>
            <feGaussianBlur stdDeviation="1" in="shadowOffsetOuter2" result="shadowBlurOuter2"/>
            <feComposite in="shadowBlurOuter2" in2="SourceAlpha" operator="out" result="shadowBlurOuter2"/>
            <feColorMatrix values="0 0 0 0 0.0470588235 0 0 0 0 0.0470588235 0 0 0 0 0.0549019608 0 0 0 0.12 0" in="shadowBlurOuter2" result="shadowMatrixOuter2"/>
            <feMerge>
                <feMergeNode in="shadowMatrixOuter1"/>
                <feMergeNode in="shadowMatrixOuter2"/>
            </feMerge>
        </filter>
        <filter x="-81.2%" y="-137.5%" width="262.5%" height="425%" filterUnits="objectBoundingBox" id="re8fyoz6re">
            <feOffset dy="1" in="SourceAlpha" result="shadowOffsetOuter1"/>
            <feGaussianBlur stdDeviation="2" in="shadowOffsetOuter1" result="shadowBlurOuter1"/>
            <feColorMatrix values="0 0 0 0 0.0470588235 0 0 0 0 0.0470588235 0 0 0 0 0.0549019608 0 0 0 0.2 0" in="shadowBlurOuter1" result="shadowMatrixOuter1"/>
            <feOffset in="SourceAlpha" result="shadowOffsetOuter2"/>
            <feGaussianBlur stdDeviation="1" in="shadowOffsetOuter2" result="shadowBlurOuter2"/>
            <feColorMatrix values="0 0 0 0 0.0470588235 0 0 0 0 0.0470588235 0 0 0 0 0.0549019608 0 0 0 0.12 0" in="shadowBlurOuter2" result="shadowMatrixOuter2"/>
            <feMerge>
                <feMergeNode in="shadowMatrixOuter1"/>
                <feMergeNode in="shadowMatrixOuter2"/>
            </feMerge>
        </filter>
        <ellipse id="dessvnfdkf" cx="12" cy="41" rx="4" ry="2"/>
        <circle id="c30e3ee3bd" cx="24" cy="24" r="6"/>
        <path id="2g3ygutu1a" d="M0 0h305v240H0z"/>
    </defs>
    <g fill="none" fill-rule="evenodd">
        <mask id="5oki9tu4hb" fill="#fff">
            <use xlink:href="#2g3ygutu1a"/>
        </mask>
        <use fill="#F5F5F7" xlink:href="#2g3ygutu1a"/>
        <g mask="url(#5oki9tu4hb)">
            <g fill="#E8E8ED">
                <path d="M-6.345 35.395 35.9 16.605a4 4 0 0 1 5.26 1.984L60.34 60.308a4 4 0 0 1-1.94 5.294L-.432 93.115a4 4 0 0 1-3.702-.164l-7.658-4.442a4 4 0 0 1-1.977-3.822l4.004-44.043a4 4 0 0 1 .468-1.546l1.061-1.956a4 4 0 0 1 1.89-1.747zM-22.21 124.81l9.314-12.532a4 4 0 0 1 1.561-1.258l74.374-33.663a4 4 0 0 1 5.274 1.953l31.311 67.106a4 4 0 0 1-1.908 5.304L-7.31 201.613a4 4 0 0 1-3.649-.11l-1.84-1.016a4 4 0 0 1-2.041-3.04l-8.133-69.787a4 4 0 0 1 .763-2.85zM130.23 223.092l2.43.53a4 4 0 0 1 2.8 2.277l25.192 56.425a4 4 0 0 1-1.939 5.245l-65.442 31.045a4 4 0 0 1-2.649.275l-.463-.111a3.864 3.864 0 0 1-2.617-2.162l-25.185-55.57a4 4 0 0 1-.159-2.895l.91-2.782a4 4 0 0 1 2.088-2.37l62.468-29.614a4 4 0 0 1 2.566-.293zM95.083 288.21a1.327 1.327 0 0 0-1.78-.594 1.408 1.408 0 0 0-.651 1.846l3.61 7.876a1.24 1.24 0 0 0 1.792.53 1.618 1.618 0 0 0 .596-2.052l-3.553-7.576-.014-.03zm10.172-4.892a1.405 1.405 0 0 0-1.857-.71 1.497 1.497 0 0 0-.786 1.904l1.556 4.056c.3.78-.03 1.662-.77 2.054a1.666 1.666 0 0 0-.779 2.058l.197.523a1.864 1.864 0 0 0 2.542 1.03l1.567-.742a1.623 1.623 0 0 0 .795-2.113l-.434-1a.533.533 0 0 1 .23-.677.532.532 0 0 0 .229-.677l-2.485-5.694a1.459 1.459 0 0 0-.005-.012zm35.025-8.337a2 2 0 0 0-2.499-.787l-17.82 7.73a1.174 1.174 0 0 0-.559 1.649 1.297 1.297 0 0 1-.5 1.765l-1.313.732c-.53.296-.776.925-.588 1.502a.901.901 0 0 0 1.258.527l21.394-10.649a1.678 1.678 0 0 0 .681-2.382zm-43.663-3.913a.659.659 0 0 0-.856.368l-.254.638a2 2 0 0 1-1.029 1.08l-3.563 1.623a2 2 0 0 0-.98 2.673l1.037 2.198.005.012a2 2 0 0 0 2.669.938l4.509-2.162.01-.005a2 2 0 0 0 .923-2.673l-2.122-4.367a.659.659 0 0 0-.349-.323zm9.978-7.334a.955.955 0 0 0-1.29-.403c-.517.27-.734.897-.495 1.43l6.02 13.437a.767.767 0 0 0 1.089.348.977.977 0 0 0 .406-1.222l-5.696-13.518a.956.956 0 0 0-.034-.072zm26.62-3.02a2 2 0 0 0-2.51-.964l-6.249 2.428a2 2 0 0 0-1.19 2.443l.063.207a1.82 1.82 0 0 0 2.486 1.134l2.854-1.28a2 2 0 0 1 2.556.836l2.684 4.71a1.81 1.81 0 0 0 2.448.687 1.857 1.857 0 0 0 .76-2.46zm-14.508-20.22c-.32.14-.57.402-.694.727l-.927 2.426a2 2 0 0 0-.091 1.113l.107.525a1.83 1.83 0 0 1-.65 1.793l-1.13.904a1.547 1.547 0 0 0-.388 1.953 1.4 1.4 0 0 0 1.809.599l4.7-2.149a2 2 0 0 0 1-2.622l-2.018-4.6a1.304 1.304 0 0 0-1.718-.67zM70.39 11.558l7.825 16.335.04.084 9.316 20.666a4 4 0 0 0 5.03 2.11l69.46-25.619a4 4 0 0 0 2.405-5.036l-3.09-9.126a1.872 1.872 0 0 1 1.14-2.362 1.857 1.857 0 0 1 2.369 1.102l.095.257a2.189 2.189 0 0 0 2.74 1.317L178.256 7.8a4 4 0 0 0 2.464-5.264l-3.046-7.727a4 4 0 0 0-4.965-2.335l-7.172 2.348a4 4 0 0 1-4.853-2.076l-2.837-5.934a4 4 0 0 1 2.67-5.614l7.01-1.69a1.144 1.144 0 0 0 .825-1.451 1.533 1.533 0 0 1 .692-1.779l1.552-.904a1.8 1.8 0 0 1 2.5.717 2.36 2.36 0 0 0 2.693 1.184l2.22-.588a4 4 0 0 0 2.927-4.501l-2.413-15.018c-.502-.778-1.246-1.167-2.231-1.167-.969 0-35.652 16.748-104.05 50.244a3.995 3.995 0 0 0-1.852 5.314zM100.001 62.388l60.844-22.783a1.947 1.947 0 0 1 2.553 1.284 1.957 1.957 0 0 0 2.558 1.295l65.168-24.024a2.597 2.597 0 0 1 2.584.461l.994.848a4 4 0 0 0 .34.26l.562.384c.483.33.866.787 1.105 1.32l14.988 33.375a4 4 0 0 0 .14.282l2.917 5.33a4 4 0 0 1 .12.236l16.754 36.093a4 4 0 0 1 .075 3.198l-.742 1.813a4 4 0 0 1-2.009 2.11l-117.186 54.754a4 4 0 0 1-2.74.237l-7.476-2.026a4 4 0 0 1-2.562-2.132L97.311 67.699a3.168 3.168 0 0 1 .405-3.375l.592-.723A4 4 0 0 1 100 62.388zM154.654 184.295l3.927-5.998a4 4 0 0 1 1.67-1.44l81.317-37.547a1.455 1.455 0 0 1 1.789.469 1.444 1.444 0 0 0 1.784.46l13.66-6.432a1.618 1.618 0 0 0 .766-2.173 1.575 1.575 0 0 1 .782-2.133l16.322-7.164a4 4 0 0 1 2.926-.114l2.67.933a4 4 0 0 1 2.323 2.12l22.05 48.482a4 4 0 0 1-1.923 5.268l-84.804 40.34a4 4 0 0 1-5.33-1.895l-.002-.003-1.26-2.656a4 4 0 0 0-5.287-1.92l-8.833 4.067a4 4 0 0 0-1.938 5.356l1.306 2.737a4 4 0 0 1-1.886 5.332c-5.175 2.463-8.995 4.126-11.462 4.99-4.512 1.582-9.787.21-12.465-4.637-1.767-3.197-7.903-16.61-18.41-40.239a3.972 3.972 0 0 1-.346-1.62v-2.391a4 4 0 0 1 .654-2.192zM183.68 248.912l125.01-58.228a4 4 0 0 1 5.31 1.928l3.299 7.032a4 4 0 0 1-1.93 5.323l-111.765 52.197a2.228 2.228 0 0 0-1.137 2.818 2.278 2.278 0 0 1-1.117 2.86l-8.841 4.37a4 4 0 0 1-5.373-1.843l-5.367-11.088a4 4 0 0 1 1.911-5.369zM330.95 228.26l.041.088 4.432 9.77a2.435 2.435 0 0 1-1.18 3.208l-1.103.52a4 4 0 0 0-1.693 1.507l-.209.334a4 4 0 0 1-1.32 1.307l-1.444.877c-.75.455-1.65.588-2.5.368a3.75 3.75 0 0 0-2.563.249l-15.972 7.661a.933.933 0 0 0-.496 1.091 2.4 2.4 0 0 1-.065 1.485l-.15.403c-.274.73-.811 1.33-1.506 1.683l-4.218 2.146a.992.992 0 0 1-1.248-.295.916.916 0 0 0-1.215-.238l-6.818 4.172c-.25.153-.536.234-.83.234a.765.765 0 0 1-.666-.39l-.006-.01a.452.452 0 0 0-.621-.169l-1.586.927a.782.782 0 0 1-1.11-.359.895.895 0 0 0-1.162-.463l-2.934 1.22a3.866 3.866 0 0 0-2.01 5.22l4.911 10.399a3.901 3.901 0 0 0 4.934 1.972l1.763-.681a1.893 1.893 0 0 1 2.384.935 1.823 1.823 0 0 0 2.358.875l6.67-2.872a1.84 1.84 0 0 0 .963-2.419l-.04-.087-.28-.564a1.226 1.226 0 0 1 .63-1.677c.67-.278.992-1.044.72-1.717l-2.233-5.538a2.574 2.574 0 0 1 1.326-3.307l1.656-.75a.6.6 0 0 1 .812.343c.122.34.493.52.835.406l1.948-.649a2.234 2.234 0 0 1 2.753 1.223 1.969 1.969 0 0 0 2.655.984l6.033-2.9a.568.568 0 0 0 .266-.757l-.004-.009a.553.553 0 0 1 .267-.753l17.231-7.74a3.589 3.589 0 0 1 4.62 1.551 3.09 3.09 0 0 1-1.425 4.293l-27.415 12.563a.87.87 0 0 0-.461 1.074.714.714 0 0 0 .971.418l26.782-12.194a4 4 0 0 1 5.22 1.821l.913 1.79a4 4 0 0 1-1.919 5.466l-53.965 24.311-.09.042-68.58 32.948a4 4 0 0 1-2.542.311l-2.693-.557a4 4 0 0 1-2.86-2.329l-14.583-33.707a4 4 0 0 1-.228-2.48l.658-2.88a4 4 0 0 1 2.158-2.71l121.69-58.854a4 4 0 0 1 5.342 1.86zm-80.583 53.87a1.107 1.107 0 0 0-1.473-.532l-5.16 2.424a1.763 1.763 0 0 0-.836 2.365 1.73 1.73 0 0 0 2.312.8l4.013-1.95a2 2 0 0 0 1.107-1.528l.132-.958a1.107 1.107 0 0 0-.095-.621zm20.89-9.18a1.635 1.635 0 0 0-2.112-.609l-7.58 3.722a1.745 1.745 0 0 0-.88 2.137 1.35 1.35 0 0 0 1.88.766l8.145-4.085a1.36 1.36 0 0 0 .548-1.93zM335.944 95.313l2.623 1.103a4 4 0 0 1 2.093 2.038l21.984 48.586a4 4 0 0 1-1.878 5.238l-20.033 9.863a4.001 4.001 0 0 1-.129.06l-18.818 8.447a4 4 0 0 1-5.283-2l-22.148-48.972a4 4 0 0 1-.117-3.008l.932-2.58a4 4 0 0 1 2.08-2.27l35.46-16.447a4 4 0 0 1 3.234-.058zm-.303 38.379a1.08 1.08 0 0 0-1.466-.428l-1.432.786a2 2 0 0 0-.89 2.51l1.77 4.325a2 2 0 0 1-2.449 2.666l-3.459-1.08a2 2 0 0 0-1.381.069l-7.316 3.123a1.715 1.715 0 0 0-.937 2.167l.196.535c.22.597.787.994 1.423.994h.477a2 2 0 0 0 1.072-.312l4.675-2.967a.649.649 0 0 0 .262-.77.3.3 0 0 1 .335-.398l6.593 1.198a2 2 0 0 1 1.48 1.18l.107.247a1.312 1.312 0 0 0 1.75.675l11.103-5.083a.46.46 0 0 0-.192-.879h-.838a2 2 0 0 1-1.812-1.152l-2.852-6.092a2 2 0 0 0-2.372-1.071l-2.18.636a1.343 1.343 0 0 1-1.616-.774 1.08 1.08 0 0 0-.05-.105zm-2.826-18.815a2 2 0 0 0-2.581-1.05l-7.429 3.005a.494.494 0 0 0-.044.895l.27.142a2 2 0 0 1 .94 1.066l3.165 8.406a.863.863 0 0 1-.495 1.109.907.907 0 0 0-.535 1.122l.182.567a1.377 1.377 0 0 0 1.798.867l.325-.123.051-.02a1.74 1.74 0 0 0 .939-2.275l-1.225-2.946a2 2 0 0 1 1.01-2.585l1.542-.709a1.596 1.596 0 0 0 .844-1.963l-.266-.783a.909.909 0 0 1 .266-.979.422.422 0 0 1 .673.174l1.827 4.975a1.137 1.137 0 0 0 1.56.633c.63-.302.907-1.05.626-1.69zm-15.704 5.073a1.184 1.184 0 0 0-1.432-.679l-3.37 1.007a2 2 0 0 0-1.248 2.746l2.618 5.735.137-.04a2 2 0 0 0 1.295-2.686l-.675-1.631a2 2 0 0 1 1.063-2.605l1.04-.444c.544-.232.798-.858.572-1.403zM250.38 12.307l.88-1.872a4 4 0 0 1 2.189-2.034L287.74-4.735a4 4 0 0 1 3.385.245l2.752 1.54a4 4 0 0 1 1.674 1.805l4.185 9.007.05.11 3.563 8.32.031.07 10.316 22.852a4 4 0 0 0 .073.155l8.8 17.457a4 4 0 0 1 .12.26l6.002 14.377a4 4 0 0 1 .225 2.358l-.54 2.59a4 4 0 0 1-2.353 2.865l-11.155 4.738a4 4 0 0 0-.196.09l-21.41 10.488a4 4 0 0 1-2.873.25l-2.482-.719a4 4 0 0 1-2.553-2.24l-6.54-14.962a4 4 0 0 0-.065-.142L257.66 33.254a4 4 0 0 1-.095-.212l-7.26-17.501a4 4 0 0 1 .075-3.234z"/>
            </g>
            <g fill="#B0D994">
                <path d="m92.77 178.76 8.011 18.696a4 4 0 0 0 2.792 2.326l7.046 1.598a4 4 0 0 1 2.675 2.078l2.878 5.62a4 4 0 0 1-1.746 5.388l-11.987 6.1a4 4 0 0 1-1.814.434h-6.083a4 4 0 0 1-3.617-2.29l-10.627-22.482a4 4 0 0 0-2.065-1.977l-3.494-1.47a4 4 0 0 1-2.12-2.1l-1.06-2.45a4 4 0 0 1 2.014-5.23l13.864-6.307a4 4 0 0 1 5.333 2.065zM65.944 190.4l7.826 15.044a4 4 0 0 0 .562.815l7.39 8.295a4 4 0 0 1 .548.788l3.742 7.064a4 4 0 0 1-1.882 5.512c-25.107 11.42-39.78 18.204-44.02 20.353-4.318 2.188-17.22 8.436-38.709 18.745a3.994 3.994 0 0 1-3.948-.283l-.866-.578a4 4 0 0 1-1.74-2.766l-5.432-38.372a4 4 0 0 1 2.27-4.186l69.019-32.21a4 4 0 0 1 5.24 1.778z"/>
            </g>
            <path d="m38.605 207.468 2.498-1.178a4 4 0 0 0 .213-.11l10.872-5.949a4 4 0 0 1 .23-.117l3.945-1.838a3.802 3.802 0 0 0 1.975-2.169 2.963 2.963 0 0 1 2.077-1.88l1.699-.422a1.928 1.928 0 0 1 1.576.296 1.52 1.52 0 0 0 1.52.136l33.519-15.64a1.58 1.58 0 0 0 .911-1.432v-.02c0-.62.297-1.201.8-1.566a3.04 3.04 0 0 1 1.784-.579h3.16c.666 0 1.29.323 1.674.867a3.34 3.34 0 0 1 .613 1.928v.73a4 4 0 0 0 .363 1.665l4.777 10.44a2.42 2.42 0 0 0 1.886 1.392l1.33.174c1.315 1.522 1.973 2.871 1.973 4.048 0 1.766-1.421 3.925-2.845 3.925-.86 0-2.236.145-4.129.436a3.928 3.928 0 0 0-1.164.371l-33.146 16.412a2.633 2.633 0 0 0-1.41 1.83 3.187 3.187 0 0 1-1.32 1.986l-.804.552a2.532 2.532 0 0 1-2.253.308 3.496 3.496 0 0 0-2.391.045l-5.448 2.1a4 4 0 0 0-.238.101l-11.087 5.118a4.001 4.001 0 0 0-.161.079l-2.37 1.226a2.64 2.64 0 0 1-3.609-1.236l-8.415-18.185a2.903 2.903 0 0 1 1.395-3.844z" fill="#E8E8ED"/>
        </g>
        <g mask="url(#5oki9tu4hb)">
            <g transform="translate(67 56)">
                <path d="M22.783 21.258a2.99 2.99 0 0 1 2.222-.085c.696.248 1.3.75 1.66 1.449l41.908 94.403 88.194-39.76a2.99 2.99 0 0 1 2.222-.097 2.99 2.99 0 0 1 1.668 1.44c.357.8.398 1.63.165 2.353-.23.719-.73 1.33-1.428 1.696l-91.105 41.078a2.99 2.99 0 0 1-2.23.095 2.99 2.99 0 0 1-1.668-1.451L21.258 25.217a2.99 2.99 0 0 1-.058-2.295 2.99 2.99 0 0 1 1.583-1.664z" stroke="#297A52" stroke-width="2" fill="#57C78F" fill-rule="nonzero"/>
                <circle stroke="#38A870" fill-opacity=".2" fill="#297A52" cx="24" cy="24" r="23.5"/>
                <use fill="#000" filter="url(#dgck46xtpc)" xlink:href="#c30e3ee3bd"/>
                <circle stroke="#FFF" stroke-width="2" fill="#38A870" cx="24" cy="24" r="7"/>
                <circle stroke="#050506" stroke-width="2" fill="#FFF" cx="158" cy="80" r="5"/>
                <circle stroke="#297A52" stroke-width="2" fill="#FFF" cx="67" cy="120" r="5"/>
                <g>
                    <g transform="translate(146 41)">
                        <use filter="url(#re8fyoz6re)" xlink:href="#dessvnfdkf" fill="#000"/>
                        <path d="m12-.5.369.005a12.46 12.46 0 0 1 8.47 3.656A12.46 12.46 0 0 1 24.5 12c0 3.44-1.537 6.222-3.641 8.815C16.468 26.225 13.5 31.922 13.5 39c0 .414-.168.79-.44 1.06a1.495 1.495 0 0 1-2.121 0A1.495 1.495 0 0 1 10.5 39c0-7.078-2.968-12.776-7.359-18.185C1.037 18.222-.5 15.44-.5 12c0-3.452 1.4-6.577 3.661-8.839A12.46 12.46 0 0 1 12-.5z" stroke="#900014"/>
                        <path d="M12 0c6.627 0 12 5.373 12 12 0 3.321-1.5 6-3.53 8.5C16.003 26.003 13 31.803 13 39a1 1 0 0 1-2 0c0-7.197-3.003-12.997-7.47-18.5C1.5 18 0 15.321 0 12 0 5.373 5.373 0 12 0z" fill="#E2001C"/>
                        <circle fill="#FFF" cx="12" cy="12" r="4"/>
                    </g>
                </g>
            </g>
        </g>
        <path fill="url(#y8gsf1d5vg)" mask="url(#5oki9tu4hb)" d="M0 164h305v76H0z"/>
        <path fill="url(#scs66pameh)" mask="url(#5oki9tu4hb)" d="M0 0h305v76H0z"/>
    </g>
</svg>
