<?xml version="1.0" encoding="UTF-8"?>
<svg width="678px" height="53px" viewBox="0 0 678 53" version="1.1" xmlns="http://www.w3.org/2000/svg" xmlns:xlink="http://www.w3.org/1999/xlink">
    <!-- Generator: Sketch 52 (66869) - http://www.bohemiancoding.com/sketch -->
    <title>Elements/Background-search/Maps</title>
    <desc>Created with Sketch.</desc>
    <g id="Desktop" stroke="none" stroke-width="1" fill="none" fill-rule="evenodd">
        <g id="@1438px---Home-Maps" fill-rule="nonzero">
            <g id="Header">
                <g id="Elements/Background-search/Desktop/Maps">
                    <path d="M277.357681,53 C257.314568,38.754714 239.396344,20.8570455 224.296812,5.68e-14 L181.062029,5.68e-14 C170.019192,19.1229197 156.811379,36.451314 141.790435,51.5235714" id="Shape" fill="#76BC54"></path>
                    <path d="M141.790435,51.5235714 C156.811379,36.451314 170.019192,19.1229197 181.062029,0 L104.091014,0 C99.5370019,16.9305927 93.2959633,33.1920677 85.4935072,48.4571429 C103.704522,49.6912857 122.498551,50.7285714 141.790435,51.5235714 Z" id="Shape" fill="#4BA2EA"></path>
                    <path d="M104.091014,0 L0,0 L0,40.8857143 C26.6090435,43.9142857 55.2422609,46.4507143 85.4804058,48.4571429 C93.2444596,33.1672384 99.487662,16.9115772 104.091014,0 Z" id="Shape" fill="#65CEE7"></path>
                    <path d="M104.091014,0 C99.487662,16.9115772 93.2444596,33.1672384 85.4804058,48.4571429" id="Shape" fill="#1BB7CF"></path>
                    <path d="M375.553043,1.41127903e-14 L224.296812,0 C239.396344,20.8570455 257.314568,38.754714 277.357681,53 L313.77971,53 C344.705681,52.2428571 374.622841,50.9784286 403.184,49.2142857 C392.361399,34.0969051 383.089359,17.5822103 375.553043,0 Z" id="Shape" fill="#87C966"></path>
                    <path d="M525.014377,37.8571429 C551.407246,34.397 575.454957,30.4447143 596.712058,26.0835714 C598.001107,17.2881895 599.704647,8.580708 601.815072,5.68e-14 L559.104348,5.68e-14 C548.964319,14.0126163 537.533546,26.7065671 525.014377,37.8571429 Z" id="Shape" fill="#87C966"></path>
                    <path d="M524.981623,37.8571429 C537.509393,26.7048732 548.950874,14.0112271 559.104348,0 L375.618551,0 C383.140527,17.5795771 392.397115,34.0941565 403.203652,49.2142857 C447.447246,46.5112857 488.454783,42.6498571 524.981623,37.8571429 Z" id="Shape" fill="#9DDC7D"></path>
                    <path d="M403.203652,49.2142857 C392.397115,34.0941565 383.140527,17.5795771 375.618551,-5.68e-14 L375.553043,-5.68e-14 C383.095526,17.5833253 392.374187,34.0980667 403.203652,49.2142857 Z" id="Shape" fill="#F6D333"></path>
                    <path d="M601.815072,0 C599.704879,8.57821934 598.00134,17.2831661 596.712058,26.076 C632.577275,18.709 660.424406,10.176 678,0.878285714 L678,0 L601.815072,0 Z" id="Shape" fill="#76BC54"></path>
                </g>
            </g>
        </g>
    </g>
</svg>