<?xml version="1.0" encoding="utf-8"?>
<!-- Generator: Adobe Illustrator 23.0.2, SVG Export Plug-In . SVG Version: 6.00 Build 0)  -->
<svg version="1.1" id="Calque_1" xmlns="http://www.w3.org/2000/svg" xmlns:xlink="http://www.w3.org/1999/xlink" x="0px" y="0px"
	 viewBox="0 0 838 63" style="enable-background:new 0 0 838 63;" xml:space="preserve">
<style type="text/css">
	.st0{fill:#76BC54;}
	.st1{fill:#4BA2EA;}
	.st2{fill:#65CEE7;}
	.st3{fill:#87C966;}
	.st4{fill:#9DDC7D;}
</style>
<g>
	
		<image style="overflow:visible;opacity:0.15;" width="899" height="123" xlink:href="430406ECD9B838A9.png"  transform="matrix(1 0 0 1 -30.999 -28)">
	</image>
	<g>
		<g>
			<path class="st0" d="M197.7,63c-0.5-4.4-0.7-8.9-0.7-13.5c0-17.6,3.6-34.3,10.1-49.5h230.7c6.5,15.2,10.1,31.9,10.1,49.5
				c0,4.6-0.2,9.1-0.7,13.5H197.7z"/>
			<path class="st1" d="M288.6,0c-3.9,22-11.2,43.2-21.7,63H71C46.5,56.7,23,49.4,0,42V0H288.6z"/>
			<path class="st2" d="M183.7,0c-5.1,22.6-14.5,44-27.8,63H71C46.5,56.7,23,49.4,0,42V0H183.7L183.7,0z"/>
			<path class="st3" d="M519,0h319c-34.4,24.9-79.2,46.4-130,63c-83.8,0-146.8,0-189,0V0z"/>
			<path class="st3" d="M386.5,63C374.3,44.5,366,23.1,363.1,0h292.7c-0.8,6-1.9,12-3.4,17.9c-4.1,16.1-10.8,31.3-20,45.1H386.5z"/>
			<path class="st4" d="M472,63c-13.8-17.8-22.9-39.4-25.3-63h246.7c-0.6,5.9-1.7,11.8-3.1,17.6C686,34.3,678.3,49.7,668,63H472
				L472,63z"/>
			<g>
				<path id="a_12_" class="st0" d="M746.3,49.1C747.4,32,752.1,15.2,760,0h78C812.5,18.4,781.4,35,746.3,49.1z"/>
			</g>
		</g>
	</g>
</g>
</svg>
