<svg xmlns="http://www.w3.org/2000/svg" xmlns:xlink="http://www.w3.org/1999/xlink" width="840" height="63" viewBox="0 0 840 63">
    <defs>
        <path id="a" d="M746.279 49.105A123.753 123.753 0 0 1 760.045 0H838c-25.457 18.424-56.627 35.001-91.721 49.105z"/>
    </defs>
    <g fill="none" fill-rule="nonzero">
        <path fill="#76BC54" d="M197.718 63c-.475-4.435-.718-8.94-.718-13.5 0-17.578 3.614-34.312 10.14-49.5h230.72C444.387 15.188 448 31.922 448 49.5c0 4.56-.243 9.065-.718 13.5H197.718z"/>
        <path fill="#4BA2EA" d="M288.603 0a216.031 216.031 0 0 1-21.69 63H71C46.494 56.715 23.028 49.44-.001 42V0h288.604z"/>
        <path fill="#65CEE7" d="M183.714 0a177.173 177.173 0 0 1-27.819 63H71C46.494 56.715 23.028 49.44-.001 42V0h183.715z"/>
        <path fill="#87C966" d="M519 0h319c-34.382 24.883-79.182 46.397-130 63-83.84-.014-146.84-.014-189 0V0z"/>
        <path fill="#87C966" d="M386.542 63c-12.283-18.494-20.505-39.918-23.393-63h292.702a146.867 146.867 0 0 1-3.364 17.853A146.746 146.746 0 0 1 632.458 63H386.542z"/>
        <path fill="#9DDC7D" d="M472.013 63c-13.805-17.773-22.881-39.403-25.34-63h246.654a123.566 123.566 0 0 1-3.121 17.56c-4.25 16.771-11.919 32.179-22.22 45.44H472.014z"/>
        <use fill="#76BC54" xlink:href="#a"/>
    </g>
</svg>
