<?xml version="1.0" encoding="UTF-8"?>
<svg width="538px" height="53px" viewBox="0 0 538 53" version="1.1" xmlns="http://www.w3.org/2000/svg" xmlns:xlink="http://www.w3.org/1999/xlink">
    <!-- Generator: Sketch 52.2 (67145) - http://www.bohemiancoding.com/sketch -->
    <title>Elements/Background-search/Desktop/Maps</title>
    <desc>Created with Sketch.</desc>
    <defs>
        <polygon id="path-1" points="0.0058 0 21.9468 0 21.9468 49.2139 0.0058 49.2139"></polygon>
    </defs>
    <g id="Desktop" stroke="none" stroke-width="1" fill="none" fill-rule="evenodd">
        <g id="@1438px---Home-Maps">
            <g id="Header">
                <g id="Components/Header/Connected">
                    <g id="Elements/Background-search/Desktop/Maps">
                        <g id="Group-18">
                            <path d="M220.0864,53 C204.1824,38.755 189.9634,20.857 177.9824,0 L143.6744,0 C134.9114,19.123 124.4324,36.451 112.5114,51.524" id="Fill-1" fill="#76BC54"></path>
                            <path d="M112.5117,51.5244 C124.4307,36.4514 134.9127,19.1234 143.6747,0.0004 L82.5967,0.0004 C78.9837,16.9304 74.0317,33.1924 67.8407,48.4574 C82.7197,49.7274 97.6117,50.7504 112.5117,51.5244" id="Fill-3" fill="#4BA2EA"></path>
                            <path d="M82.5972,0 L0.0002,0 L0.0002,40.886 C21.1152,43.914 43.8352,46.451 67.8292,48.457 C73.9902,33.167 78.9452,16.912 82.5972,0" id="Fill-5" fill="#65CEE7"></path>
                            <path d="M298.0054,0 L177.9824,0 C189.9634,20.857 204.1824,38.755 220.0854,53 L248.9874,53 C273.5274,52.243 297.2674,50.978 319.9304,49.214 C311.3424,34.097 303.9844,17.582 298.0054,0" id="Fill-7" fill="#87C966"></path>
                            <path d="M416.6045,37.8574 C437.5465,34.3974 456.6295,30.4454 473.4975,26.0844 C474.5165,17.3134 475.8675,8.6084 477.5465,0.0004 L443.6555,0.0004 C435.6095,14.0134 426.5395,26.7074 416.6045,37.8574" id="Fill-9" fill="#87C966"></path>
                            <path d="M416.5791,37.8574 C426.5181,26.7054 435.5991,14.0114 443.6551,0.0004 L298.0581,0.0004 C304.0271,17.5804 311.3721,34.0934 319.9471,49.2134 C355.0551,46.5104 387.5941,42.6504 416.5791,37.8574" id="Fill-11" fill="#9DDC7D"></path>
                            <g id="Group-15" transform="translate(298.000000, 0.000000)">
                                <mask id="mask-2" fill="white">
                                    <use xlink:href="#path-1"></use>
                                </mask>
                                <g id="Clip-14"></g>
                                <path d="M21.9468,49.2139 C13.3708,34.0939 6.0268,17.5799 0.0578,-0.0001 L0.0058,-0.0001 C5.9908,17.5829 13.3528,34.0979 21.9458,49.2139 L21.9468,49.2139 Z" id="Fill-13" fill="#F6D333" mask="url(#mask-2)"></path>
                            </g>
                            <path d="M477.5469,0 C475.8669,8.605 474.5169,17.308 473.4969,26.076 C501.9559,18.709 524.0539,10.176 537.9999,0.878 L537.9999,0 L477.5469,0 Z" id="Fill-16" fill="#76BC54"></path>
                        </g>
                    </g>
                </g>
            </g>
        </g>
    </g>
</svg>