<svg xmlns="http://www.w3.org/2000/svg" width="48" height="48" viewBox="0 0 48 48">
    <g fill="none" fill-rule="evenodd">
        <g>
            <g>
                <g>
                    <g>
                        <path fill="#EF8035" d="M13.569 39.234l-3.173.444c-.42-.327-.84-.7-1.213-1.074-1.143-1.075-2.146-2.29-2.986-3.622-1.26-1.986-2.193-4.157-2.683-6.448-.07-.28-.117-.56-.164-.841.164.094.351.187.514.28.7.327 1.446.515 2.216.538.676.047 1.377-.047 2.03-.233.093-.024.163-.047.233-.07.887-.304 1.68-.795 2.286-1.519.187.77.42 1.542.747 2.289 0 .024.023.047.023.07.583 1.308 1.353 2.547 2.31 3.598.186.21.373.397.56.584l.583 4.182c.14.888-.443 1.705-1.283 1.822" transform="translate(-1276 -216) translate(696) translate(494 176) translate(86 40)"/>
                        <path stroke="#AB552C" stroke-linecap="round" stroke-linejoin="round" stroke-width=".943" d="M13.569 39.234l-3.173.444c-.42-.327-.84-.7-1.213-1.074-1.143-1.075-2.146-2.29-2.986-3.622-1.26-1.986-2.193-4.157-2.683-6.448-.07-.28-.117-.56-.164-.841.164.094.351.187.514.28.7.327 1.446.515 2.216.538.676.047 1.377-.047 2.03-.233.093-.024.163-.047.233-.07.887-.304 1.68-.795 2.286-1.519.187.77.42 1.542.747 2.289 0 .024.023.047.023.07.583 1.308 1.353 2.547 2.31 3.598.186.21.373.397.56.584l.583 4.182c.14.888-.443 1.705-1.283 1.822z" transform="translate(-1276 -216) translate(696) translate(494 176) translate(86 40)"/>
                        <path fill="#4EAF6A" d="M33.631 5.173h-.07c-2.146 1.425-3.942 3.387-5.155 5.677-.163-.046-.327-.117-.49-.164-.91-.28-1.866-.467-2.823-.56-2.403-.234-4.829.21-6.998 1.237-.957.444-1.867 1.03-2.707 1.706 1.237-1.821 2.263-3.598 2.403-6.097.047-1.051-.046-2.103-.28-3.084 1.447-.42 2.94-.7 4.456-.818.63-.046 1.283-.07 1.913-.07h.024c.722 0 1.446.024 2.17.094.955.094 1.935.234 2.868.444 1.61.35 3.173.91 4.643 1.635.023-.023.023 0 .046 0" transform="translate(-1276 -216) translate(696) translate(494 176) translate(86 40)"/>
                        <path stroke="#316D41" stroke-linecap="round" stroke-linejoin="round" stroke-width=".943" d="M33.631 5.173h-.07c-2.146 1.425-3.942 3.387-5.155 5.677-.163-.046-.327-.117-.49-.164-.91-.28-1.866-.467-2.823-.56-2.403-.234-4.829.21-6.998 1.237-.957.444-1.867 1.03-2.707 1.706 1.237-1.821 2.263-3.598 2.403-6.097.047-1.051-.046-2.103-.28-3.084 1.447-.42 2.94-.7 4.456-.818.63-.046 1.283-.07 1.913-.07h.024c.722 0 1.446.024 2.17.094.955.094 1.935.234 2.868.444 1.61.35 3.173.91 4.643 1.635.023-.023.023 0 .046 0z" transform="translate(-1276 -216) translate(696) translate(494 176) translate(86 40)"/>
                        <path fill="#F6D331" d="M3.327 27.67c-.023-.07-.023-.14-.047-.234-.07-.444-.116-.888-.163-1.332-.023-.116-.023-.21-.023-.326-.14-1.519-.116-3.038.023-4.509v-.047c0-.163 0-.304.024-.467.257-1.915.77-3.808 1.54-5.606l.28-.632c1.026-2.149 2.426-4.111 4.152-5.77.887-.865 1.866-1.635 2.893-2.336.933-.63 1.936-1.169 2.963-1.635.816-.35 1.633-.654 2.473-.912.232.982.35 2.01.28 3.084-.14 2.524-1.167 4.276-2.404 6.098-.07.047-.14.116-.233.187-.024.023-.024.023-.046.047-.817.7-1.564 1.47-2.193 2.359-.07.093-.117.186-.187.256-.677.982-1.237 2.056-1.633 3.2-.257.75-.467 1.496-.583 2.29 0 .07-.023.14-.023.188-.024.093-.024.21-.047.326 0 .048-.024.094-.024.164-.047.444-.07.888-.093 1.332v.163c0 .515.023 1.052.07 1.566.047.537.14 1.05.257 1.588-.607.724-1.423 1.239-2.287 1.519-.07.023-.163.047-.233.07-.653.187-1.353.257-2.03.233-.77-.046-1.516-.21-2.216-.537-.187-.093-.35-.187-.513-.28l.023-.047z" transform="translate(-1276 -216) translate(696) translate(494 176) translate(86 40)"/>
                        <path stroke="#A4872F" stroke-linecap="round" stroke-linejoin="round" stroke-width=".943" d="M3.327 27.67c-.023-.07-.023-.14-.047-.234-.07-.444-.116-.888-.163-1.332-.023-.116-.023-.21-.023-.326-.14-1.519-.116-3.038.023-4.509v-.047c0-.163 0-.304.024-.467.257-1.915.77-3.808 1.54-5.606l.28-.632c1.026-2.149 2.426-4.111 4.152-5.77.887-.865 1.866-1.635 2.893-2.336.933-.63 1.936-1.169 2.963-1.635.816-.35 1.633-.654 2.473-.912.232.982.35 2.01.28 3.084-.14 2.524-1.167 4.276-2.404 6.098-.07.047-.14.116-.233.187-.024.023-.024.023-.046.047-.817.7-1.564 1.47-2.193 2.359-.07.093-.117.186-.187.256-.677.982-1.237 2.056-1.633 3.2-.257.75-.467 1.496-.583 2.29 0 .07-.023.14-.023.188-.024.093-.024.21-.047.326 0 .048-.024.094-.024.164-.047.444-.07.888-.093 1.332v.163c0 .515.023 1.052.07 1.566.047.537.14 1.05.257 1.588-.607.724-1.423 1.239-2.287 1.519-.07.023-.163.047-.233.07-.653.187-1.353.257-2.03.233-.77-.046-1.516-.21-2.216-.537-.187-.093-.35-.187-.513-.28l.023-.047z" transform="translate(-1276 -216) translate(696) translate(494 176) translate(86 40)"/>
                        <path fill="#4595D1" d="M44.736 24.446c-2.146 1.472-4.643 3.761-6.555 2.827-.444-.21-.77-.584-.98-1.075.21-1.098.28-2.242.233-3.364-.117-2.149-.77-4.251-1.843-6.097-.093-.14-.186-.304-.28-.444-1.05-1.659-2.472-3.084-4.152-4.135-.14-.093-.28-.187-.42-.257-.07-.047-.117-.07-.187-.116-.7-.398-1.423-.725-2.17-.981 1.237-2.29 3.01-4.23 5.156-5.678.047.024.093.024.14.047.187.093.397.186.583.304.024 0 .047.023.42.233l.35.21c1.774 1.076 3.382 2.406 4.736 3.972 1.493 1.705 2.683 3.668 3.523 5.77.909 2.29 1.352 4.766 1.4 7.219.07.56.07 1.075.046 1.565" transform="translate(-1276 -216) translate(696) translate(494 176) translate(86 40)"/>
                        <path stroke="#096286" stroke-linecap="round" stroke-linejoin="round" stroke-width=".943" d="M44.736 24.446h0c-2.146 1.472-4.643 3.761-6.555 2.827-.444-.21-.77-.584-.98-1.075.21-1.098.28-2.242.233-3.364-.117-2.149-.77-4.251-1.843-6.097-.093-.14-.186-.304-.28-.444-1.05-1.659-2.472-3.084-4.152-4.135-.14-.093-.28-.187-.42-.257-.07-.047-.117-.07-.187-.116-.7-.398-1.423-.725-2.17-.981 1.237-2.29 3.01-4.23 5.156-5.678.047.024.093.024.14.047.187.093.397.186.583.304.024 0 .047.023.42.233l.35.21c1.774 1.076 3.382 2.406 4.736 3.972 1.493 1.705 2.683 3.668 3.523 5.77.909 2.29 1.352 4.766 1.4 7.219.07.56.07 1.075.046 1.565z" transform="translate(-1276 -216) translate(696) translate(494 176) translate(86 40)"/>
                        <path fill="#E73B5C" d="M30.342 42.761c-.187.561-.77.655-1.26.771-.607.141-1.213.257-1.82.351-1.12.164-2.239.234-3.359.28-.233 0-.466.024-.676 0-.933 0-1.89-.094-2.823-.234-1.213-.163-2.426-.443-3.616-.817-2.146-.7-4.176-1.729-5.972-3.107-.14-.117-.28-.21-.42-.328l3.173-.443c.84-.117 1.423-.935 1.306-1.822l-.583-4.182c.14.14.303.28.443.42.28.258.583.514.887.748.956.748 2.03 1.332 3.149 1.799 1.05.42 2.17.724 3.29.865 1.235.163 2.472.163 3.709-.024.303-.047.583-.093.886-.163.234-.047.443-.094.653-.07.024 0 .07.023.094.023.163.047.303.14.42.28.07.07.116.164.163.257.467.888.91 1.799 1.353 2.686.023.024.023.07.047.095.233.466.467.91.676 1.378.21.42.443.77.28 1.237" transform="translate(-1276 -216) translate(696) translate(494 176) translate(86 40)"/>
                        <path stroke="#A0263C" stroke-width=".943" d="M30.342 42.761c-.187.561-.77.655-1.26.771-.607.141-1.213.257-1.82.351-1.12.164-2.239.234-3.359.28-.233 0-.466.024-.676 0-.933 0-1.89-.094-2.823-.234-1.213-.163-2.426-.443-3.616-.817-2.146-.7-4.176-1.729-5.972-3.107-.14-.117-.28-.21-.42-.328l3.173-.443c.84-.117 1.423-.935 1.306-1.822l-.583-4.182c.14.14.303.28.443.42.28.258.583.514.887.748.956.748 2.03 1.332 3.149 1.799 1.05.42 2.17.724 3.29.865 1.235.163 2.472.163 3.709-.024.303-.047.583-.093.886-.163.234-.047.443-.094.653-.07.024 0 .07.023.094.023.163.047.303.14.42.28.07.07.116.164.163.257.467.888.91 1.799 1.353 2.686.023.024.023.07.047.095.233.466.467.91.676 1.378.21.42.443.77.28 1.237z" transform="translate(-1276 -216) translate(696) translate(494 176) translate(86 40)"/>
                        <path fill="#755EAD" d="M44.013 44.14h-5.949c-.327 0-.677.047-.956-.14-.398-.234-.583-.818-.794-1.215l-3.896-7.686c0-.023-.023-.046-.023-.07-.07-.21-.07-.42 0-.63.093-.281.304-.445.513-.632.07-.07.164-.14.234-.21.513-.467 1.002-1.004 1.422-1.542.28-.35.538-.724.794-1.098.396-.63.746-1.26 1.026-1.962.373-.887.654-1.799.84-2.757.234.491.536.865.98 1.075 1.912.935 4.386-1.354 6.555-2.827-.07 1.588-.303 3.178-.746 4.696-.047.187-.117.373-.163.56-.327 1.052-.747 2.08-1.26 3.06v.024c-.093.187-.21.397-.303.584-.117.21-.234.42-.374.631-.046.07-.07.117-.117.187-.186.28-.466.63-.583.958-.093.35-.023.467-.023.467.047.234.186.444.28.63l1.633 3.06.676 1.263c.374.7.747 1.425 1.12 2.125.327.678-.186 1.426-.886 1.449" transform="translate(-1276 -216) translate(696) translate(494 176) translate(86 40)"/>
                        <path stroke="#54467F" stroke-linecap="round" stroke-linejoin="round" stroke-width=".943" d="M44.013 44.14h-5.949c-.327 0-.677.047-.956-.14-.398-.234-.583-.818-.794-1.215l-3.896-7.686c0-.023-.023-.046-.023-.07-.07-.21-.07-.42 0-.63.093-.281.304-.445.513-.632.07-.07.164-.14.234-.21.513-.467 1.002-1.004 1.422-1.542.28-.35.538-.724.794-1.098.396-.63.746-1.26 1.026-1.962.373-.887.654-1.799.84-2.757.234.491.536.865.98 1.075 1.912.935 4.386-1.354 6.555-2.827-.07 1.588-.303 3.178-.746 4.696-.047.187-.117.373-.163.56-.327 1.052-.747 2.08-1.26 3.06v.024c-.093.187-.21.397-.303.584-.117.21-.234.42-.374.631-.046.07-.07.117-.117.187-.186.28-.466.63-.583.958-.093.35-.023.467-.023.467.047.234.186.444.28.63l1.633 3.06.676 1.263c.374.7.747 1.425 1.12 2.125.327.678-.186 1.426-.886 1.449z" transform="translate(-1276 -216) translate(696) translate(494 176) translate(86 40)"/>
                    </g>
                </g>
            </g>
        </g>
    </g>
</svg>
