<svg xmlns="http://www.w3.org/2000/svg" xmlns:xlink="http://www.w3.org/1999/xlink" width="100" height="100" viewBox="0 0 100 100">
    <defs>
        <linearGradient id="ogdlk18jkc" x1="42.876%" x2="56.186%" y1="32.554%" y2="96.211%">
            <stop offset="0%" stop-color="#1A6AFF"/>
            <stop offset="100%" stop-color="#BA41DA"/>
        </linearGradient>
        <linearGradient id="bqdch0hqif" x1="95.735%" x2="0%" y1="32.987%" y2="59.987%">
            <stop offset="0%" stop-color="#BA41DA"/>
            <stop offset="100%" stop-color="#1A6AFF"/>
        </linearGradient>
        <linearGradient id="lgksau4api" x1="100%" x2="11.97%" y1="23.422%" y2="74.686%">
            <stop offset="0%" stop-color="#BA41DA"/>
            <stop offset="100%" stop-color="#1A6AFF"/>
        </linearGradient>
        <filter id="k94b09blla" width="132.6%" height="127.9%" x="-16.3%" y="-14%" filterUnits="objectBoundingBox">
            <feMorphology in="SourceAlpha" operator="dilate" radius="4" result="shadowSpreadOuter1"/>
            <feOffset in="shadowSpreadOuter1" result="shadowOffsetOuter1"/>
            <feMorphology in="SourceAlpha" radius="5" result="shadowInner"/>
            <feOffset in="shadowInner" result="shadowInner"/>
            <feComposite in="shadowOffsetOuter1" in2="shadowInner" operator="out" result="shadowOffsetOuter1"/>
            <feColorMatrix in="shadowOffsetOuter1" values="0 0 0 0 0.501960784 0 0 0 0 0.674509804 0 0 0 0 1 0 0 0 0.24 0"/>
        </filter>
        <filter id="2ddv6y92sd" width="784.9%" height="1382.1%" x="-342.5%" y="-589.7%" filterUnits="objectBoundingBox">
            <feOffset dy="8" in="SourceAlpha" result="shadowOffsetOuter1"/>
            <feGaussianBlur in="shadowOffsetOuter1" result="shadowBlurOuter1" stdDeviation="32"/>
            <feColorMatrix in="shadowBlurOuter1" result="shadowMatrixOuter1" values="0 0 0 0 0.0470588235 0 0 0 0 0.0470588235 0 0 0 0 0.0549019608 0 0 0 0.2 0"/>
            <feOffset dy="16" in="SourceAlpha" result="shadowOffsetOuter2"/>
            <feGaussianBlur in="shadowOffsetOuter2" result="shadowBlurOuter2" stdDeviation="16"/>
            <feColorMatrix in="shadowBlurOuter2" result="shadowMatrixOuter2" values="0 0 0 0 0.0470588235 0 0 0 0 0.0470588235 0 0 0 0 0.0549019608 0 0 0 0.12 0"/>
            <feMerge>
                <feMergeNode in="shadowMatrixOuter1"/>
                <feMergeNode in="shadowMatrixOuter2"/>
            </feMerge>
        </filter>
        <filter id="ibi70hitpg" width="850%" height="910.8%" x="-375%" y="-373%" filterUnits="objectBoundingBox">
            <feOffset dy="8" in="SourceAlpha" result="shadowOffsetOuter1"/>
            <feGaussianBlur in="shadowOffsetOuter1" result="shadowBlurOuter1" stdDeviation="32"/>
            <feColorMatrix in="shadowBlurOuter1" result="shadowMatrixOuter1" values="0 0 0 0 0.0470588235 0 0 0 0 0.0470588235 0 0 0 0 0.0549019608 0 0 0 0.2 0"/>
            <feOffset dy="16" in="SourceAlpha" result="shadowOffsetOuter2"/>
            <feGaussianBlur in="shadowOffsetOuter2" result="shadowBlurOuter2" stdDeviation="16"/>
            <feColorMatrix in="shadowBlurOuter2" result="shadowMatrixOuter2" values="0 0 0 0 0.0470588235 0 0 0 0 0.0470588235 0 0 0 0 0.0549019608 0 0 0 0.12 0"/>
            <feMerge>
                <feMergeNode in="shadowMatrixOuter1"/>
                <feMergeNode in="shadowMatrixOuter2"/>
            </feMerge>
        </filter>
        <path id="ca43jqdf4b" d="M61.346 85.267c12.674 0 25.034-8.28 13.483-25.17-11.55-16.89-9.81-35.53-21.321-31.555-11.511 3.974-1.095 12.224-18.06 28.463-16.964 16.239 13.225 28.262 25.898 28.262z"/>
        <path id="64vqsbqbbe" d="M5.187 23.2c.717 0 1.297.582 1.297 1.3 2.038-.003 4.017.684 5.616 1.95h2.814c1.727 0 3.28.753 4.348 1.949l4.081.001c2.502 0 4.782 1.442 5.857 3.706-3.067 4.058-8.033 6.694-13.638 6.694-3.618 0-6.679-.784-9.156-2.155-.185.514-.673.856-1.219.855h-3.89C.58 37.5 0 36.918 0 36.2V24.5c0-.718.58-1.3 1.297-1.3h3.89z"/>
        <path id="8mm2m7b5sh" d="M19.6 0c4.05 0 7.333 3.333 7.333 8 0 9.333-10 14.667-13.333 16.667C10.267 22.667.267 17.333.267 8 .267 3.333 3.6 0 7.6 0c2.48 0 4.667 1.333 6 2.667C14.933 1.333 17.12 0 19.6 0z"/>
    </defs>
    <g fill="none" fill-rule="evenodd">
        <g>
            <g>
                <g>
                    <g transform="translate(-746 -518) translate(696) translate(30 498) translate(20 20)">
                        <path d="M0 0H100V100H0z"/>
                        <path fill="#83C458" d="M83.586 30.336c.367 6.42-6.799 14.665-9.885 22.18-3.085 7.516-2.092 14.405-5.282 17.015-3.19 2.61-10.565.939-16.527 1.46-5.962.47-10.512 3.028-17.155 4.75-6.642 1.723-15.376 2.61-17.833-1.357-2.46-3.966 1.411-12.734-.106-20.928-1.516-8.246-11.663-12.103-6.59-19.363 5.074-7.26 12.553-2.766 19.77-6.21 7.27-3.445 11.035-11.117 16.684-14.04 5.649-2.87 13.18-1.096 20.92 2.14 7.688 3.236 15.638 7.881 16.004 14.353z" opacity=".962"/>
                        <circle cx="68" cy="52" r="24" fill="#898991" opacity=".16"/>
                        <g transform="rotate(-61 54.913 56.633)">
                            <use fill="#000" filter="url(#k94b09blla)" xlink:href="#ca43jqdf4b"/>
                            <path stroke="url(#ogdlk18jkc)" stroke-linejoin="square" d="M53.671 29.014c1.39-.48 2.574-.617 3.606-.44 1.068.182 1.964.705 2.757 1.498 2.11 2.114 3.501 6.064 5.23 10.884 2.062 5.746 4.569 12.72 9.152 19.423 2.38 3.48 3.732 6.586 4.256 9.324.566 2.96.158 5.478-.956 7.558-1.28 2.391-3.487 4.197-6.173 5.439-2.993 1.383-6.582 2.067-10.197 2.067-7.447 0-21.035-4.198-27.26-10.99-2.173-2.372-3.441-5.065-3.143-8.02.266-2.623 1.759-5.43 4.85-8.39 9.12-8.73 10.426-15.182 11.389-19.915.801-3.945 1.317-6.652 6.49-8.438z"/>
                        </g>
                        <g>
                            <g transform="translate(32.4 32.8)">
                                <use fill="#000" filter="url(#2ddv6y92sd)" xlink:href="#64vqsbqbbe"/>
                                <use fill="#FFF" xlink:href="#64vqsbqbbe"/>
                            </g>
                            <path fill="url(#bqdch0hqif)" fill-rule="nonzero" d="M5.187 23.2c.717 0 1.297.582 1.297 1.3 2.038-.003 4.017.684 5.616 1.95h2.814c1.727 0 3.28.753 4.348 1.949l4.081.001c2.502 0 4.782 1.442 5.857 3.706-3.067 4.058-8.033 6.694-13.638 6.694-3.618 0-6.679-.784-9.156-2.155-.185.514-.673.856-1.219.855h-3.89C.58 37.5 0 36.918 0 36.2V24.5c0-.718.58-1.3 1.297-1.3h3.89zm2.014 4L7.2 33.799l.058.043c2.302 1.656 5.301 2.558 8.921 2.558 3.853 0 7.439-1.52 10.05-4.114l.171-.175-.154-.13c-.606-.487-1.34-.775-2.107-.829l-.263-.01h-2.71c.094.423.144.863.144 1.315v1.314H9.765v-2.628l8.71-.001-.043-.103c-.5-1.072-1.527-1.783-2.684-1.861l-.21-.007h-3.759C10.575 27.91 8.925 27.2 7.203 27.2H7.2zM4 25.6H2.4v9.2H4v-9.2z" transform="translate(32.4 32.8)"/>
                            <g>
                                <g transform="translate(32.4 32.8) translate(5.6)">
                                    <use fill="#000" filter="url(#ibi70hitpg)" xlink:href="#8mm2m7b5sh"/>
                                    <use fill="#FFF" xlink:href="#8mm2m7b5sh"/>
                                </g>
                                <path fill="url(#lgksau4api)" fill-rule="nonzero" d="M19.6 0c4.05 0 7.333 3.333 7.333 8 0 9.333-10 14.667-13.333 16.667C10.267 22.667.267 17.333.267 8 .267 3.333 3.6 0 7.6 0c2.48 0 4.667 1.333 6 2.667C14.933 1.333 17.12 0 19.6 0zm-4.755 20.805c1.175-.741 2.235-1.478 3.227-2.268 3.975-3.16 6.195-6.613 6.195-10.537 0-3.147-2.05-5.333-4.667-5.333-1.435 0-2.987.76-4.115 1.885L13.6 6.437l-1.885-1.885C10.587 3.427 9.035 2.667 7.6 2.667 5.013 2.667 2.933 4.875 2.933 8c0 3.925 2.222 7.377 6.194 10.537.993.79 2.053 1.527 3.228 2.267.398.252.793.493 1.245.763.452-.27.847-.511 1.245-.762z" transform="translate(32.4 32.8) translate(5.6)"/>
                            </g>
                        </g>
                        <circle cx="90.8" cy="31.6" r="1.6" fill="#1050C5"/>
                        <circle cx="76.8" cy="73.6" r="3.6" fill="#3F81FB"/>
                        <circle cx="28" cy="17.2" r="4.4" fill="#80ACFF"/>
                    </g>
                </g>
            </g>
        </g>
    </g>
</svg>
