<?xml version="1.0" encoding="UTF-8"?>
<svg width="119px" height="20px" viewBox="0 0 119 20" version="1.1" xmlns="http://www.w3.org/2000/svg" xmlns:xlink="http://www.w3.org/1999/xlink">
    <!-- Generator: Sketch 63.1 (92452) - https://sketch.com -->
    <title>Bubbles Only_1</title>
    <desc>Created with Sketch.</desc>
    <defs>
        <polygon id="path-1" points="0 0.105553405 16.4763409 0.105553405 16.4763409 16.5822259 0 16.5822259"/>
        <polygon id="path-3" points="0.279184385 0.105553405 16.755887 0.105553405 16.755887 16.5822259 0.279184385 16.5822259"/>
        <polygon id="path-5" points="0.133893937 0.105553405 16.6105966 0.105553405 16.6105966 16.5822259 0.133893937 16.5822259"/>
        <polygon id="path-7" points="0.290219103 0.105553405 16.7669218 0.105553405 16.7669218 16.5822259 0.290219103 16.5822259"/>
        <polygon id="path-9" points="0.145079402 0.105553405 16.6217821 0.105553405 16.6217821 16.5822259 0.145079402 16.5822259"/>
    </defs>
    <g id="Bubbles-Only_1" stroke="none" stroke-width="1" fill="none" fill-rule="evenodd">
        <g id="Group-2" transform="translate(14.000000, 1.000000)">
            <g id="Group-24">
                <path d="M74.9111703,8.53996694 C74.9111703,4.41913306 78.2631919,1.06711146 82.3837243,1.06711146 C86.5045582,1.06711146 89.8565798,4.41913306 89.8565798,8.53996694 C89.8565798,12.6608008 86.5045582,16.0125209 82.3837243,16.0125209 C78.2631919,16.0125209 74.9111703,12.6608008 74.9111703,8.53996694" id="Fill-1" fill="#FFFFFF"/>
                <path d="M56.3749552,8.53996694 C56.3749552,4.41913306 59.7269768,1.06711146 63.8478107,1.06711146 C67.9686446,1.06711146 71.3203647,4.41913306 71.3203647,8.53996694 C71.3203647,12.6608008 67.9686446,16.0125209 63.8478107,16.0125209 C59.7269768,16.0125209 56.3749552,12.6608008 56.3749552,8.53996694" id="Fill-3" fill="#FFFFFF"/>
                <path d="M37.838318,8.53996694 C37.838318,4.41913306 41.1903396,1.06711146 45.3111735,1.06711146 C49.4320074,1.06711146 52.7837275,4.41913306 52.7837275,8.53996694 C52.7837275,12.6608008 49.4320074,16.0125209 45.3111735,16.0125209 C41.1903396,16.0125209 37.838318,12.6608008 37.838318,8.53996694" id="Fill-5" fill="#FFFFFF"/>
                <path d="M19.3021029,8.53996694 C19.3021029,4.41913306 22.654426,1.06711146 26.7749584,1.06711146 C30.8957923,1.06711146 34.2475124,4.41913306 34.2475124,8.53996694 C34.2475124,12.6608008 30.8957923,16.0125209 26.7749584,16.0125209 C22.654426,16.0125209 19.3021029,12.6608008 19.3021029,8.53996694" id="Fill-7" fill="#FFFFFF"/>
                <g id="Group-11" transform="translate(0.000000, 0.196092)">
                    <mask id="mask-2" fill="white">
                        <use xlink:href="#path-1"/>
                    </mask>
                    <g id="Clip-10"/>
                    <path d="M-6.02990033e-05,8.34360324 C-6.02990033e-05,3.80097782 3.69566561,0.105553405 8.23829103,0.105553405 C12.7812179,0.105553405 16.4763409,3.80097782 16.4763409,8.34360324 C16.4763409,12.8865301 12.7812179,16.5822561 8.23829103,16.5822561 C3.69566561,16.5822561 -6.02990033e-05,12.8865301 -6.02990033e-05,8.34360324" id="Fill-9" fill="#00AA6C" mask="url(#mask-2)"/>
                </g>
                <g id="Group-14" transform="translate(73.866279, 0.196092)">
                    <mask id="mask-4" fill="white">
                        <use xlink:href="#path-3"/>
                    </mask>
                    <g id="Clip-13"/>
                    <path d="M14.7081329,8.34360324 C14.7081329,4.93098115 11.9304593,2.15330756 8.51783721,2.15330756 C5.10431063,2.15330756 2.32693854,4.93098115 2.32693854,8.34360324 C2.32693854,11.7568283 5.10431063,14.5106838 8.51783721,14.5106838 C11.9304593,14.5106838 14.7081329,11.7568283 14.7081329,8.34360324 M0.279184385,8.34360324 C0.279184385,3.80097782 3.9746088,0.105553405 8.51783721,0.105553405 C13.0604626,0.105553405 16.755887,3.80097782 16.755887,8.34360324 C16.755887,12.8865301 13.0604626,16.5822561 8.51783721,16.5822561 C3.9746088,16.5822561 0.279184385,12.8865301 0.279184385,8.34360324" id="Fill-12" fill="#00AA6C" mask="url(#mask-4)"/>
                </g>
                <g id="Group-17" transform="translate(55.475083, 0.196092)">
                    <mask id="mask-6" fill="white">
                        <use xlink:href="#path-5"/>
                    </mask>
                    <g id="Clip-16"/>
                    <path d="M14.5628424,8.34360324 C14.5628424,4.93098115 11.7854703,2.15330756 8.37254676,2.15330756 C4.95932168,2.15330756 2.18194958,4.93098115 2.18194958,8.34360324 C2.18194958,11.7568283 4.95932168,14.5106838 8.37254676,14.5106838 C11.7854703,14.5106838 14.5628424,11.7568283 14.5628424,8.34360324 M0.133893937,8.34360324 C0.133893937,3.80097782 3.82961985,0.105553405 8.37254676,0.105553405 C12.9151722,0.105553405 16.6105966,3.80097782 16.6105966,8.34360324 C16.6105966,12.8865301 12.9151722,16.5822561 8.37254676,16.5822561 C3.82961985,16.5822561 0.133893937,12.8865301 0.133893937,8.34360324" id="Fill-15" fill="#00AA6C" mask="url(#mask-6)"/>
                </g>
                <g id="Group-20" transform="translate(36.782392, 0.196092)">
                    <mask id="mask-8" fill="white">
                        <use xlink:href="#path-7"/>
                    </mask>
                    <g id="Clip-19"/>
                    <path d="M14.7191676,8.34360324 C14.7191676,4.93098115 11.9417955,2.15330756 8.52887193,2.15330756 C5.11564684,2.15330756 2.33827475,4.93098115 2.33827475,8.34360324 C2.33827475,11.7568283 5.11564684,14.5106838 8.52887193,14.5106838 C11.9417955,14.5106838 14.7191676,11.7568283 14.7191676,8.34360324 M0.290219103,8.34360324 C0.290219103,3.80097782 3.98564352,0.105553405 8.52887193,0.105553405 C13.0714973,0.105553405 16.7669218,3.80097782 16.7669218,8.34360324 C16.7669218,12.8865301 13.0714973,16.5822561 8.52887193,16.5822561 C3.98564352,16.5822561 0.290219103,12.8865301 0.290219103,8.34360324" id="Fill-18" fill="#00AA6C" mask="url(#mask-8)"/>
                </g>
                <g id="Group-23" transform="translate(18.391196, 0.196092)">
                    <mask id="mask-10" fill="white">
                        <use xlink:href="#path-9"/>
                    </mask>
                    <g id="Clip-22"/>
                    <path d="M14.5740279,8.34360324 C14.5740279,4.93098115 11.7966558,2.15330756 8.38373223,2.15330756 C4.97050714,2.15330756 2.19313505,4.93098115 2.19313505,8.34360324 C2.19313505,11.7568283 4.97050714,14.5106838 8.38373223,14.5106838 C11.7966558,14.5106838 14.5740279,11.7568283 14.5740279,8.34360324 M0.145079402,8.34360324 C0.145079402,3.80097782 3.84050382,0.105553405 8.38373223,0.105553405 C12.9263576,0.105553405 16.6217821,3.80097782 16.6217821,8.34360324 C16.6217821,12.8865301 12.9263576,16.5822561 8.38373223,16.5822561 C3.84050382,16.5822561 0.145079402,12.8865301 0.145079402,8.34360324" id="Fill-21" fill="#00AA6C" mask="url(#mask-10)"/>
                </g>
            </g>
        </g>
    </g>
</svg>