<?xml version="1.0" encoding="UTF-8"?>
<svg width="119px" height="20px" viewBox="0 0 119 20" version="1.1" xmlns="http://www.w3.org/2000/svg" xmlns:xlink="http://www.w3.org/1999/xlink">
    <!-- Generator: Sketch 63.1 (92452) - https://sketch.com -->
    <title>Bubbles Only_1.5</title>
    <desc>Created with Sketch.</desc>
    <defs>
        <polygon id="path-1" points="0 0.10588505 16.4763409 0.10588505 16.4763409 16.5822259 0 16.5822259"/>
        <polygon id="path-3" points="0.279184385 0.10588505 16.755887 0.10588505 16.755887 16.5822259 0.279184385 16.5822259"/>
        <polygon id="path-5" points="0.133893937 0.10588505 16.6105966 0.10588505 16.6105966 16.5822259 0.133893937 16.5822259"/>
        <polygon id="path-7" points="0.290219103 0.10588505 16.7669218 0.10588505 16.7669218 16.5822259 0.290219103 16.5822259"/>
    </defs>
    <g id="Bubbles-Only_1.5" stroke="none" stroke-width="1" fill="none" fill-rule="evenodd">
        <g id="Group-4" transform="translate(14.000000, 1.000000)">
            <g id="Group-2">
                <g id="Group-23">
                    <path d="M74.9111703,8.5515745 C74.9111703,4.43074061 78.2631919,1.07902051 82.3837243,1.07902051 C86.5045582,1.07902051 89.8565798,4.43074061 89.8565798,8.5515745 C89.8565798,12.6724084 86.5045582,16.02443 82.3837243,16.02443 C78.2631919,16.02443 74.9111703,12.6724084 74.9111703,8.5515745" id="Fill-1" fill="#FFFFFF"/>
                    <path d="M56.3749552,8.5515745 C56.3749552,4.43074061 59.7269768,1.07902051 63.8478107,1.07902051 C67.9686446,1.07902051 71.3203647,4.43074061 71.3203647,8.5515745 C71.3203647,12.6724084 67.9686446,16.02443 63.8478107,16.02443 C59.7269768,16.02443 56.3749552,12.6724084 56.3749552,8.5515745" id="Fill-3" fill="#FFFFFF"/>
                    <path d="M37.838318,8.5515745 C37.838318,4.43074061 41.1903396,1.07902051 45.3111735,1.07902051 C49.4320074,1.07902051 52.7837275,4.43074061 52.7837275,8.5515745 C52.7837275,12.6724084 49.4320074,16.02443 45.3111735,16.02443 C41.1903396,16.02443 37.838318,12.6724084 37.838318,8.5515745" id="Fill-5" fill="#FFFFFF"/>
                    <path d="M19.3021029,8.5515745 C19.3021029,4.43074061 22.654426,1.07902051 26.7749584,1.07902051 C30.8957923,1.07902051 34.2475124,4.43074061 34.2475124,8.5515745 C34.2475124,12.6724084 30.8957923,16.02443 26.7749584,16.02443 C22.654426,16.02443 19.3021029,12.6724084 19.3021029,8.5515745" id="Fill-7" fill="#FFFFFF"/>
                    <g id="Group-11" transform="translate(0.000000, 0.207640)">
                        <mask id="mask-2" fill="white">
                            <use xlink:href="#path-1"/>
                        </mask>
                        <g id="Clip-10"/>
                        <path d="M-6.02990033e-05,8.34393488 C-6.02990033e-05,3.80100797 3.69566561,0.10588505 8.23829103,0.10588505 C12.7812179,0.10588505 16.4763409,3.80100797 16.4763409,8.34393488 C16.4763409,12.8865603 12.7812179,16.5822862 8.23829103,16.5822862 C3.69566561,16.5822862 -6.02990033e-05,12.8865603 -6.02990033e-05,8.34393488" id="Fill-9" fill="#00AA6C" mask="url(#mask-2)"/>
                    </g>
                    <g id="Group-14" transform="translate(73.866279, 0.207640)">
                        <mask id="mask-4" fill="white">
                            <use xlink:href="#path-3"/>
                        </mask>
                        <g id="Clip-13"/>
                        <path d="M14.7081329,8.34393488 C14.7081329,4.93131279 11.9304593,2.15333771 8.51783721,2.15333771 C5.10431063,2.15333771 2.32693854,4.93131279 2.32693854,8.34393488 C2.32693854,11.7568585 5.10431063,14.5110154 8.51783721,14.5110154 C11.9304593,14.5110154 14.7081329,11.7568585 14.7081329,8.34393488 M0.279184385,8.34393488 C0.279184385,3.80100797 3.9746088,0.10588505 8.51783721,0.10588505 C13.0604626,0.10588505 16.755887,3.80100797 16.755887,8.34393488 C16.755887,12.8865603 13.0604626,16.5822862 8.51783721,16.5822862 C3.9746088,16.5822862 0.279184385,12.8865603 0.279184385,8.34393488" id="Fill-12" fill="#00AA6C" mask="url(#mask-4)"/>
                    </g>
                    <g id="Group-17" transform="translate(55.475083, 0.207640)">
                        <mask id="mask-6" fill="white">
                            <use xlink:href="#path-5"/>
                        </mask>
                        <g id="Clip-16"/>
                        <path d="M14.5628424,8.34393488 C14.5628424,4.93131279 11.7854703,2.15333771 8.37254676,2.15333771 C4.95932168,2.15333771 2.18194958,4.93131279 2.18194958,8.34393488 C2.18194958,11.7568585 4.95932168,14.5110154 8.37254676,14.5110154 C11.7854703,14.5110154 14.5628424,11.7568585 14.5628424,8.34393488 M0.133893937,8.34393488 C0.133893937,3.80100797 3.82961985,0.10588505 8.37254676,0.10588505 C12.9151722,0.10588505 16.6105966,3.80100797 16.6105966,8.34393488 C16.6105966,12.8865603 12.9151722,16.5822862 8.37254676,16.5822862 C3.82961985,16.5822862 0.133893937,12.8865603 0.133893937,8.34393488" id="Fill-15" fill="#00AA6C" mask="url(#mask-6)"/>
                    </g>
                    <g id="Group-20" transform="translate(36.782392, 0.207640)">
                        <mask id="mask-8" fill="white">
                            <use xlink:href="#path-7"/>
                        </mask>
                        <g id="Clip-19"/>
                        <path d="M14.7191676,8.34393488 C14.7191676,4.93131279 11.9417955,2.15333771 8.52887193,2.15333771 C5.11564684,2.15333771 2.33827475,4.93131279 2.33827475,8.34393488 C2.33827475,11.7568585 5.11564684,14.5110154 8.52887193,14.5110154 C11.9417955,14.5110154 14.7191676,11.7568585 14.7191676,8.34393488 M0.290219103,8.34393488 C0.290219103,3.80100797 3.98564352,0.10588505 8.52887193,0.10588505 C13.0714973,0.10588505 16.7669218,3.80100797 16.7669218,8.34393488 C16.7669218,12.8865603 13.0714973,16.5822862 8.52887193,16.5822862 C3.98564352,16.5822862 0.290219103,12.8865603 0.290219103,8.34393488" id="Fill-18" fill="#00AA6C" mask="url(#mask-8)"/>
                    </g>
                    <path d="M32.9652239,8.53978605 C32.9652239,5.12686246 30.1878518,2.34949037 26.7749282,2.34949037 L26.7749282,14.7068666 C30.1878518,14.7068666 32.9652239,11.9524081 32.9652239,8.53978605 M18.5362754,8.53978605 C18.5362754,3.99685914 22.2316998,0.301434718 26.7749282,0.301434718 C31.3175537,0.301434718 35.0129781,3.99685914 35.0129781,8.53978605 C35.0129781,13.082713 31.3175537,16.7778359 26.7749282,16.7778359 C22.2316998,16.7778359 18.5362754,13.082713 18.5362754,8.53978605" id="Fill-21" fill="#00AA6C"/>
                </g>
            </g>
        </g>
    </g>
</svg>