<?xml version="1.0" encoding="UTF-8"?>
<svg width="119px" height="20px" viewBox="0 0 119 20" version="1.1" xmlns="http://www.w3.org/2000/svg" xmlns:xlink="http://www.w3.org/1999/xlink">
    <!-- Generator: Sketch 63.1 (92452) - https://sketch.com -->
    <title>Bubbles Only_2</title>
    <desc>Created with Sketch.</desc>
    <defs>
        <polygon id="path-1" points="0.145260299 0.105915199 16.6216615 0.105915199 16.6216615 16.5822259 0.145260299 16.5822259"/>
        <polygon id="path-3" points="0 0.105915199 16.4763409 0.105915199 16.4763409 16.5822259 0 16.5822259"/>
        <polygon id="path-5" points="0.279184385 0.105915199 16.755887 0.105915199 16.755887 16.5822259 0.279184385 16.5822259"/>
        <polygon id="path-7" points="0.133893937 0.105915199 16.6105966 0.105915199 16.6105966 16.5822259 0.133893937 16.5822259"/>
        <polygon id="path-9" points="0.290219103 0.105915199 16.7669218 0.105915199 16.7669218 16.5822259 0.290219103 16.5822259"/>
    </defs>
    <g id="Bubbles-Only_2" stroke="none" stroke-width="1" fill="none" fill-rule="evenodd">
        <g id="Group-22" transform="translate(14.000000, 1.000000)">
            <path d="M74.9111703,8.52820864 C74.9111703,4.40707326 78.2631919,1.05535316 82.3837243,1.05535316 C86.5045582,1.05535316 89.8565798,4.40707326 89.8565798,8.52820864 C89.8565798,12.6490425 86.5045582,16.0007626 82.3837243,16.0007626 C78.2631919,16.0007626 74.9111703,12.6490425 74.9111703,8.52820864" id="Fill-1" fill="#FFFFFF"/>
            <path d="M56.3749552,8.52820864 C56.3749552,4.40707326 59.7269768,1.05535316 63.8478107,1.05535316 C67.9686446,1.05535316 71.3203647,4.40707326 71.3203647,8.52820864 C71.3203647,12.6490425 67.9686446,16.0007626 63.8478107,16.0007626 C59.7269768,16.0007626 56.3749552,12.6490425 56.3749552,8.52820864" id="Fill-3" fill="#FFFFFF"/>
            <path d="M37.838318,8.52820864 C37.838318,4.40707326 41.1903396,1.05535316 45.3111735,1.05535316 C49.4320074,1.05535316 52.7837275,4.40707326 52.7837275,8.52820864 C52.7837275,12.6490425 49.4320074,16.0007626 45.3111735,16.0007626 C41.1903396,16.0007626 37.838318,12.6490425 37.838318,8.52820864" id="Fill-5" fill="#FFFFFF"/>
            <g id="Group-9" transform="translate(18.391196, 0.195731)">
                <mask id="mask-2" fill="white">
                    <use xlink:href="#path-1"/>
                </mask>
                <g id="Clip-8"/>
                <path d="M0.145260299,8.34396503 C0.145260299,3.80103812 3.84068472,0.105915199 8.38331013,0.105915199 C12.9265385,0.105915199 16.6216615,3.80103812 16.6216615,8.34396503 C16.6216615,12.8868919 12.9265385,16.5823164 8.38331013,16.5823164 C3.84068472,16.5823164 0.145260299,12.8868919 0.145260299,8.34396503" id="Fill-7" fill="#00AA6C" mask="url(#mask-2)"/>
            </g>
            <g id="Group-12" transform="translate(0.000000, 0.195731)">
                <mask id="mask-4" fill="white">
                    <use xlink:href="#path-3"/>
                </mask>
                <g id="Clip-11"/>
                <path d="M-6.02990033e-05,8.34396503 C-6.02990033e-05,3.80103812 3.69566561,0.105915199 8.23829103,0.105915199 C12.7812179,0.105915199 16.4763409,3.80103812 16.4763409,8.34396503 C16.4763409,12.8868919 12.7812179,16.5823164 8.23829103,16.5823164 C3.69566561,16.5823164 -6.02990033e-05,12.8868919 -6.02990033e-05,8.34396503" id="Fill-10" fill="#00AA6C" mask="url(#mask-4)"/>
            </g>
            <g id="Group-15" transform="translate(73.866279, 0.195731)">
                <mask id="mask-6" fill="white">
                    <use xlink:href="#path-5"/>
                </mask>
                <g id="Clip-14"/>
                <path d="M14.7081329,8.34396503 C14.7081329,4.93134294 11.9304593,2.15366935 8.51783721,2.15366935 C5.10431063,2.15366935 2.32693854,4.93134294 2.32693854,8.34396503 C2.32693854,11.7565871 5.10431063,14.5110456 8.51783721,14.5110456 C11.9304593,14.5110456 14.7081329,11.7565871 14.7081329,8.34396503 M0.279184385,8.34396503 C0.279184385,3.80103812 3.9746088,0.105915199 8.51783721,0.105915199 C13.0604626,0.105915199 16.755887,3.80103812 16.755887,8.34396503 C16.755887,12.8868919 13.0604626,16.5823164 8.51783721,16.5823164 C3.9746088,16.5823164 0.279184385,12.8868919 0.279184385,8.34396503" id="Fill-13" fill="#00AA6C" mask="url(#mask-6)"/>
            </g>
            <g id="Group-18" transform="translate(55.475083, 0.195731)">
                <mask id="mask-8" fill="white">
                    <use xlink:href="#path-7"/>
                </mask>
                <g id="Clip-17"/>
                <path d="M14.5628424,8.34396503 C14.5628424,4.93134294 11.7854703,2.15366935 8.37254676,2.15366935 C4.95932168,2.15366935 2.18194958,4.93134294 2.18194958,8.34396503 C2.18194958,11.7565871 4.95932168,14.5110456 8.37254676,14.5110456 C11.7854703,14.5110456 14.5628424,11.7565871 14.5628424,8.34396503 M0.133893937,8.34396503 C0.133893937,3.80103812 3.82961985,0.105915199 8.37254676,0.105915199 C12.9151722,0.105915199 16.6105966,3.80103812 16.6105966,8.34396503 C16.6105966,12.8868919 12.9151722,16.5823164 8.37254676,16.5823164 C3.82961985,16.5823164 0.133893937,12.8868919 0.133893937,8.34396503" id="Fill-16" fill="#00AA6C" mask="url(#mask-8)"/>
            </g>
            <g id="Group-21" transform="translate(36.782392, 0.195731)">
                <mask id="mask-10" fill="white">
                    <use xlink:href="#path-9"/>
                </mask>
                <g id="Clip-20"/>
                <path d="M14.7191676,8.34396503 C14.7191676,4.93134294 11.9417955,2.15366935 8.52887193,2.15366935 C5.11564684,2.15366935 2.33827475,4.93134294 2.33827475,8.34396503 C2.33827475,11.7565871 5.11564684,14.5110456 8.52887193,14.5110456 C11.9417955,14.5110456 14.7191676,11.7565871 14.7191676,8.34396503 M0.290219103,8.34396503 C0.290219103,3.80103812 3.98564352,0.105915199 8.52887193,0.105915199 C13.0714973,0.105915199 16.7669218,3.80103812 16.7669218,8.34396503 C16.7669218,12.8868919 13.0714973,16.5823164 8.52887193,16.5823164 C3.98564352,16.5823164 0.290219103,12.8868919 0.290219103,8.34396503" id="Fill-19" fill="#00AA6C" mask="url(#mask-10)"/>
            </g>
        </g>
    </g>
</svg>