<?xml version="1.0" encoding="UTF-8"?>
<svg width="119px" height="20px" viewBox="0 0 119 20" version="1.1" xmlns="http://www.w3.org/2000/svg" xmlns:xlink="http://www.w3.org/1999/xlink">
    <!-- Generator: Sketch 63.1 (92452) - https://sketch.com -->
    <title>Bubbles Only_3</title>
    <desc>Created with Sketch.</desc>
    <defs>
        <polygon id="path-1" points="0.2904 0.105824751 16.7668012 0.105824751 16.7668012 16.5821053 0.2904 16.5821053"/>
        <polygon id="path-3" points="0.145260299 0.105824751 16.6216615 0.105824751 16.6216615 16.5821053 0.145260299 16.5821053"/>
        <polygon id="path-5" points="0 0.105824751 16.4763409 0.105824751 16.4763409 16.5821053 0 16.5821053"/>
        <polygon id="path-7" points="0.279184385 0.105824751 16.755887 0.105824751 16.755887 16.5821053 0.279184385 16.5821053"/>
        <polygon id="path-9" points="0.133893937 0.105824751 16.6105966 0.105824751 16.6105966 16.5821053 0.133893937 16.5821053"/>
    </defs>
    <g id="Bubbles-Only_3" stroke="none" stroke-width="1" fill="none" fill-rule="evenodd">
        <g id="Group-2" transform="translate(14.000000, 1.000000)">
            <g id="Group-20">
                <path d="M74.9111703,8.52799759 C74.9111703,4.4071637 78.2631919,1.05514211 82.3837243,1.05514211 C86.5045582,1.05514211 89.8565798,4.4071637 89.8565798,8.52799759 C89.8565798,12.6488315 86.5045582,16.0008531 82.3837243,16.0008531 C78.2631919,16.0008531 74.9111703,12.6488315 74.9111703,8.52799759" id="Fill-1" fill="#FFFFFF"/>
                <path d="M56.3749552,8.52799759 C56.3749552,4.4071637 59.7269768,1.05514211 63.8478107,1.05514211 C67.9686446,1.05514211 71.3203647,4.4071637 71.3203647,8.52799759 C71.3203647,12.6488315 67.9686446,16.0008531 63.8478107,16.0008531 C59.7269768,16.0008531 56.3749552,12.6488315 56.3749552,8.52799759" id="Fill-3" fill="#FFFFFF"/>
                <g id="Group-7" transform="translate(36.782392, 0.195731)">
                    <mask id="mask-2" fill="white">
                        <use xlink:href="#path-1"/>
                    </mask>
                    <g id="Clip-6"/>
                    <path d="M0.2904,8.34405548 C0.2904,3.80143007 3.98582442,0.105704153 8.52875133,0.105704153 C13.0716782,0.105704153 16.7668012,3.80143007 16.7668012,8.34405548 C16.7668012,12.8869824 13.0716782,16.5821053 8.52875133,16.5821053 C3.98582442,16.5821053 0.2904,12.8869824 0.2904,8.34405548" id="Fill-5" fill="#00AA6C" mask="url(#mask-2)"/>
                </g>
                <g id="Group-10" transform="translate(18.391196, 0.195731)">
                    <mask id="mask-4" fill="white">
                        <use xlink:href="#path-3"/>
                    </mask>
                    <g id="Clip-9"/>
                    <path d="M0.145260299,8.34405548 C0.145260299,3.80143007 3.84068472,0.105704153 8.38331013,0.105704153 C12.9265385,0.105704153 16.6216615,3.80143007 16.6216615,8.34405548 C16.6216615,12.8869824 12.9265385,16.5821053 8.38331013,16.5821053 C3.84068472,16.5821053 0.145260299,12.8869824 0.145260299,8.34405548" id="Fill-8" fill="#00AA6C" mask="url(#mask-4)"/>
                </g>
                <g id="Group-13" transform="translate(0.000000, 0.195731)">
                    <mask id="mask-6" fill="white">
                        <use xlink:href="#path-5"/>
                    </mask>
                    <g id="Clip-12"/>
                    <path d="M-6.02990033e-05,8.34405548 C-6.02990033e-05,3.80143007 3.69566561,0.105704153 8.23829103,0.105704153 C12.7812179,0.105704153 16.4763409,3.80143007 16.4763409,8.34405548 C16.4763409,12.8869824 12.7812179,16.5821053 8.23829103,16.5821053 C3.69566561,16.5821053 -6.02990033e-05,12.8869824 -6.02990033e-05,8.34405548" id="Fill-11" fill="#00AA6C" mask="url(#mask-6)"/>
                </g>
                <g id="Group-16" transform="translate(73.866279, 0.195731)">
                    <mask id="mask-8" fill="white">
                        <use xlink:href="#path-7"/>
                    </mask>
                    <g id="Clip-15"/>
                    <path d="M14.7081329,8.34405548 C14.7081329,4.93113189 11.9304593,2.1537598 8.51783721,2.1537598 C5.10431063,2.1537598 2.32693854,4.93113189 2.32693854,8.34405548 C2.32693854,11.7572806 5.10431063,14.511136 8.51783721,14.511136 C11.9304593,14.511136 14.7081329,11.7572806 14.7081329,8.34405548 M0.279184385,8.34405548 C0.279184385,3.80143007 3.9746088,0.105704153 8.51783721,0.105704153 C13.0604626,0.105704153 16.755887,3.80143007 16.755887,8.34405548 C16.755887,12.8869824 13.0604626,16.5821053 8.51783721,16.5821053 C3.9746088,16.5821053 0.279184385,12.8869824 0.279184385,8.34405548" id="Fill-14" fill="#00AA6C" mask="url(#mask-8)"/>
                </g>
                <g id="Group-19" transform="translate(55.475083, 0.195731)">
                    <mask id="mask-10" fill="white">
                        <use xlink:href="#path-9"/>
                    </mask>
                    <g id="Clip-18"/>
                    <path d="M14.5628424,8.34405548 C14.5628424,4.93113189 11.7854703,2.1537598 8.37254676,2.1537598 C4.95932168,2.1537598 2.18194958,4.93113189 2.18194958,8.34405548 C2.18194958,11.7572806 4.95932168,14.511136 8.37254676,14.511136 C11.7854703,14.511136 14.5628424,11.7572806 14.5628424,8.34405548 M0.133893937,8.34405548 C0.133893937,3.80143007 3.82961985,0.105704153 8.37254676,0.105704153 C12.9151722,0.105704153 16.6105966,3.80143007 16.6105966,8.34405548 C16.6105966,12.8869824 12.9151722,16.5821053 8.37254676,16.5821053 C3.82961985,16.5821053 0.133893937,12.8869824 0.133893937,8.34405548" id="Fill-17" fill="#00AA6C" mask="url(#mask-10)"/>
                </g>
            </g>
        </g>
    </g>
</svg>