<?xml version="1.0" encoding="UTF-8"?>
<svg width="119px" height="20px" viewBox="0 0 119 20" version="1.1" xmlns="http://www.w3.org/2000/svg" xmlns:xlink="http://www.w3.org/1999/xlink">
    <!-- Generator: Sketch 63.1 (92452) - https://sketch.com -->
    <title>Bubbles Only_4</title>
    <desc>Created with Sketch.</desc>
    <defs>
        <polygon id="path-1" points="0.2904 0.1058549 16.7668012 0.1058549 16.7668012 16.5822259 0.2904 16.5822259"/>
        <polygon id="path-3" points="0.145260299 0.1058549 16.6216615 0.1058549 16.6216615 16.5822259 0.145260299 16.5822259"/>
        <polygon id="path-5" points="0 0.1058549 16.4763409 0.1058549 16.4763409 16.5822259 0 16.5822259"/>
        <polygon id="path-7" points="0.279184385 0.1058549 16.755887 0.1058549 16.755887 16.5822259 0.279184385 16.5822259"/>
    </defs>
    <g id="Bubbles-Only_4" stroke="none" stroke-width="1" fill="none" fill-rule="evenodd">
        <g id="Group-17" transform="translate(14.000000, 1.000000)">
            <path d="M74.9111703,8.55154435 C74.9111703,4.43071047 78.2631919,1.07899037 82.3837243,1.07899037 C86.5045582,1.07899037 89.8565798,4.43071047 89.8565798,8.55154435 C89.8565798,12.6723782 86.5045582,16.0243998 82.3837243,16.0243998 C78.2631919,16.0243998 74.9111703,12.6723782 74.9111703,8.55154435" id="Fill-1" fill="#FFFFFF"/>
            <g id="Group-5" transform="translate(36.782392, 0.207640)">
                <mask id="mask-2" fill="white">
                    <use xlink:href="#path-1"/>
                </mask>
                <g id="Clip-4"/>
                <path d="M0.2904,8.34390473 C0.2904,3.80097782 3.98582442,0.1058549 8.52875133,0.1058549 C13.0716782,0.1058549 16.7668012,3.80097782 16.7668012,8.34390473 C16.7668012,12.8868316 13.0716782,16.5822561 8.52875133,16.5822561 C3.98582442,16.5822561 0.2904,12.8868316 0.2904,8.34390473" id="Fill-3" fill="#00AA6C" mask="url(#mask-2)"/>
            </g>
            <g id="Group-8" transform="translate(18.391196, 0.207640)">
                <mask id="mask-4" fill="white">
                    <use xlink:href="#path-3"/>
                </mask>
                <g id="Clip-7"/>
                <path d="M0.145260299,8.34390473 C0.145260299,3.80097782 3.84068472,0.1058549 8.38331013,0.1058549 C12.9265385,0.1058549 16.6216615,3.80097782 16.6216615,8.34390473 C16.6216615,12.8868316 12.9265385,16.5822561 8.38331013,16.5822561 C3.84068472,16.5822561 0.145260299,12.8868316 0.145260299,8.34390473" id="Fill-6" fill="#00AA6C" mask="url(#mask-4)"/>
            </g>
            <g id="Group-11" transform="translate(0.000000, 0.207640)">
                <mask id="mask-6" fill="white">
                    <use xlink:href="#path-5"/>
                </mask>
                <g id="Clip-10"/>
                <path d="M-6.02990033e-05,8.34390473 C-6.02990033e-05,3.80097782 3.69566561,0.1058549 8.23829103,0.1058549 C12.7812179,0.1058549 16.4763409,3.80097782 16.4763409,8.34390473 C16.4763409,12.8868316 12.7812179,16.5822561 8.23829103,16.5822561 C3.69566561,16.5822561 -6.02990033e-05,12.8868316 -6.02990033e-05,8.34390473" id="Fill-9" fill="#00AA6C" mask="url(#mask-6)"/>
            </g>
            <g id="Group-14" transform="translate(73.866279, 0.207640)">
                <mask id="mask-8" fill="white">
                    <use xlink:href="#path-7"/>
                </mask>
                <g id="Clip-13"/>
                <path d="M14.7081329,8.34390473 C14.7081329,4.93128264 11.9304593,2.15360905 8.51783721,2.15360905 C5.10431063,2.15360905 2.32693854,4.93128264 2.32693854,8.34390473 C2.32693854,11.7568283 5.10431063,14.5109853 8.51783721,14.5109853 C11.9304593,14.5109853 14.7081329,11.7568283 14.7081329,8.34390473 M0.279184385,8.34390473 C0.279184385,3.80097782 3.9746088,0.1058549 8.51783721,0.1058549 C13.0604626,0.1058549 16.755887,3.80097782 16.755887,8.34390473 C16.755887,12.8868316 13.0604626,16.5822561 8.51783721,16.5822561 C3.9746088,16.5822561 0.279184385,12.8868316 0.279184385,8.34390473" id="Fill-12" fill="#00AA6C" mask="url(#mask-8)"/>
            </g>
            <path d="M55.6091579,8.53978605 C55.6091579,3.99685914 59.3048838,0.301434718 63.8475092,0.301434718 C68.3904361,0.301434718 72.0855591,3.99685914 72.0855591,8.53978605 C72.0855591,13.082713 68.3904361,16.7781374 63.8475092,16.7781374 C59.3048838,16.7781374 55.6091579,13.082713 55.6091579,8.53978605" id="Fill-15" fill="#00AA6C"/>
        </g>
    </g>
</svg>