<?xml version="1.0" encoding="UTF-8"?>
<svg width="119px" height="20px" viewBox="0 0 119 20" version="1.1" xmlns="http://www.w3.org/2000/svg" xmlns:xlink="http://www.w3.org/1999/xlink">
    <!-- Generator: Sketch 63.1 (92452) - https://sketch.com -->
    <title>Bubbles Only_4.5</title>
    <desc>Created with Sketch.</desc>
    <defs>
        <polygon id="path-1" points="0.2904 0.105824751 16.7668012 0.105824751 16.7668012 16.5822259 0.2904 16.5822259"/>
        <polygon id="path-3" points="0.134074834 0.105824751 16.610476 0.105824751 16.610476 16.5822259 0.134074834 16.5822259"/>
        <polygon id="path-5" points="0.145260299 0.105824751 16.6216615 0.105824751 16.6216615 16.5822259 0.145260299 16.5822259"/>
        <polygon id="path-7" points="0 0.105824751 16.4763409 0.105824751 16.4763409 16.5822259 0 16.5822259"/>
        <polygon id="path-9" points="0.279184385 0.105824751 16.755887 0.105824751 16.755887 16.5822259 0.279184385 16.5822259"/>
    </defs>
    <g id="Bubbles-Only_4.5" stroke="none" stroke-width="1" fill="none" fill-rule="evenodd">
        <g id="Group-18" transform="translate(14.000000, 1.000000)">
            <path d="M74.9111703,8.52805789 C74.9111703,4.407224 78.2631919,1.05520241 82.3837243,1.05520241 C86.5045582,1.05520241 89.8565798,4.407224 89.8565798,8.52805789 C89.8565798,12.6488918 86.5045582,16.0009134 82.3837243,16.0009134 C78.2631919,16.0009134 74.9111703,12.6488918 74.9111703,8.52805789" id="Fill-1" fill="#FFFFFF"/>
            <g id="Group-5" transform="translate(36.782392, 0.195731)">
                <mask id="mask-2" fill="white">
                    <use xlink:href="#path-1"/>
                </mask>
                <g id="Clip-4"/>
                <path d="M0.2904,8.34393488 C0.2904,3.80100797 3.98582442,0.105583555 8.52875133,0.105583555 C13.0716782,0.105583555 16.7668012,3.80100797 16.7668012,8.34393488 C16.7668012,12.8868618 13.0716782,16.5822862 8.52875133,16.5822862 C3.98582442,16.5822862 0.2904,12.8868618 0.2904,8.34393488" id="Fill-3" fill="#00AA6C" mask="url(#mask-2)"/>
            </g>
            <g id="Group-8" transform="translate(55.475083, 0.195731)">
                <mask id="mask-4" fill="white">
                    <use xlink:href="#path-3"/>
                </mask>
                <g id="Clip-7"/>
                <path d="M0.134074834,8.34393488 C0.134074834,3.80100797 3.82980075,0.105583555 8.37242616,0.105583555 C12.9153531,0.105583555 16.610476,3.80100797 16.610476,8.34393488 C16.610476,12.8868618 12.9153531,16.5822862 8.37242616,16.5822862 C3.82980075,16.5822862 0.134074834,12.8868618 0.134074834,8.34393488" id="Fill-6" fill="#00AA6C" mask="url(#mask-4)"/>
            </g>
            <g id="Group-11" transform="translate(18.391196, 0.195731)">
                <mask id="mask-6" fill="white">
                    <use xlink:href="#path-5"/>
                </mask>
                <g id="Clip-10"/>
                <path d="M0.145260299,8.34393488 C0.145260299,3.80100797 3.84068472,0.105583555 8.38331013,0.105583555 C12.9265385,0.105583555 16.6216615,3.80100797 16.6216615,8.34393488 C16.6216615,12.8868618 12.9265385,16.5822862 8.38331013,16.5822862 C3.84068472,16.5822862 0.145260299,12.8868618 0.145260299,8.34393488" id="Fill-9" fill="#00AA6C" mask="url(#mask-6)"/>
            </g>
            <g id="Group-14" transform="translate(0.000000, 0.195731)">
                <mask id="mask-8" fill="white">
                    <use xlink:href="#path-7"/>
                </mask>
                <g id="Clip-13"/>
                <path d="M-6.02990033e-05,8.34393488 C-6.02990033e-05,3.80100797 3.69566561,0.105583555 8.23829103,0.105583555 C12.7812179,0.105583555 16.4763409,3.80100797 16.4763409,8.34393488 C16.4763409,12.8868618 12.7812179,16.5822862 8.23829103,16.5822862 C3.69566561,16.5822862 -6.02990033e-05,12.8868618 -6.02990033e-05,8.34393488" id="Fill-12" fill="#00AA6C" mask="url(#mask-8)"/>
            </g>
            <g id="Group-17" transform="translate(73.866279, 0.195731)">
                <mask id="mask-10" fill="white">
                    <use xlink:href="#path-9"/>
                </mask>
                <g id="Clip-16"/>
                <path d="M14.7081329,8.34393488 C14.7081329,4.93131279 11.9304593,2.1536392 8.51783721,2.1536392 L8.51783721,14.5110154 C11.9304593,14.5110154 14.7081329,11.7568585 14.7081329,8.34393488 M0.279184385,8.34393488 C0.279184385,3.80100797 3.9746088,0.105583555 8.51783721,0.105583555 C13.0604626,0.105583555 16.755887,3.80100797 16.755887,8.34393488 C16.755887,12.8868618 13.0604626,16.5822862 8.51783721,16.5822862 C3.9746088,16.5822862 0.279184385,12.8868618 0.279184385,8.34393488" id="Fill-15" fill="#00AA6C" mask="url(#mask-10)"/>
            </g>
        </g>
    </g>
</svg>