<?xml version="1.0" encoding="UTF-8"?>
<svg width="119px" height="20px" viewBox="0 0 119 20" version="1.1" xmlns="http://www.w3.org/2000/svg" xmlns:xlink="http://www.w3.org/1999/xlink">
    <!-- Generator: Sketch 63.1 (92452) - https://sketch.com -->
    <title>Bubbles Only_0</title>
    <desc>Created with Sketch.</desc>
    <defs>
        <polygon id="path-1" points="0.278205469 0.105396783 16.6882744 0.105396783 16.6882744 16.5151354 0.278205469 16.5151354"/>
        <polygon id="path-3" points="0.133502592 0.105396783 16.5435715 0.105396783 16.5435715 16.5151354 0.133502592 16.5151354"/>
        <polygon id="path-5" points="0.289195561 0.105396783 16.6992645 0.105396783 16.6992645 16.5151354 0.289195561 16.5151354"/>
        <polygon id="path-7" points="0.144642822 0.105396783 16.5547118 0.105396783 16.5547118 16.5151354 0.144642822 16.5151354"/>
        <polygon id="path-9" points="0 0.105396783 16.4099789 0.105396783 16.4099789 16.5151354 0 16.5151354"/>
    </defs>
    <g id="Bubbles-Only_0" stroke="none" stroke-width="1" fill="none" fill-rule="evenodd">
        <g id="Group-27" transform="translate(14.000000, 1.000000)">
            <g id="Group-26">
                <path d="M74.6083409,8.49359945 C74.6083409,4.3894307 77.9468065,1.05096507 82.050675,1.05096507 C86.1548437,1.05096507 89.4933093,4.3894307 89.4933093,8.49359945 C89.4933093,12.5977682 86.1548437,15.9359335 82.050675,15.9359335 C77.9468065,15.9359335 74.6083409,12.5977682 74.6083409,8.49359945" id="Fill-1" fill="#FFFFFF"/>
                <path d="M56.1471184,8.49359945 C56.1471184,4.3894307 59.485584,1.05096507 63.5897528,1.05096507 C67.6939215,1.05096507 71.0320869,4.3894307 71.0320869,8.49359945 C71.0320869,12.5977682 67.6939215,15.9359335 63.5897528,15.9359335 C59.485584,15.9359335 56.1471184,12.5977682 56.1471184,8.49359945" id="Fill-3" fill="#FFFFFF"/>
                <path d="M37.6854456,8.49359945 C37.6854456,4.3894307 41.0239112,1.05096507 45.1280799,1.05096507 C49.2322487,1.05096507 52.570414,4.3894307 52.570414,8.49359945 C52.570414,12.5977682 49.2322487,15.9359335 45.1280799,15.9359335 C41.0239112,15.9359335 37.6854456,12.5977682 37.6854456,8.49359945" id="Fill-5" fill="#FFFFFF"/>
                <path d="M19.2241931,8.49359945 C19.2241931,4.3894307 22.562959,1.05096507 26.6668274,1.05096507 C30.7709962,1.05096507 34.1091615,4.3894307 34.1091615,8.49359945 C34.1091615,12.5977682 30.7709962,15.9359335 26.6668274,15.9359335 C22.562959,15.9359335 19.2241931,12.5977682 19.2241931,8.49359945" id="Fill-7" fill="#FFFFFF"/>
                <path d="M0.76279045,8.49359945 C0.76279045,4.3894307 4.10125608,1.05096507 8.20542483,1.05096507 C12.3095936,1.05096507 15.6477589,4.3894307 15.6477589,8.49359945 C15.6477589,12.5977682 12.3095936,15.9359335 8.20542483,15.9359335 C4.10125608,15.9359335 0.76279045,12.5977682 0.76279045,8.49359945" id="Fill-9" fill="#FFFFFF"/>
                <g id="Group-13" transform="translate(73.567555, 0.194939)">
                    <mask id="mask-2" fill="white">
                        <use xlink:href="#path-1"/>
                    </mask>
                    <g id="Clip-12"/>
                    <path d="M14.6488016,8.31010095 C14.6488016,4.9112799 11.8823613,2.14513983 8.48354021,2.14513983 C5.08381834,2.14513983 2.31767826,4.9112799 2.31767826,8.31010095 C2.31767826,11.7092223 5.08381834,14.4522411 8.48354021,14.4522411 C11.8823613,14.4522411 14.6488016,11.7092223 14.6488016,8.31010095 M0.278205469,8.31010095 C0.278205469,3.78584644 3.95868516,0.105366756 8.48354021,0.105366756 C13.0077947,0.105366756 16.6882744,3.78584644 16.6882744,8.31010095 C16.6882744,12.8346557 13.0077947,16.5151354 8.48354021,16.5151354 C3.95868516,16.5151354 0.278205469,12.8346557 0.278205469,8.31010095" id="Fill-11" fill="#00AA6C" mask="url(#mask-2)"/>
                </g>
                <g id="Group-16" transform="translate(55.250735, 0.194939)">
                    <mask id="mask-4" fill="white">
                        <use xlink:href="#path-3"/>
                    </mask>
                    <g id="Clip-15"/>
                    <path d="M14.5040987,8.31010095 C14.5040987,4.9112799 11.7379587,2.14513983 8.33883733,2.14513983 C4.93941574,2.14513983 2.17327566,4.9112799 2.17327566,8.31010095 C2.17327566,11.7092223 4.93941574,14.4522411 8.33883733,14.4522411 C11.7379587,14.4522411 14.5040987,11.7092223 14.5040987,8.31010095 M0.133502592,8.31010095 C0.133502592,3.78584644 3.81428256,0.105366756 8.33883733,0.105366756 C12.8630918,0.105366756 16.5435715,3.78584644 16.5435715,8.31010095 C16.5435715,12.8346557 12.8630918,16.5151354 8.33883733,16.5151354 C3.81428256,16.5151354 0.133502592,12.8346557 0.133502592,8.31010095" id="Fill-14" fill="#00AA6C" mask="url(#mask-4)"/>
                </g>
                <g id="Group-19" transform="translate(36.633640, 0.194939)">
                    <mask id="mask-6" fill="white">
                        <use xlink:href="#path-5"/>
                    </mask>
                    <g id="Clip-18"/>
                    <path d="M14.6597917,8.31010095 C14.6597917,4.9112799 11.8936516,2.14513983 8.4945303,2.14513983 C5.0951087,2.14513983 2.32896863,4.9112799 2.32896863,8.31010095 C2.32896863,11.7092223 5.0951087,14.4522411 8.4945303,14.4522411 C11.8936516,14.4522411 14.6597917,11.7092223 14.6597917,8.31010095 M0.289195561,8.31010095 C0.289195561,3.78584644 3.96967525,0.105366756 8.4945303,0.105366756 C13.0187848,0.105366756 16.6992645,3.78584644 16.6992645,8.31010095 C16.6992645,12.8346557 13.0187848,16.5151354 8.4945303,16.5151354 C3.96967525,16.5151354 0.289195561,12.8346557 0.289195561,8.31010095" id="Fill-17" fill="#00AA6C" mask="url(#mask-6)"/>
                </g>
                <g id="Group-22" transform="translate(18.316820, 0.194939)">
                    <mask id="mask-8" fill="white">
                        <use xlink:href="#path-7"/>
                    </mask>
                    <g id="Clip-21"/>
                    <path d="M14.515239,8.31010095 C14.515239,4.9112799 11.7490989,2.14513983 8.34997756,2.14513983 C4.95055597,2.14513983 2.18441589,4.9112799 2.18441589,8.31010095 C2.18441589,11.7092223 4.95055597,14.4522411 8.34997756,14.4522411 C11.7490989,14.4522411 14.515239,11.7092223 14.515239,8.31010095 M0.144642822,8.31010095 C0.144642822,3.78584644 3.82512251,0.105366756 8.34997756,0.105366756 C12.8742321,0.105366756 16.5547118,3.78584644 16.5547118,8.31010095 C16.5547118,12.8346557 12.8742321,16.5151354 8.34997756,16.5151354 C3.82512251,16.5151354 0.144642822,12.8346557 0.144642822,8.31010095" id="Fill-20" fill="#00AA6C" mask="url(#mask-8)"/>
                </g>
                <g id="Group-25" transform="translate(0.000000, 0.194939)">
                    <mask id="mask-10" fill="white">
                        <use xlink:href="#path-9"/>
                    </mask>
                    <g id="Clip-24"/>
                    <path d="M14.3705061,8.31010095 C14.3705061,4.9112799 11.604366,2.14513983 8.20524466,2.14513983 C4.80582306,2.14513983 2.03968299,4.9112799 2.03968299,8.31010095 C2.03968299,11.7092223 4.80582306,14.4522411 8.20524466,14.4522411 C11.604366,14.4522411 14.3705061,11.7092223 14.3705061,8.31010095 M-9.00827206e-05,8.31010095 C-9.00827206e-05,3.78584644 3.68068988,0.105366756 8.20524466,0.105366756 C12.7294992,0.105366756 16.4099789,3.78584644 16.4099789,8.31010095 C16.4099789,12.8346557 12.7294992,16.5151354 8.20524466,16.5151354 C3.68068988,16.5151354 -9.00827206e-05,12.8346557 -9.00827206e-05,8.31010095" id="Fill-23" fill="#00AA6C" mask="url(#mask-10)"/>
                </g>
            </g>
        </g>
    </g>
</svg>