<?xml version="1.0" encoding="UTF-8"?>
<svg width="119px" height="20px" viewBox="0 0 119 20" version="1.1" xmlns="http://www.w3.org/2000/svg" xmlns:xlink="http://www.w3.org/1999/xlink">
    <!-- Generator: Sketch 63.1 (92452) - https://sketch.com -->
    <title>Bubbles Only_.5</title>
    <desc>Created with Sketch.</desc>
    <defs>
        <polygon id="path-1" points="0.279335133 0.1058549 16.7560378 0.1058549 16.7560378 16.5822259 0.279335133 16.5822259"/>
        <polygon id="path-3" points="0.134044684 0.1058549 16.6107473 0.1058549 16.6107473 16.5822259 0.134044684 16.5822259"/>
        <polygon id="path-5" points="0.29036985 0.1058549 16.7670725 0.1058549 16.7670725 16.5822259 0.29036985 16.5822259"/>
        <polygon id="path-7" points="0.14523015 0.1058549 16.6219328 0.1058549 16.6219328 16.5822259 0.14523015 16.5822259"/>
        <polygon id="path-9" points="0 0.1058549 16.4766122 0.1058549 16.4766122 16.5822259 0 16.5822259"/>
    </defs>
    <g id="Bubbles-Only_.5" stroke="none" stroke-width="1" fill="none" fill-rule="evenodd">
        <g id="Group-2" transform="translate(14.000000, 1.000000)">
            <g id="Group-26">
                <path d="M74.9112909,8.5396353 C74.9112909,4.41880141 78.2633125,1.06708131 82.3838449,1.06708131 C86.5046788,1.06708131 89.8567004,4.41880141 89.8567004,8.5396353 C89.8567004,12.6607707 86.5046788,16.0124908 82.3838449,16.0124908 C78.2633125,16.0124908 74.9112909,12.6607707 74.9112909,8.5396353" id="Fill-1" fill="#FFFFFF"/>
                <path d="M56.375106,8.5396353 C56.375106,4.41880141 59.7271276,1.06708131 63.8479615,1.06708131 C67.9687953,1.06708131 71.3205154,4.41880141 71.3205154,8.5396353 C71.3205154,12.6607707 67.9687953,16.0124908 63.8479615,16.0124908 C59.7271276,16.0124908 56.375106,12.6607707 56.375106,8.5396353" id="Fill-3" fill="#FFFFFF"/>
                <path d="M37.8384688,8.5396353 C37.8384688,4.41880141 41.1904904,1.06708131 45.3113243,1.06708131 C49.4321581,1.06708131 52.7838782,4.41880141 52.7838782,8.5396353 C52.7838782,12.6607707 49.4321581,16.0124908 45.3113243,16.0124908 C41.1904904,16.0124908 37.8384688,12.6607707 37.8384688,8.5396353" id="Fill-5" fill="#FFFFFF"/>
                <path d="M19.3022537,8.5396353 C19.3022537,4.41880141 22.6545767,1.06708131 26.7751091,1.06708131 C30.895943,1.06708131 34.2476631,4.41880141 34.2476631,8.5396353 C34.2476631,12.6607707 30.895943,16.0124908 26.7751091,16.0124908 C22.6545767,16.0124908 19.3022537,12.6607707 19.3022537,8.5396353" id="Fill-7" fill="#FFFFFF"/>
                <path d="M0.765887791,8.5396353 C0.765887791,4.41880141 4.11790939,1.06708131 8.23874327,1.06708131 C12.3595772,1.06708131 15.7112973,4.41880141 15.7112973,8.5396353 C15.7112973,12.6607707 12.3595772,16.0124908 8.23874327,16.0124908 C4.11790939,16.0124908 0.765887791,12.6607707 0.765887791,8.5396353" id="Fill-9" fill="#FFFFFF"/>
                <g id="Group-13" transform="translate(73.866279, 0.195731)">
                    <mask id="mask-2" fill="white">
                        <use xlink:href="#path-1"/>
                    </mask>
                    <g id="Clip-12"/>
                    <path d="M14.7082836,8.34390473 C14.7082836,4.93128264 11.93061,2.15360905 8.51798796,2.15360905 C5.10446138,2.15360905 2.32708929,4.93128264 2.32708929,8.34390473 C2.32708929,11.7568283 5.10446138,14.5109853 8.51798796,14.5109853 C11.93061,14.5109853 14.7082836,11.7568283 14.7082836,8.34390473 M0.279335133,8.34390473 C0.279335133,3.80097782 3.97475955,0.1058549 8.51798796,0.1058549 C13.0606134,0.1058549 16.7560378,3.80097782 16.7560378,8.34390473 C16.7560378,12.8868316 13.0606134,16.5822561 8.51798796,16.5822561 C3.97475955,16.5822561 0.279335133,12.8868316 0.279335133,8.34390473" id="Fill-11" fill="#00AA6C" mask="url(#mask-2)"/>
                </g>
                <g id="Group-16" transform="translate(55.475083, 0.195731)">
                    <mask id="mask-4" fill="white">
                        <use xlink:href="#path-3"/>
                    </mask>
                    <g id="Clip-15"/>
                    <path d="M14.5629932,8.34390473 C14.5629932,4.93128264 11.7856211,2.15360905 8.37269751,2.15360905 C4.95947243,2.15360905 2.18210033,4.93128264 2.18210033,8.34390473 C2.18210033,11.7568283 4.95947243,14.5109853 8.37269751,14.5109853 C11.7856211,14.5109853 14.5629932,11.7568283 14.5629932,8.34390473 M0.134044684,8.34390473 C0.134044684,3.80097782 3.8297706,0.1058549 8.37269751,0.1058549 C12.9153229,0.1058549 16.6107473,3.80097782 16.6107473,8.34390473 C16.6107473,12.8868316 12.9153229,16.5822561 8.37269751,16.5822561 C3.8297706,16.5822561 0.134044684,12.8868316 0.134044684,8.34390473" id="Fill-14" fill="#00AA6C" mask="url(#mask-4)"/>
                </g>
                <g id="Group-19" transform="translate(36.782392, 0.195731)">
                    <mask id="mask-6" fill="white">
                        <use xlink:href="#path-5"/>
                    </mask>
                    <g id="Clip-18"/>
                    <path d="M14.7193184,8.34390473 C14.7193184,4.93128264 11.9419463,2.15360905 8.52902267,2.15360905 C5.11579759,2.15360905 2.3384255,4.93128264 2.3384255,8.34390473 C2.3384255,11.7568283 5.11579759,14.5109853 8.52902267,14.5109853 C11.9419463,14.5109853 14.7193184,11.7568283 14.7193184,8.34390473 M0.29036985,8.34390473 C0.29036985,3.80097782 3.98579427,0.1058549 8.52902267,0.1058549 C13.0716481,0.1058549 16.7670725,3.80097782 16.7670725,8.34390473 C16.7670725,12.8868316 13.0716481,16.5822561 8.52902267,16.5822561 C3.98579427,16.5822561 0.29036985,12.8868316 0.29036985,8.34390473" id="Fill-17" fill="#00AA6C" mask="url(#mask-6)"/>
                </g>
                <g id="Group-22" transform="translate(18.391196, 0.195731)">
                    <mask id="mask-8" fill="white">
                        <use xlink:href="#path-7"/>
                    </mask>
                    <g id="Clip-21"/>
                    <path d="M14.5741787,8.34390473 C14.5741787,4.93128264 11.7968066,2.15360905 8.38388297,2.15360905 C4.97065789,2.15360905 2.1932858,4.93128264 2.1932858,8.34390473 C2.1932858,11.7568283 4.97065789,14.5109853 8.38388297,14.5109853 C11.7968066,14.5109853 14.5741787,11.7568283 14.5741787,8.34390473 M0.14523015,8.34390473 C0.14523015,3.80097782 3.84065457,0.1058549 8.38388297,0.1058549 C12.9265084,0.1058549 16.6219328,3.80097782 16.6219328,8.34390473 C16.6219328,12.8868316 12.9265084,16.5822561 8.38388297,16.5822561 C3.84065457,16.5822561 0.14523015,12.8868316 0.14523015,8.34390473" id="Fill-20" fill="#00AA6C" mask="url(#mask-8)"/>
                </g>
                <g id="Group-25" transform="translate(0.000000, 0.195731)">
                    <mask id="mask-10" fill="white">
                        <use xlink:href="#path-9"/>
                    </mask>
                    <g id="Clip-24"/>
                    <path d="M14.4288581,8.34390473 C14.4288581,4.93128264 11.651486,2.15360905 8.23856238,2.15360905 L8.23856238,14.5109853 C11.651486,14.5109853 14.4288581,11.7568283 14.4288581,8.34390473 M-9.0448505e-05,8.34390473 C-9.0448505e-05,3.80097782 3.69563547,0.1058549 8.23856238,0.1058549 C12.7811878,0.1058549 16.4766122,3.80097782 16.4766122,8.34390473 C16.4766122,12.8868316 12.7811878,16.5822561 8.23856238,16.5822561 C3.69563547,16.5822561 -9.0448505e-05,12.8868316 -9.0448505e-05,8.34390473" id="Fill-23" fill="#00AA6C" mask="url(#mask-10)"/>
                </g>
            </g>
        </g>
    </g>
</svg>