<?xml version="1.0" encoding="UTF-8"?>
<svg width="119px" height="20px" viewBox="0 0 119 20" version="1.1" xmlns="http://www.w3.org/2000/svg" xmlns:xlink="http://www.w3.org/1999/xlink">
    <!-- Generator: Sketch 63.1 (92452) - https://sketch.com -->
    <title>Bubbles Only_5</title>
    <desc>Created with Sketch.</desc>
    <defs>
        <polygon id="path-1" points="0.2904 0.105824751 16.7668012 0.105824751 16.7668012 16.5822259 0.2904 16.5822259"/>
        <polygon id="path-3" points="0.134074834 0.105824751 16.610476 0.105824751 16.610476 16.5822259 0.134074834 16.5822259"/>
        <polygon id="path-5" points="0.279365282 0.105824751 16.7557664 0.105824751 16.7557664 16.5822259 0.279365282 16.5822259"/>
        <polygon id="path-7" points="0.145260299 0.105824751 16.6216615 0.105824751 16.6216615 16.5822259 0.145260299 16.5822259"/>
        <polygon id="path-9" points="0 0.105824751 16.4763409 0.105824751 16.4763409 16.5822259 0 16.5822259"/>
    </defs>
    <g id="Bubbles-Only_5" stroke="none" stroke-width="1" fill="none" fill-rule="evenodd">
        <g id="Group-16" transform="translate(14.000000, 1.000000)">
            <g id="Group-3" transform="translate(36.782392, 0.195761)">
                <mask id="mask-2" fill="white">
                    <use xlink:href="#path-1"/>
                </mask>
                <g id="Clip-2"/>
                <path d="M0.2904,8.34396503 C0.2904,3.80103812 3.98582442,0.105613704 8.52875133,0.105613704 C13.0716782,0.105613704 16.7668012,3.80103812 16.7668012,8.34396503 C16.7668012,12.8868919 13.0716782,16.5823164 8.52875133,16.5823164 C3.98582442,16.5823164 0.2904,12.8868919 0.2904,8.34396503" id="Fill-1" fill="#00AA6C" mask="url(#mask-2)"/>
            </g>
            <g id="Group-6" transform="translate(55.475083, 0.195761)">
                <mask id="mask-4" fill="white">
                    <use xlink:href="#path-3"/>
                </mask>
                <g id="Clip-5"/>
                <path d="M0.134074834,8.34396503 C0.134074834,3.80103812 3.82980075,0.105613704 8.37242616,0.105613704 C12.9153531,0.105613704 16.610476,3.80103812 16.610476,8.34396503 C16.610476,12.8868919 12.9153531,16.5823164 8.37242616,16.5823164 C3.82980075,16.5823164 0.134074834,12.8868919 0.134074834,8.34396503" id="Fill-4" fill="#00AA6C" mask="url(#mask-4)"/>
            </g>
            <g id="Group-9" transform="translate(73.866279, 0.195761)">
                <mask id="mask-6" fill="white">
                    <use xlink:href="#path-5"/>
                </mask>
                <g id="Clip-8"/>
                <path d="M0.279365282,8.34396503 C0.279365282,3.80103812 3.9747897,0.105613704 8.51741512,0.105613704 C13.0606435,0.105613704 16.7557664,3.80103812 16.7557664,8.34396503 C16.7557664,12.8868919 13.0606435,16.5823164 8.51741512,16.5823164 C3.9747897,16.5823164 0.279365282,12.8868919 0.279365282,8.34396503" id="Fill-7" fill="#00AA6C" mask="url(#mask-6)"/>
            </g>
            <g id="Group-12" transform="translate(18.391196, 0.195761)">
                <mask id="mask-8" fill="white">
                    <use xlink:href="#path-7"/>
                </mask>
                <g id="Clip-11"/>
                <path d="M0.145260299,8.34396503 C0.145260299,3.80103812 3.84068472,0.105613704 8.38331013,0.105613704 C12.9265385,0.105613704 16.6216615,3.80103812 16.6216615,8.34396503 C16.6216615,12.8868919 12.9265385,16.5823164 8.38331013,16.5823164 C3.84068472,16.5823164 0.145260299,12.8868919 0.145260299,8.34396503" id="Fill-10" fill="#00AA6C" mask="url(#mask-8)"/>
            </g>
            <g id="Group-15" transform="translate(0.000000, 0.195761)">
                <mask id="mask-10" fill="white">
                    <use xlink:href="#path-9"/>
                </mask>
                <g id="Clip-14"/>
                <path d="M-6.02990033e-05,8.34396503 C-6.02990033e-05,3.80103812 3.69566561,0.105613704 8.23829103,0.105613704 C12.7812179,0.105613704 16.4763409,3.80103812 16.4763409,8.34396503 C16.4763409,12.8868919 12.7812179,16.5823164 8.23829103,16.5823164 C3.69566561,16.5823164 -6.02990033e-05,12.8868919 -6.02990033e-05,8.34396503" id="Fill-13" fill="#00AA6C" mask="url(#mask-10)"/>
            </g>
        </g>
    </g>
</svg>