<svg width="12" height="13" viewBox="0 0 12 13" fill="none" xmlns="http://www.w3.org/2000/svg">
    <path fill-rule="evenodd" clip-rule="evenodd"
        d="M11.8145 0C12.0606 2.10249 12.0606 4.22651 11.8145 6.329C11.4445 9.592 9.16846 12.237 5.90646 12.237C5.15672 12.2375 4.41376 12.095 3.71746 11.817C3.59035 10.1985 3.9106 8.57616 4.6432 7.12735C5.37581 5.67854 6.49258 4.459 7.87146 3.602C6.34699 4.1942 5.01593 5.19634 4.02537 6.49767C3.0348 7.79901 2.42331 9.34888 2.25846 10.976C1.29231 10.2171 0.5868 9.17582 0.240108 7.99717C-0.106584 6.81852 -0.0772051 5.56111 0.324155 4.39994C0.725515 3.23877 1.47889 2.2316 2.47942 1.51862C3.47996 0.805645 4.67788 0.422321 5.90646 0.422C7.75246 0.422 8.12146 0.79 9.22946 0.79C10.3365 0.79 10.9455 0.503 11.8145 0Z"
        fill="#38A870" />
</svg>
    