<svg xmlns="http://www.w3.org/2000/svg" viewBox="0 0 18 18" aria-label="Android logo">
    <path fill-rule="evenodd" fill="currentColor" d="M15 6.75c-.414 0-.75.336-.75.75V12c0 .414.336.75.75.75s.75-.336.75-.75V7.5c0-.414-.336-.75-.75-.75zm-10.5 0v6c0 .414.336.75.75.75H6v2.625c0 .621.504 1.125 1.125 1.125s1.125-.504 1.125-1.125V13.5h1.5v2.625c0 .621.504 1.125 1.125 1.125S12 16.746 12 16.125V13.5h.75c.414 0 .75-.336.75-.75v-6h-9zm-1.5 0c-.414 0-.75.336-.75.75V12c0 .414.336.75.75.75s.75-.336.75-.75V7.5c0-.414-.336-.75-.75-.75zm7.5-2.25h.75v-.75h-.75v.75zm-3.75 0h.75v-.75h-.75v.75zM5.625.75c-.096 0-.192.037-.266.11-.145.146-.145.384 0 .53l.984.983C5.227 3.192 4.5 4.51 4.5 6h9c0-1.49-.727-2.808-1.843-3.627l.983-.983c.147-.146.147-.383 0-.53-.147-.146-.383-.146-.53 0l-1.112 1.112C10.395 1.672 9.718 1.5 9 1.5c-.719 0-1.396.172-1.998.472L5.891.859C5.817.787 5.72.75 5.625.75z"/>
</svg>
