<svg width="32" height="33" viewBox="0 0 32 33" xmlns="http://www.w3.org/2000/svg">
    <g fill="none" fill-rule="evenodd">
        <path d="M0 .61h32v32H0z"/>
        <path d="M16 3.276c7.364 0 13.333 5.97 13.333 13.334 0 7.363-5.97 13.333-13.333 13.333-7.364 0-13.333-5.97-13.333-13.333C2.667 9.246 8.637 3.276 16 3.276zm0 2c-6.26 0-11.333 5.075-11.333 11.334 0 6.259 5.074 11.333 11.333 11.333 6.26 0 11.333-5.074 11.333-11.333 0-6.26-5.074-11.334-11.333-11.334zm-4.707 6.627a1 1 0 0 1 1.414 0L16 15.195l3.293-3.292a1 1 0 1 1 1.414 1.414l-3.293 3.293 3.293 3.293a1 1 0 1 1-1.414 1.414L16 18.024l-3.293 3.293a1 1 0 0 1-1.414-1.414l3.293-3.293-3.293-3.293a1 1 0 0 1 0-1.414z" fill="#050506"/>
    </g>
</svg>
