<svg xmlns="http://www.w3.org/2000/svg" xmlns:xlink="http://www.w3.org/1999/xlink" width="360" height="240" viewBox="0 0 360 240">
    <defs>
        <linearGradient id="f7h6p9bq1g" x1="50%" x2="50%" y1="0%" y2="100%">
            <stop offset="0%" stop-color="#FFF" stop-opacity="0"/>
            <stop offset="99.997%" stop-color="#FFF"/>
        </linearGradient>
        <linearGradient id="1s29o61okh" x1="50%" x2="50%" y1="0%" y2="100%">
            <stop offset=".003%" stop-color="#FFF"/>
            <stop offset="100%" stop-color="#FFF" stop-opacity="0"/>
        </linearGradient>
        <filter id="074x52yq3c" width="241.7%" height="241.7%" x="-70.8%" y="-62.5%" filterUnits="objectBoundingBox">
            <feMorphology in="SourceAlpha" operator="dilate" radius="2" result="shadowSpreadOuter1"/>
            <feOffset dy="1" in="shadowSpreadOuter1" result="shadowOffsetOuter1"/>
            <feGaussianBlur in="shadowOffsetOuter1" result="shadowBlurOuter1" stdDeviation="2"/>
            <feComposite in="shadowBlurOuter1" in2="SourceAlpha" operator="out" result="shadowBlurOuter1"/>
            <feColorMatrix in="shadowBlurOuter1" result="shadowMatrixOuter1" values="0 0 0 0 0.0470588235 0 0 0 0 0.0470588235 0 0 0 0 0.0549019608 0 0 0 0.2 0"/>
            <feMorphology in="SourceAlpha" operator="dilate" radius="2" result="shadowSpreadOuter2"/>
            <feOffset in="shadowSpreadOuter2" result="shadowOffsetOuter2"/>
            <feGaussianBlur in="shadowOffsetOuter2" result="shadowBlurOuter2" stdDeviation="1"/>
            <feComposite in="shadowBlurOuter2" in2="SourceAlpha" operator="out" result="shadowBlurOuter2"/>
            <feColorMatrix in="shadowBlurOuter2" result="shadowMatrixOuter2" values="0 0 0 0 0.0470588235 0 0 0 0 0.0470588235 0 0 0 0 0.0549019608 0 0 0 0.12 0"/>
            <feMerge>
                <feMergeNode in="shadowMatrixOuter1"/>
                <feMergeNode in="shadowMatrixOuter2"/>
            </feMerge>
        </filter>
        <filter id="3j6dpauwde" width="262.5%" height="425%" x="-81.2%" y="-137.5%" filterUnits="objectBoundingBox">
            <feOffset dy="1" in="SourceAlpha" result="shadowOffsetOuter1"/>
            <feGaussianBlur in="shadowOffsetOuter1" result="shadowBlurOuter1" stdDeviation="2"/>
            <feColorMatrix in="shadowBlurOuter1" result="shadowMatrixOuter1" values="0 0 0 0 0.0470588235 0 0 0 0 0.0470588235 0 0 0 0 0.0549019608 0 0 0 0.2 0"/>
            <feOffset in="SourceAlpha" result="shadowOffsetOuter2"/>
            <feGaussianBlur in="shadowOffsetOuter2" result="shadowBlurOuter2" stdDeviation="1"/>
            <feColorMatrix in="shadowBlurOuter2" result="shadowMatrixOuter2" values="0 0 0 0 0.0470588235 0 0 0 0 0.0470588235 0 0 0 0 0.0549019608 0 0 0 0.12 0"/>
            <feMerge>
                <feMergeNode in="shadowMatrixOuter1"/>
                <feMergeNode in="shadowMatrixOuter2"/>
            </feMerge>
        </filter>
        <ellipse id="9kqnrm8g3f" cx="12" cy="41" rx="4" ry="2"/>
        <circle id="43c78110ad" cx="24" cy="24" r="6"/>
        <path id="tlehgdmjza" d="M0 0H360V240H0z"/>
    </defs>
    <g fill="none" fill-rule="evenodd">
        <g>
            <g>
                <g transform="translate(-540 -237) translate(540 225) translate(0 12)">
                    <mask id="cifrlxiyqb" fill="#fff">
                        <use xlink:href="#tlehgdmjza"/>
                    </mask>
                    <use fill="#F5F5F7" xlink:href="#tlehgdmjza"/>
                    <g mask="url(#cifrlxiyqb)">
                        <g>
                            <g>
                                <path fill="#E8E8ED" d="M64.002 80l1.654 1.47c.957.85 1.45 2.105 1.325 3.378l-4.07 41.731c-.069.715-.33 1.398-.754 1.977l-12.449 16.982c-.642.877-1.614 1.454-2.691 1.6l-35.786 4.826c-1.028.139-2.07-.127-2.904-.741l-2.134-1.569c-.917-.674-1.504-1.708-1.612-2.842L.018 99.072c-.095-.996.187-1.992.79-2.79l1.732-2.296c.585-.776 1.433-1.312 2.385-1.508 9.7-1.998 15.727-3.29 18.078-3.877 2.444-.61 15.863-3.425 40.257-8.448l.742-.153zM39.36 125.669l-.217.005c-.518.027-1.115.15-1.792.366-.915.294-1.492 1.196-1.374 2.15l.444 3.602c.057.461.364.854.798 1.02.414.159.882.014 1.134-.351l2.597-3.762c.223-.323.342-.706.342-1.098 0-1.067-.865-1.932-1.932-1.932zm4.165-25.767c-.178-.016-.358-.008-.533.024l-15.804 2.83c-.537.097-1.006.423-1.283.893-.043.072-.067.153-.072.237-.016.288.205.535.493.55l4.602.256c.57.031 1.122-.213 1.482-.657.358-.44.914-.67 1.479-.61l7.113.753c.037.004.075.01.113.016 1.025.172 1.716 1.142 1.544 2.167l-.035.208c-.168 1.004.445 1.975 1.424 2.254l5.215 1.487c.1.03.21 0 .282-.078.106-.113.1-.29-.014-.397l-.214-.2c-.405-.379-.634-.908-.634-1.461v-4.555c0-.393.318-.71.71-.71.393 0 .71-.319.71-.71v-.496c0-.682-.52-1.252-1.2-1.314zM46.115 162.805l8.042 6.06c.868.654 1.432 1.634 1.563 2.713l9.25 76.205c.121.99-.133 1.99-.712 2.803l-2.099 2.946c-.693.973-1.785 1.585-2.977 1.669l-39.617 2.789c-2.156.152-4.042-1.436-4.26-3.585L7.02 173.02c-.11-1.083.226-2.165.93-2.995l1.201-1.413c.613-.721 1.462-1.202 2.397-1.356l31.507-5.203c1.08-.178 2.185.094 3.059.752zm7.87 77.585h-.076l-8.468.847c-.264.027-.466.249-.466.514l.003.042c.023.233.23.403.463.38l8.468-.843c.265-.026.467-.25.467-.516l-.002-.042c-.023-.234-.231-.405-.465-.381zm-23.235-9.402l-.118.008-7.759.89c-.042.004-.083.011-.124.021-.556.134-.898.692-.765 1.248.157.65.77 1.084 1.436 1.013l7.211-.767c.683-.073 1.2-.649 1.2-1.336 0-.04-.001-.081-.006-.122-.068-.591-.602-1.015-1.193-.947zm-4.612-24.255l-.13.01c-.713.095-1.217.747-1.128 1.46l.119.954.006.046c.11.674.745 1.131 1.419 1.022.71-.116 1.202-.768 1.12-1.482l-.1-.878-.003-.022c-.092-.7-.734-1.191-1.433-1.1zm-.557-15.244c-.121-.723-.805-1.21-1.528-1.09-.762.128-1.292.828-1.207 1.595l.696 6.335c.12 1.096 1.106 1.888 2.202 1.77l3.432-.37c1.095-.118 2.08.671 2.202 1.766l.136 1.213c.12 1.07 1.065 1.853 2.139 1.771l7.83-.593c.038-.002.076-.007.114-.012.978-.138 1.66-1.043 1.522-2.021l-.15-1.058c-.067-.476.23-.927.692-1.055.478-.133.81-.568.81-1.064v-.377c0-.672-.545-1.217-1.218-1.217h-3.196c-.71 0-1.334-.476-1.521-1.162l-.225-.825c-.054-.199-.235-.337-.441-.337-.193 0-.35.156-.35.35v1.021c0 .774-.594 1.419-1.366 1.48l-7.776.625c-1.063.085-2.005-.678-2.143-1.735l-.647-4.962-.007-.048zm13.855-13.505l-.145.01-6.105.701-.12.021c-.473.11-.817.534-.817 1.03v.22l.007.097c.048.354.35.627.718.627h.185l.087.007c.256.041.452.264.452.532v.29l.007.057c.026.11.125.192.243.192.138 0 .25.112.25.25v1.839l.006.151c.077.948.87 1.694 1.838 1.694 1.042 0 1.908-.801 1.99-1.84l.187-2.382.018-.148c.132-.775.806-1.354 1.607-1.354h.354l.103-.007c.37-.05.654-.367.654-.75 0-.104-.02-.206-.062-.301-.271-.628-.922-1.005-1.602-.926zM65.146 267.902l1.25 1.02c.81.663 1.33 1.618 1.445 2.658l4.135 37.341c.102.921-.12 1.849-.625 2.625l-1.607 2.465c-.716 1.098-1.925 1.776-3.236 1.814l-40.761 1.173c-1.021.03-2.015-.332-2.777-1.012l-2.069-1.844c-.807-.72-1.288-1.734-1.335-2.814l-1.562-36.333c-.092-2.128 1.5-3.954 3.621-4.154l40.616-3.823c1.047-.099 2.09.219 2.905.884zm-31.241 16.782c-.245-.415-1.259-1.134-1.55-.832-.292.303-.99.683-.475 2.315.232.735.452 3.601.624 6.584l.036.64.038.71c.167 3.185.273 6.154.273 6.429 0 .569.3.98.868.98.195 0 .361-.065.499-.193.37-.345.857-.536 1.363-.536h17.792c.2 0 .364.163.364.364 0 .201.163.365.365.365h.346c.035 0 .07-.004.105-.01.324-.058.538-.367.48-.69l-.569-3.162c-.183-1.019-1.114-1.73-2.145-1.637l-8.782.781c-.491.044-.868.455-.868.948 0 .505-.36.937-.856 1.029l-1.255.231c-.02.004-.042.006-.063.006-.19 0-.344-.154-.344-.345 0-.232-.182-.423-.414-.436l-1.95-.104c-1.02-.054-1.835-.869-1.89-1.889l-.431-7.957-.003-.108c0-1.104.895-2 2-2h2.16c.639 0 1.157-.518 1.157-1.157 0-.032-.002-.064-.005-.096-.053-.583-.568-1.012-1.15-.959-3.433.312-5.34.555-5.72.73zm16.226-8.414c-.017 0-.034 0-.052.002-.65.028-1.155.58-1.126 1.23l.164 3.714c.049 1.095-.794 2.025-1.889 2.085l-4.72.257c-.413.023-.736.365-.736.778v.128c0 .337.273.61.61.61h.4c.115 0 .21-.094.21-.21 0-.116.094-.21.21-.21h.383c.327 0 .593.265.593.593v.164c0 .417.339.756.757.756h.562c.119 0 .215-.096.215-.214l.007-.057c.025-.09.108-.157.207-.157h4.347c.082 0 .164-.005.246-.015 1.096-.136 1.875-1.135 1.739-2.231l-.742-6c-.087-.698-.68-1.223-1.385-1.223zM84.655 79.395l42.246-18.79c2-.89 4.345-.005 5.26 1.984l19.179 41.719c.919 1.998.052 4.363-1.94 5.294l-58.832 27.513c-1.187.554-2.57.493-3.702-.164l-7.658-4.442c-1.347-.78-2.118-2.272-1.977-3.822l4.004-44.043c.05-.542.208-1.068.468-1.546l1.061-1.956c.42-.775 1.085-1.39 1.89-1.747zM68.79 168.81l9.314-12.532c.405-.545.942-.978 1.561-1.258l74.374-33.663c1.996-.904 4.348-.033 5.274 1.953l31.311 67.106c.93 1.992.077 4.36-1.908 5.304L83.69 245.613c-1.163.553-2.521.511-3.649-.11l-1.84-1.016c-1.132-.624-1.892-1.756-2.041-3.04l-8.133-69.787c-.118-1.012.155-2.031.763-2.85zM221.23 267.092l2.43.53c1.243.271 2.282 1.117 2.8 2.277l25.192 56.425c.886 1.984.025 4.313-1.939 5.245l-65.442 31.045c-.825.392-1.76.489-2.649.275l-.463-.111c-1.16-.279-2.125-1.076-2.617-2.162l-25.185-55.57c-.413-.912-.47-1.945-.159-2.895l.91-2.782c.341-1.043 1.096-1.9 2.088-2.37l62.468-29.614c.8-.378 1.702-.482 2.566-.293zm-35.147 65.119c-.328-.656-1.125-.922-1.78-.594-.68.34-.968 1.156-.651 1.846l3.61 7.876c.023.052.05.102.08.15.368.577 1.134.747 1.712.38.686-.438.941-1.316.596-2.052l-3.553-7.576-.014-.03zm10.172-4.892c-.317-.708-1.148-1.026-1.857-.71-.726.325-1.071 1.161-.786 1.904l1.556 4.056c.3.78-.03 1.662-.77 2.054-.74.392-1.074 1.273-.779 2.058l.197.523c.018.048.038.095.06.141.44.931 1.551 1.329 2.482.889l1.567-.742c.792-.374 1.144-1.31.795-2.113l-.434-1c-.109-.25-.01-.544.23-.677.24-.133.338-.426.229-.677l-2.485-5.694-.005-.012zm35.025-8.337c-.521-.848-1.586-1.183-2.499-.787l-17.82 7.73c-.036.015-.071.033-.105.052-.567.316-.77 1.03-.454 1.597.35.625.125 1.415-.5 1.765l-1.313.732c-.53.296-.776.925-.588 1.502.013.041.03.082.05.122.222.445.763.627 1.208.405l21.394-10.649c.045-.022.089-.047.132-.073.789-.486 1.035-1.52.55-2.309zm-43.663-3.913c-.338-.135-.72.03-.856.368l-.254.638c-.191.48-.56.866-1.029 1.08l-3.563 1.623-.023.01c-1 .472-1.427 1.664-.956 2.663l1.036 2.198.005.012c.478.996 1.673 1.416 2.669.938l4.509-2.162.01-.005c.993-.483 1.406-1.68.923-2.673l-2.122-4.367c-.072-.147-.196-.263-.349-.323zm9.978-7.334c-.245-.468-.823-.648-1.29-.403-.517.27-.734.897-.495 1.43l6.02 13.437c.012.026.025.05.039.075.214.365.684.488 1.05.273.423-.248.596-.77.406-1.222l-5.696-13.518c-.01-.024-.022-.048-.034-.072zm26.62-3.02c-.463-.92-1.55-1.337-2.51-.964l-6.249 2.428c-.974.379-1.492 1.443-1.19 2.443l.063.207c.022.075.05.147.081.218.411.917 1.488 1.327 2.405.916l2.854-1.28c.94-.42 2.046-.06 2.556.836l2.684 4.71c.49.86 1.582 1.167 2.448.687.874-.483 1.21-1.57.76-2.46zm-12.85-19.67c-.325-.575-1.04-.822-1.658-.55-.32.14-.57.402-.694.727l-.927 2.426-.059.18c-.084.303-.096.623-.032.933l.107.525.024.155c.072.622-.18 1.243-.674 1.638l-1.13.904-.11.099c-.496.48-.616 1.239-.278 1.854.353.642 1.142.903 1.809.599l4.7-2.149.137-.07c.896-.495 1.28-1.599.862-2.552l-2.017-4.6zM161.394 55.564l7.821 16.329.04.084 9.316 20.666c.863 1.915 3.06 2.836 5.03 2.11l69.46-25.619c2.033-.75 3.1-2.983 2.405-5.036l-3.09-9.126c-.328-.966.18-2.017 1.14-2.362.958-.345 2.015.147 2.369 1.102l.095.257c.41 1.105 1.621 1.688 2.74 1.317l10.536-3.487c2.097-.694 3.234-2.957 2.54-5.054-.023-.07-.048-.14-.076-.21l-3.046-7.727c-.776-1.97-2.953-2.993-4.965-2.335l-7.172 2.348c-1.91.625-3.986-.264-4.853-2.076l-2.837-5.934c-.953-1.993-.11-4.382 1.883-5.335.252-.12.516-.214.788-.28l7.01-1.69c.614-.148.991-.766.843-1.38-.006-.023-.012-.047-.02-.07-.21-.682.076-1.42.693-1.779l1.552-.904c.859-.501 1.96-.21 2.461.648.014.023.026.046.039.07.512.973 1.63 1.464 2.693 1.183l2.22-.588c1.988-.525 3.253-2.472 2.927-4.501l-2.413-15.018C269.02.389 268.277 0 267.292 0c-.969 0-35.652 16.748-104.05 50.244-1.972.966-2.797 3.34-1.848 5.32zM191.001 106.388l60.844-22.783c1.007-.377 2.129.133 2.506 1.14.017.048.033.096.047.144.3 1.039 1.384 1.638 2.422 1.34.046-.014.091-.029.136-.045l65.168-24.024c.881-.325 1.87-.148 2.584.461l.994.848c.108.093.222.18.34.26l.562.384c.483.33.866.787 1.105 1.32l14.988 33.375c.043.096.09.19.14.282l2.917 5.33c.042.077.082.156.12.236l16.754 36.093c.469 1.009.496 2.168.075 3.198l-.742 1.813c-.38.93-1.098 1.684-2.009 2.11l-117.186 54.754c-.857.4-1.827.484-2.74.237l-7.476-2.026c-1.124-.304-2.059-1.083-2.562-2.132l-41.677-87.004c-.53-1.108-.373-2.423.405-3.375l.592-.723c.447-.547 1.031-.966 1.693-1.213zM245.654 228.295l3.927-5.998c.411-.627.99-1.126 1.67-1.44l81.317-37.547c.632-.291 1.381-.095 1.789.469.407.562 1.156.755 1.784.46l13.66-6.432c.809-.381 1.156-1.345.775-2.153l-.01-.02c-.38-.782-.056-1.725.726-2.106l.057-.027 16.322-7.164c.926-.406 1.971-.447 2.926-.114l2.67.933c1.032.36 1.87 1.126 2.323 2.12l22.05 48.482c.904 1.987.048 4.331-1.923 5.268l-84.804 40.34c-1.995.948-4.381.1-5.33-1.895l-.002-.003-1.26-2.656c-.94-1.98-3.296-2.835-5.287-1.92l-8.833 4.067c-2.007.924-2.885 3.3-1.961 5.306l.023.05 1.306 2.737c.951 1.994.106 4.382-1.888 5.333l-.003.002c-5.172 2.46-8.99 4.123-11.457 4.988-4.512 1.58-9.787.21-12.465-4.638-1.767-3.198-7.904-16.611-18.41-40.24-.228-.512-.346-1.066-.346-1.626v-2.384c0-.779.227-1.54.654-2.192zM274.68 292.912l125.01-58.228c1.999-.93 4.374-.068 5.31 1.928l3.299 7.032c.938 2 .077 4.382-1.923 5.32l-.006.003-111.766 52.197c-1.06.495-1.557 1.726-1.137 2.818.422 1.099-.062 2.338-1.117 2.86l-8.841 4.37c-1.98.98-4.38.168-5.359-1.813l-.014-.03-5.367-11.088c-.963-1.989-.13-4.381 1.858-5.343l.053-.026zM421.95 272.26l.041.088 4.432 9.77c.55 1.212.024 2.641-1.18 3.208l-1.103.52c-.698.328-1.286.851-1.693 1.507l-.209.334c-.331.534-.784.981-1.32 1.307l-1.444.877c-.75.455-1.65.588-2.5.368-.857-.223-1.765-.134-2.563.249l-15.972 7.661c-.408.196-.617.656-.496 1.091.136.49.113 1.01-.065 1.485l-.15.403c-.274.73-.811 1.33-1.506 1.683l-4.218 2.146c-.432.22-.96.095-1.248-.295-.282-.383-.81-.486-1.215-.238l-6.818 4.172c-.25.153-.536.234-.83.234-.276 0-.53-.149-.666-.39l-.006-.01c-.122-.217-.397-.295-.615-.172l-.006.003-1.586.927c-.373.218-.852.092-1.07-.281-.015-.025-.028-.051-.04-.078-.197-.444-.713-.65-1.162-.463l-2.934 1.22c-1.971.82-2.905 3.083-2.084 5.054.023.056.047.112.073.167l4.912 10.398c.874 1.849 3.027 2.71 4.934 1.972l1.763-.681c.917-.355 1.953.052 2.384.935.426.875 1.465 1.26 2.358.875l6.67-2.872c.934-.402 1.365-1.485.963-2.419l-.04-.087-.28-.564c-.3-.608-.051-1.343.556-1.643l.074-.034c.67-.278.992-1.044.72-1.717l-2.233-5.538c-.516-1.28.069-2.738 1.326-3.307l1.656-.75c.302-.137.657-.003.794.298l.018.045c.122.34.493.52.835.406l1.948-.649c1.096-.365 2.289.165 2.753 1.223.436.995 1.597 1.449 2.593 1.013l.062-.03 6.033-2.898c.283-.136.402-.476.266-.758l-.004-.009c-.138-.273-.027-.606.246-.743l.021-.01 17.231-7.74c1.709-.767 3.72-.092 4.62 1.551.818 1.498.269 3.376-1.229 4.195-.064.035-.13.068-.196.098l-27.415 12.563c-.407.187-.606.65-.461 1.074.127.373.533.572.906.444.022-.007.044-.016.065-.026l26.782-12.194c1.946-.886 4.246-.084 5.22 1.821l.913 1.79c1.005 1.967.225 4.377-1.742 5.382-.058.03-.117.058-.177.084l-53.965 24.311-.09.042-68.58 32.948c-.79.38-1.683.489-2.542.311l-2.693-.557c-1.276-.264-2.343-1.133-2.86-2.329l-14.583-33.707c-.338-.781-.418-1.65-.228-2.48l.658-2.88c.27-1.184 1.064-2.18 2.158-2.71l121.69-58.854c1.989-.962 4.38-.13 5.342 1.86zm-80.583 53.87c-.26-.554-.92-.792-1.473-.532l-5.16 2.424c-.88.413-1.259 1.46-.848 2.34l.012.025c.417.86 1.452 1.217 2.312.8l4.013-1.95c.601-.293 1.017-.866 1.107-1.528l.132-.958c.029-.212-.004-.428-.095-.621zm20.89-9.18c-.441-.716-1.356-.98-2.112-.609l-7.58 3.722c-.79.389-1.168 1.304-.88 2.137.019.056.042.111.069.164.334.667 1.145.936 1.811.602l8.145-4.085c.035-.018.07-.038.104-.059.64-.394.838-1.232.444-1.871zM415.25 230.002l4.301 9.256c.698 1.503 2.482 2.155 3.985 1.457l.02-.01 40.678-19.284c1.497-.71 2.135-2.499 1.425-3.996l-.026-.055-4.427-8.87c-.703-1.409-2.375-2.034-3.83-1.434l-7.32 3.024c-.05.02-.1.042-.149.066l-33.229 15.875c-1.484.709-2.12 2.48-1.427 3.97zM385.238 160.668l.932-2.58c.363-1.004 1.111-1.82 2.08-2.27l35.46-16.447c1.022-.474 2.196-.495 3.234-.058l2.623 1.103c.93.392 1.677 1.12 2.093 2.038l21.984 48.586c.89 1.967.059 4.285-1.878 5.238l-20.033 9.863-.129.06-18.818 8.447c-2.012.903-4.374.008-5.283-2l-22.148-48.972c-.429-.95-.471-2.028-.117-3.008zM341.38 56.307l.88-1.872c.439-.936 1.224-1.665 2.189-2.034l34.291-13.136c1.109-.425 2.349-.335 3.385.245l2.752 1.54c.734.41 1.32 1.042 1.674 1.805l4.185 9.007.05.11 3.563 8.32.031.07 10.316 22.852c.023.053.048.104.073.155l8.8 17.457c.043.085.083.171.12.26l6.002 14.377c.311.745.39 1.567.225 2.358l-.54 2.59c-.268 1.282-1.147 2.353-2.353 2.865l-11.155 4.738c-.066.028-.132.058-.196.09l-21.41 10.488c-.894.438-1.918.527-2.873.25l-2.482-.719c-1.142-.33-2.077-1.151-2.553-2.24l-6.54-14.962c-.02-.047-.043-.095-.065-.142L348.66 77.254c-.034-.07-.065-.14-.095-.212l-7.26-17.501c-.431-1.04-.404-2.214.075-3.234zM451.422 6.394l.092.056c.787.472 1.387 1.201 1.7 2.064l28.546 78.703c.703 1.94-.184 4.095-2.047 4.979l-19.197 9.1-.043.02-21.036 10.278c-1.077.527-2.335.542-3.425.04l-2.722-1.25c-.876-.402-1.577-1.107-1.975-1.985l-32.959-72.803c-.326-.72-.431-1.52-.303-2.3l.378-2.29c.233-1.412 1.202-2.592 2.541-3.095l6.41-2.404c.127-.048.251-.102.373-.163l18.49-9.184c.173-.086.354-.16.539-.22l8.065-2.63c.196-.064.387-.144.571-.237l13.333-6.774c.847-.43 1.855-.394 2.669.095zm3.861 52.597c-.238-.488-.826-.69-1.313-.453-.559.273-.823.922-.612 1.506l4.214 11.683c.012.031.025.062.04.092.237.498.833.708 1.33.47.565-.271.833-.926.62-1.515l-4.238-11.687c-.012-.033-.026-.065-.04-.096zm-24.67-9.369c-.504-.983-1.71-1.37-2.693-.866l-4.295 2.203c-.943.484-1.345 1.62-.916 2.59l6.276 14.184.012.028c.462 1.003 1.65 1.442 2.653.98l4.244-1.954c.986-.454 1.43-1.612 1-2.608l-6.224-14.436c-.018-.04-.037-.081-.057-.12z" transform="translate(-63 -44)"/>
                            </g>
                            <g>
                                <path fill="#B0D994" d="M167.77 7.76l8.011 18.696c.505 1.178 1.543 2.042 2.792 2.326l7.046 1.598c1.155.262 2.135 1.023 2.675 2.078l2.878 5.62c1.007 1.966.23 4.377-1.737 5.384l-.01.004-11.986 6.1c-.562.285-1.183.434-1.814.434h-6.083c-1.547 0-2.956-.892-3.617-2.29l-10.627-22.482c-.421-.891-1.157-1.595-2.065-1.977l-3.494-1.47c-.95-.4-1.71-1.153-2.12-2.1l-1.06-2.45c-.866-2 .03-4.326 2.014-5.23l13.864-6.307c2.01-.915 4.383-.027 5.297 1.984l.036.081zM140.944 19.4l7.826 15.044c.153.294.342.567.562.815l7.39 8.295c.213.24.397.504.548.788l3.74 7.061c1.035 1.952.29 4.373-1.661 5.407-.072.038-.144.073-.217.107-25.109 11.42-39.783 18.205-44.022 20.354-4.453 2.257-18.04 8.833-40.76 19.729l-2.763-1.845c-.947-.632-1.58-1.638-1.74-2.766l-5.432-38.372c-.246-1.743.674-3.442 2.27-4.186l69.019-32.21c1.941-.907 4.251-.122 5.24 1.778z" transform="translate(-63 -44) translate(16 215)"/>
                            </g>
                            <path fill="#E8E8ED" d="M129.605 251.468l2.498-1.178c.072-.035.143-.07.213-.11l10.872-5.949c.076-.041.153-.08.23-.117l3.945-1.838c.922-.43 1.633-1.21 1.975-2.169.334-.935 1.113-1.64 2.077-1.88l1.699-.422c.543-.134 1.118-.026 1.576.296.445.315 1.025.367 1.52.136l33.519-15.64c.556-.26.911-.818.911-1.432v-.02c0-.62.297-1.201.8-1.566.518-.376 1.143-.579 1.784-.579h3.16c.666 0 1.29.323 1.674.867.399.564.613 1.237.613 1.928v.73c0 .575.124 1.143.363 1.665l4.777 10.44c.347.758 1.06 1.284 1.886 1.392l1.33.174c1.315 1.522 1.973 2.871 1.973 4.048 0 1.766-1.421 3.925-2.845 3.925-.859 0-2.23.145-4.117.434-.406.063-.8.187-1.168.37l-33.154 16.415c-.727.36-1.248 1.035-1.41 1.83-.167.807-.64 1.52-1.32 1.986l-.804.552c-.66.453-1.496.567-2.253.308-.778-.267-1.625-.25-2.391.045l-5.448 2.1c-.08.032-.16.065-.238.101l-11.087 5.118c-.054.025-.108.051-.161.079l-2.37 1.226c-1.295.67-2.888.163-3.558-1.132-.018-.034-.035-.07-.051-.104l-8.415-18.185c-.67-1.447-.047-3.164 1.395-3.844z" transform="translate(-63 -44)"/>
                        </g>
                    </g>
                    <g mask="url(#cifrlxiyqb)">
                        <g transform="translate(95 56)">
                            <path fill="#3F81FB" fill-rule="nonzero" stroke="#1050C5" stroke-width="2" d="M22.783 21.258c.731-.325 1.523-.333 2.222-.085.696.248 1.3.75 1.66 1.449h0l41.908 94.403 88.194-39.76c.73-.329 1.521-.342 2.222-.097.697.243 1.304.742 1.668 1.44.357.8.398 1.63.165 2.353-.23.719-.73 1.33-1.428 1.696h0l-91.105 41.078c-.733.33-1.528.342-2.23.095-.699-.247-1.306-.75-1.668-1.451h0L21.258 25.217c-.336-.757-.333-1.579-.058-2.295.276-.717.826-1.328 1.583-1.664z"/>
                            <g>
                                <circle cx="24" cy="24" r="23.5" fill="#80ACFF" fill-opacity=".2" stroke="#80ACFF" stroke-opacity=".6"/>
                                <g>
                                    <use fill="#000" filter="url(#074x52yq3c)" xlink:href="#43c78110ad"/>
                                    <circle cx="24" cy="24" r="7" fill="#1A6AFF" stroke="#FFF" stroke-width="2"/>
                                </g>
                            </g>
                            <circle cx="158" cy="80" r="5" fill="#FFF" stroke="#1050C5" stroke-width="2"/>
                            <circle cx="67" cy="120" r="5" fill="#FFF" stroke="#1050C5" stroke-width="2"/>
                            <g>
                                <g transform="translate(118 41) translate(28)">
                                    <use fill="#000" filter="url(#3j6dpauwde)" xlink:href="#9kqnrm8g3f"/>
                                    <path stroke="#900014" d="M12-.5l.369.005c3.305.096 6.289 1.475 8.47 3.656C23.1 5.423 24.5 8.548 24.5 12c0 3.44-1.537 6.222-3.641 8.815C16.468 26.225 13.5 31.922 13.5 39c0 .414-.168.79-.44 1.06-.27.272-.646.44-1.06.44-.414 0-.79-.168-1.06-.44-.272-.27-.44-.646-.44-1.06 0-7.078-2.968-12.776-7.359-18.185C1.037 18.222-.5 15.44-.5 12c0-3.452 1.4-6.577 3.661-8.839C5.423.9 8.548-.5 12-.5h0z"/>
                                    <path fill="#E2001C" d="M12 0c6.627 0 12 5.373 12 12 0 3.321-1.5 6-3.53 8.5C16.003 26.003 13 31.803 13 39c0 .552-.448 1-1 1s-1-.448-1-1c0-7.197-3.003-12.997-7.47-18.5C1.5 18 0 15.321 0 12 0 5.373 5.373 0 12 0z"/>
                                    <circle cx="12" cy="12" r="4" fill="#FFF"/>
                                </g>
                            </g>
                        </g>
                    </g>
                    <path fill="url(#f7h6p9bq1g)" d="M0 164H360V240H0z" mask="url(#cifrlxiyqb)"/>
                    <path fill="url(#1s29o61okh)" d="M0 0H360V76H0z" mask="url(#cifrlxiyqb)"/>
                </g>
            </g>
        </g>
    </g>
</svg>
