<svg width="20" height="20" viewBox="0 0 20 20" xmlns="http://www.w3.org/2000/svg">
    <g fill="none" fill-rule="evenodd">
        <path d="M1.667 1.667h16.666v16.666H1.667z"/>
        <path d="m12.61 16.136.836 1.454c-.802.367-1.68.61-2.59.702v-1.688a6.473 6.473 0 0 0 1.755-.468zm-9.214-5.321H1.708c.092.919.335 1.787.702 2.59l1.454-.836a6.473 6.473 0 0 1-.468-1.754zm9.215-6.993.835-1.454a8.144 8.144 0 0 0-2.59-.701v1.687a6.473 6.473 0 0 1 1.755.468zm4.035 5.322h1.687a8.144 8.144 0 0 0-.701-2.59l-1.454.835c.234.552.393 1.136.468 1.755zM7.43 16.136l-.835 1.454c.802.367 1.679.61 2.59.702v-1.688a6.473 6.473 0 0 1-1.755-.468zM9.185 3.354V1.667a8.144 8.144 0 0 0-2.59.701l.836 1.454a6.473 6.473 0 0 1 1.754-.468zm6.15 2.59 1.453-.844a8.509 8.509 0 0 0-1.897-1.896l-.843 1.453c.493.376.919.802 1.286 1.287zm1.31 4.87a6.473 6.473 0 0 1-.467 1.755l1.454.835c.367-.802.61-1.679.701-2.59h-1.687zm-2.589 4.478.844 1.454a8.509 8.509 0 0 0 1.896-1.896l-1.453-.844a6.702 6.702 0 0 1-1.287 1.286zM5.986 4.666 5.15 3.204a8.382 8.382 0 0 0-1.813 1.79V6.22l1.184.006c.039-.11.206-.3.212-.308.362-.478.78-.893 1.253-1.252zm-1.278 9.348-1.454.836a8.509 8.509 0 0 0 1.896 1.896l.844-1.454a6.432 6.432 0 0 1-1.286-1.278zm6.148-8.212v3.83l2.71 2.71-1.183 1.182-3.198-3.2V5.802h1.671zM3.338 2.878V6.22h3.341v1.67H1.667V2.879h1.67z" fill="#46464C"/>
    </g>
</svg>
