<svg xmlns="http://www.w3.org/2000/svg" viewBox="0 0 20 20" aria-label="iOS icon">
    <path fill-rule="evenodd" fill="currentColor" d="M13.495 5.37c-1.508 0-2.138.925-3.182.925-1.074 0-2.057-.867-3.357-.867-1.768 0-4.456 1.639-4.456 5.498 0 3.51 3.182 7.408 4.977 7.408 1.09.01 1.356-.687 2.836-.694 1.481-.01 1.801.702 2.893.694 1.23-.01 2.191-1.361 2.893-2.432.503-.767.71-1.158 1.1-2.025-2.894-.733-3.47-5.4 0-6.366-.655-1.117-2.567-2.142-3.705-2.142m-.056-3.702c-.962.056-2.064.59-2.72 1.272-.593.62-1.06 1.541-.87 2.432 1.045.028 2.093-.522 2.72-1.216.587-.649 1.03-1.555.87-2.488"/>
</svg>
