<svg width="48" height="48" xmlns="http://www.w3.org/2000/svg"><path d="M25.175 40.381c8.676-.762 15.504-8.066 15.504-16.937h-6.36c0 5.87-4.775 10.645-10.644 10.645-5.87 0-10.644-4.776-10.644-10.645h-6.36c0 9.376 7.628 17.004 17.004 17.004h.02L26.064 48h18.363l-2.39-7.619H25.175zM7.86 8.351c0-1.098.893-1.991 1.991-1.991s1.991.893 1.991 1.99a1.993 1.993 0 0 1-1.991 1.992A1.993 1.993 0 0 1 7.86 8.35m10.342 0C18.202 3.746 14.455 0 9.85 0 5.246 0 1.5 3.746 1.5 8.35c0 4.605 3.746 8.351 8.351 8.351 4.604 0 8.35-3.746 8.35-8.35M37.5 6.36c1.098 0 1.991.893 1.991 1.99a1.993 1.993 0 0 1-1.991 1.992 1.993 1.993 0 0 1-1.991-1.991c0-1.098.893-1.991 1.991-1.991m0 10.341c4.605 0 8.35-3.746 8.35-8.35C45.85 3.746 42.105 0 37.5 0c-4.605 0-8.35 3.746-8.35 8.35 0 4.605 3.745 8.351 8.35 8.351" fill="#050506" fill-rule="evenodd"/></svg>