<svg width="48" height="48" xmlns="http://www.w3.org/2000/svg"><path d="M40.413 39.969h-19.09l-.267.003L23.574 48h19.358l-2.52-8.031zm-12.304-16.36-7.054 7.054-7.053-7.054c-3.889-3.89-3.89-10.218 0-14.107a9.91 9.91 0 0 1 7.053-2.922 9.91 9.91 0 0 1 7.054 2.922C32 13.39 32 19.72 28.11 23.609m9.502-7.054c0-4.422-1.722-8.58-4.85-11.706A16.447 16.447 0 0 0 21.056 0c-4.422 0-8.58 1.722-11.706 4.849A16.447 16.447 0 0 0 4.5 16.555c0 4.423 1.722 8.58 4.849 11.707l11.706 11.706 11.707-11.706a16.448 16.448 0 0 0 4.849-11.707" fill="#050506" fill-rule="evenodd"/></svg>