<svg width="48" height="48" viewBox="0 0 48 48" xmlns="http://www.w3.org/2000/svg">
    <g fill="none" fill-rule="evenodd">
        <path d="M6 0h36a6 6 0 0 1 6 6v36a6 6 0 0 1-6 6H6a6 6 0 0 1-6-6V6a6 6 0 0 1 6-6z" fill="#FFD6D7"/>
        <path d="M25.2 36.798c6.777-.596 12.112-6.302 12.112-13.232h-4.97c0 4.585-3.73 8.316-8.315 8.316-4.585 0-8.315-3.73-8.315-8.316h-4.969c0 7.325 5.96 13.284 13.284 13.284h.016l1.85 5.9H40.24l-1.867-5.952H25.2zM11.672 11.774c0-.858.698-1.555 1.555-1.555.858 0 1.556.697 1.556 1.555s-.698 1.555-1.556 1.555a1.557 1.557 0 0 1-1.555-1.555m8.08 0a6.532 6.532 0 0 0-6.525-6.524 6.532 6.532 0 0 0-6.524 6.524 6.531 6.531 0 0 0 6.524 6.524 6.531 6.531 0 0 0 6.524-6.524m15.076-1.555c.858 0 1.556.697 1.556 1.555s-.698 1.555-1.556 1.555a1.557 1.557 0 0 1-1.555-1.555c0-.858.698-1.555 1.555-1.555m0 8.079a6.531 6.531 0 0 0 6.525-6.524 6.532 6.532 0 0 0-6.525-6.524 6.532 6.532 0 0 0-6.524 6.524 6.531 6.531 0 0 0 6.524 6.524" fill="#050506"/>
    </g>
</svg>
