<svg xmlns="http://www.w3.org/2000/svg" viewBox="0 0 44 44">
    <path fill="#AF27CC"
          d="M27.227 39.63c-.177.495-.679.576-1.13.688-.539.132-1.084.237-1.632.32-.994.15-1.998.212-3.002.254-1.04.043-2.101-.05-3.13-.195-1.095-.153-2.175-.4-3.225-.74-1.92-.62-3.736-1.548-5.343-2.763-.517-.39-1.01-.807-1.478-1.25-1.019-.963-1.919-2.048-2.674-3.23-1.126-1.766-1.954-3.72-2.411-5.763-.466-2.08-.553-4.364-.347-6.485l.005-.048c.2 3.014 1.484 6.826 6.506 11.162 5.206 4.494 13.39 3.438 15.148 2.783.027.005.055.012.083.02.242.076.415.25.528.472.408.796.805 1.597 1.207 2.396l.042.084.616 1.22c.173.345.38.673.237 1.076"
          transform="translate(-38 -22) translate(38 22)"/>
    <path fill="#FF3B4A"
          d="M2.865 20.41c.239-1.457 1.742-2.963 3.498-2.784 2.224.226 3.088 1.977 3.008 3.384l-.017.14c-.243 2.096.063 4.246.899 6.186.517 1.198 1.23 2.306 2.096 3.277.516.576 1.084 1.103 1.7 1.572 1.672 1.274 3.675 2.107 5.763 2.381 1.101.145 2.221.142 3.321-.012.267-.037.532-.083.795-.138.2-.041.387-.09.586-.052-1.759.655-3.664 1.012-5.654 1.012-.437 0-.871-.017-1.3-.052-4.882-.386-9.149-2.933-11.824-6.673-1.663-2.324-2.677-5.22-2.876-8.233"
          transform="translate(-38 -22) translate(38 22)"/>
    <path fill="#FFDA12"
          d="M21.419 4.125c-.575 0-1.148.023-1.72.068-2.136.166-4.242.67-6.198 1.544-1.935.866-3.724 2.077-5.254 3.54-1.539 1.472-2.797 3.229-3.718 5.145-.845 1.755-1.393 3.642-1.64 5.57h-.001c-.018.137-.023.276-.023.418 0 1.772 1.414 3.214 3.178 3.268l.103.002c1.605 0 2.943-1.15 3.225-2.67v-.004l.04-.286.001-.005.028-.176c.086-1.686.678-6.006 5.48-10.286 6.149-5.48 15.037-4.245 15.24-4.166-1.333-.655-2.744-1.149-4.193-1.472-.847-.189-1.707-.321-2.573-.4-.649-.06-1.3-.09-1.95-.09h-.025z"
          transform="translate(-38 -22) translate(38 22)"/>
    <path fill="#65CEE7"
          d="M39.283 27.996c-.298.94-.674 1.856-1.121 2.734-.093.18-.188.36-.288.538-.137.251-.281.5-.431.743-.16.259-.424.568-.53.865 0 0 .987-4.177.279-8.358-.845-4.986-6.702-11.3-9.615-12.41-.056-.034-.113-.066-.17-.098l.001-.002c-1.919-1.02-1.827-3.212-1.324-4.41.51-1.215 2.267-1.893 4.68-1.201.236.127.47.26.7.397 1.594.952 3.033 2.15 4.249 3.55 1.326 1.526 2.404 3.274 3.145 5.153.809 2.05 1.207 4.25 1.258 6.447.049 2.053-.21 4.092-.833 6.052"
          transform="translate(-38 -22) translate(38 22)"/>
    <path fill="#87C966"
          d="M32.25 9.134c0 .428-.083.836-.232 1.21-.483 1.206-1.665 2.058-3.047 2.058-.565 0-1.098-.143-1.563-.394v.002c-1.51-.848-3.18-1.353-4.91-1.52-2.142-.206-4.315.197-6.257 1.11-.944.443-1.826 1.01-2.624 1.677-.75.628-1.425 1.345-2.005 2.135-1.11 1.513-1.858 3.28-2.171 5.127.085-1.685.429-3.302.994-4.81 2.27-6.058 8.095-10.37 14.922-10.37.326 0 .648.01.969.03 1.098.066 2.165.244 3.191.522h.001l.004.001c.238.064.475.134.708.21.177.087.353.177.527.271.003 0 .005.003.007.004.895.583 1.486 1.591 1.486 2.737"
          transform="translate(-38 -22) translate(38 22)"/>
    <path fill="#4BA2EA"
          d="M32.547 39.664c.177.352.347.88.707 1.09.261.15.576.115.865.115h5.327c.64-.013 1.088-.686.775-1.27l-1.01-1.896-2.057-3.86c-.095-.176-.221-.364-.256-.565 0 0-.075-.117.028-.447.094-.245.18-.493.262-.744.501-1.556.773-3.215.773-4.937 0-3.572-1.166-6.873-3.142-9.543-1.821-2.462-4.329-4.39-7.242-5.5.128.076.256.153.382.233 1.484.945 2.757 2.211 3.707 3.69 1.122 1.746 1.778 3.771 1.895 5.842.104 1.859-.223 3.739-.958 5.451-.26.606-.57 1.189-.926 1.743-.606.944-1.343 1.804-2.183 2.549-.19.169-.38.308-.459.56-.065.205-.056.43.031.628l3.481 6.861z"
          transform="translate(-38 -22) translate(38 22)"/>
</svg>
