<svg xmlns="http://www.w3.org/2000/svg" xmlns:xlink="http://www.w3.org/1999/xlink">
    <svg id="qwhite_typowhite" viewBox="0 0 157 154">
        <g fill="none" fill-rule="evenodd">
            <g fill="#FFF">
                <g>
                    <path d="M144.533 119.675c.417 0 .709.293.75.67v5.91h6.84c.417 0 .75.336.75.713v4.108c0 .377-.291.67-.666.712h-6.924v9.012c0 1.677.292 2.893.876 3.647.584.713 1.543 1.09 2.92 1.09 1.21 0 2.294-.168 3.336-.587.042-.041.125-.041.167-.084.083-.041.125-.041.209-.041.375 0 .667.25.709.629l.5 4.065v.084c0 .042 0 .042-.042.126-.041.293-.208.545-.458.629-.668.293-1.418.545-2.336.754-1.168.251-2.419.377-3.67.377-3.003 0-5.255-.796-6.715-2.347-1.501-1.551-2.21-3.94-2.21-7.126v-10.228h-4.13c-.333-.042-.583-.335-.583-.712v-4.024c0-.42.333-.755.75-.755h4.004v-5.91c.042-.419.376-.712.751-.712zm-125.495-6.288c2.127-.167 4.338-.042 6.423.42 1.96.46 3.879 1.215 5.63 2.263 1.627 1.006 3.087 2.222 4.338 3.689 1.334 1.592 2.46 3.395 3.211 5.323.834 2.138 1.251 4.401 1.293 6.665.042 2.095-.25 4.233-.876 6.246-.333.963-.709 1.886-1.168 2.808-.25.46-.5.922-.75 1.34-.209.378-.626.797-.542 1.3.041.21.166.42.25.587l2.168 3.94c.334.67.71 1.3 1.043 1.97.334.587-.125 1.3-.792 1.3h-5.464c-.292 0-.625.042-.876-.126-.333-.21-.542-.754-.709-1.132l-3.545-7.084c-.083-.167-.125-.419-.041-.628.083-.252.25-.42.458-.587 1.335-1.216 2.461-2.767 3.17-4.443.792-1.76 1.126-3.689 1.001-5.617-.125-2.138-.792-4.234-1.96-6.036-.96-1.51-2.294-2.85-3.795-3.815-1.669-1.09-3.587-1.718-5.59-1.928-2.21-.21-4.42.168-6.422 1.132-1.877.88-3.545 2.264-4.754 3.94-1.293 1.719-2.086 3.773-2.336 5.91-.25 2.18.042 4.402.918 6.414.834 1.97 2.168 3.73 3.878 5.03 1.71 1.34 3.796 2.18 5.923 2.473 1.126.168 2.293.168 3.42 0 .291-.042.583-.084.834-.126.208-.042.417-.125.667-.042.25.084.417.293.542.503.417.838.834 1.635 1.251 2.473.209.461.459.88.668 1.342.166.377.417.712.25 1.131-.209.503-.71.587-1.168.713-.542.125-1.126.252-1.668.335-1.043.126-2.044.21-3.086.252-1.085.041-2.17-.042-3.212-.21-1.126-.168-2.21-.42-3.295-.754-1.96-.629-3.795-1.593-5.463-2.85-1.668-1.3-3.128-2.851-4.254-4.654-1.126-1.802-2.002-3.856-2.461-5.952-.459-2.137-.584-4.4-.375-6.58.208-2.222.792-4.36 1.751-6.371.918-1.97 2.21-3.815 3.796-5.324 1.543-1.51 3.378-2.767 5.38-3.647 2.002-.922 4.17-1.425 6.34-1.593zm44.084 12.701c.292 0 .542.168.667.42l5.213 16.43 4.38-16.263c.083-.294.375-.503.709-.503h5.255c.417 0 .75.335.75.754 0 .084 0 .126-.041.21l-7.633 23.054c-.125.251-.375.42-.667.42h-4.963c-.292 0-.542-.169-.667-.42l-5.339-15.677-5.13 15.718c-.125.21-.375.378-.625.378h-4.88c-.292 0-.542-.168-.667-.46l-7.632-23.265c0-.419.333-.754.75-.754h5.422c.25.042.5.21.584.419l4.337 16.306 5.005-16.306c.125-.251.376-.461.668-.461h4.504zm10.01-124.24c5.13-.42 10.343-.084 15.347 1.048 4.713 1.047 9.26 2.85 13.43 5.365 3.879 2.347 7.424 5.323 10.385 8.76 3.211 3.731 5.88 8.048 7.674 12.701 2.002 5.03 2.96 10.48 3.086 15.886.125 5.072-.5 10.102-2.044 14.923-.75 2.305-1.668 4.569-2.752 6.748-.542 1.048-1.126 2.096-1.752 3.144-.584.964-1.543 1.97-1.335 3.144.084.503.376.964.626 1.383l4.921 9.64c.835 1.594 1.627 3.144 2.461 4.695.793 1.467-.292 3.102-1.877 3.144H108.29c-.71 0-1.502.084-2.127-.293-.876-.503-1.293-1.803-1.71-2.683l-8.508-16.934c-.209-.503-.25-1.048-.084-1.551.209-.629.668-.964 1.126-1.383 3.254-2.893 5.881-6.54 7.591-10.563 1.793-4.234 2.586-8.887 2.336-13.455-.292-5.114-1.877-10.102-4.63-14.42-2.294-3.646-5.422-6.748-9.05-9.096-4.004-2.598-8.592-4.107-13.346-4.568-5.255-.503-10.552.46-15.306 2.724-4.505 2.096-8.425 5.365-11.345 9.39-3.044 4.15-4.963 9.053-5.546 14.167-.584 5.156.166 10.48 2.21 15.258 2.044 4.694 5.255 8.844 9.3 11.946 4.088 3.144 9.01 5.197 14.097 5.868 2.711.335 5.422.335 8.133-.042.667-.084 1.335-.21 1.96-.335.542-.126 1.085-.252 1.627-.084.584.21 1 .629 1.293 1.174 1 1.97 1.96 3.94 2.96 5.91.543 1.09 1.085 2.138 1.627 3.228.417.838.918 1.634.584 2.64-.354 1.033-1.281 1.31-2.243 1.55l-.34.084-.17.043c-1.334.335-2.669.587-4.003.796-2.42.378-4.88.545-7.34.63-2.545.083-5.172-.169-7.675-.504-2.669-.377-5.296-1.006-7.882-1.844-4.671-1.551-9.134-3.857-13.054-6.833-4.004-3.06-7.424-6.79-10.135-11.066-2.752-4.359-4.754-9.18-5.88-14.21-1.126-5.113-1.418-10.478-.918-15.718.5-5.24 1.877-10.395 4.17-15.174 2.253-4.736 5.34-9.054 9.093-12.7 3.753-3.605 8.09-6.581 12.845-8.719 4.797-2.18 9.968-3.395 15.181-3.814zm24.69 131.617c1.084 1.3 1.626 2.892 1.626 4.863 0 2.096-.625 3.772-1.835 5.071-1.21 1.3-2.753 1.97-4.63 1.97-1.876 0-3.42-.67-4.629-1.97-1.084-1.173-1.71-2.682-1.793-4.527 0 0-.417-3.227 1.793-5.617 1.21-1.299 2.753-1.97 4.671-1.97 0 .042 2.878-.125 4.797 2.18zm-6.256-8.09c1.668 0 3.17.378 4.504 1.048 1.335.671 2.419 1.635 3.211 2.893l.084-2.6v-.041c.041-.378.333-.629.709-.629h4.921c.417 0 .75.336.75.755v22.97c0 .419-.333.754-.75.754h-4.921c-.334 0-.668-.293-.71-.629l-.083-2.472c-1.46 2.388-4.045 3.227-4.045 3.227-1.168.461-2.503.67-4.004.67-2.127 0-4.046-.544-5.756-1.592s-3.044-2.557-4.045-4.527c-.918-1.844-1.418-3.94-1.46-6.288v-.502c0-2.348.5-4.528 1.46-6.497.96-1.97 2.336-3.522 4.129-4.737 1.752-1.216 3.795-1.803 6.006-1.803zm32.322.042c2.836 0 5.047.922 6.548 2.683 1.501 1.802 2.252 4.36 2.252 7.713v14.084c0 .419-.334.754-.75.754h-5.214c-.334 0-.625-.21-.709-.503V137.07c0-3.815-1.46-5.7-4.337-5.7-1.585 0-2.836.502-3.712 1.592-.876 1.048-1.335 2.557-1.335 4.527v12.66c-.125.292-.375.502-.709.502h-5.213c-.417 0-.75-.335-.75-.754v-22.97c0-.42.333-.755.75-.755h4.963c.375 0 .667.251.709.629l.167 2.389c.667-1.216 1.668-2.138 2.92-2.809 1.25-.628 2.752-.964 4.42-.964z" transform="translate(-641 -144) translate(641 144)"/>
                </g>
            </g>
        </g>
    </svg>

    <svg id="qblack_typoblack" viewBox="0 0 157 154">
        <g fill="none" fill-rule="evenodd">
            <g fill="#0C0C0E">
                <g>
                    <path d="M144.533 119.675c.417 0 .709.293.75.67v5.91h6.84c.417 0 .75.336.75.713v4.108c0 .377-.291.67-.666.712h-6.924v9.012c0 1.677.292 2.893.876 3.647.584.713 1.543 1.09 2.92 1.09 1.21 0 2.294-.168 3.336-.587.042-.041.125-.041.167-.084.083-.041.125-.041.209-.041.375 0 .667.25.709.629l.5 4.065v.084c0 .042 0 .042-.042.126-.041.293-.208.545-.458.629-.668.293-1.418.545-2.336.754-1.168.251-2.419.377-3.67.377-3.003 0-5.255-.796-6.715-2.347-1.501-1.551-2.21-3.94-2.21-7.126v-10.228h-4.13c-.333-.042-.583-.335-.583-.712v-4.024c0-.42.333-.755.75-.755h4.004v-5.91c.042-.419.376-.712.751-.712zm-125.495-6.288c2.127-.167 4.338-.042 6.423.42 1.96.46 3.879 1.215 5.63 2.263 1.627 1.006 3.087 2.222 4.338 3.689 1.334 1.592 2.46 3.395 3.211 5.323.834 2.138 1.251 4.401 1.293 6.665.042 2.095-.25 4.233-.876 6.246-.333.963-.709 1.886-1.168 2.808-.25.46-.5.922-.75 1.34-.209.378-.626.797-.542 1.3.041.21.166.42.25.587l2.168 3.94c.334.67.71 1.3 1.043 1.97.334.587-.125 1.3-.792 1.3h-5.464c-.292 0-.625.042-.876-.126-.333-.21-.542-.754-.709-1.132l-3.545-7.084c-.083-.167-.125-.419-.041-.628.083-.252.25-.42.458-.587 1.335-1.216 2.461-2.767 3.17-4.443.792-1.76 1.126-3.689 1.001-5.617-.125-2.138-.792-4.234-1.96-6.036-.96-1.51-2.294-2.85-3.795-3.815-1.669-1.09-3.587-1.718-5.59-1.928-2.21-.21-4.42.168-6.422 1.132-1.877.88-3.545 2.264-4.754 3.94-1.293 1.719-2.086 3.773-2.336 5.91-.25 2.18.042 4.402.918 6.414.834 1.97 2.168 3.73 3.878 5.03 1.71 1.34 3.796 2.18 5.923 2.473 1.126.168 2.293.168 3.42 0 .291-.042.583-.084.834-.126.208-.042.417-.125.667-.042.25.084.417.293.542.503.417.838.834 1.635 1.251 2.473.209.461.459.88.668 1.342.166.377.417.712.25 1.131-.209.503-.71.587-1.168.713-.542.125-1.126.252-1.668.335-1.043.126-2.044.21-3.086.252-1.085.041-2.17-.042-3.212-.21-1.126-.168-2.21-.42-3.295-.754-1.96-.629-3.795-1.593-5.463-2.85-1.668-1.3-3.128-2.851-4.254-4.654-1.126-1.802-2.002-3.856-2.461-5.952-.459-2.137-.584-4.4-.375-6.58.208-2.222.792-4.36 1.751-6.371.918-1.97 2.21-3.815 3.796-5.324 1.543-1.51 3.378-2.767 5.38-3.647 2.002-.922 4.17-1.425 6.34-1.593zm44.084 12.701c.292 0 .542.168.667.42l5.213 16.43 4.38-16.263c.083-.294.375-.503.709-.503h5.255c.417 0 .75.335.75.754 0 .084 0 .126-.041.21l-7.633 23.054c-.125.251-.375.42-.667.42h-4.963c-.292 0-.542-.169-.667-.42l-5.339-15.677-5.13 15.718c-.125.21-.375.378-.625.378h-4.88c-.292 0-.542-.168-.667-.46l-7.632-23.265c0-.419.333-.754.75-.754h5.422c.25.042.5.21.584.419l4.337 16.306 5.005-16.306c.125-.251.376-.461.668-.461h4.504zm10.01-124.24c5.13-.42 10.343-.084 15.347 1.048 4.713 1.047 9.26 2.85 13.43 5.365 3.879 2.347 7.424 5.323 10.385 8.76 3.211 3.731 5.88 8.048 7.674 12.701 2.002 5.03 2.96 10.48 3.086 15.886.125 5.072-.5 10.102-2.044 14.923-.75 2.305-1.668 4.569-2.752 6.748-.542 1.048-1.126 2.096-1.752 3.144-.584.964-1.543 1.97-1.335 3.144.084.503.376.964.626 1.383l4.921 9.64c.835 1.594 1.627 3.144 2.461 4.695.793 1.467-.292 3.102-1.877 3.144H108.29c-.71 0-1.502.084-2.127-.293-.876-.503-1.293-1.803-1.71-2.683l-8.508-16.934c-.209-.503-.25-1.048-.084-1.551.209-.629.668-.964 1.126-1.383 3.254-2.893 5.881-6.54 7.591-10.563 1.793-4.234 2.586-8.887 2.336-13.455-.292-5.114-1.877-10.102-4.63-14.42-2.294-3.646-5.422-6.748-9.05-9.096-4.004-2.598-8.592-4.107-13.346-4.568-5.255-.503-10.552.46-15.306 2.724-4.505 2.096-8.425 5.365-11.345 9.39-3.044 4.15-4.963 9.053-5.546 14.167-.584 5.156.166 10.48 2.21 15.258 2.044 4.694 5.255 8.844 9.3 11.946 4.088 3.144 9.01 5.197 14.097 5.868 2.711.335 5.422.335 8.133-.042.667-.084 1.335-.21 1.96-.335.542-.126 1.085-.252 1.627-.084.584.21 1 .629 1.293 1.174 1 1.97 1.96 3.94 2.96 5.91.543 1.09 1.085 2.138 1.627 3.228.417.838.918 1.634.584 2.64-.354 1.033-1.281 1.31-2.243 1.55l-.34.084-.17.043c-1.334.335-2.669.587-4.003.796-2.42.378-4.88.545-7.34.63-2.545.083-5.172-.169-7.675-.504-2.669-.377-5.296-1.006-7.882-1.844-4.671-1.551-9.134-3.857-13.054-6.833-4.004-3.06-7.424-6.79-10.135-11.066-2.752-4.359-4.754-9.18-5.88-14.21-1.126-5.113-1.418-10.478-.918-15.718.5-5.24 1.877-10.395 4.17-15.174 2.253-4.736 5.34-9.054 9.093-12.7 3.753-3.605 8.09-6.581 12.845-8.719 4.797-2.18 9.968-3.395 15.181-3.814zm24.69 131.617c1.084 1.3 1.626 2.892 1.626 4.863 0 2.096-.625 3.772-1.835 5.071-1.21 1.3-2.753 1.97-4.63 1.97-1.876 0-3.42-.67-4.629-1.97-1.084-1.173-1.71-2.682-1.793-4.527 0 0-.417-3.227 1.793-5.617 1.21-1.299 2.753-1.97 4.671-1.97 0 .042 2.878-.125 4.797 2.18zm-6.256-8.09c1.668 0 3.17.378 4.504 1.048 1.335.671 2.419 1.635 3.211 2.893l.084-2.6v-.041c.041-.378.333-.629.709-.629h4.921c.417 0 .75.336.75.755v22.97c0 .419-.333.754-.75.754h-4.921c-.334 0-.668-.293-.71-.629l-.083-2.472c-1.46 2.388-4.045 3.227-4.045 3.227-1.168.461-2.503.67-4.004.67-2.127 0-4.046-.544-5.756-1.592s-3.044-2.557-4.045-4.527c-.918-1.844-1.418-3.94-1.46-6.288v-.502c0-2.348.5-4.528 1.46-6.497.96-1.97 2.336-3.522 4.129-4.737 1.752-1.216 3.795-1.803 6.006-1.803zm32.322.042c2.836 0 5.047.922 6.548 2.683 1.501 1.802 2.252 4.36 2.252 7.713v14.084c0 .419-.334.754-.75.754h-5.214c-.334 0-.625-.21-.709-.503V137.07c0-3.815-1.46-5.7-4.337-5.7-1.585 0-2.836.502-3.712 1.592-.876 1.048-1.335 2.557-1.335 4.527v12.66c-.125.292-.375.502-.709.502h-5.213c-.417 0-.75-.335-.75-.754v-22.97c0-.42.333-.755.75-.755h4.963c.375 0 .667.251.709.629l.167 2.389c.667-1.216 1.668-2.138 2.92-2.809 1.25-.628 2.752-.964 4.42-.964z" transform="translate(-641 -144) translate(641 144)"/>
                </g>
            </g>
        </g>
    </svg>

    <svg id="qcolor_typowhite" viewBox="0 0 157 154">
        <defs>
            <path id="lw5nhxnr1a" d="M97.821 133.706c1.085 1.282 1.627 2.853 1.627 4.798 0 2.067-.626 3.722-1.835 5.003-1.21 1.283-2.753 1.944-4.63 1.944-1.876 0-3.42-.661-4.629-1.944-1.084-1.158-1.71-2.646-1.793-4.466 0 0-.417-3.185 1.793-5.542 1.21-1.282 2.753-1.943 4.671-1.943 0 .04 2.878-.125 4.796 2.15zm46.712-13.606c.417 0 .709.29.75.661v5.832h6.84c.417 0 .75.33.75.703v4.053c0 .372-.291.661-.666.703h-6.924v8.891c0 1.654.292 2.854.876 3.598.584.703 1.543 1.076 2.92 1.076 1.21 0 2.293-.166 3.336-.58.042-.04.125-.04.167-.082.083-.041.125-.041.209-.041.375 0 .667.248.709.62l.5 4.012v.108c-.003.021-.01.037-.042.099-.041.289-.209.537-.458.62-.668.289-1.419.538-2.336.744-1.168.248-2.42.372-3.67.372-3.003 0-5.255-.785-6.715-2.316-1.501-1.53-2.21-3.887-2.21-7.03v-10.091h-4.13c-.333-.042-.583-.331-.583-.703v-3.97c0-.414.333-.745.75-.745h4.004v-5.831c.042-.414.376-.703.75-.703zm-125.495-6.204c2.127-.165 4.338-.041 6.423.414 1.96.455 3.879 1.199 5.63 2.233 1.627.992 3.086 2.192 4.338 3.64 1.334 1.57 2.46 3.35 3.211 5.252.834 2.109 1.251 4.342 1.293 6.575.042 2.068-.25 4.177-.876 6.163-.334.95-.709 1.86-1.168 2.77-.25.455-.5.91-.75 1.324-.209.372-.626.785-.543 1.282.042.207.167.414.25.579l2.17 3.887c.333.662.708 1.282 1.042 1.944.334.579-.125 1.282-.792 1.282h-5.464c-.292 0-.625.041-.876-.124-.333-.207-.542-.744-.709-1.117l-3.545-6.989c-.083-.165-.125-.413-.041-.62.083-.248.25-.414.458-.58 1.335-1.199 2.461-2.729 3.17-4.383.792-1.737 1.126-3.64 1.001-5.542-.125-2.109-.792-4.177-1.96-5.955-.96-1.489-2.294-2.812-3.796-3.764-1.668-1.075-3.586-1.695-5.588-1.902-2.21-.207-4.421.165-6.423 1.117-1.877.868-3.545 2.233-4.754 3.887-1.293 1.696-2.086 3.722-2.336 5.831-.25 2.15.042 4.343.918 6.328.834 1.944 2.168 3.68 3.878 4.963 1.71 1.323 3.795 2.15 5.923 2.44 1.126.166 2.293.166 3.42 0 .291-.041.583-.083.834-.124.208-.042.417-.124.667-.042.25.083.417.29.542.497.417.827.834 1.613 1.251 2.44.209.455.459.868.668 1.324.166.371.417.702.25 1.116-.209.496-.71.579-1.168.703-.542.124-1.126.248-1.668.33-1.043.125-2.044.207-3.087.249-1.084.041-2.168-.042-3.21-.207-1.127-.165-2.211-.414-3.296-.744-1.96-.62-3.795-1.572-5.463-2.813-1.669-1.282-3.128-2.812-4.254-4.59-1.126-1.779-2.002-3.805-2.461-5.873-.459-2.11-.584-4.342-.375-6.493.208-2.192.792-4.301 1.751-6.286.918-1.944 2.21-3.764 3.796-5.252 1.543-1.49 3.378-2.73 5.38-3.598 2.002-.91 4.17-1.407 6.34-1.572zm72.528 11.828c1.668 0 3.17.373 4.504 1.034 1.334.662 2.419 1.613 3.211 2.854l.084-2.565v-.04c.041-.373.333-.62.709-.62h4.921c.417 0 .75.33.75.743v22.664c0 .413-.333.744-.75.744h-4.921c-.334 0-.668-.29-.71-.62l-.083-2.44c-1.46 2.357-4.045 3.184-4.045 3.184-1.168.455-2.503.662-4.004.662-2.127 0-4.046-.538-5.756-1.571-1.71-1.034-3.044-2.524-4.045-4.467-.918-1.82-1.418-3.887-1.46-6.204v-.496c0-2.316.5-4.467 1.46-6.41.96-1.944 2.335-3.474 4.129-4.674 1.751-1.199 3.795-1.778 6.006-1.778zm32.322.042c2.836 0 5.046.909 6.548 2.646 1.501 1.778 2.252 4.301 2.252 7.61v13.896c0 .413-.334.744-.75.744h-5.214c-.334 0-.626-.207-.709-.496v-12.903c0-3.764-1.46-5.625-4.338-5.625-1.584 0-2.836.496-3.711 1.572-.876 1.034-1.335 2.523-1.335 4.466v12.49c-.125.29-.375.496-.709.496h-5.213c-.417 0-.751-.33-.751-.744v-22.664c0-.413.334-.744.75-.744h4.964c.375 0 .667.248.709.62l.167 2.358c.667-1.2 1.668-2.11 2.92-2.771 1.25-.62 2.752-.951 4.42-.951zm-60.766.661c.292 0 .542.166.667.414l5.213 16.212 4.38-16.047c.083-.29.375-.496.709-.496h5.255c.417 0 .75.33.75.744 0 .083 0 .124-.041.207l-7.633 22.746c-.125.248-.375.414-.667.414h-4.963c-.292 0-.542-.166-.667-.414l-5.339-15.467-5.13 15.508c-.125.207-.375.373-.625.373h-4.88c-.292 0-.542-.166-.667-.455l-7.632-22.953c0-.414.333-.745.75-.745h5.422c.25.042.5.207.584.414l4.337 16.088 5.005-16.088c.125-.248.376-.455.667-.455h4.505z"/>
        </defs>
        <g fill="none" fill-rule="evenodd">
            <g>
                <g transform="translate(-641 -144) translate(641 144)">
                    <use fill="#FFF" xlink:href="#lw5nhxnr1a"/>
                    <path fill="#AF27CC" d="M89.192 92.077c-1.343.33-2.703.592-4.07.8-2.478.373-4.981.53-7.485.635-2.592.108-5.241-.127-7.807-.487-2.729-.383-5.424-1-8.044-1.848-4.785-1.547-9.315-3.867-13.324-6.902-1.287-.973-2.518-2.016-3.686-3.123-2.54-2.405-4.785-5.114-6.668-8.066-2.81-4.412-4.872-9.295-6.013-14.396-1.162-5.197-1.379-10.9-.865-16.198l.01-.121c.498 7.528 3.027 14.76 7.174 20.566 6.672 9.342 17.314 15.703 29.49 16.668 1.068.086 2.15.13 3.24.13 4.964 0 9.716-.894 14.102-2.53.068.011.137.028.207.05.605.19 1.034.624 1.317 1.178 1.018 1.987 2.008 3.99 3.01 5.983.034.071.07.14.105.21.514 1.016 1.024 2.035 1.536 3.051.431.86.95 1.68.591 2.684-.44 1.235-1.693 1.438-2.82 1.716z"/>
                    <path fill="#FF3B4A" d="M31.255 42.35c0 4.428 3.526 8.03 7.925 8.164.085.003.172.005.256.005 4.005 0 7.34-2.873 8.044-6.67-.016.117-.03.233-.043.35-.605 5.235.157 10.606 2.243 15.452 1.29 2.992 3.065 5.76 5.228 8.187 1.285 1.438 2.702 2.755 4.238 3.926 4.171 3.18 9.165 5.261 14.372 5.947 2.748.362 5.541.355 8.284-.03.667-.093 1.326-.207 1.983-.344.498-.105.966-.226 1.46-.132-4.385 1.636-9.137 2.53-14.1 2.53-1.091 0-2.173-.044-3.24-.13-12.177-.965-22.819-7.326-29.491-16.668-4.147-5.806-6.676-13.038-7.173-20.566"/>
                    <path fill="#FFDA12" d="M77.455 1.674c-1.409.003-2.816.06-4.217.17-5.327.414-10.58 1.672-15.459 3.857-4.824 2.162-9.285 5.188-13.101 8.84-3.839 3.678-6.976 8.066-9.274 12.853-2.107 4.384-3.473 9.096-4.092 13.913l.009.002c-.044.342-.066.688-.066 1.042 0 4.427 3.526 8.03 7.925 8.163.085.003.172.005.256.005 4.005 0 7.34-2.873 8.045-6.67v-.008c.031-.24.063-.479.1-.716 0-.004 0-.009.002-.011l.07-.44c.213-4.21 1.071-8.248 2.481-12.017 5.662-15.131 20.187-25.9 37.214-25.9.812 0 1.617.025 2.416.075 2.739.165 5.4.609 7.96 1.304h.002l.01.002c.551.091 1.083.24 1.59.435-3.323-1.636-6.842-2.868-10.457-3.675-2.113-.472-4.258-.802-6.417-1-1.597-.148-3.202-.221-4.805-.224h-.192z"/>
                    <path fill="#87C966" d="M104.538 14.186c0 1.069-.206 2.087-.577 3.023-1.205 3.012-4.153 5.14-7.6 5.14-1.41 0-2.738-.357-3.897-.984l-.002.005c-3.766-2.12-7.928-3.381-12.244-3.798-5.342-.515-10.762.492-15.604 2.773-2.355 1.107-4.555 2.522-6.545 4.19-1.871 1.567-3.553 3.358-5 5.332-2.77 3.78-4.635 8.19-5.415 12.807.212-4.21 1.07-8.248 2.48-12.017 5.662-15.131 20.187-25.9 37.214-25.9.812 0 1.617.025 2.416.075 2.739.165 5.4.609 7.96 1.304h.002l.01.002c.593.16 1.184.335 1.766.524.44.217.88.442 1.314.677.007.002.012.007.016.01 2.232 1.457 3.706 3.975 3.706 6.837"/>
                    <path fill="#65CEE7" d="M122.08 61.301c-.744 2.347-1.682 4.634-2.798 6.829-.23.45-.468.9-.716 1.344-.343.627-.703 1.246-1.077 1.855-.4.647-1.058 1.418-1.323 2.161l.036-.113c.232-.613.45-1.232.652-1.86 1.25-3.884 1.929-8.029 1.929-12.33 0-8.923-2.91-17.167-7.837-23.836-4.541-6.152-10.796-10.964-18.062-13.737-.14-.085-.281-.164-.423-.244l.003-.004c1.159.626 2.487.984 3.897.984 3.446 0 6.395-2.128 7.6-5.14.371-.937.577-1.956.577-3.024 0-2.862-1.474-5.38-3.706-6.838.59.319 1.173.65 1.748.994 3.973 2.376 7.563 5.37 10.596 8.865 3.306 3.812 5.994 8.18 7.843 12.874 2.017 5.117 3.01 10.613 3.138 16.102.12 5.13-.525 10.221-2.077 15.118"/>
                    <path fill="#4BA2EA" d="M105.28 90.446c.442.879.865 2.198 1.764 2.72.65.376 1.435.29 2.156.29l13.284-.003c1.595-.032 2.715-1.71 1.933-3.17-.84-1.578-1.68-3.157-2.517-4.736l-5.13-9.64c-.238-.443-.553-.912-.639-1.413 0 0-.187-.294.07-1.117.233-.613.45-1.233.653-1.859 1.25-3.885 1.929-8.03 1.929-12.332 0-8.922-2.91-17.166-7.837-23.835-4.541-6.152-10.796-10.964-18.062-13.737.321.187.639.38.953.58 3.702 2.361 6.876 5.524 9.245 9.218 2.798 4.36 4.434 9.419 4.726 14.591.26 4.644-.554 9.34-2.389 13.617-.648 1.512-1.422 2.968-2.31 4.351-1.51 2.359-3.347 4.507-5.444 6.369-.475.422-.945.768-1.144 1.399-.162.512-.139 1.075.078 1.567l8.68 17.14z"/>
                </g>
            </g>
        </g>
    </svg>

    <svg id="qcolor_typoblack" viewBox="0 0 157 154">
        <defs>
            <path id="t883nr62ma" d="M98.127 133.706c1.088 1.282 1.632 2.853 1.632 4.798 0 2.067-.628 3.722-1.841 5.003-1.213 1.283-2.761 1.944-4.644 1.944s-3.43-.661-4.644-1.944c-1.088-1.158-1.715-2.646-1.799-4.466 0 0-.418-3.185 1.8-5.542 1.213-1.282 2.76-1.943 4.685-1.943 0 .04 2.887-.125 4.811 2.15zm46.857-13.606c.419 0 .712.29.753.661v5.832h6.862c.418 0 .753.33.753.703v4.053c0 .372-.293.661-.67.703h-6.945v8.891c0 1.654.293 2.854.879 3.598.586.703 1.548 1.076 2.929 1.076 1.213 0 2.3-.166 3.346-.58.042-.04.126-.04.168-.082.084-.041.125-.041.209-.041.377 0 .67.248.711.62l.502 4.012v.108c-.002.021-.01.037-.042.099-.041.289-.21.537-.46.62-.67.289-1.423.538-2.343.744-1.171.248-2.427.372-3.682.372-3.011 0-5.27-.785-6.735-2.316-1.506-1.53-2.217-3.887-2.217-7.03v-10.091h-4.142c-.335-.042-.586-.331-.586-.703v-3.97c0-.414.335-.745.753-.745h4.017v-5.831c.041-.414.376-.703.752-.703zm-125.886-6.204c2.133-.165 4.35-.041 6.442.414 1.967.455 3.891 1.199 5.648 2.233 1.632.992 3.096 2.192 4.351 3.64 1.34 1.57 2.469 3.35 3.222 5.252.837 2.109 1.255 4.342 1.297 6.575.042 2.068-.251 4.177-.879 6.163-.334.95-.711 1.86-1.171 2.77-.251.455-.502.91-.753 1.324-.21.372-.628.785-.544 1.282.042.207.167.414.25.579l2.176 3.887c.335.662.712 1.282 1.046 1.944.335.579-.125 1.282-.795 1.282h-5.48c-.293 0-.628.041-.879-.124-.334-.207-.544-.744-.711-1.117l-3.556-6.989c-.084-.165-.126-.413-.042-.62.084-.248.251-.414.46-.58 1.339-1.199 2.469-2.729 3.18-4.383.795-1.737 1.13-3.64 1.004-5.542-.126-2.109-.795-4.177-1.966-5.955-.963-1.489-2.301-2.812-3.808-3.764-1.673-1.075-3.598-1.695-5.606-1.902-2.217-.207-4.434.165-6.443 1.117-1.882.868-3.556 2.233-4.769 3.887-1.297 1.696-2.092 3.722-2.343 5.831-.25 2.15.042 4.343.92 6.328.837 1.944 2.176 3.68 3.891 4.963 1.716 1.323 3.808 2.15 5.941 2.44 1.13.166 2.301.166 3.43 0 .294-.041.587-.083.838-.124.209-.042.418-.124.669-.042.251.083.418.29.544.497.418.827.837 1.613 1.255 2.44.21.455.46.868.67 1.324.167.371.418.702.25 1.116-.209.496-.71.579-1.171.703-.544.124-1.13.248-1.674.33-1.045.125-2.05.207-3.095.249-1.088.041-2.176-.042-3.222-.207-1.13-.165-2.217-.414-3.305-.744-1.966-.62-3.807-1.572-5.48-2.813-1.674-1.282-3.138-2.812-4.268-4.59-1.13-1.779-2.008-3.805-2.468-5.873-.46-2.11-.586-4.342-.377-6.493.21-2.192.795-4.301 1.757-6.286.92-1.944 2.218-3.764 3.807-5.252 1.548-1.49 3.39-2.73 5.397-3.598 2.009-.91 4.184-1.407 6.36-1.572zm72.754 11.828c1.673 0 3.18.373 4.518 1.034 1.339.662 2.427 1.613 3.221 2.854l.084-2.565v-.04c.042-.373.335-.62.711-.62h4.937c.418 0 .753.33.753.743v22.664c0 .413-.335.744-.753.744h-4.937c-.334 0-.669-.29-.71-.62l-.085-2.44c-1.464 2.357-4.058 3.184-4.058 3.184-1.171.455-2.51.662-4.016.662-2.134 0-4.058-.538-5.773-1.571-1.716-1.034-3.055-2.524-4.059-4.467-.92-1.82-1.422-3.887-1.464-6.204v-.496c0-2.316.502-4.467 1.464-6.41.963-1.944 2.343-3.474 4.142-4.674 1.757-1.199 3.807-1.778 6.025-1.778zm32.423.042c2.845 0 5.062.909 6.568 2.646 1.507 1.778 2.26 4.301 2.26 7.61v13.896c0 .413-.335.744-.753.744h-5.23c-.335 0-.628-.207-.711-.496v-12.903c0-3.764-1.465-5.625-4.351-5.625-1.59 0-2.845.496-3.724 1.572-.878 1.034-1.338 2.523-1.338 4.466v12.49c-.126.29-.377.496-.712.496h-5.23c-.418 0-.752-.33-.752-.744v-22.664c0-.413.334-.744.753-.744h4.978c.377 0 .67.248.712.62l.167 2.358c.67-1.2 1.673-2.11 2.928-2.771 1.256-.62 2.762-.951 4.435-.951zm-60.956.661c.293 0 .544.166.67.414l5.229 16.212 4.393-16.047c.084-.29.376-.496.711-.496h5.271c.419 0 .754.33.754.744 0 .083 0 .124-.042.207l-7.656 22.746c-.126.248-.377.414-.67.414h-4.978c-.293 0-.544-.166-.67-.414l-5.355-15.467-5.146 15.508c-.125.207-.376.373-.627.373h-4.895c-.293 0-.544-.166-.67-.455l-7.656-22.953c0-.414.335-.745.753-.745h5.44c.25.042.501.207.585.414l4.35 16.088 5.021-16.088c.126-.248.377-.455.67-.455h4.518z"/>
        </defs>
        <g fill="none" fill-rule="evenodd">
            <g>
                <g transform="translate(-1128 -334) translate(1128 334)">
                    <use fill="#0C0C0E" xlink:href="#t883nr62ma"/>
                    <path fill="#AF27CC" d="M89.47 92.077c-1.346.33-2.71.592-4.082.8-2.486.373-4.997.53-7.508.635-2.6.108-5.258-.127-7.831-.487-2.738-.383-5.442-1-8.07-1.848-4.8-1.547-9.344-3.867-13.366-6.902-1.29-.973-2.525-2.016-3.697-3.123-2.548-2.405-4.8-5.114-6.689-8.066-2.818-4.412-4.887-9.295-6.032-14.396-1.165-5.197-1.383-10.9-.868-16.198.005-.041.007-.08.011-.121.5 7.528 3.036 14.76 7.196 20.566 6.693 9.342 17.368 15.703 29.583 16.668 1.07.086 2.156.13 3.25.13 4.98 0 9.745-.894 14.145-2.53.069.011.137.028.208.05.607.19 1.037.624 1.321 1.178 1.021 1.987 2.015 3.99 3.02 5.983.034.071.07.14.105.21.515 1.016 1.028 2.035 1.54 3.051.433.86.953 1.68.594 2.684-.442 1.235-1.699 1.438-2.83 1.716z"/>
                    <path fill="#FF3B4A" d="M31.353 42.35c0 4.428 3.537 8.03 7.95 8.164.084.003.172.005.256.005 4.018 0 7.362-2.873 8.07-6.67-.017.117-.03.233-.044.35-.606 5.235.158 10.606 2.25 15.452 1.294 2.992 3.075 5.76 5.245 8.187 1.289 1.438 2.71 2.755 4.25 3.926 4.185 3.18 9.194 5.261 14.418 5.947 2.756.362 5.558.355 8.31-.03.668-.093 1.33-.207 1.99-.344.498-.105.967-.226 1.464-.132-4.4 1.636-9.166 2.53-14.145 2.53-1.094 0-2.18-.044-3.25-.13-12.215-.965-22.89-7.326-29.583-16.668-4.16-5.806-6.696-13.038-7.196-20.566"/>
                    <path fill="#FFDA12" d="M77.697 1.674c-1.413.003-2.825.06-4.23.17-5.344.414-10.613 1.672-15.507 3.857-4.84 2.162-9.315 5.188-13.142 8.84-3.85 3.678-6.999 8.066-9.304 12.853-2.113 4.384-3.484 9.096-4.104 13.913l.009.002c-.044.342-.066.688-.066 1.042 0 4.427 3.536 8.03 7.95 8.163.084.003.172.005.256.005 4.018 0 7.362-2.873 8.07-6.67v-.008c.032-.24.064-.479.1-.716 0-.004 0-.009.003-.011.022-.146.045-.294.07-.44.214-4.21 1.074-8.248 2.489-12.017 5.68-15.131 20.25-25.9 37.33-25.9.814 0 1.622.025 2.424.075 2.747.165 5.416.609 7.984 1.304h.003l.009.002c.554.091 1.087.24 1.595.435-3.333-1.636-6.863-2.868-10.489-3.675-2.12-.472-4.272-.802-6.437-1-1.603-.148-3.212-.221-4.82-.224h-.193z"/>
                    <path fill="#87C966" d="M104.865 14.186c0 1.069-.207 2.087-.58 3.023-1.208 3.012-4.166 5.14-7.622 5.14-1.415 0-2.748-.357-3.91-.984l-.002.005c-3.778-2.12-7.953-3.381-12.282-3.798-5.359-.515-10.796.492-15.653 2.773-2.363 1.107-4.57 2.522-6.565 4.19-1.878 1.567-3.565 3.358-5.016 5.332-2.78 3.78-4.65 8.19-5.432 12.807.213-4.21 1.073-8.248 2.488-12.017 5.68-15.131 20.25-25.9 37.33-25.9.814 0 1.622.025 2.423.075 2.748.165 5.417.609 7.985 1.304h.003l.009.002c.595.16 1.188.335 1.772.524.441.217.883.442 1.318.677.007.002.012.007.016.01 2.239 1.457 3.718 3.975 3.718 6.837"/>
                    <path fill="#65CEE7" d="M122.461 61.301c-.746 2.347-1.687 4.634-2.806 6.829-.231.45-.47.9-.719 1.344-.343.627-.705 1.246-1.08 1.855-.4.647-1.06 1.418-1.327 2.161l.036-.113c.233-.613.45-1.232.654-1.86 1.255-3.884 1.935-8.029 1.935-12.33 0-8.923-2.919-17.167-7.861-23.836-4.556-6.152-10.83-10.964-18.12-13.737-.139-.085-.28-.164-.423-.244l.003-.004c1.162.626 2.495.984 3.91.984 3.456 0 6.414-2.128 7.623-5.14.372-.937.579-1.956.579-3.024 0-2.862-1.479-5.38-3.718-6.838.593.319 1.177.65 1.754.994 3.985 2.376 7.586 5.37 10.628 8.865 3.317 3.812 6.014 8.18 7.868 12.874 2.024 5.117 3.02 10.613 3.148 16.102.121 5.13-.527 10.221-2.084 15.118"/>
                    <path fill="#4BA2EA" d="M105.609 90.446c.444.879.867 2.198 1.77 2.72.652.376 1.439.29 2.163.29l13.325-.003c1.6-.032 2.724-1.71 1.939-3.17-.843-1.578-1.685-3.157-2.525-4.736l-5.146-9.64c-.239-.443-.554-.912-.641-1.413 0 0-.188-.294.07-1.117.234-.613.452-1.233.655-1.859 1.255-3.885 1.935-8.03 1.935-12.332 0-8.922-2.919-17.166-7.861-23.835-4.556-6.152-10.83-10.964-18.12-13.737.324.187.642.38.958.58 3.713 2.361 6.897 5.524 9.273 9.218 2.807 4.36 4.448 9.419 4.741 14.591.261 4.644-.556 9.34-2.397 13.617-.65 1.512-1.426 2.968-2.316 4.351-1.516 2.359-3.359 4.507-5.462 6.369-.476.422-.948.768-1.147 1.399-.162.512-.14 1.075.078 1.567l8.708 17.14z"/>
                </g>
            </g>
        </g>
    </svg>
</svg>
