<svg xmlns="http://www.w3.org/2000/svg" xmlns:xlink="http://www.w3.org/1999/xlink"  viewBox="0 0 157 154">
    <defs>
        <path id="text" d="M97.821 133.706c1.085 1.282 1.627 2.853 1.627 4.798 0 2.067-.626 3.722-1.835 5.003-1.21 1.283-2.753 1.944-4.63 1.944-1.876 0-3.42-.661-4.629-1.944-1.084-1.158-1.71-2.646-1.793-4.466 0 0-.417-3.185 1.793-5.542 1.21-1.282 2.753-1.943 4.671-1.943 0 .04 2.878-.125 4.796 2.15zm46.712-13.606c.417 0 .709.29.75.661v5.832h6.84c.417 0 .75.33.75.703v4.053c0 .372-.291.661-.666.703h-6.924v8.891c0 1.654.292 2.854.876 3.598.584.703 1.543 1.076 2.92 1.076 1.21 0 2.293-.166 3.336-.58.042-.04.125-.04.167-.082.083-.041.125-.041.209-.041.375 0 .667.248.709.62l.5 4.012v.108c-.003.021-.01.037-.042.099-.041.289-.209.537-.458.62-.668.289-1.419.538-2.336.744-1.168.248-2.42.372-3.67.372-3.003 0-5.255-.785-6.715-2.316-1.501-1.53-2.21-3.887-2.21-7.03v-10.091h-4.13c-.333-.042-.583-.331-.583-.703v-3.97c0-.414.333-.745.75-.745h4.004v-5.831c.042-.414.376-.703.75-.703zm-125.495-6.204c2.127-.165 4.338-.041 6.423.414 1.96.455 3.879 1.199 5.63 2.233 1.627.992 3.086 2.192 4.338 3.64 1.334 1.57 2.46 3.35 3.211 5.252.834 2.109 1.251 4.342 1.293 6.575.042 2.068-.25 4.177-.876 6.163-.334.95-.709 1.86-1.168 2.77-.25.455-.5.91-.75 1.324-.209.372-.626.785-.543 1.282.042.207.167.414.25.579l2.17 3.887c.333.662.708 1.282 1.042 1.944.334.579-.125 1.282-.792 1.282h-5.464c-.292 0-.625.041-.876-.124-.333-.207-.542-.744-.709-1.117l-3.545-6.989c-.083-.165-.125-.413-.041-.62.083-.248.25-.414.458-.58 1.335-1.199 2.461-2.729 3.17-4.383.792-1.737 1.126-3.64 1.001-5.542-.125-2.109-.792-4.177-1.96-5.955-.96-1.489-2.294-2.812-3.796-3.764-1.668-1.075-3.586-1.695-5.588-1.902-2.21-.207-4.421.165-6.423 1.117-1.877.868-3.545 2.233-4.754 3.887-1.293 1.696-2.086 3.722-2.336 5.831-.25 2.15.042 4.343.918 6.328.834 1.944 2.168 3.68 3.878 4.963 1.71 1.323 3.795 2.15 5.923 2.44 1.126.166 2.293.166 3.42 0 .291-.041.583-.083.834-.124.208-.042.417-.124.667-.042.25.083.417.29.542.497.417.827.834 1.613 1.251 2.44.209.455.459.868.668 1.324.166.371.417.702.25 1.116-.209.496-.71.579-1.168.703-.542.124-1.126.248-1.668.33-1.043.125-2.044.207-3.087.249-1.084.041-2.168-.042-3.21-.207-1.127-.165-2.211-.414-3.296-.744-1.96-.62-3.795-1.572-5.463-2.813-1.669-1.282-3.128-2.812-4.254-4.59-1.126-1.779-2.002-3.805-2.461-5.873-.459-2.11-.584-4.342-.375-6.493.208-2.192.792-4.301 1.751-6.286.918-1.944 2.21-3.764 3.796-5.252 1.543-1.49 3.378-2.73 5.38-3.598 2.002-.91 4.17-1.407 6.34-1.572zm72.528 11.828c1.668 0 3.17.373 4.504 1.034 1.334.662 2.419 1.613 3.211 2.854l.084-2.565v-.04c.041-.373.333-.62.709-.62h4.921c.417 0 .75.33.75.743v22.664c0 .413-.333.744-.75.744h-4.921c-.334 0-.668-.29-.71-.62l-.083-2.44c-1.46 2.357-4.045 3.184-4.045 3.184-1.168.455-2.503.662-4.004.662-2.127 0-4.046-.538-5.756-1.571-1.71-1.034-3.044-2.524-4.045-4.467-.918-1.82-1.418-3.887-1.46-6.204v-.496c0-2.316.5-4.467 1.46-6.41.96-1.944 2.335-3.474 4.129-4.674 1.751-1.199 3.795-1.778 6.006-1.778zm32.322.042c2.836 0 5.046.909 6.548 2.646 1.501 1.778 2.252 4.301 2.252 7.61v13.896c0 .413-.334.744-.75.744h-5.214c-.334 0-.626-.207-.709-.496v-12.903c0-3.764-1.46-5.625-4.338-5.625-1.584 0-2.836.496-3.711 1.572-.876 1.034-1.335 2.523-1.335 4.466v12.49c-.125.29-.375.496-.709.496h-5.213c-.417 0-.751-.33-.751-.744v-22.664c0-.413.334-.744.75-.744h4.964c.375 0 .667.248.709.62l.167 2.358c.667-1.2 1.668-2.11 2.92-2.771 1.25-.62 2.752-.951 4.42-.951zm-60.766.661c.292 0 .542.166.667.414l5.213 16.212 4.38-16.047c.083-.29.375-.496.709-.496h5.255c.417 0 .75.33.75.744 0 .083 0 .124-.041.207l-7.633 22.746c-.125.248-.375.414-.667.414h-4.963c-.292 0-.542-.166-.667-.414l-5.339-15.467-5.13 15.508c-.125.207-.375.373-.625.373h-4.88c-.292 0-.542-.166-.667-.455l-7.632-22.953c0-.414.333-.745.75-.745h5.422c.25.042.5.207.584.414l4.337 16.088 5.005-16.088c.125-.248.376-.455.667-.455h4.505z"/>
    </defs>
    <g fill="none" fill-rule="evenodd">
        <use fill="var(--logo-qwant-color, #0C0C0E)" xlink:href="#text"/>
        <path fill="#AF27CC" d="M89.192 92.077c-1.343.33-2.703.592-4.07.8-2.478.373-4.981.53-7.485.635-2.592.108-5.241-.127-7.807-.487-2.729-.383-5.424-1-8.044-1.848-4.785-1.547-9.315-3.867-13.324-6.902-1.287-.973-2.518-2.016-3.686-3.123-2.54-2.405-4.785-5.114-6.668-8.066-2.81-4.412-4.872-9.295-6.013-14.396-1.162-5.197-1.379-10.9-.865-16.198l.01-.121c.498 7.528 3.027 14.76 7.174 20.566 6.672 9.342 17.314 15.703 29.49 16.668 1.068.086 2.15.13 3.24.13 4.964 0 9.716-.894 14.102-2.53.068.011.137.028.207.05.605.19 1.034.624 1.317 1.178 1.018 1.987 2.008 3.99 3.01 5.983.034.071.07.14.105.21.514 1.016 1.024 2.035 1.536 3.051.431.86.95 1.68.591 2.684-.44 1.235-1.693 1.438-2.82 1.716z"/>
        <path fill="#FF3B4A" d="M31.255 42.35c0 4.428 3.526 8.03 7.925 8.164.085.003.172.005.256.005 4.005 0 7.34-2.873 8.044-6.67-.016.117-.03.233-.043.35-.605 5.235.157 10.606 2.243 15.452 1.29 2.992 3.065 5.76 5.228 8.187 1.285 1.438 2.702 2.755 4.238 3.926 4.171 3.18 9.165 5.261 14.372 5.947 2.748.362 5.541.355 8.284-.03.667-.093 1.326-.207 1.983-.344.498-.105.966-.226 1.46-.132-4.385 1.636-9.137 2.53-14.1 2.53-1.091 0-2.173-.044-3.24-.13-12.177-.965-22.819-7.326-29.491-16.668-4.147-5.806-6.676-13.038-7.173-20.566"/>
        <path fill="#FFDA12" d="M77.455 1.674c-1.409.003-2.816.06-4.217.17-5.327.414-10.58 1.672-15.459 3.857-4.824 2.162-9.285 5.188-13.101 8.84-3.839 3.678-6.976 8.066-9.274 12.853-2.107 4.384-3.473 9.096-4.092 13.913l.009.002c-.044.342-.066.688-.066 1.042 0 4.427 3.526 8.03 7.925 8.163.085.003.172.005.256.005 4.005 0 7.34-2.873 8.045-6.67v-.008c.031-.24.063-.479.1-.716 0-.004 0-.009.002-.011l.07-.44c.213-4.21 1.071-8.248 2.481-12.017 5.662-15.131 20.187-25.9 37.214-25.9.812 0 1.617.025 2.416.075 2.739.165 5.4.609 7.96 1.304h.002l.01.002c.551.091 1.083.24 1.59.435-3.323-1.636-6.842-2.868-10.457-3.675-2.113-.472-4.258-.802-6.417-1-1.597-.148-3.202-.221-4.805-.224h-.192z"/>
        <path fill="#87C966" d="M104.538 14.186c0 1.069-.206 2.087-.577 3.023-1.205 3.012-4.153 5.14-7.6 5.14-1.41 0-2.738-.357-3.897-.984l-.002.005c-3.766-2.12-7.928-3.381-12.244-3.798-5.342-.515-10.762.492-15.604 2.773-2.355 1.107-4.555 2.522-6.545 4.19-1.871 1.567-3.553 3.358-5 5.332-2.77 3.78-4.635 8.19-5.415 12.807.212-4.21 1.07-8.248 2.48-12.017 5.662-15.131 20.187-25.9 37.214-25.9.812 0 1.617.025 2.416.075 2.739.165 5.4.609 7.96 1.304h.002l.01.002c.593.16 1.184.335 1.766.524.44.217.88.442 1.314.677.007.002.012.007.016.01 2.232 1.457 3.706 3.975 3.706 6.837"/>
        <path fill="#65CEE7" d="M122.08 61.301c-.744 2.347-1.682 4.634-2.798 6.829-.23.45-.468.9-.716 1.344-.343.627-.703 1.246-1.077 1.855-.4.647-1.058 1.418-1.323 2.161l.036-.113c.232-.613.45-1.232.652-1.86 1.25-3.884 1.929-8.029 1.929-12.33 0-8.923-2.91-17.167-7.837-23.836-4.541-6.152-10.796-10.964-18.062-13.737-.14-.085-.281-.164-.423-.244l.003-.004c1.159.626 2.487.984 3.897.984 3.446 0 6.395-2.128 7.6-5.14.371-.937.577-1.956.577-3.024 0-2.862-1.474-5.38-3.706-6.838.59.319 1.173.65 1.748.994 3.973 2.376 7.563 5.37 10.596 8.865 3.306 3.812 5.994 8.18 7.843 12.874 2.017 5.117 3.01 10.613 3.138 16.102.12 5.13-.525 10.221-2.077 15.118"/>
        <path fill="#4BA2EA" d="M105.28 90.446c.442.879.865 2.198 1.764 2.72.65.376 1.435.29 2.156.29l13.284-.003c1.595-.032 2.715-1.71 1.933-3.17-.84-1.578-1.68-3.157-2.517-4.736l-5.13-9.64c-.238-.443-.553-.912-.639-1.413 0 0-.187-.294.07-1.117.233-.613.45-1.233.653-1.859 1.25-3.885 1.929-8.03 1.929-12.332 0-8.922-2.91-17.166-7.837-23.835-4.541-6.152-10.796-10.964-18.062-13.737.321.187.639.38.953.58 3.702 2.361 6.876 5.524 9.245 9.218 2.798 4.36 4.434 9.419 4.726 14.591.26 4.644-.554 9.34-2.389 13.617-.648 1.512-1.422 2.968-2.31 4.351-1.51 2.359-3.347 4.507-5.444 6.369-.475.422-.945.768-1.144 1.399-.162.512-.139 1.075.078 1.567l8.68 17.14z"/>
    </g>
</svg>
