<svg width="48" height="48" viewBox="0 0 48 48" xmlns="http://www.w3.org/2000/svg">
    <g fill="none" fill-rule="evenodd">
        <path d="M6 0h36a6 6 0 0 1 6 6v36a6 6 0 0 1-6 6H6a6 6 0 0 1-6-6V6a6 6 0 0 1 6-6z" fill="#57C78F"/>
        <path d="M39.072 36.475H24.16l-.21.003 1.968 6.272h15.124l-1.969-6.275zm-9.612-12.78-5.51 5.51-5.511-5.51c-3.038-3.04-3.039-7.983 0-11.022a7.743 7.743 0 0 1 5.51-2.282c2.082 0 4.04.81 5.511 2.282 3.039 3.039 3.039 7.983 0 11.022m7.423-5.511a12.85 12.85 0 0 0-3.788-9.146A12.85 12.85 0 0 0 23.95 5.25a12.85 12.85 0 0 0-9.146 3.788 12.85 12.85 0 0 0-3.788 9.146 12.85 12.85 0 0 0 3.788 9.146l9.146 9.145 9.145-9.145a12.85 12.85 0 0 0 3.788-9.146" fill="#050506"/>
    </g>
</svg>
