<svg viewBox="0 0 160 48" xmlns="http://www.w3.org/2000/svg">
    <g fill="#050506" fill-rule="evenodd">
        <path d="M20.16 39.775c10.843-.146 19.618-9.01 19.618-19.886C39.778 8.922 30.856 0 19.89 0 8.922 0 0 8.922 0 19.889c0 10.966 8.921 19.888 19.887 19.89L22.466 48H42.29l-2.58-8.225H20.16zM6.729 19.889c0-7.257 5.904-13.16 13.161-13.16s13.161 5.903 13.161 13.16c0 7.257-5.904 13.16-13.16 13.16-7.258 0-13.162-5.903-13.162-13.16zM74.088 9.78l-5.113 18.607h-.201c-.019-.088-.05-.22-.096-.416l-4.343-18.19H57.66l-4.41 18.606h-.08a197.28 197.28 0 0 1-.07-.277l-1.892-7.398L48.266 9.78h-7.342l9.172 29.732h6.174l3.226-12.126c.506-1.966 1.29-5.136 1.466-5.96.063-.294.096-.482.108-.607h.065c.288 1.827 1.038 5.983 1.476 7.735l2.726 10.958h6.34l9.809-29.732h-7.398zM104.478 13.592a14.806 14.806 0 0 0-9.782-3.674c-8.165 0-14.807 6.596-14.807 14.703s6.642 14.703 14.807 14.703c3.746 0 7.172-1.388 9.782-3.674v3.881h6.729V9.781h-6.729v3.811zm-4.058 16.657a8.078 8.078 0 0 1-5.724 2.347 8.078 8.078 0 0 1-5.723-2.347 7.873 7.873 0 0 1-2.356-5.628c0-2.124.837-4.123 2.356-5.628a8.077 8.077 0 0 1 5.723-2.347c2.164 0 4.197.834 5.724 2.347a7.872 7.872 0 0 1 2.355 5.628 7.873 7.873 0 0 1-2.355 5.628zM128.076 10.084c-2.376 0-4.569.591-6.462 1.65V9.787h-6.85v13.47c-.017.303-.026.608-.026.917V39.53h6.876V23.443c.313-4.465 3.495-6.508 6.462-6.508 3.86 0 6.661 3.044 6.661 7.239V39.53h6.85V24.174c0-3.757-1.319-7.26-3.715-9.862-2.512-2.726-5.99-4.228-9.796-4.228M146.41 0v9.801h-3.45v6.007h3.45v23.723h6.897V15.808h6.646V9.801h-6.59V0z"/>
    </g>
</svg>
