<svg width="48" height="48" xmlns="http://www.w3.org/2000/svg"><g fill="none" fill-rule="evenodd"><path d="M8 0h32a8 8 0 0 1 8 8v32a8 8 0 0 1-8 8H8a8 8 0 0 1-8-8V8a8 8 0 0 1 8-8z" fill="#5C97FF"/><path d="M24.188 36.324c8.47-.114 15.326-7.039 15.326-15.536 0-8.568-6.97-15.538-15.538-15.538-8.568 0-15.538 6.97-15.538 15.538 0 8.568 6.97 15.538 15.536 15.539l2.015 6.423h15.488l-2.015-6.426H24.188zM13.694 20.788c0-5.67 4.612-10.282 10.282-10.282s10.282 4.613 10.282 10.282c0 5.67-4.612 10.282-10.282 10.282s-10.282-4.612-10.282-10.282z" fill="#050506"/></g></svg>